<?xml version="1.0" encoding="utf-8" ?>
<svg baseProfile="tiny" height="1024" version="1.2" viewBox="0 0 3386 3658" width="947" xmlns="http://www.w3.org/2000/svg" xmlns:ev="http://www.w3.org/2001/xml-events" xmlns:xlink="http://www.w3.org/1999/xlink"><defs /><line stroke="#333" stroke-width="10" x1="861" x2="1117" y1="1733" y2="1733" /><line stroke="#333" stroke-width="10" x1="1245" x2="1181" y1="1669" y2="1669" /><line stroke="#333" stroke-width="10" x1="1373" x2="1245" y1="1733" y2="1669" /><line stroke="#333" stroke-width="10" x1="1245" x2="1245" y1="1597" y2="1661" /><line stroke="#333" stroke-width="10" x1="1245" x2="1365" y1="1661" y2="1661" /><line stroke="#999" stroke-width="3" x1="1365" x2="1365" y1="1661" y2="1597" /><line stroke="#333" stroke-width="10" x1="1365" x2="1245" y1="1597" y2="1597" /><line stroke="#333" stroke-width="10" x1="1373" x2="1373" y1="1797" y2="1733" /><line stroke="#999" stroke-width="3" x1="1373" x2="1117" y1="1797" y2="1797" /><line stroke="#333" stroke-width="10" x1="1053" x2="925" y1="1797" y2="1925" /><line stroke="#333" stroke-width="10" x1="925" x2="989" y1="1925" y2="2245" /><line stroke="#333" stroke-width="10" x1="1437" x2="1501" y1="2245" y2="2245" /><line stroke="#333" stroke-width="10" x1="1501" x2="1565" y1="2245" y2="1925" /><line stroke="#333" stroke-width="10" x1="1565" x2="1437" y1="1925" y2="1797" /><line stroke="#333" stroke-width="10" x1="1437" x2="1373" y1="1797" y2="1797" /><line stroke="#333" stroke-width="10" x1="1117" x2="1053" y1="1797" y2="1797" /><line stroke="#333" stroke-width="10" x1="989" x2="1053" y1="2245" y2="2245" /><line stroke="#333" stroke-width="10" x1="1053" x2="1085" y1="2245" y2="2245" /><line stroke="#333" stroke-width="10" x1="1085" x2="1117" y1="2245" y2="2245" /><line stroke="#333" stroke-width="10" x1="1117" x2="1149" y1="2245" y2="2245" /><line stroke="#333" stroke-width="10" x1="1149" x2="1181" y1="2245" y2="2245" /><line stroke="#999" stroke-width="3" x1="1181" x2="1309" y1="2245" y2="2245" /><line stroke="#333" stroke-width="10" x1="1309" x2="1341" y1="2245" y2="2245" /><line stroke="#333" stroke-width="10" x1="1341" x2="1373" y1="2245" y2="2245" /><line stroke="#333" stroke-width="10" x1="1373" x2="1405" y1="2245" y2="2245" /><line stroke="#333" stroke-width="10" x1="1405" x2="1437" y1="2245" y2="2245" /><line stroke="#999" stroke-width="3" x1="1181" x2="1245" y1="2245" y2="2181" /><line stroke="#999" stroke-width="3" x1="1245" x2="1309" y1="2181" y2="2245" /><line stroke="#999" stroke-width="3" x1="1149" x2="1245" y1="2245" y2="2117" /><line stroke="#999" stroke-width="3" x1="1245" x2="1341" y1="2117" y2="2245" /><line stroke="#999" stroke-width="3" x1="1117" x2="1245" y1="2245" y2="2053" /><line stroke="#999" stroke-width="3" x1="1245" x2="1373" y1="2053" y2="2245" /><line stroke="#999" stroke-width="3" x1="1085" x2="1245" y1="2245" y2="1989" /><line stroke="#999" stroke-width="3" x1="1245" x2="1405" y1="1989" y2="2245" /><line stroke="#999" stroke-width="3" x1="1053" x2="1245" y1="2245" y2="1925" /><line stroke="#999" stroke-width="3" x1="1245" x2="1437" y1="1925" y2="2245" /><line stroke="#333" stroke-width="10" x1="1373" x2="1437" y1="2629" y2="2629" /><line stroke="#333" stroke-width="10" x1="1373" x2="1437" y1="1925" y2="1925" /><line stroke="#333" stroke-width="10" x1="1373" x2="1373" y1="1989" y2="1925" /><line stroke="#333" stroke-width="10" x1="1437" x2="1373" y1="1989" y2="1989" /><line stroke="#333" stroke-width="10" x1="1437" x2="1437" y1="1925" y2="1989" /><line stroke="#333" stroke-width="10" x1="1053" x2="1117" y1="1925" y2="1925" /><line stroke="#333" stroke-width="10" x1="1053" x2="1053" y1="1989" y2="1925" /><line stroke="#333" stroke-width="10" x1="1117" x2="1053" y1="1989" y2="1989" /><line stroke="#333" stroke-width="10" x1="1117" x2="1117" y1="1925" y2="1989" /><line stroke="#333" stroke-width="10" x1="1117" x2="1117" y1="1733" y2="1797" /><line stroke="#333" stroke-width="10" x1="1629" x2="1565" y1="2501" y2="2501" /><line stroke="#999" stroke-width="3" x1="1437" x2="1565" y1="2757" y2="2757" /><line stroke="#333" stroke-width="10" x1="1757" x2="1821" y1="2629" y2="2629" /><line stroke="#333" stroke-width="10" x1="1885" x2="1949" y1="2693" y2="2693" /><line stroke="#333" stroke-width="10" x1="1949" x2="2045" y1="2693" y2="2597" /><line stroke="#999" stroke-width="3" x1="2045" x2="2045" y1="2597" y2="2533" /><line stroke="#333" stroke-width="10" x1="2045" x2="1949" y1="2533" y2="2437" /><line stroke="#333" stroke-width="10" x1="1949" x2="1885" y1="2437" y2="2437" /><line stroke="#333" stroke-width="10" x1="1821" x2="1757" y1="2501" y2="2501" /><line stroke="#333" stroke-width="10" x1="1437" x2="1437" y1="2757" y2="2765" /><line stroke="#333" stroke-width="10" x1="1437" x2="1437" y1="2765" y2="2773" /><line stroke="#333" stroke-width="10" x1="1437" x2="1229" y1="2773" y2="2773" /><line stroke="#333" stroke-width="10" x1="1229" x2="1117" y1="2773" y2="3013" /><line stroke="#333" stroke-width="10" x1="1117" x2="1117" y1="3013" y2="3461" /><line stroke="#333" stroke-width="10" x1="1117" x2="1245" y1="3461" y2="3589" /><line stroke="#333" stroke-width="10" x1="1245" x2="1757" y1="3589" y2="3589" /><line stroke="#999" stroke-width="3" x1="1757" x2="1885" y1="3589" y2="3461" /><line stroke="#333" stroke-width="10" x1="1885" x2="1885" y1="3461" y2="3013" /><line stroke="#333" stroke-width="10" x1="1885" x2="1773" y1="3013" y2="2773" /><line stroke="#333" stroke-width="10" x1="1773" x2="1565" y1="2773" y2="2773" /><line stroke="#333" stroke-width="10" x1="1565" x2="1565" y1="2773" y2="2765" /><line stroke="#333" stroke-width="10" x1="1565" x2="1565" y1="2765" y2="2757" /><line stroke="#999" stroke-width="3" x1="1565" x2="1437" y1="2765" y2="2765" /><line stroke="#999" stroke-width="3" x1="1565" x2="1437" y1="2773" y2="2773" /><line stroke="#999" stroke-width="3" x1="1693" x2="1565" y1="3397" y2="3397" /><line stroke="#999" stroke-width="3" x1="1565" x2="1565" y1="3397" y2="3333" /><line stroke="#999" stroke-width="3" x1="1629" x2="1693" y1="3333" y2="3333" /><line stroke="#999" stroke-width="3" x1="1693" x2="1693" y1="3333" y2="3397" /><line stroke="#333" stroke-width="10" x1="1565" x2="1565" y1="3333" y2="3269" /><line stroke="#999" stroke-width="3" x1="1565" x2="1565" y1="3269" y2="3205" /><line stroke="#999" stroke-width="3" x1="1565" x2="1693" y1="3205" y2="3205" /><line stroke="#999" stroke-width="3" x1="1693" x2="1693" y1="3205" y2="3269" /><line stroke="#999" stroke-width="3" x1="1693" x2="1629" y1="3269" y2="3269" /><line stroke="#333" stroke-width="10" x1="1629" x2="1629" y1="3269" y2="3333" /><line stroke="#333" stroke-width="10" x1="1629" x2="1565" y1="3333" y2="3333" /><line stroke="#333" stroke-width="10" x1="1565" x2="1629" y1="3269" y2="3269" /><line stroke="#999" stroke-width="3" x1="1309" x2="1309" y1="3397" y2="3333" /><line stroke="#999" stroke-width="3" x1="1309" x2="1373" y1="3333" y2="3333" /><line stroke="#999" stroke-width="3" x1="1437" x2="1437" y1="3333" y2="3397" /><line stroke="#999" stroke-width="3" x1="1437" x2="1309" y1="3397" y2="3397" /><line stroke="#333" stroke-width="10" x1="1373" x2="1373" y1="3333" y2="3269" /><line stroke="#999" stroke-width="3" x1="1373" x2="1309" y1="3269" y2="3269" /><line stroke="#999" stroke-width="3" x1="1309" x2="1309" y1="3269" y2="3205" /><line stroke="#999" stroke-width="3" x1="1309" x2="1437" y1="3205" y2="3205" /><line stroke="#999" stroke-width="3" x1="1437" x2="1437" y1="3205" y2="3269" /><line stroke="#333" stroke-width="10" x1="1437" x2="1437" y1="3269" y2="3333" /><line stroke="#333" stroke-width="10" x1="1437" x2="1373" y1="3333" y2="3333" /><line stroke="#333" stroke-width="10" x1="1373" x2="1437" y1="3269" y2="3269" /><line stroke="#999" stroke-width="3" x1="1437" x2="1437" y1="3397" y2="3461" /><line stroke="#999" stroke-width="3" x1="1437" x2="1245" y1="3461" y2="3461" /><line stroke="#999" stroke-width="3" x1="1245" x2="1245" y1="3461" y2="3141" /><line stroke="#999" stroke-width="3" x1="1245" x2="1437" y1="3141" y2="3141" /><line stroke="#999" stroke-width="3" x1="1437" x2="1437" y1="3141" y2="3205" /><line stroke="#999" stroke-width="3" x1="1565" x2="1565" y1="3205" y2="3141" /><line stroke="#999" stroke-width="3" x1="1565" x2="1757" y1="3141" y2="3141" /><line stroke="#999" stroke-width="3" x1="1757" x2="1757" y1="3141" y2="3461" /><line stroke="#999" stroke-width="3" x1="1757" x2="1565" y1="3461" y2="3461" /><line stroke="#999" stroke-width="3" x1="1565" x2="1565" y1="3461" y2="3397" /><line stroke="#333" stroke-width="10" x1="1493" x2="1629" y1="1661" y2="1861" /><line stroke="#999" stroke-width="3" x1="1565" x2="1437" y1="2629" y2="2629" /><line stroke="#999" stroke-width="3" x1="1237" x2="1445" y1="3133" y2="3133" /><line stroke="#999" stroke-width="3" x1="1445" x2="1445" y1="3133" y2="3469" /><line stroke="#999" stroke-width="3" x1="1445" x2="1237" y1="3469" y2="3469" /><line stroke="#999" stroke-width="3" x1="1237" x2="1237" y1="3469" y2="3133" /><line stroke="#999" stroke-width="3" x1="1557" x2="1765" y1="3133" y2="3133" /><line stroke="#999" stroke-width="3" x1="1765" x2="1765" y1="3133" y2="3469" /><line stroke="#999" stroke-width="3" x1="1765" x2="1557" y1="3469" y2="3469" /><line stroke="#999" stroke-width="3" x1="1557" x2="1557" y1="3469" y2="3133" /><line stroke="#333" stroke-width="10" x1="1757" x2="1773" y1="3589" y2="3605" /><line stroke="#333" stroke-width="10" x1="1901" x2="1885" y1="3477" y2="3461" /><line stroke="#999" stroke-width="3" x1="1901" x2="1773" y1="3477" y2="3605" /><line stroke="#333" stroke-width="10" x1="1773" x2="1773" y1="3605" y2="3653" /><line stroke="#333" stroke-width="10" x1="1773" x2="1949" y1="3653" y2="3653" /><line stroke="#333" stroke-width="10" x1="1949" x2="1949" y1="3653" y2="3477" /><line stroke="#333" stroke-width="10" x1="1949" x2="1901" y1="3477" y2="3477" /><line stroke="#333" stroke-width="10" x1="1373" x2="1493" y1="1661" y2="1661" /><line stroke="#333" stroke-width="10" x1="1365" x2="1373" y1="1661" y2="1661" /><line stroke="#333" stroke-width="10" x1="1373" x2="1365" y1="1597" y2="1597" /><line stroke="#999" stroke-width="3" x1="1373" x2="1373" y1="1597" y2="1661" /><line stroke="#333" stroke-width="10" x1="1493" x2="1373" y1="1597" y2="1597" /><line stroke="#999" stroke-width="3" x1="1493" x2="1493" y1="1597" y2="1661" /><line stroke="#999" stroke-width="3" x1="1821" x2="1821" y1="2501" y2="2629" /><line stroke="#333" stroke-width="10" x1="1757" x2="2269" y1="1925" y2="1925" /><line stroke="#333" stroke-width="10" x1="2269" x2="2269" y1="1925" y2="1989" /><line stroke="#333" stroke-width="10" x1="2269" x2="2269" y1="1989" y2="2013" /><line stroke="#333" stroke-width="10" x1="2269" x2="2269" y1="2013" y2="2021" /><line stroke="#999" stroke-width="3" x1="2269" x2="2333" y1="1925" y2="1925" /><line stroke="#333" stroke-width="10" x1="2333" x2="2333" y1="2021" y2="2013" /><line stroke="#333" stroke-width="10" x1="2333" x2="2333" y1="2013" y2="1989" /><line stroke="#333" stroke-width="10" x1="2333" x2="2333" y1="1989" y2="1925" /><line stroke="#333" stroke-width="10" x1="2333" x2="2461" y1="1925" y2="1861" /><line stroke="#333" stroke-width="10" x1="2461" x2="2589" y1="1861" y2="1861" /><line stroke="#333" stroke-width="10" x1="2589" x2="2589" y1="1861" y2="1797" /><line stroke="#333" stroke-width="10" x1="2581" x2="2461" y1="1797" y2="1797" /><line stroke="#333" stroke-width="10" x1="2461" x2="2461" y1="1797" y2="1605" /><line stroke="#333" stroke-width="10" x1="2469" x2="2581" y1="1605" y2="1605" /><line stroke="#333" stroke-width="10" x1="2589" x2="2589" y1="1605" y2="1541" /><line stroke="#333" stroke-width="10" x1="2589" x2="2469" y1="1541" y2="1541" /><line stroke="#333" stroke-width="10" x1="2461" x2="2397" y1="1541" y2="1413" /><line stroke="#333" stroke-width="10" x1="2397" x2="2301" y1="1413" y2="1413" /><line stroke="#333" stroke-width="10" x1="2237" x2="2237" y1="1413" y2="1453" /><line stroke="#333" stroke-width="10" x1="2237" x2="2261" y1="1453" y2="1453" /><line stroke="#333" stroke-width="10" x1="2261" x2="2285" y1="1453" y2="1477" /><line stroke="#333" stroke-width="10" x1="2229" x2="2205" y1="1533" y2="1509" /><line stroke="#333" stroke-width="10" x1="2205" x2="2205" y1="1509" y2="1477" /><line stroke="#999" stroke-width="3" x1="2205" x2="2013" y1="1477" y2="1477" /><line stroke="#333" stroke-width="10" x1="2013" x2="2013" y1="1477" y2="1509" /><line stroke="#333" stroke-width="10" x1="2013" x2="1989" y1="1509" y2="1533" /><line stroke="#333" stroke-width="10" x1="1989" x2="1957" y1="1533" y2="1533" /><line stroke="#333" stroke-width="10" x1="1957" x2="1981" y1="1453" y2="1453" /><line stroke="#333" stroke-width="10" x1="1981" x2="1981" y1="1453" y2="1413" /><line stroke="#333" stroke-width="10" x1="1981" x2="1621" y1="1413" y2="1413" /><line stroke="#333" stroke-width="10" x1="1621" x2="1493" y1="1413" y2="1597" /><line stroke="#333" stroke-width="10" x1="2269" x2="2205" y1="2021" y2="2053" /><line stroke="#333" stroke-width="10" x1="2205" x2="2205" y1="2053" y2="2117" /><line stroke="#333" stroke-width="10" x1="2205" x2="2269" y1="2117" y2="2181" /><line stroke="#333" stroke-width="10" x1="2269" x2="2333" y1="2181" y2="2181" /><line stroke="#333" stroke-width="10" x1="2333" x2="2397" y1="2181" y2="2117" /><line stroke="#333" stroke-width="10" x1="2397" x2="2397" y1="2117" y2="2053" /><line stroke="#333" stroke-width="10" x1="2397" x2="2333" y1="2053" y2="2021" /><line stroke="#999" stroke-width="3" x1="2269" x2="2333" y1="2013" y2="2013" /><line stroke="#999" stroke-width="3" x1="2333" x2="2269" y1="2021" y2="2021" /><line stroke="#999" stroke-width="3" x1="2269" x2="2333" y1="1989" y2="1989" /><line stroke="#999" stroke-width="3" x1="2461" x2="2461" y1="1861" y2="1797" /><line stroke="#999" stroke-width="3" x1="2461" x2="2461" y1="1605" y2="1541" /><line stroke="#333" stroke-width="10" x1="2461" x2="2469" y1="1605" y2="1605" /><line stroke="#333" stroke-width="10" x1="2469" x2="2461" y1="1541" y2="1541" /><line stroke="#999" stroke-width="3" x1="2469" x2="2469" y1="1541" y2="1605" /><line stroke="#999" stroke-width="3" x1="2589" x2="2581" y1="1797" y2="1797" /><line stroke="#999" stroke-width="3" x1="2581" x2="2589" y1="1605" y2="1605" /><line stroke="#333" stroke-width="10" x1="2589" x2="2589" y1="1797" y2="1605" /><line stroke="#333" stroke-width="10" x1="2581" x2="2581" y1="1605" y2="1797" /><line stroke="#333" stroke-width="10" x1="1933" x2="1957" y1="1477" y2="1453" /><line stroke="#333" stroke-width="10" x1="1933" x2="1933" y1="1509" y2="1477" /><line stroke="#333" stroke-width="10" x1="1957" x2="1933" y1="1533" y2="1509" /><line stroke="#333" stroke-width="10" x1="2285" x2="2285" y1="1477" y2="1509" /><line stroke="#333" stroke-width="10" x1="2285" x2="2261" y1="1509" y2="1533" /><line stroke="#333" stroke-width="10" x1="2261" x2="2229" y1="1533" y2="1533" /><line stroke="#999" stroke-width="3" x1="1757" x2="1629" y1="2501" y2="2501" /><line stroke="#999" stroke-width="3" x1="2285" x2="2317" y1="1997" y2="1997" /><line stroke="#999" stroke-width="3" x1="2317" x2="2317" y1="1997" y2="2005" /><line stroke="#999" stroke-width="3" x1="2317" x2="2285" y1="2005" y2="2005" /><line stroke="#999" stroke-width="3" x1="2285" x2="2285" y1="2005" y2="1997" /><line stroke="#999" stroke-width="3" x1="1629" x2="1757" y1="1861" y2="1925" /><line stroke="#999" stroke-width="3" x1="1629" x2="1757" y1="2245" y2="2245" /><line stroke="#333" stroke-width="10" x1="2205" x2="2205" y1="1477" y2="1461" /><line stroke="#333" stroke-width="10" x1="2205" x2="2205" y1="1461" y2="1413" /><line stroke="#333" stroke-width="10" x1="2205" x2="2229" y1="1413" y2="1389" /><line stroke="#999" stroke-width="3" x1="2229" x2="2301" y1="1389" y2="1389" /><line stroke="#333" stroke-width="10" x1="2013" x2="2013" y1="1461" y2="1477" /><line stroke="#333" stroke-width="10" x1="2013" x2="2013" y1="1413" y2="1461" /><line stroke="#333" stroke-width="10" x1="1989" x2="2013" y1="1389" y2="1413" /><line stroke="#333" stroke-width="10" x1="1597" x2="1989" y1="1389" y2="1389" /><line stroke="#999" stroke-width="3" x1="2013" x2="2205" y1="1461" y2="1461" /><line stroke="#333" stroke-width="10" x1="1437" x2="789" y1="5" y2="213" /><line stroke="#333" stroke-width="10" x1="2789" x2="1437" y1="5" y2="5" /><line stroke="#333" stroke-width="10" x1="3381" x2="2789" y1="1069" y2="5" /><line stroke="#333" stroke-width="10" x1="3381" x2="3381" y1="2269" y2="1069" /><line stroke="#333" stroke-width="10" x1="3021" x2="3381" y1="2501" y2="2269" /><line stroke="#333" stroke-width="10" x1="3021" x2="3021" y1="1861" y2="2501" /><line stroke="#333" stroke-width="10" x1="2669" x2="3021" y1="1541" y2="1861" /><line stroke="#333" stroke-width="10" x1="2589" x2="2669" y1="1477" y2="1541" /><line stroke="#333" stroke-width="10" x1="2477" x2="2589" y1="1389" y2="1477" /><line stroke="#333" stroke-width="10" x1="1373" x2="1437" y1="581" y2="709" /><line stroke="#333" stroke-width="10" x1="1437" x2="1597" y1="1221" y2="1389" /><line stroke="#333" stroke-width="10" x1="1437" x2="1437" y1="709" y2="1221" /><line stroke="#333" stroke-width="10" x1="789" x2="1205" y1="325" y2="317" /><line stroke="#333" stroke-width="10" x1="789" x2="789" y1="213" y2="325" /><line stroke="#999" stroke-width="3" x1="2653" x2="2589" y1="1349" y2="1477" /><line stroke="#999" stroke-width="3" x1="2653" x2="2653" y1="1093" y2="1349" /><line stroke="#999" stroke-width="3" x1="2397" x2="2653" y1="701" y2="1093" /><line stroke="#999" stroke-width="3" x1="1885" x2="2397" y1="637" y2="701" /><line stroke="#999" stroke-width="3" x1="1437" x2="1885" y1="709" y2="637" /><line stroke="#999" stroke-width="3" x1="2669" x2="2821" y1="1541" y2="1373" /><line stroke="#999" stroke-width="3" x1="2821" x2="2853" y1="1373" y2="1077" /><line stroke="#999" stroke-width="3" x1="2853" x2="2573" y1="1077" y2="501" /><line stroke="#999" stroke-width="3" x1="2573" x2="1829" y1="501" y2="293" /><line stroke="#999" stroke-width="3" x1="1829" x2="1373" y1="293" y2="581" /><line stroke="#333" stroke-width="10" x1="2301" x2="2477" y1="1389" y2="1389" /><line stroke="#333" stroke-width="10" x1="2229" x2="2237" y1="1389" y2="1413" /><line stroke="#333" stroke-width="10" x1="2301" x2="2301" y1="1413" y2="1389" /><line stroke="#999" stroke-width="3" x1="2301" x2="2237" y1="1413" y2="1413" /><line stroke="#999" stroke-width="3" x1="2205" x2="2165" y1="1413" y2="1349" /><line stroke="#999" stroke-width="3" x1="2165" x2="2205" y1="1349" y2="1285" /><line stroke="#999" stroke-width="3" x1="2333" x2="2301" y1="1349" y2="1389" /><line stroke="#999" stroke-width="3" x1="2013" x2="2205" y1="1413" y2="1221" /><line stroke="#999" stroke-width="3" x1="2205" x2="2397" y1="1221" y2="1221" /><line stroke="#999" stroke-width="3" x1="2397" x2="2477" y1="1221" y2="1389" /><line stroke="#999" stroke-width="3" x1="2205" x2="2269" y1="1285" y2="1285" /><line stroke="#999" stroke-width="3" x1="2269" x2="2333" y1="1285" y2="1349" /><line stroke="#333" stroke-width="10" x1="1205" x2="1373" y1="317" y2="581" /><line stroke="#999" stroke-width="3" x1="2229" x2="2261" y1="1389" y2="1349" /><line stroke="#999" stroke-width="3" x1="2261" x2="2301" y1="1349" y2="1389" /><line stroke="#999" stroke-width="3" x1="1693" x2="1757" y1="1605" y2="1605" /><line stroke="#999" stroke-width="3" x1="1757" x2="1757" y1="1605" y2="1669" /><line stroke="#999" stroke-width="3" x1="1757" x2="1693" y1="1669" y2="1669" /><line stroke="#999" stroke-width="3" x1="1693" x2="1693" y1="1669" y2="1605" /><line stroke="#999" stroke-width="3" x1="1693" x2="1757" y1="1573" y2="1573" /><line stroke="#999" stroke-width="3" x1="1757" x2="1789" y1="1573" y2="1605" /><line stroke="#999" stroke-width="3" x1="1789" x2="1789" y1="1605" y2="1669" /><line stroke="#999" stroke-width="3" x1="1789" x2="1757" y1="1669" y2="1701" /><line stroke="#999" stroke-width="3" x1="1757" x2="1693" y1="1701" y2="1701" /><line stroke="#999" stroke-width="3" x1="1693" x2="1661" y1="1701" y2="1669" /><line stroke="#999" stroke-width="3" x1="1661" x2="1661" y1="1669" y2="1605" /><line stroke="#999" stroke-width="3" x1="1661" x2="1693" y1="1605" y2="1573" /><line stroke="#999" stroke-width="3" x1="2205" x2="2269" y1="1669" y2="1669" /><line stroke="#999" stroke-width="3" x1="2269" x2="2269" y1="1669" y2="1733" /><line stroke="#999" stroke-width="3" x1="2269" x2="2205" y1="1733" y2="1733" /><line stroke="#999" stroke-width="3" x1="2205" x2="2205" y1="1733" y2="1669" /><line stroke="#999" stroke-width="3" x1="2205" x2="2269" y1="1637" y2="1637" /><line stroke="#999" stroke-width="3" x1="2269" x2="2301" y1="1637" y2="1669" /><line stroke="#999" stroke-width="3" x1="2301" x2="2301" y1="1669" y2="1733" /><line stroke="#999" stroke-width="3" x1="2301" x2="2269" y1="1733" y2="1765" /><line stroke="#999" stroke-width="3" x1="2269" x2="2205" y1="1765" y2="1765" /><line stroke="#999" stroke-width="3" x1="2205" x2="2173" y1="1765" y2="1733" /><line stroke="#999" stroke-width="3" x1="2173" x2="2173" y1="1733" y2="1669" /><line stroke="#999" stroke-width="3" x1="2173" x2="2205" y1="1669" y2="1637" /><line stroke="#333" stroke-width="10" x1="2045" x2="2053" y1="2597" y2="2597" /><line stroke="#333" stroke-width="10" x1="2053" x2="2077" y1="2597" y2="2661" /><line stroke="#333" stroke-width="10" x1="2077" x2="2141" y1="2661" y2="2661" /><line stroke="#333" stroke-width="10" x1="2141" x2="2229" y1="2661" y2="2565" /><line stroke="#333" stroke-width="10" x1="2229" x2="2141" y1="2565" y2="2469" /><line stroke="#333" stroke-width="10" x1="2141" x2="2077" y1="2469" y2="2469" /><line stroke="#333" stroke-width="10" x1="2077" x2="2053" y1="2469" y2="2533" /><line stroke="#333" stroke-width="10" x1="2053" x2="2045" y1="2533" y2="2533" /><line stroke="#999" stroke-width="3" x1="2053" x2="2053" y1="2533" y2="2597" /><line stroke="#999" stroke-width="3" x1="2229" x2="2205" y1="1533" y2="1605" /><line stroke="#999" stroke-width="3" x1="2205" x2="2141" y1="1605" y2="1637" /><line stroke="#999" stroke-width="3" x1="2141" x2="2101" y1="1637" y2="1669" /><line stroke="#999" stroke-width="3" x1="2101" x2="2077" y1="1669" y2="1733" /><line stroke="#999" stroke-width="3" x1="2077" x2="2013" y1="1733" y2="1797" /><line stroke="#999" stroke-width="3" x1="2013" x2="1949" y1="1797" y2="1821" /><line stroke="#999" stroke-width="3" x1="1949" x2="1861" y1="1821" y2="1805" /><line stroke="#999" stroke-width="3" x1="1861" x2="1845" y1="1805" y2="1765" /><line stroke="#999" stroke-width="3" x1="1845" x2="1933" y1="1765" y2="1725" /><line stroke="#999" stroke-width="3" x1="2013" x2="2013" y1="1621" y2="1581" /><line stroke="#999" stroke-width="3" x1="2013" x2="1989" y1="1581" y2="1533" /><line stroke="#999" stroke-width="3" x1="1933" x2="2013" y1="1725" y2="1621" /><line stroke="#999" stroke-width="3" x1="2205" x2="2189" y1="1509" y2="1549" /><line stroke="#999" stroke-width="3" x1="2189" x2="2149" y1="1549" y2="1581" /><line stroke="#999" stroke-width="3" x1="2149" x2="2085" y1="1581" y2="1581" /><line stroke="#999" stroke-width="3" x1="2085" x2="2037" y1="1581" y2="1557" /><line stroke="#999" stroke-width="3" x1="2037" x2="2013" y1="1557" y2="1509" /><line stroke="#333" stroke-width="10" x1="1373" x2="1309" y1="2501" y2="2501" /><line stroke="#333" stroke-width="10" x1="1309" x2="1309" y1="2501" y2="2437" /><line stroke="#333" stroke-width="10" x1="1309" x2="1309" y1="2437" y2="2373" /><line stroke="#333" stroke-width="10" x1="1309" x2="1309" y1="2373" y2="2309" /><line stroke="#333" stroke-width="10" x1="1181" x2="1181" y1="2309" y2="2373" /><line stroke="#333" stroke-width="10" x1="1181" x2="1181" y1="2373" y2="2437" /><line stroke="#333" stroke-width="10" x1="1181" x2="1181" y1="2437" y2="2501" /><line stroke="#333" stroke-width="10" x1="1181" x2="1181" y1="2501" y2="2565" /><line stroke="#333" stroke-width="10" x1="1181" x2="1181" y1="2565" y2="2629" /><line stroke="#333" stroke-width="10" x1="1181" x2="1245" y1="2629" y2="2629" /><line stroke="#333" stroke-width="10" x1="1245" x2="1309" y1="2629" y2="2629" /><line stroke="#333" stroke-width="10" x1="1309" x2="1373" y1="2629" y2="2629" /><line stroke="#333" stroke-width="10" x1="1693" x2="1757" y1="2629" y2="2629" /><line stroke="#333" stroke-width="10" x1="1629" x2="1693" y1="2629" y2="2629" /><line stroke="#333" stroke-width="10" x1="1565" x2="1629" y1="2629" y2="2629" /><line stroke="#999" stroke-width="3" x1="3021" x2="3021" y1="1861" y2="1021" /><line stroke="#999" stroke-width="3" x1="3021" x2="2589" y1="1021" y2="149" /><line stroke="#999" stroke-width="3" x1="2589" x2="1421" y1="149" y2="149" /><line stroke="#999" stroke-width="3" x1="1421" x2="1205" y1="149" y2="317" /><line stroke="#333" stroke-width="10" x1="1565" x2="1501" y1="2501" y2="2501" /><line stroke="#333" stroke-width="10" x1="1501" x2="1437" y1="2501" y2="2501" /><line stroke="#333" stroke-width="10" x1="1437" x2="1373" y1="2501" y2="2501" /><line stroke="#333" stroke-width="10" x1="1437" x2="1437" y1="2629" y2="2693" /><line stroke="#333" stroke-width="10" x1="1437" x2="1437" y1="2693" y2="2757" /><line stroke="#333" stroke-width="10" x1="1565" x2="1565" y1="2757" y2="2693" /><line stroke="#333" stroke-width="10" x1="1565" x2="1565" y1="2693" y2="2629" /><line stroke="#333" stroke-width="10" x1="1757" x2="1757" y1="2501" y2="2437" /><line stroke="#333" stroke-width="10" x1="1757" x2="1757" y1="2437" y2="2373" /><line stroke="#333" stroke-width="10" x1="1757" x2="1757" y1="2373" y2="2309" /><line stroke="#333" stroke-width="10" x1="1757" x2="1757" y1="2309" y2="2245" /><line stroke="#333" stroke-width="10" x1="1757" x2="1757" y1="2245" y2="2181" /><line stroke="#333" stroke-width="10" x1="1757" x2="1757" y1="2181" y2="2117" /><line stroke="#333" stroke-width="10" x1="1757" x2="1757" y1="2117" y2="2053" /><line stroke="#333" stroke-width="10" x1="1757" x2="1757" y1="2053" y2="1989" /><line stroke="#333" stroke-width="10" x1="1629" x2="1629" y1="1925" y2="1989" /><line stroke="#333" stroke-width="10" x1="1629" x2="1629" y1="1989" y2="2053" /><line stroke="#333" stroke-width="10" x1="1629" x2="1629" y1="2053" y2="2117" /><line stroke="#333" stroke-width="10" x1="1629" x2="1629" y1="2117" y2="2181" /><line stroke="#333" stroke-width="10" x1="1629" x2="1629" y1="2181" y2="2245" /><line stroke="#333" stroke-width="10" x1="1629" x2="1629" y1="2245" y2="2309" /><line stroke="#333" stroke-width="10" x1="1629" x2="1629" y1="2309" y2="2381" /><line stroke="#333" stroke-width="10" x1="1629" x2="1629" y1="2381" y2="2437" /><line stroke="#333" stroke-width="10" x1="1629" x2="1629" y1="2437" y2="2501" /><line stroke="#333" stroke-width="10" x1="1181" x2="1053" y1="1669" y2="1541" /><line stroke="#333" stroke-width="10" x1="1053" x2="861" y1="1541" y2="1541" /><line stroke="#999" stroke-width="3" x1="861" x2="733" y1="1541" y2="1669" /><line stroke="#999" stroke-width="3" x1="733" x2="797" y1="1669" y2="1861" /><line stroke="#333" stroke-width="10" x1="861" x2="845" y1="1541" y2="1221" /><line stroke="#333" stroke-width="10" x1="845" x2="845" y1="1221" y2="1093" /><line stroke="#333" stroke-width="10" x1="5" x2="845" y1="2309" y2="2309" /><line stroke="#333" stroke-width="10" x1="845" x2="845" y1="2309" y2="2181" /><line stroke="#333" stroke-width="10" x1="845" x2="861" y1="2181" y2="1861" /><line stroke="#999" stroke-width="3" x1="845" x2="325" y1="1221" y2="1221" /><line stroke="#999" stroke-width="3" x1="325" x2="165" y1="1221" y2="1669" /><line stroke="#999" stroke-width="3" x1="165" x2="421" y1="1669" y2="2117" /><line stroke="#999" stroke-width="3" x1="421" x2="797" y1="2117" y2="2117" /><line stroke="#999" stroke-width="3" x1="797" x2="845" y1="2117" y2="2181" /><line stroke="#333" stroke-width="10" x1="845" x2="5" y1="1093" y2="1093" /><line stroke="#333" stroke-width="10" x1="5" x2="5" y1="1093" y2="2309" /><line stroke="#999" stroke-width="3" x1="797" x2="261" y1="1157" y2="1157" /><line stroke="#999" stroke-width="3" x1="261" x2="69" y1="1157" y2="1669" /><line stroke="#999" stroke-width="3" x1="69" x2="389" y1="1669" y2="2245" /><line stroke="#999" stroke-width="3" x1="389" x2="797" y1="2245" y2="2245" /><line stroke="#999" stroke-width="3" x1="797" x2="845" y1="2245" y2="2309" /><line stroke="#999" stroke-width="3" x1="845" x2="797" y1="1093" y2="1157" /><line stroke="#999" stroke-width="3" x1="1181" x2="1117" y1="1669" y2="1733" /><line stroke="#333" stroke-width="10" x1="1181" x2="1181" y1="2245" y2="2261" /><line stroke="#333" stroke-width="10" x1="1181" x2="1181" y1="2261" y2="2309" /><line stroke="#333" stroke-width="10" x1="1309" x2="1309" y1="2309" y2="2261" /><line stroke="#333" stroke-width="10" x1="1309" x2="1309" y1="2261" y2="2245" /><line stroke="#333" stroke-width="10" x1="1629" x2="1629" y1="1861" y2="1877" /><line stroke="#333" stroke-width="10" x1="1629" x2="1629" y1="1877" y2="1925" /><line stroke="#333" stroke-width="10" x1="1757" x2="1757" y1="1989" y2="1941" /><line stroke="#333" stroke-width="10" x1="1757" x2="1757" y1="1941" y2="1925" /><line stroke="#333" stroke-width="10" x1="1821" x2="1845" y1="2629" y2="2653" /><line stroke="#333" stroke-width="10" x1="1845" x2="1885" y1="2653" y2="2693" /><line stroke="#333" stroke-width="10" x1="1885" x2="1845" y1="2437" y2="2477" /><line stroke="#333" stroke-width="10" x1="1845" x2="1821" y1="2477" y2="2501" /><line stroke="#999" stroke-width="3" x1="861" x2="861" y1="1733" y2="1541" /><line stroke="#333" stroke-width="10" x1="861" x2="861" y1="1861" y2="1733" /><line stroke="#999" stroke-width="3" x1="797" x2="861" y1="1861" y2="1861" /><ellipse cx="1213" cy="1749" fill="#009" rx="12" ry="24" stroke="#009" stroke-width="5" /><ellipse cx="1277" cy="1749" fill="#009" rx="12" ry="24" stroke="#009" stroke-width="5" /><ellipse cx="1149" cy="1749" fill="#009" rx="12" ry="24" stroke="#009" stroke-width="5" /><ellipse cx="1341" cy="1749" fill="#009" rx="12" ry="24" stroke="#009" stroke-width="5" /><rect fill="#900" height="48" stroke="#900" stroke-width="5" transform="rotate(0,1277,1621)" width="32" x="1261" y="1597" /><rect fill="#900" height="48" stroke="#900" stroke-width="5" transform="rotate(0,1341,1621)" width="32" x="1325" y="1597" /><rect fill="#900" height="48" stroke="#900" stroke-width="5" transform="rotate(90,1197,2101)" width="32" x="1181" y="2077" /><rect fill="#900" height="48" stroke="#900" stroke-width="5" transform="rotate(90,1293,2181)" width="32" x="1277" y="2157" /><circle cx="1005" cy="2213" fill="#090" r="16" stroke="#090" stroke-width="5" /><circle cx="1485" cy="2213" fill="#009" r="16" stroke="#009" stroke-width="5" /><circle cx="1405" cy="2021" fill="#009" r="16" stroke="#009" stroke-width="5" /><rect fill="#900" height="48" stroke="#900" stroke-width="5" transform="rotate(270,1341,3237)" width="32" x="1325" y="3213" /><rect fill="#900" height="48" stroke="#900" stroke-width="5" transform="rotate(270,1661,3237)" width="32" x="1645" y="3213" /><rect fill="#900" height="48" stroke="#900" stroke-width="5" transform="rotate(270,1661,3365)" width="32" x="1645" y="3341" /><rect fill="#900" height="48" stroke="#900" stroke-width="5" transform="rotate(270,1341,3365)" width="32" x="1325" y="3341" /><circle cx="1837" cy="3589" fill="#009" r="16" stroke="#009" stroke-width="5" /><circle cx="1901" cy="3525" fill="#009" r="16" stroke="#009" stroke-width="5" /><circle cx="1901" cy="3589" fill="#009" r="16" stroke="#009" stroke-width="5" /><rect fill="#900" height="48" stroke="#900" stroke-width="5" transform="rotate(90,1661,2005)" width="32" x="1645" y="1981" /><rect fill="#900" height="48" stroke="#900" stroke-width="5" transform="rotate(90,1661,2213)" width="32" x="1645" y="2189" /><rect fill="#900" height="48" stroke="#900" stroke-width="5" transform="rotate(180,1469,2581)" width="32" x="1453" y="2557" /><rect fill="#900" height="48" stroke="#900" stroke-width="5" transform="rotate(180,1533,2533)" width="32" x="1517" y="2509" /><rect fill="#900" height="48" stroke="#900" stroke-width="5" transform="rotate(180,1629,2549)" width="32" x="1613" y="2525" /><circle cx="1917" cy="2661" fill="#009" r="16" stroke="#009" stroke-width="5" /><circle cx="1981" cy="2597" fill="#009" r="16" stroke="#009" stroke-width="5" /><circle cx="1981" cy="2533" fill="#009" r="16" stroke="#009" stroke-width="5" /><circle cx="1917" cy="2469" fill="#009" r="16" stroke="#009" stroke-width="5" /><circle cx="1917" cy="2533" fill="#009" r="16" stroke="#009" stroke-width="5" /><circle cx="1917" cy="2597" fill="#009" r="16" stroke="#009" stroke-width="5" /><circle cx="1853" cy="2597" fill="#009" r="16" stroke="#009" stroke-width="5" /><circle cx="1853" cy="2533" fill="#009" r="16" stroke="#009" stroke-width="5" /><rect fill="#900" height="48" stroke="#900" stroke-width="5" transform="rotate(180,2509,1829)" width="32" x="2493" y="1805" /><rect fill="#900" height="48" stroke="#900" stroke-width="5" transform="rotate(180,2509,1573)" width="32" x="2493" y="1549" /><rect fill="#900" height="48" stroke="#900" stroke-width="5" transform="rotate(180,2557,1573)" width="32" x="2541" y="1549" /><rect fill="#900" height="48" stroke="#900" stroke-width="5" transform="rotate(0,1453,1621)" width="32" x="1437" y="1597" /><circle cx="1405" cy="1621" fill="#009" r="16" stroke="#009" stroke-width="5" /><circle cx="2541" cy="1573" fill="#009" r="16" stroke="#009" stroke-width="5" /><circle cx="1629" cy="1333" fill="#900" r="16" stroke="#900" stroke-width="5" /><circle cx="1693" cy="1333" fill="#090" r="16" stroke="#090" stroke-width="5" /><rect fill="#900" height="48" stroke="#900" stroke-width="5" transform="rotate(0,1629,1269)" width="32" x="1613" y="1245" /><rect fill="#900" height="48" stroke="#900" stroke-width="5" transform="rotate(0,1565,1237)" width="32" x="1549" y="1213" /><rect fill="#900" height="48" stroke="#900" stroke-width="5" transform="rotate(0,1629,1189)" width="32" x="1613" y="1165" /><circle cx="2237" cy="2069" fill="#009" r="16" stroke="#009" stroke-width="5" /><circle cx="2301" cy="2069" fill="#009" r="16" stroke="#009" stroke-width="5" /><circle cx="2365" cy="2069" fill="#009" r="16" stroke="#009" stroke-width="5" /><circle cx="2301" cy="2133" fill="#090" r="16" stroke="#090" stroke-width="5" /><rect fill="#900" height="48" stroke="#900" stroke-width="5" transform="rotate(270,1725,2581)" width="32" x="1709" y="2557" /><rect fill="#900" height="48" stroke="#900" stroke-width="5" transform="rotate(90,1725,2149)" width="32" x="1709" y="2125" /><rect fill="#900" height="48" stroke="#900" stroke-width="5" transform="rotate(0,1421,1621)" width="32" x="1405" y="1597" /><rect fill="#900" height="48" stroke="#900" stroke-width="5" transform="rotate(0,1533,1109)" width="32" x="1517" y="1085" /><rect fill="#900" height="48" stroke="#900" stroke-width="5" transform="rotate(0,1533,1173)" width="32" x="1517" y="1149" /><rect fill="#900" height="48" stroke="#900" stroke-width="5" transform="rotate(270,2301,2101)" width="32" x="2285" y="2077" /><circle cx="2141" cy="2565" fill="#900" r="16" stroke="#900" stroke-width="5" /><rect fill="#900" height="48" stroke="#900" stroke-width="5" transform="rotate(270,1501,3285)" width="32" x="1485" y="3261" /><rect fill="#900" height="48" stroke="#900" stroke-width="5" transform="rotate(270,1501,3157)" width="32" x="1485" y="3133" /><circle cx="1501" cy="3061" fill="#900" r="16" stroke="#900" stroke-width="5" /><circle cx="1725" cy="1637" fill="#900" r="16" stroke="#900" stroke-width="5" /><circle cx="1021" cy="1941" fill="#900" r="16" stroke="#900" stroke-width="5" /><circle cx="1245" cy="2549" fill="#900" r="16" stroke="#900" stroke-width="5" /><rect fill="#090" height="24" stroke="#090" stroke-width="5" transform="rotate(0,893,1621)" width="24" x="881" y="1609" /><rect fill="#090" height="24" stroke="#090" stroke-width="5" transform="rotate(90,1245,2357)" width="24" x="1233" y="2345" /><rect fill="#090" height="24" stroke="#090" stroke-width="5" transform="rotate(90,1693,2069)" width="24" x="1681" y="2057" /><rect fill="#090" height="24" stroke="#090" stroke-width="5" transform="rotate(90,1789,1493)" width="24" x="1777" y="1481" /><rect fill="#900" height="48" stroke="#900" stroke-width="5" transform="rotate(0,1309,1621)" width="32" x="1293" y="1597" /><circle cx="2093" cy="2565" fill="#090" r="16" stroke="#090" stroke-width="5" /><circle cx="1021" cy="1685" fill="#900" r="16" stroke="#900" stroke-width="5" /><circle cx="1021" cy="1621" fill="#900" r="16" stroke="#900" stroke-width="5" /><circle cx="1021" cy="1557" fill="#900" r="16" stroke="#900" stroke-width="5" /><circle cx="829" cy="1813" fill="#900" r="16" stroke="#900" stroke-width="5" /></svg>