<?xml version="1.0" encoding="utf-8" ?>
<svg baseProfile="tiny" height="858" version="1.2" viewBox="0 0 2378 1994" width="1024" xmlns="http://www.w3.org/2000/svg" xmlns:ev="http://www.w3.org/2001/xml-events" xmlns:xlink="http://www.w3.org/1999/xlink"><defs /><line stroke="#999" stroke-width="3" x1="1861" x2="1893" y1="1157" y2="1157" /><line stroke="#999" stroke-width="3" x1="1893" x2="1925" y1="1157" y2="1157" /><line stroke="#999" stroke-width="3" x1="1925" x2="1925" y1="1157" y2="837" /><line stroke="#999" stroke-width="3" x1="1925" x2="1893" y1="837" y2="837" /><line stroke="#999" stroke-width="3" x1="1893" x2="1861" y1="837" y2="837" /><line stroke="#333" stroke-width="10" x1="1861" x2="1797" y1="837" y2="837" /><line stroke="#999" stroke-width="3" x1="1893" x2="1893" y1="1157" y2="837" /><line stroke="#999" stroke-width="3" x1="1861" x2="1861" y1="1157" y2="837" /><line stroke="#999" stroke-width="3" x1="1797" x2="1797" y1="1541" y2="1221" /><line stroke="#999" stroke-width="3" x1="1797" x2="1797" y1="773" y2="453" /><line stroke="#999" stroke-width="3" x1="837" x2="837" y1="453" y2="773" /><line stroke="#333" stroke-width="10" x1="837" x2="773" y1="837" y2="837" /><line stroke="#999" stroke-width="3" x1="773" x2="741" y1="837" y2="837" /><line stroke="#999" stroke-width="3" x1="741" x2="709" y1="837" y2="837" /><line stroke="#999" stroke-width="3" x1="709" x2="709" y1="837" y2="1157" /><line stroke="#999" stroke-width="3" x1="709" x2="741" y1="1157" y2="1157" /><line stroke="#999" stroke-width="3" x1="741" x2="773" y1="1157" y2="1157" /><line stroke="#333" stroke-width="10" x1="773" x2="837" y1="1157" y2="1157" /><line stroke="#999" stroke-width="3" x1="837" x2="837" y1="1221" y2="1541" /><line stroke="#999" stroke-width="3" x1="741" x2="741" y1="837" y2="1157" /><line stroke="#999" stroke-width="3" x1="773" x2="773" y1="837" y2="1157" /><line stroke="#333" stroke-width="10" x1="1797" x2="1797" y1="1221" y2="1157" /><line stroke="#333" stroke-width="10" x1="1797" x2="1861" y1="1157" y2="1157" /><line stroke="#333" stroke-width="10" x1="1861" x2="1861" y1="1157" y2="1221" /><line stroke="#333" stroke-width="10" x1="1861" x2="1797" y1="1221" y2="1221" /><line stroke="#333" stroke-width="10" x1="1797" x2="1797" y1="837" y2="773" /><line stroke="#333" stroke-width="10" x1="1797" x2="1861" y1="773" y2="773" /><line stroke="#333" stroke-width="10" x1="1861" x2="1861" y1="773" y2="837" /><line stroke="#333" stroke-width="10" x1="773" x2="773" y1="1221" y2="1157" /><line stroke="#333" stroke-width="10" x1="837" x2="837" y1="1157" y2="1221" /><line stroke="#333" stroke-width="10" x1="837" x2="773" y1="1221" y2="1221" /><line stroke="#333" stroke-width="10" x1="773" x2="773" y1="837" y2="773" /><line stroke="#333" stroke-width="10" x1="773" x2="837" y1="773" y2="773" /><line stroke="#333" stroke-width="10" x1="837" x2="837" y1="773" y2="837" /><line stroke="#999" stroke-width="3" x1="1797" x2="1733" y1="453" y2="453" /><line stroke="#999" stroke-width="3" x1="1541" x2="1093" y1="453" y2="453" /><line stroke="#999" stroke-width="3" x1="901" x2="837" y1="453" y2="453" /><line stroke="#999" stroke-width="3" x1="1541" x2="1541" y1="389" y2="261" /><line stroke="#999" stroke-width="3" x1="1093" x2="1093" y1="261" y2="389" /><line stroke="#999" stroke-width="3" x1="1541" x2="1093" y1="261" y2="261" /><line stroke="#999" stroke-width="3" x1="1093" x2="1541" y1="253" y2="253" /><line stroke="#333" stroke-width="10" x1="1541" x2="1541" y1="261" y2="253" /><line stroke="#333" stroke-width="10" x1="1541" x2="1541" y1="253" y2="229" /><line stroke="#333" stroke-width="10" x1="1541" x2="2085" y1="229" y2="229" /><line stroke="#333" stroke-width="10" x1="2373" x2="197" y1="5" y2="5" /><line stroke="#333" stroke-width="10" x1="485" x2="1093" y1="229" y2="229" /><line stroke="#333" stroke-width="10" x1="1093" x2="1093" y1="229" y2="253" /><line stroke="#333" stroke-width="10" x1="1093" x2="1093" y1="253" y2="261" /><line stroke="#999" stroke-width="3" x1="837" x2="901" y1="1541" y2="1541" /><line stroke="#999" stroke-width="3" x1="1733" x2="1797" y1="1541" y2="1541" /><line stroke="#999" stroke-width="3" x1="1093" x2="1541" y1="1541" y2="1541" /><line stroke="#999" stroke-width="3" x1="1541" x2="1541" y1="1733" y2="1605" /><line stroke="#999" stroke-width="3" x1="1093" x2="1093" y1="1605" y2="1733" /><line stroke="#333" stroke-width="10" x1="1093" x2="1093" y1="1733" y2="1741" /><line stroke="#333" stroke-width="10" x1="1541" x2="1541" y1="1741" y2="1733" /><line stroke="#999" stroke-width="3" x1="1093" x2="1541" y1="1733" y2="1733" /><line stroke="#999" stroke-width="3" x1="1541" x2="1093" y1="1741" y2="1741" /><line stroke="#333" stroke-width="10" x1="1541" x2="1541" y1="1765" y2="1741" /><line stroke="#333" stroke-width="10" x1="1093" x2="1093" y1="1741" y2="1765" /><line stroke="#333" stroke-width="10" x1="2085" x2="1541" y1="1765" y2="1765" /><line stroke="#333" stroke-width="10" x1="1093" x2="485" y1="1765" y2="1765" /><line stroke="#333" stroke-width="10" x1="197" x2="2373" y1="1989" y2="1989" /><line stroke="#333" stroke-width="10" x1="2373" x2="2373" y1="1989" y2="5" /><line stroke="#333" stroke-width="10" x1="1541" x2="1541" y1="453" y2="389" /><line stroke="#333" stroke-width="10" x1="1541" x2="1733" y1="389" y2="389" /><line stroke="#333" stroke-width="10" x1="1733" x2="1733" y1="389" y2="453" /><line stroke="#333" stroke-width="10" x1="1733" x2="1541" y1="453" y2="453" /><line stroke="#333" stroke-width="10" x1="901" x2="901" y1="453" y2="389" /><line stroke="#333" stroke-width="10" x1="901" x2="1093" y1="389" y2="389" /><line stroke="#333" stroke-width="10" x1="1093" x2="1093" y1="389" y2="453" /><line stroke="#333" stroke-width="10" x1="1093" x2="901" y1="453" y2="453" /><line stroke="#333" stroke-width="10" x1="1541" x2="1541" y1="1605" y2="1541" /><line stroke="#333" stroke-width="10" x1="1541" x2="1733" y1="1541" y2="1541" /><line stroke="#333" stroke-width="10" x1="1733" x2="1733" y1="1541" y2="1605" /><line stroke="#333" stroke-width="10" x1="1733" x2="1541" y1="1605" y2="1605" /><line stroke="#333" stroke-width="10" x1="901" x2="901" y1="1605" y2="1541" /><line stroke="#333" stroke-width="10" x1="901" x2="1093" y1="1541" y2="1541" /><line stroke="#333" stroke-width="10" x1="1093" x2="1093" y1="1541" y2="1605" /><line stroke="#333" stroke-width="10" x1="1093" x2="901" y1="1605" y2="1605" /><line stroke="#333" stroke-width="10" x1="2053" x2="2053" y1="1733" y2="1157" /><line stroke="#333" stroke-width="10" x1="2053" x2="2053" y1="837" y2="261" /><line stroke="#333" stroke-width="10" x1="2085" x2="2085" y1="229" y2="837" /><line stroke="#333" stroke-width="10" x1="2085" x2="2085" y1="1157" y2="1765" /><line stroke="#333" stroke-width="10" x1="2061" x2="2085" y1="1157" y2="1157" /><line stroke="#333" stroke-width="10" x1="2085" x2="2061" y1="837" y2="837" /><line stroke="#999" stroke-width="3" x1="2053" x2="2053" y1="1157" y2="837" /><line stroke="#999" stroke-width="3" x1="2061" x2="2061" y1="837" y2="1157" /><line stroke="#333" stroke-width="10" x1="2053" x2="2061" y1="1157" y2="1157" /><line stroke="#333" stroke-width="10" x1="2061" x2="2053" y1="837" y2="837" /><line stroke="#999" stroke-width="3" x1="2085" x2="2085" y1="837" y2="1157" /><line stroke="#999" stroke-width="3" x1="2085" x2="2117" y1="837" y2="837" /><line stroke="#999" stroke-width="3" x1="2117" x2="2149" y1="837" y2="837" /><line stroke="#999" stroke-width="3" x1="2149" x2="2117" y1="1157" y2="1157" /><line stroke="#999" stroke-width="3" x1="2117" x2="2085" y1="1157" y2="1157" /><line stroke="#999" stroke-width="3" x1="2117" x2="2117" y1="837" y2="1157" /><line stroke="#999" stroke-width="3" x1="2149" x2="2149" y1="837" y2="1157" /><line stroke="#333" stroke-width="10" x1="517" x2="517" y1="261" y2="837" /><line stroke="#333" stroke-width="10" x1="517" x2="517" y1="1157" y2="1733" /><line stroke="#333" stroke-width="10" x1="485" x2="485" y1="1765" y2="1157" /><line stroke="#333" stroke-width="10" x1="485" x2="485" y1="837" y2="229" /><line stroke="#999" stroke-width="3" x1="517" x2="517" y1="837" y2="1157" /><line stroke="#999" stroke-width="3" x1="509" x2="509" y1="1157" y2="837" /><line stroke="#333" stroke-width="10" x1="509" x2="517" y1="1157" y2="1157" /><line stroke="#333" stroke-width="10" x1="517" x2="509" y1="837" y2="837" /><line stroke="#333" stroke-width="10" x1="485" x2="509" y1="1157" y2="1157" /><line stroke="#333" stroke-width="10" x1="509" x2="485" y1="837" y2="837" /><line stroke="#999" stroke-width="3" x1="485" x2="485" y1="1157" y2="837" /><line stroke="#999" stroke-width="3" x1="485" x2="453" y1="1157" y2="1157" /><line stroke="#999" stroke-width="3" x1="453" x2="421" y1="1157" y2="1157" /><line stroke="#999" stroke-width="3" x1="421" x2="453" y1="837" y2="837" /><line stroke="#999" stroke-width="3" x1="453" x2="485" y1="837" y2="837" /><line stroke="#999" stroke-width="3" x1="453" x2="453" y1="1157" y2="837" /><line stroke="#999" stroke-width="3" x1="421" x2="421" y1="1157" y2="837" /><line stroke="#999" stroke-width="3" x1="1669" x2="1477" y1="1413" y2="1413" /><line stroke="#999" stroke-width="3" x1="1477" x2="1477" y1="1413" y2="1221" /><line stroke="#999" stroke-width="3" x1="1477" x2="1669" y1="1221" y2="1221" /><line stroke="#999" stroke-width="3" x1="1669" x2="1669" y1="1221" y2="1413" /><line stroke="#999" stroke-width="3" x1="965" x2="965" y1="1413" y2="1221" /><line stroke="#999" stroke-width="3" x1="965" x2="1157" y1="1221" y2="1221" /><line stroke="#999" stroke-width="3" x1="1157" x2="1157" y1="1221" y2="1413" /><line stroke="#999" stroke-width="3" x1="1157" x2="965" y1="1413" y2="1413" /><line stroke="#999" stroke-width="3" x1="965" x2="965" y1="773" y2="581" /><line stroke="#999" stroke-width="3" x1="965" x2="1157" y1="581" y2="581" /><line stroke="#999" stroke-width="3" x1="1157" x2="1157" y1="581" y2="773" /><line stroke="#999" stroke-width="3" x1="1157" x2="965" y1="773" y2="773" /><line stroke="#999" stroke-width="3" x1="1477" x2="1477" y1="773" y2="581" /><line stroke="#999" stroke-width="3" x1="1477" x2="1669" y1="581" y2="581" /><line stroke="#999" stroke-width="3" x1="1669" x2="1669" y1="581" y2="773" /><line stroke="#999" stroke-width="3" x1="1669" x2="1477" y1="773" y2="773" /><line stroke="#333" stroke-width="10" x1="1541" x2="1669" y1="1733" y2="1733" /><line stroke="#333" stroke-width="10" x1="1669" x2="1669" y1="1733" y2="1741" /><line stroke="#333" stroke-width="10" x1="1669" x2="1733" y1="1741" y2="1741" /><line stroke="#333" stroke-width="10" x1="1733" x2="1733" y1="1741" y2="1733" /><line stroke="#333" stroke-width="10" x1="1733" x2="2053" y1="1733" y2="1733" /><line stroke="#333" stroke-width="10" x1="517" x2="901" y1="1733" y2="1733" /><line stroke="#333" stroke-width="10" x1="901" x2="901" y1="1733" y2="1741" /><line stroke="#333" stroke-width="10" x1="901" x2="965" y1="1741" y2="1741" /><line stroke="#333" stroke-width="10" x1="965" x2="965" y1="1741" y2="1733" /><line stroke="#333" stroke-width="10" x1="965" x2="1093" y1="1733" y2="1733" /><line stroke="#333" stroke-width="10" x1="1093" x2="965" y1="261" y2="261" /><line stroke="#333" stroke-width="10" x1="965" x2="965" y1="261" y2="253" /><line stroke="#333" stroke-width="10" x1="965" x2="901" y1="253" y2="253" /><line stroke="#333" stroke-width="10" x1="901" x2="901" y1="253" y2="261" /><line stroke="#333" stroke-width="10" x1="901" x2="517" y1="261" y2="261" /><line stroke="#333" stroke-width="10" x1="2053" x2="1733" y1="261" y2="261" /><line stroke="#333" stroke-width="10" x1="1733" x2="1733" y1="261" y2="253" /><line stroke="#333" stroke-width="10" x1="1733" x2="1669" y1="253" y2="253" /><line stroke="#333" stroke-width="10" x1="1669" x2="1669" y1="253" y2="261" /><line stroke="#333" stroke-width="10" x1="1669" x2="1541" y1="261" y2="261" /><line stroke="#999" stroke-width="3" x1="1285" x2="1349" y1="1029" y2="1029" /><line stroke="#999" stroke-width="3" x1="1349" x2="1349" y1="1029" y2="1093" /><line stroke="#999" stroke-width="3" x1="1349" x2="1285" y1="1093" y2="1093" /><line stroke="#999" stroke-width="3" x1="1285" x2="1285" y1="1093" y2="1029" /><line stroke="#999" stroke-width="3" x1="2037" x2="1941" y1="1157" y2="1157" /><line stroke="#999" stroke-width="3" x1="1941" x2="1941" y1="1157" y2="837" /><line stroke="#999" stroke-width="3" x1="1941" x2="2037" y1="837" y2="837" /><line stroke="#999" stroke-width="3" x1="2037" x2="2037" y1="837" y2="1157" /><line stroke="#999" stroke-width="3" x1="1949" x2="2029" y1="1149" y2="1149" /><line stroke="#999" stroke-width="3" x1="2029" x2="2029" y1="1149" y2="845" /><line stroke="#999" stroke-width="3" x1="2029" x2="1949" y1="845" y2="845" /><line stroke="#999" stroke-width="3" x1="1949" x2="1949" y1="1029" y2="1149" /><line stroke="#999" stroke-width="3" x1="1949" x2="1949" y1="845" y2="965" /><line stroke="#999" stroke-width="3" x1="1949" x2="1949" y1="965" y2="1029" /><line stroke="#333" stroke-width="10" x1="197" x2="197" y1="5" y2="1669" /><line stroke="#333" stroke-width="10" x1="197" x2="189" y1="1669" y2="1669" /><line stroke="#333" stroke-width="10" x1="189" x2="133" y1="1669" y2="1669" /><line stroke="#333" stroke-width="10" x1="133" x2="189" y1="1989" y2="1989" /><line stroke="#333" stroke-width="10" x1="189" x2="197" y1="1989" y2="1989" /><line stroke="#999" stroke-width="3" x1="197" x2="197" y1="1669" y2="1989" /><line stroke="#999" stroke-width="3" x1="189" x2="189" y1="1989" y2="1669" /><line stroke="#999" stroke-width="3" x1="133" x2="133" y1="1989" y2="1669" /><line stroke="#333" stroke-width="10" x1="133" x2="5" y1="1669" y2="1669" /><line stroke="#333" stroke-width="10" x1="5" x2="133" y1="1989" y2="1989" /><line stroke="#333" stroke-width="10" x1="5" x2="5" y1="1669" y2="1797" /><line stroke="#333" stroke-width="10" x1="5" x2="5" y1="1797" y2="1861" /><line stroke="#333" stroke-width="10" x1="5" x2="5" y1="1861" y2="1989" /><line stroke="#999" stroke-width="3" x1="1221" x2="1413" y1="965" y2="965" /><line stroke="#999" stroke-width="3" x1="1413" x2="1413" y1="965" y2="1157" /><line stroke="#999" stroke-width="3" x1="1413" x2="1221" y1="1157" y2="1157" /><line stroke="#999" stroke-width="3" x1="1221" x2="1221" y1="1157" y2="965" /><line stroke="#999" stroke-width="3" x1="1189" x2="1445" y1="933" y2="933" /><line stroke="#999" stroke-width="3" x1="1445" x2="1445" y1="933" y2="1189" /><line stroke="#999" stroke-width="3" x1="1445" x2="1189" y1="1189" y2="1189" /><line stroke="#999" stroke-width="3" x1="1189" x2="1189" y1="1189" y2="933" /><line stroke="#999" stroke-width="3" x1="21" x2="29" y1="1813" y2="1813" /><line stroke="#999" stroke-width="3" x1="29" x2="29" y1="1813" y2="1845" /><line stroke="#999" stroke-width="3" x1="29" x2="21" y1="1845" y2="1845" /><line stroke="#999" stroke-width="3" x1="21" x2="21" y1="1845" y2="1813" /><ellipse cx="2005" cy="1013" fill="#009" rx="12" ry="24" stroke="#009" stroke-width="5" /><ellipse cx="2005" cy="949" fill="#009" rx="12" ry="24" stroke="#009" stroke-width="5" /><ellipse cx="2005" cy="1061" fill="#009" rx="12" ry="24" stroke="#009" stroke-width="5" /><ellipse cx="2005" cy="901" fill="#009" rx="12" ry="24" stroke="#009" stroke-width="5" /><circle cx="1125" cy="741" fill="#009" r="16" stroke="#009" stroke-width="5" /><circle cx="1125" cy="1253" fill="#900" r="16" stroke="#900" stroke-width="5" /><circle cx="773" cy="389" fill="#090" r="16" stroke="#090" stroke-width="5" /><circle cx="1861" cy="389" fill="#009" r="16" stroke="#009" stroke-width="5" /><circle cx="1989" cy="1109" fill="#900" r="16" stroke="#900" stroke-width="5" /><circle cx="1509" cy="741" fill="#900" r="16" stroke="#900" stroke-width="5" /><circle cx="1509" cy="1253" fill="#900" r="16" stroke="#900" stroke-width="5" /><rect fill="#900" height="48" stroke="#900" stroke-width="5" transform="rotate(270,1317,1861)" width="32" x="1301" y="1837" /><rect fill="#900" height="48" stroke="#900" stroke-width="5" transform="rotate(90,1317,133)" width="32" x="1301" y="109" /><rect fill="#900" height="48" stroke="#900" stroke-width="5" transform="rotate(180,2277,965)" width="32" x="2261" y="941" /><rect fill="#900" height="48" stroke="#900" stroke-width="5" transform="rotate(0,293,997)" width="32" x="277" y="973" /><rect fill="#900" height="48" stroke="#900" stroke-width="5" transform="rotate(270,1157,1861)" width="32" x="1141" y="1837" /><rect fill="#900" height="48" stroke="#900" stroke-width="5" transform="rotate(180,2277,1093)" width="32" x="2261" y="1069" /><rect fill="#900" height="48" stroke="#900" stroke-width="5" transform="rotate(90,1477,133)" width="32" x="1461" y="109" /><rect fill="#900" height="48" stroke="#900" stroke-width="5" transform="rotate(0,293,837)" width="32" x="277" y="813" /><rect fill="#900" height="48" stroke="#900" stroke-width="5" transform="rotate(270,1477,1861)" width="32" x="1461" y="1837" /><rect fill="#900" height="48" stroke="#900" stroke-width="5" transform="rotate(180,2277,837)" width="32" x="2261" y="813" /><rect fill="#900" height="48" stroke="#900" stroke-width="5" transform="rotate(90,1157,133)" width="32" x="1141" y="109" /><rect fill="#900" height="48" stroke="#900" stroke-width="5" transform="rotate(0,293,1157)" width="32" x="277" y="1133" /><rect fill="#900" height="48" stroke="#900" stroke-width="5" transform="rotate(0,1061,677)" width="32" x="1045" y="653" /><rect fill="#900" height="48" stroke="#900" stroke-width="5" transform="rotate(45,1317,389)" width="32" x="1301" y="365" /><rect fill="#900" height="48" stroke="#900" stroke-width="5" transform="rotate(315,1573,1317)" width="32" x="1557" y="1293" /><rect fill="#900" height="48" stroke="#900" stroke-width="5" transform="rotate(0,1061,1317)" width="32" x="1045" y="1293" /><rect fill="#900" height="48" stroke="#900" stroke-width="5" transform="rotate(45,1573,677)" width="32" x="1557" y="653" /><rect fill="#900" height="48" stroke="#900" stroke-width="5" transform="rotate(0,1605,997)" width="32" x="1589" y="973" /><circle cx="1157" cy="1605" fill="#090" r="16" stroke="#090" stroke-width="5" /><circle cx="1477" cy="1605" fill="#090" r="16" stroke="#090" stroke-width="5" /><circle cx="1477" cy="389" fill="#090" r="16" stroke="#090" stroke-width="5" /><circle cx="1157" cy="389" fill="#090" r="16" stroke="#090" stroke-width="5" /><circle cx="645" cy="1221" fill="#090" r="16" stroke="#090" stroke-width="5" /><circle cx="581" cy="773" fill="#090" r="16" stroke="#090" stroke-width="5" /><circle cx="1989" cy="1221" fill="#090" r="16" stroke="#090" stroke-width="5" /><circle cx="1989" cy="773" fill="#090" r="16" stroke="#090" stroke-width="5" /><circle cx="453" cy="1909" fill="#090" r="16" stroke="#090" stroke-width="5" /><circle cx="2181" cy="69" fill="#090" r="16" stroke="#090" stroke-width="5" /><circle cx="453" cy="69" fill="#090" r="16" stroke="#090" stroke-width="5" /><circle cx="2181" cy="1861" fill="#090" r="16" stroke="#090" stroke-width="5" /><circle cx="1317" cy="1925" fill="#090" r="16" stroke="#090" stroke-width="5" /><circle cx="1317" cy="69" fill="#090" r="16" stroke="#090" stroke-width="5" /><rect fill="#090" height="24" stroke="#090" stroke-width="5" transform="rotate(0,1989,869)" width="24" x="1977" y="857" /><circle cx="949" cy="997" fill="#009" r="16" stroke="#009" stroke-width="5" /><circle cx="2181" cy="389" fill="#009" r="16" stroke="#009" stroke-width="5" /><circle cx="2181" cy="1413" fill="#009" r="16" stroke="#009" stroke-width="5" /><circle cx="453" cy="1541" fill="#009" r="16" stroke="#009" stroke-width="5" /><circle cx="453" cy="325" fill="#009" r="16" stroke="#009" stroke-width="5" /><rect fill="#090" height="24" stroke="#090" stroke-width="5" transform="rotate(270,645,1605)" width="24" x="633" y="1593" /><rect fill="#090" height="24" stroke="#090" stroke-width="5" transform="rotate(270,1989,1605)" width="24" x="1977" y="1593" /><rect fill="#090" height="24" stroke="#090" stroke-width="5" transform="rotate(90,1989,389)" width="24" x="1977" y="377" /><rect fill="#090" height="24" stroke="#090" stroke-width="5" transform="rotate(90,645,389)" width="24" x="633" y="377" /><rect fill="#090" height="24" stroke="#090" stroke-width="5" transform="rotate(180,1989,997)" width="24" x="1977" y="985" /><circle cx="293" cy="741" fill="#009" r="16" stroke="#009" stroke-width="5" /><circle cx="357" cy="1253" fill="#090" r="16" stroke="#090" stroke-width="5" /><circle cx="357" cy="997" fill="#090" r="16" stroke="#090" stroke-width="5" /><rect fill="#090" height="24" stroke="#090" stroke-width="5" transform="rotate(0,1989,869)" width="24" x="1977" y="857" /><rect fill="#090" height="24" stroke="#090" stroke-width="5" transform="rotate(0,1989,869)" width="24" x="1977" y="857" /><rect fill="#090" height="24" stroke="#090" stroke-width="5" transform="rotate(0,1989,869)" width="24" x="1977" y="857" /><circle cx="1861" cy="1605" fill="#009" r="16" stroke="#009" stroke-width="5" /><circle cx="773" cy="1605" fill="#090" r="16" stroke="#090" stroke-width="5" /><circle cx="1861" cy="453" fill="#090" r="16" stroke="#090" stroke-width="5" /><circle cx="1861" cy="1541" fill="#090" r="16" stroke="#090" stroke-width="5" /><circle cx="1733" cy="1861" fill="#090" r="16" stroke="#090" stroke-width="5" /><circle cx="837" cy="69" fill="#090" r="16" stroke="#090" stroke-width="5" /><circle cx="1797" cy="69" fill="#090" r="16" stroke="#090" stroke-width="5" /><circle cx="837" cy="1861" fill="#090" r="16" stroke="#090" stroke-width="5" /><circle cx="453" cy="1349" fill="#090" r="16" stroke="#090" stroke-width="5" /><circle cx="453" cy="517" fill="#090" r="16" stroke="#090" stroke-width="5" /><circle cx="2181" cy="517" fill="#090" r="16" stroke="#090" stroke-width="5" /><circle cx="2181" cy="1285" fill="#090" r="16" stroke="#090" stroke-width="5" /><rect fill="#090" height="24" stroke="#090" stroke-width="5" transform="rotate(0,1989,869)" width="24" x="1977" y="857" /><circle cx="709" cy="389" fill="#009" r="16" stroke="#009" stroke-width="5" /><circle cx="709" cy="1605" fill="#009" r="16" stroke="#009" stroke-width="5" /><circle cx="1317" cy="1253" fill="#090" r="16" stroke="#090" stroke-width="5" /><circle cx="1061" cy="997" fill="#090" r="16" stroke="#090" stroke-width="5" /><circle cx="1317" cy="741" fill="#090" r="16" stroke="#090" stroke-width="5" /><circle cx="1573" cy="1061" fill="#090" r="16" stroke="#090" stroke-width="5" /><circle cx="1573" cy="933" fill="#090" r="16" stroke="#090" stroke-width="5" /><rect fill="#900" height="48" stroke="#900" stroke-width="5" transform="rotate(315,1317,1605)" width="32" x="1301" y="1581" /><circle cx="1637" cy="1317" fill="#090" r="16" stroke="#090" stroke-width="5" /><circle cx="997" cy="677" fill="#090" r="16" stroke="#090" stroke-width="5" /><circle cx="1637" cy="677" fill="#090" r="16" stroke="#090" stroke-width="5" /><circle cx="997" cy="1317" fill="#090" r="16" stroke="#090" stroke-width="5" /><circle cx="2053" cy="1861" fill="#090" r="16" stroke="#090" stroke-width="5" /><rect fill="#090" height="24" stroke="#090" stroke-width="5" transform="rotate(0,69,1829)" width="24" x="57" y="1817" /><circle cx="69" cy="1733" fill="#900" r="16" stroke="#900" stroke-width="5" /><circle cx="69" cy="1925" fill="#090" r="16" stroke="#090" stroke-width="5" /><circle cx="2245" cy="1797" fill="#900" r="16" stroke="#900" stroke-width="5" /><circle cx="2245" cy="133" fill="#900" r="16" stroke="#900" stroke-width="5" /><circle cx="453" cy="133" fill="#900" r="16" stroke="#900" stroke-width="5" /><circle cx="453" cy="1845" fill="#900" r="16" stroke="#900" stroke-width="5" /><rect fill="#090" height="24" stroke="#090" stroke-width="5" transform="rotate(0,1989,869)" width="24" x="1977" y="857" /><rect fill="#090" height="24" stroke="#090" stroke-width="5" transform="rotate(0,1989,869)" width="24" x="1977" y="857" /><rect fill="#090" height="24" stroke="#090" stroke-width="5" transform="rotate(0,1989,869)" width="24" x="1977" y="857" /><rect fill="#090" height="24" stroke="#090" stroke-width="5" transform="rotate(0,1989,869)" width="24" x="1977" y="857" /><rect fill="#090" height="24" stroke="#090" stroke-width="5" transform="rotate(0,1989,869)" width="24" x="1977" y="857" /></svg>