<?xml version="1.0" encoding="utf-8" ?>
<svg baseProfile="tiny" height="867" version="1.2" viewBox="0 0 3498 2962" width="1024" xmlns="http://www.w3.org/2000/svg" xmlns:ev="http://www.w3.org/2001/xml-events" xmlns:xlink="http://www.w3.org/1999/xlink"><defs /><line stroke="#333" stroke-width="10" x1="2469" x2="2469" y1="333" y2="13" /><line stroke="#999" stroke-width="3" x1="2341" x2="2405" y1="589" y2="589" /><line stroke="#999" stroke-width="3" x1="2405" x2="2405" y1="589" y2="653" /><line stroke="#999" stroke-width="3" x1="2405" x2="2341" y1="653" y2="653" /><line stroke="#999" stroke-width="3" x1="2341" x2="2341" y1="653" y2="589" /><line stroke="#999" stroke-width="3" x1="2341" x2="2405" y1="141" y2="141" /><line stroke="#999" stroke-width="3" x1="2405" x2="2405" y1="141" y2="205" /><line stroke="#999" stroke-width="3" x1="2405" x2="2341" y1="205" y2="205" /><line stroke="#999" stroke-width="3" x1="2341" x2="2341" y1="205" y2="141" /><line stroke="#999" stroke-width="3" x1="2085" x2="2149" y1="2381" y2="2381" /><line stroke="#999" stroke-width="3" x1="2149" x2="2149" y1="2381" y2="2445" /><line stroke="#999" stroke-width="3" x1="2149" x2="2085" y1="2445" y2="2445" /><line stroke="#999" stroke-width="3" x1="2085" x2="2085" y1="2445" y2="2381" /><line stroke="#999" stroke-width="3" x1="1893" x2="1957" y1="1869" y2="1869" /><line stroke="#999" stroke-width="3" x1="1957" x2="1893" y1="1933" y2="1933" /><line stroke="#999" stroke-width="3" x1="1893" x2="1893" y1="1933" y2="1869" /><line stroke="#999" stroke-width="3" x1="1957" x2="1957" y1="1869" y2="1933" /><line stroke="#999" stroke-width="3" x1="1573" x2="1573" y1="1421" y2="1357" /><line stroke="#999" stroke-width="3" x1="1637" x2="1573" y1="1421" y2="1421" /><line stroke="#999" stroke-width="3" x1="1509" x2="1445" y1="1037" y2="1037" /><line stroke="#999" stroke-width="3" x1="1445" x2="1445" y1="1037" y2="973" /><line stroke="#999" stroke-width="3" x1="1189" x2="1253" y1="653" y2="653" /><line stroke="#999" stroke-width="3" x1="1253" x2="1253" y1="653" y2="717" /><line stroke="#999" stroke-width="3" x1="1253" x2="1189" y1="717" y2="717" /><line stroke="#999" stroke-width="3" x1="1189" x2="1189" y1="717" y2="653" /><line stroke="#333" stroke-width="10" x1="3109" x2="2853" y1="2061" y2="2061" /><line stroke="#333" stroke-width="10" x1="2789" x2="2789" y1="2125" y2="2381" /><line stroke="#999" stroke-width="3" x1="2853" x2="2789" y1="2125" y2="2125" /><line stroke="#999" stroke-width="3" x1="2853" x2="2853" y1="2061" y2="2125" /><line stroke="#333" stroke-width="10" x1="3429" x2="3429" y1="781" y2="13" /><line stroke="#333" stroke-width="10" x1="3429" x2="2661" y1="13" y2="13" /><line stroke="#333" stroke-width="10" x1="2661" x2="3429" y1="781" y2="781" /><line stroke="#999" stroke-width="3" x1="2853" x2="2917" y1="653" y2="653" /><line stroke="#999" stroke-width="3" x1="2917" x2="2917" y1="653" y2="717" /><line stroke="#999" stroke-width="3" x1="2917" x2="2853" y1="717" y2="717" /><line stroke="#999" stroke-width="3" x1="2853" x2="2853" y1="717" y2="653" /><line stroke="#999" stroke-width="3" x1="2725" x2="2789" y1="525" y2="525" /><line stroke="#999" stroke-width="3" x1="2789" x2="2725" y1="589" y2="589" /><line stroke="#999" stroke-width="3" x1="2725" x2="2725" y1="589" y2="525" /><line stroke="#999" stroke-width="3" x1="2853" x2="3237" y1="205" y2="205" /><line stroke="#999" stroke-width="3" x1="2853" x2="2853" y1="589" y2="205" /><line stroke="#999" stroke-width="3" x1="3237" x2="2853" y1="589" y2="589" /><line stroke="#999" stroke-width="3" x1="3237" x2="3237" y1="205" y2="589" /><line stroke="#999" stroke-width="3" x1="2789" x2="2789" y1="525" y2="589" /><line stroke="#333" stroke-width="10" x1="1909" x2="1933" y1="2381" y2="2381" /><line stroke="#333" stroke-width="10" x1="1933" x2="1997" y1="2381" y2="2493" /><line stroke="#333" stroke-width="10" x1="1997" x2="2061" y1="2493" y2="2509" /><line stroke="#333" stroke-width="10" x1="2061" x2="2189" y1="2509" y2="2501" /><line stroke="#333" stroke-width="10" x1="2189" x2="2229" y1="2501" y2="2413" /><line stroke="#333" stroke-width="10" x1="2229" x2="2189" y1="2413" y2="2325" /><line stroke="#333" stroke-width="10" x1="2189" x2="2125" y1="2325" y2="2325" /><line stroke="#333" stroke-width="10" x1="2125" x2="2125" y1="2325" y2="2301" /><line stroke="#333" stroke-width="10" x1="2125" x2="2221" y1="2301" y2="2301" /><line stroke="#333" stroke-width="10" x1="2221" x2="2269" y1="2301" y2="2421" /><line stroke="#333" stroke-width="10" x1="2269" x2="2229" y1="2421" y2="2509" /><line stroke="#333" stroke-width="10" x1="2229" x2="2109" y1="2509" y2="2557" /><line stroke="#333" stroke-width="10" x1="2109" x2="1957" y1="2557" y2="2509" /><line stroke="#333" stroke-width="10" x1="1957" x2="1909" y1="2509" y2="2381" /><line stroke="#999" stroke-width="3" x1="1749" x2="1877" y1="2405" y2="2589" /><line stroke="#999" stroke-width="3" x1="1837" x2="1749" y1="2269" y2="2405" /><line stroke="#999" stroke-width="3" x1="2069" x2="1837" y1="2157" y2="2269" /><line stroke="#999" stroke-width="3" x1="2261" x2="2069" y1="2189" y2="2157" /><line stroke="#999" stroke-width="3" x1="2381" x2="2261" y1="2333" y2="2189" /><line stroke="#999" stroke-width="3" x1="2341" x2="2381" y1="2421" y2="2333" /><line stroke="#999" stroke-width="3" x1="2365" x2="2341" y1="2437" y2="2421" /><line stroke="#999" stroke-width="3" x1="2421" x2="2365" y1="2325" y2="2437" /><line stroke="#999" stroke-width="3" x1="2293" x2="2421" y1="2149" y2="2325" /><line stroke="#999" stroke-width="3" x1="2053" x2="2293" y1="2085" y2="2149" /><line stroke="#999" stroke-width="3" x1="1821" x2="2053" y1="2237" y2="2085" /><line stroke="#999" stroke-width="3" x1="1693" x2="1821" y1="2413" y2="2237" /><line stroke="#999" stroke-width="3" x1="1853" x2="1693" y1="2613" y2="2413" /><line stroke="#999" stroke-width="3" x1="1877" x2="1853" y1="2589" y2="2613" /><line stroke="#333" stroke-width="10" x1="2549" x2="2293" y1="2109" y2="1869" /><line stroke="#999" stroke-width="3" x1="2293" x2="1949" y1="1869" y2="1821" /><line stroke="#999" stroke-width="3" x1="1949" x2="1685" y1="1821" y2="1973" /><line stroke="#333" stroke-width="10" x1="1685" x2="1549" y1="1973" y2="2445" /><line stroke="#333" stroke-width="10" x1="1549" x2="1749" y1="2445" y2="2829" /><line stroke="#333" stroke-width="10" x1="1749" x2="2117" y1="2829" y2="2877" /><line stroke="#333" stroke-width="10" x1="2117" x2="2421" y1="2877" y2="2733" /><line stroke="#333" stroke-width="10" x1="2421" x2="2549" y1="2733" y2="2325" /><line stroke="#333" stroke-width="10" x1="2549" x2="2549" y1="2325" y2="2109" /><line stroke="#999" stroke-width="3" x1="1821" x2="1685" y1="2237" y2="1973" /><line stroke="#999" stroke-width="3" x1="2293" x2="2293" y1="1869" y2="2149" /><line stroke="#333" stroke-width="10" x1="2293" x2="2293" y1="1869" y2="1853" /><line stroke="#333" stroke-width="10" x1="1685" x2="1685" y1="1949" y2="1973" /><line stroke="#999" stroke-width="3" x1="1941" x2="2293" y1="1781" y2="1853" /><line stroke="#999" stroke-width="3" x1="1685" x2="1941" y1="1949" y2="1781" /><line stroke="#333" stroke-width="10" x1="2293" x2="2293" y1="1853" y2="1749" /><line stroke="#333" stroke-width="10" x1="2293" x2="1685" y1="1749" y2="1749" /><line stroke="#333" stroke-width="10" x1="1685" x2="1685" y1="1813" y2="1949" /><line stroke="#999" stroke-width="3" x1="3013" x2="3077" y1="685" y2="685" /><line stroke="#999" stroke-width="3" x1="3077" x2="3077" y1="685" y2="749" /><line stroke="#999" stroke-width="3" x1="3077" x2="3013" y1="749" y2="749" /><line stroke="#999" stroke-width="3" x1="3013" x2="3013" y1="749" y2="685" /><line stroke="#333" stroke-width="10" x1="1701" x2="1509" y1="13" y2="13" /><line stroke="#333" stroke-width="10" x1="741" x2="741" y1="13" y2="205" /><line stroke="#333" stroke-width="10" x1="741" x2="741" y1="205" y2="269" /><line stroke="#333" stroke-width="10" x1="741" x2="741" y1="269" y2="461" /><line stroke="#333" stroke-width="10" x1="741" x2="741" y1="461" y2="525" /><line stroke="#333" stroke-width="10" x1="741" x2="741" y1="525" y2="717" /><line stroke="#333" stroke-width="10" x1="741" x2="741" y1="717" y2="781" /><line stroke="#333" stroke-width="10" x1="741" x2="805" y1="781" y2="781" /><line stroke="#333" stroke-width="10" x1="805" x2="997" y1="781" y2="781" /><line stroke="#333" stroke-width="10" x1="997" x2="1061" y1="781" y2="781" /><line stroke="#333" stroke-width="10" x1="1061" x2="1253" y1="781" y2="781" /><line stroke="#333" stroke-width="10" x1="1253" x2="1317" y1="781" y2="781" /><line stroke="#333" stroke-width="10" x1="1317" x2="1509" y1="781" y2="781" /><line stroke="#999" stroke-width="3" x1="741" x2="901" y1="13" y2="141" /><line stroke="#999" stroke-width="3" x1="901" x2="901" y1="141" y2="621" /><line stroke="#999" stroke-width="3" x1="901" x2="1509" y1="621" y2="621" /><line stroke="#999" stroke-width="3" x1="1061" x2="997" y1="589" y2="589" /><line stroke="#999" stroke-width="3" x1="997" x2="933" y1="589" y2="589" /><line stroke="#999" stroke-width="3" x1="933" x2="933" y1="589" y2="525" /><line stroke="#999" stroke-width="3" x1="933" x2="933" y1="525" y2="461" /><line stroke="#999" stroke-width="3" x1="933" x2="1061" y1="461" y2="589" /><line stroke="#999" stroke-width="3" x1="1509" x2="1509" y1="621" y2="205" /><line stroke="#999" stroke-width="3" x1="1509" x2="1509" y1="205" y2="13" /><line stroke="#999" stroke-width="3" x1="1701" x2="1701" y1="13" y2="781" /><line stroke="#999" stroke-width="3" x1="1509" x2="1509" y1="781" y2="621" /><line stroke="#333" stroke-width="10" x1="1509" x2="1701" y1="781" y2="781" /><line stroke="#333" stroke-width="10" x1="1509" x2="1317" y1="13" y2="13" /><line stroke="#333" stroke-width="10" x1="1317" x2="741" y1="13" y2="13" /><line stroke="#999" stroke-width="3" x1="1509" x2="1349" y1="205" y2="173" /><line stroke="#999" stroke-width="3" x1="1349" x2="1317" y1="173" y2="13" /><line stroke="#999" stroke-width="3" x1="1509" x2="1445" y1="205" y2="269" /><line stroke="#999" stroke-width="3" x1="1445" x2="1253" y1="269" y2="269" /><line stroke="#999" stroke-width="3" x1="1253" x2="1253" y1="269" y2="77" /><line stroke="#999" stroke-width="3" x1="1253" x2="1317" y1="77" y2="13" /><line stroke="#999" stroke-width="3" x1="1445" x2="1381" y1="269" y2="333" /><line stroke="#999" stroke-width="3" x1="1381" x2="1157" y1="333" y2="365" /><line stroke="#999" stroke-width="3" x1="1157" x2="1189" y1="365" y2="141" /><line stroke="#999" stroke-width="3" x1="1189" x2="1253" y1="141" y2="77" /><line stroke="#999" stroke-width="3" x1="1381" x2="1381" y1="333" y2="397" /><line stroke="#999" stroke-width="3" x1="1381" x2="1061" y1="397" y2="461" /><line stroke="#999" stroke-width="3" x1="1061" x2="1125" y1="461" y2="141" /><line stroke="#999" stroke-width="3" x1="1125" x2="1189" y1="141" y2="141" /><line stroke="#333" stroke-width="10" x1="1701" x2="1893" y1="781" y2="781" /><line stroke="#333" stroke-width="10" x1="1893" x2="2085" y1="781" y2="781" /><line stroke="#333" stroke-width="10" x1="2085" x2="2277" y1="781" y2="781" /><line stroke="#333" stroke-width="10" x1="2277" x2="2405" y1="781" y2="781" /><line stroke="#333" stroke-width="10" x1="2405" x2="2277" y1="13" y2="13" /><line stroke="#333" stroke-width="10" x1="2277" x2="2085" y1="13" y2="13" /><line stroke="#333" stroke-width="10" x1="2085" x2="1893" y1="13" y2="13" /><line stroke="#333" stroke-width="10" x1="1893" x2="1701" y1="13" y2="13" /><line stroke="#999" stroke-width="3" x1="1893" x2="1893" y1="13" y2="781" /><line stroke="#999" stroke-width="3" x1="2085" x2="2085" y1="13" y2="781" /><line stroke="#999" stroke-width="3" x1="2277" x2="2277" y1="13" y2="781" /><line stroke="#999" stroke-width="3" x1="3173" x2="2981" y1="1229" y2="1229" /><line stroke="#999" stroke-width="3" x1="2981" x2="2981" y1="1229" y2="1421" /><line stroke="#999" stroke-width="3" x1="2981" x2="3173" y1="1421" y2="1421" /><line stroke="#999" stroke-width="3" x1="3173" x2="3173" y1="1421" y2="1229" /><line stroke="#999" stroke-width="3" x1="2965" x2="3189" y1="1213" y2="1213" /><line stroke="#999" stroke-width="3" x1="3189" x2="3189" y1="1213" y2="1437" /><line stroke="#999" stroke-width="3" x1="3189" x2="2965" y1="1437" y2="1437" /><line stroke="#999" stroke-width="3" x1="2965" x2="2965" y1="1437" y2="1213" /><line stroke="#999" stroke-width="3" x1="3365" x2="2789" y1="1037" y2="1037" /><line stroke="#999" stroke-width="3" x1="2789" x2="2789" y1="1037" y2="1613" /><line stroke="#999" stroke-width="3" x1="2789" x2="3365" y1="1613" y2="1613" /><line stroke="#999" stroke-width="3" x1="3365" x2="3365" y1="1613" y2="1037" /><line stroke="#999" stroke-width="3" x1="2773" x2="2773" y1="1629" y2="1021" /><line stroke="#999" stroke-width="3" x1="3381" x2="2773" y1="1629" y2="1629" /><line stroke="#999" stroke-width="3" x1="2773" x2="3381" y1="1021" y2="1021" /><line stroke="#999" stroke-width="3" x1="3381" x2="3381" y1="1021" y2="1629" /><line stroke="#333" stroke-width="10" x1="3493" x2="2597" y1="845" y2="845" /><line stroke="#333" stroke-width="10" x1="2533" x2="2533" y1="909" y2="1869" /><line stroke="#333" stroke-width="10" x1="2533" x2="3429" y1="1869" y2="1869" /><line stroke="#333" stroke-width="10" x1="3493" x2="3493" y1="1805" y2="845" /><line stroke="#333" stroke-width="10" x1="3429" x2="3493" y1="1869" y2="1869" /><line stroke="#333" stroke-width="10" x1="3493" x2="3493" y1="1869" y2="1805" /><line stroke="#999" stroke-width="3" x1="3429" x2="3429" y1="1869" y2="1805" /><line stroke="#999" stroke-width="3" x1="3429" x2="3493" y1="1805" y2="1805" /><line stroke="#333" stroke-width="10" x1="2469" x2="2469" y1="13" y2="5" /><line stroke="#333" stroke-width="10" x1="2469" x2="2405" y1="5" y2="5" /><line stroke="#333" stroke-width="10" x1="2405" x2="2405" y1="5" y2="13" /><line stroke="#333" stroke-width="10" x1="2597" x2="2533" y1="845" y2="845" /><line stroke="#333" stroke-width="10" x1="2533" x2="2533" y1="845" y2="909" /><line stroke="#999" stroke-width="3" x1="2597" x2="2597" y1="845" y2="909" /><line stroke="#999" stroke-width="3" x1="2597" x2="2533" y1="909" y2="909" /><line stroke="#333" stroke-width="10" x1="1685" x2="1685" y1="1749" y2="1813" /><line stroke="#333" stroke-width="10" x1="2405" x2="2405" y1="781" y2="789" /><line stroke="#333" stroke-width="10" x1="2469" x2="2469" y1="789" y2="781" /><line stroke="#333" stroke-width="10" x1="2405" x2="2469" y1="789" y2="789" /><line stroke="#333" stroke-width="10" x1="2469" x2="2469" y1="781" y2="461" /><line stroke="#999" stroke-width="3" x1="2469" x2="2469" y1="461" y2="333" /><line stroke="#333" stroke-width="10" x1="2661" x2="2661" y1="13" y2="333" /><line stroke="#999" stroke-width="3" x1="2661" x2="2661" y1="333" y2="461" /><line stroke="#333" stroke-width="10" x1="2661" x2="2661" y1="461" y2="781" /><line stroke="#333" stroke-width="10" x1="2469" x2="2661" y1="461" y2="461" /><line stroke="#333" stroke-width="10" x1="2661" x2="2469" y1="333" y2="333" /><line stroke="#999" stroke-width="3" x1="2533" x2="2469" y1="397" y2="461" /><line stroke="#999" stroke-width="3" x1="2469" x2="2533" y1="333" y2="397" /><line stroke="#999" stroke-width="3" x1="2597" x2="2661" y1="397" y2="333" /><line stroke="#999" stroke-width="3" x1="2661" x2="2597" y1="461" y2="397" /><line stroke="#999" stroke-width="3" x1="2853" x2="3301" y1="1549" y2="1549" /><line stroke="#999" stroke-width="3" x1="3301" x2="3301" y1="1549" y2="1101" /><line stroke="#999" stroke-width="3" x1="3301" x2="2853" y1="1101" y2="1101" /><line stroke="#999" stroke-width="3" x1="2853" x2="2853" y1="1101" y2="1549" /><line stroke="#333" stroke-width="10" x1="1637" x2="1637" y1="1421" y2="1357" /><line stroke="#333" stroke-width="10" x1="1637" x2="1573" y1="1357" y2="1357" /><line stroke="#333" stroke-width="10" x1="1509" x2="1445" y1="973" y2="973" /><line stroke="#333" stroke-width="10" x1="1509" x2="1509" y1="1037" y2="973" /><line stroke="#333" stroke-width="10" x1="1445" x2="1317" y1="973" y2="973" /><line stroke="#333" stroke-width="10" x1="1509" x2="1509" y1="1357" y2="1037" /><line stroke="#999" stroke-width="3" x1="1549" x2="1557" y1="1365" y2="1365" /><line stroke="#999" stroke-width="3" x1="1557" x2="1557" y1="1365" y2="1421" /><line stroke="#999" stroke-width="3" x1="1557" x2="1549" y1="1421" y2="1421" /><line stroke="#999" stroke-width="3" x1="1549" x2="1549" y1="1421" y2="1365" /><line stroke="#999" stroke-width="3" x1="1573" x2="1629" y1="1437" y2="1437" /><line stroke="#999" stroke-width="3" x1="1629" x2="1629" y1="1437" y2="1445" /><line stroke="#999" stroke-width="3" x1="1629" x2="1573" y1="1445" y2="1445" /><line stroke="#999" stroke-width="3" x1="1573" x2="1573" y1="1445" y2="1437" /><line stroke="#333" stroke-width="10" x1="1573" x2="1509" y1="1357" y2="1357" /><line stroke="#333" stroke-width="10" x1="1701" x2="1701" y1="973" y2="1421" /><line stroke="#333" stroke-width="10" x1="1701" x2="1637" y1="1421" y2="1421" /><line stroke="#333" stroke-width="10" x1="1317" x2="1317" y1="973" y2="845" /><line stroke="#333" stroke-width="10" x1="2149" x2="2341" y1="1709" y2="1645" /><line stroke="#333" stroke-width="10" x1="2341" x2="2437" y1="1645" y2="1421" /><line stroke="#333" stroke-width="10" x1="2437" x2="2405" y1="1421" y2="1197" /><line stroke="#333" stroke-width="10" x1="2405" x2="2309" y1="1197" y2="1037" /><line stroke="#333" stroke-width="10" x1="2309" x2="2085" y1="1037" y2="909" /><line stroke="#333" stroke-width="10" x1="1829" x2="1765" y1="877" y2="973" /><line stroke="#333" stroke-width="10" x1="1765" x2="1701" y1="973" y2="973" /><line stroke="#333" stroke-width="10" x1="1317" x2="1125" y1="845" y2="845" /><line stroke="#333" stroke-width="10" x1="1125" x2="677" y1="845" y2="845" /><line stroke="#333" stroke-width="10" x1="677" x2="5" y1="845" y2="1453" /><line stroke="#333" stroke-width="10" x1="5" x2="5" y1="1453" y2="2125" /><line stroke="#333" stroke-width="10" x1="5" x2="229" y1="2125" y2="2925" /><line stroke="#333" stroke-width="10" x1="229" x2="1157" y1="2925" y2="2957" /><line stroke="#333" stroke-width="10" x1="1157" x2="1445" y1="2957" y2="2797" /><line stroke="#333" stroke-width="10" x1="1445" x2="1477" y1="2797" y2="2541" /><line stroke="#333" stroke-width="10" x1="1477" x2="1317" y1="2541" y2="2253" /><line stroke="#333" stroke-width="10" x1="1317" x2="1285" y1="2253" y2="1933" /><line stroke="#333" stroke-width="10" x1="1381" x2="1637" y1="1741" y2="1677" /><line stroke="#333" stroke-width="10" x1="1637" x2="2149" y1="1677" y2="1709" /><line stroke="#333" stroke-width="10" x1="1285" x2="1381" y1="1933" y2="1741" /><line stroke="#999" stroke-width="3" x1="1765" x2="1797" y1="973" y2="1069" /><line stroke="#999" stroke-width="3" x1="1797" x2="1797" y1="1069" y2="1549" /><line stroke="#999" stroke-width="3" x1="1797" x2="1381" y1="1549" y2="1549" /><line stroke="#999" stroke-width="3" x1="1381" x2="1381" y1="1549" y2="1165" /><line stroke="#999" stroke-width="3" x1="1381" x2="1317" y1="1165" y2="1165" /><line stroke="#999" stroke-width="3" x1="1317" x2="1125" y1="1165" y2="845" /><line stroke="#999" stroke-width="3" x1="741" x2="805" y1="1421" y2="1421" /><line stroke="#999" stroke-width="3" x1="805" x2="869" y1="1421" y2="1485" /><line stroke="#999" stroke-width="3" x1="869" x2="805" y1="1485" y2="1549" /><line stroke="#999" stroke-width="3" x1="805" x2="741" y1="1549" y2="1549" /><line stroke="#999" stroke-width="3" x1="741" x2="741" y1="1549" y2="1421" /><line stroke="#999" stroke-width="3" x1="869" x2="805" y1="2061" y2="1997" /><line stroke="#999" stroke-width="3" x1="805" x2="837" y1="1997" y2="1901" /><line stroke="#999" stroke-width="3" x1="837" x2="933" y1="1901" y2="1869" /><line stroke="#999" stroke-width="3" x1="933" x2="997" y1="1869" y2="1933" /><line stroke="#999" stroke-width="3" x1="997" x2="965" y1="1933" y2="2029" /><line stroke="#999" stroke-width="3" x1="965" x2="869" y1="2029" y2="2061" /><line stroke="#999" stroke-width="3" x1="2149" x2="2149" y1="1709" y2="1517" /><line stroke="#999" stroke-width="3" x1="2149" x2="2213" y1="1517" y2="1389" /><line stroke="#999" stroke-width="3" x1="2213" x2="2309" y1="1389" y2="1357" /><line stroke="#999" stroke-width="3" x1="2309" x2="2437" y1="1357" y2="1421" /><line stroke="#999" stroke-width="3" x1="1317" x2="1253" y1="2253" y2="2253" /><line stroke="#999" stroke-width="3" x1="1253" x2="1189" y1="2253" y2="2189" /><line stroke="#999" stroke-width="3" x1="1189" x2="1125" y1="2189" y2="1997" /><line stroke="#999" stroke-width="3" x1="1125" x2="1253" y1="1997" y2="1741" /><line stroke="#999" stroke-width="3" x1="1253" x2="1445" y1="1741" y2="1613" /><line stroke="#999" stroke-width="3" x1="1445" x2="1637" y1="1613" y2="1613" /><line stroke="#999" stroke-width="3" x1="1637" x2="1637" y1="1613" y2="1677" /><line stroke="#999" stroke-width="3" x1="677" x2="613" y1="1133" y2="1101" /><line stroke="#999" stroke-width="3" x1="613" x2="613" y1="1101" y2="1037" /><line stroke="#999" stroke-width="3" x1="613" x2="709" y1="1037" y2="1037" /><line stroke="#999" stroke-width="3" x1="709" x2="677" y1="1037" y2="1133" /><line stroke="#999" stroke-width="3" x1="613" x2="485" y1="2573" y2="2541" /><line stroke="#999" stroke-width="3" x1="485" x2="453" y1="2541" y2="2477" /><line stroke="#999" stroke-width="3" x1="453" x2="485" y1="2477" y2="2381" /><line stroke="#999" stroke-width="3" x1="485" x2="613" y1="2381" y2="2381" /><line stroke="#999" stroke-width="3" x1="613" x2="677" y1="2381" y2="2477" /><line stroke="#999" stroke-width="3" x1="677" x2="613" y1="2477" y2="2573" /><line stroke="#999" stroke-width="3" x1="1189" x2="1061" y1="2701" y2="2701" /><line stroke="#999" stroke-width="3" x1="1061" x2="1061" y1="2701" y2="2541" /><line stroke="#999" stroke-width="3" x1="1061" x2="1221" y1="2541" y2="2581" /><line stroke="#999" stroke-width="3" x1="1221" x2="1189" y1="2581" y2="2701" /><line stroke="#999" stroke-width="3" x1="357" x2="229" y1="2765" y2="2925" /><line stroke="#999" stroke-width="3" x1="357" x2="357" y1="2445" y2="2765" /><line stroke="#999" stroke-width="3" x1="165" x2="357" y1="2125" y2="2445" /><line stroke="#999" stroke-width="3" x1="5" x2="165" y1="2125" y2="2125" /><line stroke="#999" stroke-width="3" x1="453" x2="485" y1="1613" y2="1677" /><line stroke="#999" stroke-width="3" x1="293" x2="453" y1="1549" y2="1613" /><line stroke="#999" stroke-width="3" x1="197" x2="293" y1="1677" y2="1549" /><line stroke="#999" stroke-width="3" x1="197" x2="197" y1="1805" y2="1677" /><line stroke="#999" stroke-width="3" x1="325" x2="197" y1="1901" y2="1805" /><line stroke="#999" stroke-width="3" x1="485" x2="325" y1="1869" y2="1901" /><line stroke="#999" stroke-width="3" x1="485" x2="485" y1="1677" y2="1869" /><line stroke="#999" stroke-width="3" x1="2085" x2="2029" y1="909" y2="1013" /><line stroke="#999" stroke-width="3" x1="2029" x2="1909" y1="1013" y2="1013" /><line stroke="#999" stroke-width="3" x1="1909" x2="1837" y1="1013" y2="957" /><line stroke="#999" stroke-width="3" x1="1837" x2="1829" y1="957" y2="877" /><line stroke="#999" stroke-width="3" x1="1509" x2="1517" y1="1373" y2="1373" /><line stroke="#999" stroke-width="3" x1="1517" x2="1517" y1="1373" y2="1445" /><line stroke="#999" stroke-width="3" x1="1517" x2="1509" y1="1445" y2="1445" /><line stroke="#999" stroke-width="3" x1="1509" x2="1509" y1="1445" y2="1373" /><line stroke="#999" stroke-width="3" x1="1549" x2="1661" y1="1477" y2="1477" /><line stroke="#999" stroke-width="3" x1="1549" x2="1549" y1="1485" y2="1477" /><line stroke="#999" stroke-width="3" x1="1669" x2="1549" y1="1485" y2="1485" /><line stroke="#999" stroke-width="3" x1="1661" x2="1661" y1="1477" y2="1437" /><line stroke="#999" stroke-width="3" x1="1661" x2="1669" y1="1437" y2="1437" /><line stroke="#999" stroke-width="3" x1="1669" x2="1669" y1="1437" y2="1485" /><line stroke="#333" stroke-width="10" x1="2085" x2="2045" y1="909" y2="893" /><line stroke="#333" stroke-width="10" x1="2045" x2="2045" y1="893" y2="829" /><line stroke="#333" stroke-width="10" x1="2045" x2="1925" y1="829" y2="805" /><line stroke="#333" stroke-width="10" x1="1925" x2="1829" y1="805" y2="877" /><line stroke="#999" stroke-width="3" x1="997" x2="1061" y1="909" y2="909" /><line stroke="#999" stroke-width="3" x1="1061" x2="1125" y1="909" y2="973" /><line stroke="#999" stroke-width="3" x1="1125" x2="1061" y1="973" y2="1037" /><line stroke="#999" stroke-width="3" x1="1061" x2="997" y1="1037" y2="1037" /><line stroke="#999" stroke-width="3" x1="997" x2="997" y1="1037" y2="909" /><line stroke="#999" stroke-width="3" x1="1381" x2="1389" y1="1005" y2="1005" /><line stroke="#999" stroke-width="3" x1="1381" x2="1381" y1="1061" y2="1005" /><line stroke="#999" stroke-width="3" x1="1389" x2="1381" y1="1061" y2="1061" /><line stroke="#999" stroke-width="3" x1="1389" x2="1389" y1="1005" y2="1061" /><line stroke="#999" stroke-width="3" x1="1477" x2="1477" y1="1085" y2="1093" /><line stroke="#999" stroke-width="3" x1="1413" x2="1477" y1="1085" y2="1085" /><line stroke="#999" stroke-width="3" x1="1413" x2="1413" y1="1093" y2="1085" /><line stroke="#999" stroke-width="3" x1="1477" x2="1413" y1="1093" y2="1093" /><line stroke="#999" stroke-width="3" x1="2981" x2="3109" y1="2253" y2="2253" /><line stroke="#999" stroke-width="3" x1="2981" x2="2981" y1="2381" y2="2253" /><line stroke="#333" stroke-width="10" x1="2789" x2="2981" y1="2381" y2="2381" /><line stroke="#333" stroke-width="10" x1="3109" x2="3109" y1="2253" y2="2061" /><line stroke="#333" stroke-width="10" x1="2981" x2="3109" y1="2381" y2="2381" /><line stroke="#333" stroke-width="10" x1="3109" x2="3109" y1="2381" y2="2253" /><line stroke="#333" stroke-width="10" x1="2853" x2="2789" y1="2061" y2="2061" /><line stroke="#333" stroke-width="10" x1="2789" x2="2789" y1="2061" y2="2125" /><rect fill="#090" height="24" stroke="#090" stroke-width="5" transform="rotate(90,2021,2317)" width="24" x="2009" y="2305" /><rect fill="#090" height="24" stroke="#090" stroke-width="5" transform="rotate(135,1349,1117)" width="24" x="1337" y="1105" /><rect fill="#090" height="24" stroke="#090" stroke-width="5" transform="rotate(90,1205,317)" width="24" x="1193" y="305" /><rect fill="#090" height="24" stroke="#090" stroke-width="5" transform="rotate(90,3013,1389)" width="24" x="3001" y="1377" /><ellipse cx="3045" cy="301" fill="#009" rx="12" ry="24" stroke="#009" stroke-width="5" /><ellipse cx="3173" cy="301" fill="#009" rx="12" ry="24" stroke="#009" stroke-width="5" /><ellipse cx="2917" cy="301" fill="#009" rx="12" ry="24" stroke="#009" stroke-width="5" /><ellipse cx="3045" cy="237" fill="#009" rx="12" ry="24" stroke="#009" stroke-width="5" /><rect fill="#090" height="24" stroke="#090" stroke-width="5" transform="rotate(90,3045,397)" width="24" x="3033" y="385" /><rect fill="#090" height="24" stroke="#090" stroke-width="5" transform="rotate(315,2885,685)" width="24" x="2873" y="673" /><rect fill="#090" height="24" stroke="#090" stroke-width="5" transform="rotate(315,2757,557)" width="24" x="2745" y="545" /><rect fill="#090" height="24" stroke="#090" stroke-width="5" transform="rotate(45,2821,2093)" width="24" x="2809" y="2081" /><rect fill="#090" height="24" stroke="#090" stroke-width="5" transform="rotate(45,3077,1325)" width="24" x="3065" y="1313" /><rect fill="#090" height="24" stroke="#090" stroke-width="5" transform="rotate(270,2373,173)" width="24" x="2361" y="161" /><rect fill="#090" height="24" stroke="#090" stroke-width="5" transform="rotate(225,1221,685)" width="24" x="1209" y="673" /><rect fill="#090" height="24" stroke="#090" stroke-width="5" transform="rotate(135,1605,1389)" width="24" x="1593" y="1377" /><rect fill="#090" height="24" stroke="#090" stroke-width="5" transform="rotate(135,1477,1005)" width="24" x="1465" y="993" /><rect fill="#090" height="24" stroke="#090" stroke-width="5" transform="rotate(90,1925,1901)" width="24" x="1913" y="1889" /><rect fill="#090" height="24" stroke="#090" stroke-width="5" transform="rotate(225,2117,2413)" width="24" x="2105" y="2401" /><circle cx="2405" cy="2509" fill="#900" r="16" stroke="#900" stroke-width="5" /><rect fill="#900" height="48" stroke="#900" stroke-width="5" transform="rotate(45,2421,2189)" width="32" x="2405" y="2165" /><rect fill="#900" height="48" stroke="#900" stroke-width="5" transform="rotate(45,2469,2189)" width="32" x="2453" y="2165" /><rect fill="#900" height="48" stroke="#900" stroke-width="5" transform="rotate(45,2517,2189)" width="32" x="2501" y="2165" /><rect fill="#900" height="48" stroke="#900" stroke-width="5" transform="rotate(45,2373,2189)" width="32" x="2357" y="2165" /><rect fill="#900" height="48" stroke="#900" stroke-width="5" transform="rotate(270,2213,2573)" width="32" x="2197" y="2549" /><rect fill="#900" height="48" stroke="#900" stroke-width="5" transform="rotate(270,2261,2573)" width="32" x="2245" y="2549" /><rect fill="#900" height="48" stroke="#900" stroke-width="5" transform="rotate(270,2309,2573)" width="32" x="2293" y="2549" /><rect fill="#900" height="48" stroke="#900" stroke-width="5" transform="rotate(270,2357,2573)" width="32" x="2341" y="2549" /><rect fill="#900" height="48" stroke="#900" stroke-width="5" transform="rotate(225,1893,2765)" width="32" x="1877" y="2741" /><rect fill="#900" height="48" stroke="#900" stroke-width="5" transform="rotate(225,1941,2717)" width="32" x="1925" y="2693" /><rect fill="#900" height="48" stroke="#900" stroke-width="5" transform="rotate(225,1989,2669)" width="32" x="1973" y="2645" /><rect fill="#900" height="48" stroke="#900" stroke-width="5" transform="rotate(225,2037,2621)" width="32" x="2021" y="2597" /><rect fill="#900" height="48" stroke="#900" stroke-width="5" transform="rotate(270,2405,2573)" width="32" x="2389" y="2549" /><rect fill="#090" height="24" stroke="#090" stroke-width="5" transform="rotate(225,2309,2349)" width="24" x="2297" y="2337" /><rect fill="#090" height="24" stroke="#090" stroke-width="5" transform="rotate(270,1861,2477)" width="24" x="1849" y="2465" /><rect fill="#090" height="24" stroke="#090" stroke-width="5" transform="rotate(315,1829,2413)" width="24" x="1817" y="2401" /><rect fill="#900" height="48" stroke="#900" stroke-width="5" transform="rotate(135,1653,2269)" width="32" x="1637" y="2245" /><rect fill="#900" height="48" stroke="#900" stroke-width="5" transform="rotate(135,1701,2269)" width="32" x="1685" y="2245" /><rect fill="#900" height="48" stroke="#900" stroke-width="5" transform="rotate(135,1749,2269)" width="32" x="1733" y="2245" /><rect fill="#900" height="48" stroke="#900" stroke-width="5" transform="rotate(135,1669,2221)" width="32" x="1653" y="2197" /><rect fill="#900" height="48" stroke="#900" stroke-width="5" transform="rotate(135,1717,2221)" width="32" x="1701" y="2197" /><rect fill="#900" height="48" stroke="#900" stroke-width="5" transform="rotate(135,1765,2221)" width="32" x="1749" y="2197" /><rect fill="#900" height="48" stroke="#900" stroke-width="5" transform="rotate(45,1717,1869)" width="32" x="1701" y="1845" /><rect fill="#900" height="48" stroke="#900" stroke-width="5" transform="rotate(45,1749,1805)" width="32" x="1733" y="1781" /><rect fill="#900" height="48" stroke="#900" stroke-width="5" transform="rotate(135,2197,1789)" width="32" x="2181" y="1765" /><rect fill="#900" height="48" stroke="#900" stroke-width="5" transform="rotate(135,2261,1805)" width="32" x="2245" y="1781" /><circle cx="2117" cy="1789" fill="#090" r="16" stroke="#090" stroke-width="5" /><circle cx="2053" cy="1773" fill="#090" r="16" stroke="#090" stroke-width="5" /><circle cx="1893" cy="1773" fill="#090" r="16" stroke="#090" stroke-width="5" /><circle cx="1781" cy="1853" fill="#090" r="16" stroke="#090" stroke-width="5" /><circle cx="2885" cy="557" fill="#009" r="16" stroke="#009" stroke-width="5" /><circle cx="2949" cy="557" fill="#009" r="16" stroke="#009" stroke-width="5" /><circle cx="3013" cy="557" fill="#009" r="16" stroke="#009" stroke-width="5" /><circle cx="3077" cy="557" fill="#009" r="16" stroke="#009" stroke-width="5" /><circle cx="3141" cy="557" fill="#009" r="16" stroke="#009" stroke-width="5" /><circle cx="3205" cy="557" fill="#009" r="16" stroke="#009" stroke-width="5" /><circle cx="2885" cy="493" fill="#009" r="16" stroke="#009" stroke-width="5" /><circle cx="2885" cy="429" fill="#009" r="16" stroke="#009" stroke-width="5" /><circle cx="2885" cy="365" fill="#009" r="16" stroke="#009" stroke-width="5" /><circle cx="2885" cy="301" fill="#009" r="16" stroke="#009" stroke-width="5" /><circle cx="2885" cy="237" fill="#009" r="16" stroke="#009" stroke-width="5" /><circle cx="2949" cy="237" fill="#009" r="16" stroke="#009" stroke-width="5" /><circle cx="3013" cy="237" fill="#009" r="16" stroke="#009" stroke-width="5" /><circle cx="3077" cy="237" fill="#009" r="16" stroke="#009" stroke-width="5" /><circle cx="3141" cy="237" fill="#009" r="16" stroke="#009" stroke-width="5" /><circle cx="3205" cy="237" fill="#009" r="16" stroke="#009" stroke-width="5" /><circle cx="3205" cy="301" fill="#009" r="16" stroke="#009" stroke-width="5" /><circle cx="3205" cy="365" fill="#009" r="16" stroke="#009" stroke-width="5" /><circle cx="3205" cy="429" fill="#009" r="16" stroke="#009" stroke-width="5" /><circle cx="3205" cy="493" fill="#009" r="16" stroke="#009" stroke-width="5" /><circle cx="3045" cy="461" fill="#900" r="16" stroke="#900" stroke-width="5" /><rect fill="#900" height="48" stroke="#900" stroke-width="5" transform="rotate(90,3013,653)" width="32" x="2997" y="629" /><rect fill="#900" height="48" stroke="#900" stroke-width="5" transform="rotate(90,3045,605)" width="32" x="3029" y="581" /><rect fill="#900" height="48" stroke="#900" stroke-width="5" transform="rotate(90,3077,653)" width="32" x="3061" y="629" /><rect fill="#090" height="24" stroke="#090" stroke-width="5" transform="rotate(90,3045,717)" width="24" x="3033" y="705" /><rect fill="#090" height="24" stroke="#090" stroke-width="5" transform="rotate(90,3045,717)" width="24" x="3033" y="705" /><circle cx="965" cy="557" fill="#900" r="16" stroke="#900" stroke-width="5" /><rect fill="#900" height="48" stroke="#900" stroke-width="5" transform="rotate(180,2309,621)" width="32" x="2293" y="597" /><rect fill="#900" height="48" stroke="#900" stroke-width="5" transform="rotate(180,2437,173)" width="32" x="2421" y="149" /><rect fill="#900" height="48" stroke="#900" stroke-width="5" transform="rotate(180,2437,621)" width="32" x="2421" y="597" /><rect fill="#900" height="48" stroke="#900" stroke-width="5" transform="rotate(180,2309,173)" width="32" x="2293" y="149" /><rect fill="#900" height="48" stroke="#900" stroke-width="5" transform="rotate(180,2405,525)" width="32" x="2389" y="501" /><rect fill="#900" height="48" stroke="#900" stroke-width="5" transform="rotate(180,2341,461)" width="32" x="2325" y="437" /><rect fill="#900" height="48" stroke="#900" stroke-width="5" transform="rotate(180,2405,397)" width="32" x="2389" y="373" /><rect fill="#900" height="48" stroke="#900" stroke-width="5" transform="rotate(180,2341,333)" width="32" x="2325" y="309" /><rect fill="#900" height="48" stroke="#900" stroke-width="5" transform="rotate(180,2405,269)" width="32" x="2389" y="245" /><rect fill="#900" height="48" stroke="#900" stroke-width="5" transform="rotate(180,2373,717)" width="32" x="2357" y="693" /><rect fill="#900" height="48" stroke="#900" stroke-width="5" transform="rotate(180,2373,77)" width="32" x="2357" y="53" /><rect fill="#900" height="48" stroke="#900" stroke-width="5" transform="rotate(180,2309,717)" width="32" x="2293" y="693" /><rect fill="#900" height="48" stroke="#900" stroke-width="5" transform="rotate(180,2437,717)" width="32" x="2421" y="693" /><rect fill="#900" height="48" stroke="#900" stroke-width="5" transform="rotate(180,2309,77)" width="32" x="2293" y="53" /><rect fill="#900" height="48" stroke="#900" stroke-width="5" transform="rotate(180,2437,77)" width="32" x="2421" y="53" /><rect fill="#900" height="48" stroke="#900" stroke-width="5" transform="rotate(315,2901,1501)" width="32" x="2885" y="1477" /><rect fill="#900" height="48" stroke="#900" stroke-width="5" transform="rotate(225,3253,1501)" width="32" x="3237" y="1477" /><rect fill="#900" height="48" stroke="#900" stroke-width="5" transform="rotate(135,3253,1149)" width="32" x="3237" y="1125" /><rect fill="#900" height="48" stroke="#900" stroke-width="5" transform="rotate(45,2901,1149)" width="32" x="2885" y="1125" /><rect fill="#900" height="48" stroke="#900" stroke-width="5" transform="rotate(90,3077,1149)" width="32" x="3061" y="1125" /><rect fill="#900" height="48" stroke="#900" stroke-width="5" transform="rotate(270,3077,1501)" width="32" x="3061" y="1477" /><rect fill="#900" height="48" stroke="#900" stroke-width="5" transform="rotate(0,2901,1325)" width="32" x="2885" y="1301" /><rect fill="#900" height="48" stroke="#900" stroke-width="5" transform="rotate(180,3253,1325)" width="32" x="3237" y="1301" /><rect fill="#900" height="48" stroke="#900" stroke-width="5" transform="rotate(180,3253,1405)" width="32" x="3237" y="1381" /><rect fill="#900" height="48" stroke="#900" stroke-width="5" transform="rotate(180,3253,1245)" width="32" x="3237" y="1221" /><rect fill="#900" height="48" stroke="#900" stroke-width="5" transform="rotate(90,3157,1149)" width="32" x="3141" y="1125" /><rect fill="#900" height="48" stroke="#900" stroke-width="5" transform="rotate(90,2997,1149)" width="32" x="2981" y="1125" /><rect fill="#900" height="48" stroke="#900" stroke-width="5" transform="rotate(0,2901,1245)" width="32" x="2885" y="1221" /><rect fill="#900" height="48" stroke="#900" stroke-width="5" transform="rotate(0,2901,1405)" width="32" x="2885" y="1381" /><rect fill="#900" height="48" stroke="#900" stroke-width="5" transform="rotate(270,2997,1501)" width="32" x="2981" y="1477" /><rect fill="#900" height="48" stroke="#900" stroke-width="5" transform="rotate(270,3157,1501)" width="32" x="3141" y="1477" /><rect fill="#090" height="24" stroke="#090" stroke-width="5" transform="rotate(180,2565,1837)" width="24" x="2553" y="1825" /><rect fill="#090" height="24" stroke="#090" stroke-width="5" transform="rotate(180,3461,877)" width="24" x="3449" y="865" /><rect fill="#900" height="48" stroke="#900" stroke-width="5" transform="rotate(270,3077,1709)" width="32" x="3061" y="1685" /><rect fill="#900" height="48" stroke="#900" stroke-width="5" transform="rotate(90,3077,941)" width="32" x="3061" y="917" /><circle cx="3461" cy="1837" fill="#009" r="16" stroke="#009" stroke-width="5" /><circle cx="2949" cy="493" fill="#009" r="16" stroke="#009" stroke-width="5" /><circle cx="3013" cy="493" fill="#009" r="16" stroke="#009" stroke-width="5" /><circle cx="3077" cy="493" fill="#009" r="16" stroke="#009" stroke-width="5" /><circle cx="3141" cy="493" fill="#009" r="16" stroke="#009" stroke-width="5" /><circle cx="3141" cy="429" fill="#009" r="16" stroke="#009" stroke-width="5" /><circle cx="3141" cy="365" fill="#009" r="16" stroke="#009" stroke-width="5" /><circle cx="3141" cy="301" fill="#009" r="16" stroke="#009" stroke-width="5" /><circle cx="3077" cy="301" fill="#009" r="16" stroke="#009" stroke-width="5" /><circle cx="3013" cy="301" fill="#009" r="16" stroke="#009" stroke-width="5" /><circle cx="2949" cy="301" fill="#009" r="16" stroke="#009" stroke-width="5" /><circle cx="2949" cy="365" fill="#009" r="16" stroke="#009" stroke-width="5" /><circle cx="2949" cy="429" fill="#009" r="16" stroke="#009" stroke-width="5" /><circle cx="3013" cy="429" fill="#009" r="16" stroke="#009" stroke-width="5" /><circle cx="3077" cy="429" fill="#009" r="16" stroke="#009" stroke-width="5" /><circle cx="3077" cy="365" fill="#009" r="16" stroke="#009" stroke-width="5" /><circle cx="3013" cy="365" fill="#009" r="16" stroke="#009" stroke-width="5" /><rect fill="#090" height="24" stroke="#090" stroke-width="5" transform="rotate(90,1941,381)" width="24" x="1929" y="369" /><rect fill="#900" height="48" stroke="#900" stroke-width="5" transform="rotate(90,645,1069)" width="32" x="629" y="1045" /><rect fill="#900" height="48" stroke="#900" stroke-width="5" transform="rotate(90,773,1517)" width="32" x="757" y="1493" /><rect fill="#900" height="48" stroke="#900" stroke-width="5" transform="rotate(90,773,1453)" width="32" x="757" y="1429" /><rect fill="#900" height="48" stroke="#900" stroke-width="5" transform="rotate(90,821,1485)" width="32" x="805" y="1461" /><rect fill="#900" height="48" stroke="#900" stroke-width="5" transform="rotate(90,853,1997)" width="32" x="837" y="1973" /><rect fill="#900" height="48" stroke="#900" stroke-width="5" transform="rotate(90,901,2013)" width="32" x="885" y="1989" /><rect fill="#900" height="48" stroke="#900" stroke-width="5" transform="rotate(90,949,1981)" width="32" x="933" y="1957" /><rect fill="#900" height="48" stroke="#900" stroke-width="5" transform="rotate(90,949,1933)" width="32" x="933" y="1909" /><rect fill="#900" height="48" stroke="#900" stroke-width="5" transform="rotate(90,901,1917)" width="32" x="885" y="1893" /><rect fill="#900" height="48" stroke="#900" stroke-width="5" transform="rotate(90,853,1949)" width="32" x="837" y="1925" /><rect fill="#900" height="48" stroke="#900" stroke-width="5" transform="rotate(90,901,1965)" width="32" x="885" y="1941" /><rect fill="#900" height="48" stroke="#900" stroke-width="5" transform="rotate(315,389,1773)" width="32" x="373" y="1749" /><rect fill="#900" height="48" stroke="#900" stroke-width="5" transform="rotate(315,389,1709)" width="32" x="373" y="1685" /><rect fill="#900" height="48" stroke="#900" stroke-width="5" transform="rotate(315,261,1773)" width="32" x="245" y="1749" /><rect fill="#900" height="48" stroke="#900" stroke-width="5" transform="rotate(315,293,1677)" width="32" x="277" y="1653" /><rect fill="#900" height="48" stroke="#900" stroke-width="5" transform="rotate(270,517,2509)" width="32" x="501" y="2485" /><rect fill="#900" height="48" stroke="#900" stroke-width="5" transform="rotate(270,581,2509)" width="32" x="565" y="2485" /><rect fill="#900" height="48" stroke="#900" stroke-width="5" transform="rotate(270,517,2461)" width="32" x="501" y="2437" /><rect fill="#900" height="48" stroke="#900" stroke-width="5" transform="rotate(270,581,2461)" width="32" x="565" y="2437" /><rect fill="#900" height="48" stroke="#900" stroke-width="5" transform="rotate(270,517,2413)" width="32" x="501" y="2389" /><rect fill="#900" height="48" stroke="#900" stroke-width="5" transform="rotate(270,581,2413)" width="32" x="565" y="2389" /><rect fill="#900" height="48" stroke="#900" stroke-width="5" transform="rotate(270,629,2477)" width="32" x="613" y="2453" /><rect fill="#900" height="48" stroke="#900" stroke-width="5" transform="rotate(270,1125,2637)" width="32" x="1109" y="2613" /><ellipse cx="101" cy="2189" fill="#900" rx="12" ry="24" stroke="#900" stroke-width="5" /><ellipse cx="165" cy="2317" fill="#900" rx="12" ry="24" stroke="#900" stroke-width="5" /><ellipse cx="245" cy="2445" fill="#900" rx="12" ry="24" stroke="#900" stroke-width="5" /><ellipse cx="261" cy="2573" fill="#900" rx="12" ry="24" stroke="#900" stroke-width="5" /><ellipse cx="261" cy="2701" fill="#900" rx="12" ry="24" stroke="#900" stroke-width="5" /><rect fill="#900" height="48" stroke="#900" stroke-width="5" transform="rotate(315,149,2157)" width="32" x="133" y="2133" /><rect fill="#900" height="48" stroke="#900" stroke-width="5" transform="rotate(315,165,2221)" width="32" x="149" y="2197" /><rect fill="#900" height="48" stroke="#900" stroke-width="5" transform="rotate(315,213,2285)" width="32" x="197" y="2261" /><rect fill="#900" height="48" stroke="#900" stroke-width="5" transform="rotate(315,261,2349)" width="32" x="245" y="2325" /><rect fill="#900" height="48" stroke="#900" stroke-width="5" transform="rotate(315,277,2397)" width="32" x="261" y="2373" /><rect fill="#900" height="48" stroke="#900" stroke-width="5" transform="rotate(315,309,2461)" width="32" x="293" y="2437" /><rect fill="#900" height="48" stroke="#900" stroke-width="5" transform="rotate(315,309,2525)" width="32" x="293" y="2501" /><rect fill="#900" height="48" stroke="#900" stroke-width="5" transform="rotate(315,117,2365)" width="32" x="101" y="2341" /><rect fill="#900" height="48" stroke="#900" stroke-width="5" transform="rotate(315,165,2445)" width="32" x="149" y="2421" /><rect fill="#900" height="48" stroke="#900" stroke-width="5" transform="rotate(315,181,2557)" width="32" x="165" y="2533" /><rect fill="#900" height="48" stroke="#900" stroke-width="5" transform="rotate(315,309,2621)" width="32" x="293" y="2597" /><rect fill="#900" height="48" stroke="#900" stroke-width="5" transform="rotate(315,309,2685)" width="32" x="293" y="2661" /><rect fill="#900" height="48" stroke="#900" stroke-width="5" transform="rotate(270,1221,2093)" width="32" x="1205" y="2069" /><rect fill="#900" height="48" stroke="#900" stroke-width="5" transform="rotate(270,1221,2029)" width="32" x="1205" y="2005" /><rect fill="#900" height="48" stroke="#900" stroke-width="5" transform="rotate(270,1253,1885)" width="32" x="1237" y="1861" /><rect fill="#900" height="48" stroke="#900" stroke-width="5" transform="rotate(270,1445,1677)" width="32" x="1429" y="1653" /><rect fill="#900" height="48" stroke="#900" stroke-width="5" transform="rotate(270,1509,1645)" width="32" x="1493" y="1621" /><rect fill="#900" height="48" stroke="#900" stroke-width="5" transform="rotate(270,1573,1645)" width="32" x="1557" y="1621" /><rect fill="#900" height="48" stroke="#900" stroke-width="5" transform="rotate(270,1285,1773)" width="32" x="1269" y="1749" /><rect fill="#900" height="48" stroke="#900" stroke-width="5" transform="rotate(180,2181,1645)" width="32" x="2165" y="1621" /><rect fill="#900" height="48" stroke="#900" stroke-width="5" transform="rotate(180,2181,1581)" width="32" x="2165" y="1557" /><rect fill="#900" height="48" stroke="#900" stroke-width="5" transform="rotate(180,2213,1533)" width="32" x="2197" y="1509" /><rect fill="#900" height="48" stroke="#900" stroke-width="5" transform="rotate(180,2213,1469)" width="32" x="2197" y="1445" /><rect fill="#900" height="48" stroke="#900" stroke-width="5" transform="rotate(180,2261,1437)" width="32" x="2245" y="1413" /><rect fill="#900" height="48" stroke="#900" stroke-width="5" transform="rotate(180,2309,1421)" width="32" x="2293" y="1397" /><rect fill="#900" height="48" stroke="#900" stroke-width="5" transform="rotate(180,2373,1437)" width="32" x="2357" y="1413" /><rect fill="#900" height="48" stroke="#900" stroke-width="5" transform="rotate(180,2341,1485)" width="32" x="2325" y="1461" /><rect fill="#900" height="48" stroke="#900" stroke-width="5" transform="rotate(180,2277,1549)" width="32" x="2261" y="1525" /><rect fill="#900" height="48" stroke="#900" stroke-width="5" transform="rotate(180,2245,1613)" width="32" x="2229" y="1589" /><rect fill="#900" height="48" stroke="#900" stroke-width="5" transform="rotate(180,2325,1597)" width="32" x="2309" y="1573" /><circle cx="2277" cy="1485" fill="#900" r="16" stroke="#900" stroke-width="5" /><circle cx="1253" cy="2189" fill="#090" r="16" stroke="#090" stroke-width="5" /><circle cx="1317" cy="1261" fill="#009" r="16" stroke="#009" stroke-width="5" /><circle cx="709" cy="1517" fill="#009" r="16" stroke="#009" stroke-width="5" /><circle cx="2117" cy="1005" fill="#009" r="16" stroke="#009" stroke-width="5" /><circle cx="517" cy="2605" fill="#009" r="16" stroke="#009" stroke-width="5" /><circle cx="325" cy="1741" fill="#009" r="16" stroke="#009" stroke-width="5" /><circle cx="1093" cy="2605" fill="#090" r="16" stroke="#090" stroke-width="5" /><circle cx="917" cy="1981" fill="#090" r="16" stroke="#090" stroke-width="5" /><circle cx="789" cy="1485" fill="#090" r="16" stroke="#090" stroke-width="5" /><circle cx="661" cy="1085" fill="#090" r="16" stroke="#090" stroke-width="5" /><rect fill="#090" height="24" stroke="#090" stroke-width="5" transform="rotate(180,261,2797)" width="24" x="249" y="2785" /><rect fill="#900" height="48" stroke="#900" stroke-width="5" transform="rotate(135,1957,973)" width="32" x="1941" y="949" /><rect fill="#900" height="48" stroke="#900" stroke-width="5" transform="rotate(135,1909,925)" width="32" x="1893" y="901" /><rect fill="#900" height="48" stroke="#900" stroke-width="5" transform="rotate(135,2005,973)" width="32" x="1989" y="949" /><ellipse cx="1957" cy="925" fill="#900" rx="12" ry="24" stroke="#900" stroke-width="5" /><rect fill="#900" height="48" stroke="#900" stroke-width="5" transform="rotate(135,2005,925)" width="32" x="1989" y="901" /><rect fill="#900" height="48" stroke="#900" stroke-width="5" transform="rotate(135,1973,861)" width="32" x="1957" y="837" /><rect fill="#900" height="48" stroke="#900" stroke-width="5" transform="rotate(135,1877,877)" width="32" x="1861" y="853" /><rect fill="#900" height="48" stroke="#900" stroke-width="5" transform="rotate(135,1909,973)" width="32" x="1893" y="949" /><rect fill="#900" height="48" stroke="#900" stroke-width="5" transform="rotate(135,2021,877)" width="32" x="2005" y="853" /><rect fill="#900" height="48" stroke="#900" stroke-width="5" transform="rotate(135,1925,861)" width="32" x="1909" y="837" /><rect fill="#900" height="48" stroke="#900" stroke-width="5" transform="rotate(135,1861,925)" width="32" x="1845" y="901" /><rect fill="#900" height="48" stroke="#900" stroke-width="5" transform="rotate(90,1029,1005)" width="32" x="1013" y="981" /><rect fill="#900" height="48" stroke="#900" stroke-width="5" transform="rotate(90,1029,941)" width="32" x="1013" y="917" /><rect fill="#900" height="48" stroke="#900" stroke-width="5" transform="rotate(90,1077,973)" width="32" x="1061" y="949" /><circle cx="1045" cy="973" fill="#090" r="16" stroke="#090" stroke-width="5" /><rect fill="#090" height="24" stroke="#090" stroke-width="5" transform="rotate(135,2325,1533)" width="24" x="2313" y="1521" /><circle cx="1541" cy="429" fill="#090" r="16" stroke="#090" stroke-width="5" /></svg>