<?xml version="1.0" encoding="utf-8" ?>
<svg baseProfile="tiny" height="1024" version="1.2" viewBox="0 0 3978 7178" width="567" xmlns="http://www.w3.org/2000/svg" xmlns:ev="http://www.w3.org/2001/xml-events" xmlns:xlink="http://www.w3.org/1999/xlink"><defs /><line stroke="#333" stroke-width="10" x1="2565" x2="2437" y1="5" y2="5" /><line stroke="#333" stroke-width="10" x1="2437" x2="2181" y1="5" y2="5" /><line stroke="#333" stroke-width="10" x1="2181" x2="2181" y1="5" y2="261" /><line stroke="#333" stroke-width="10" x1="2181" x2="2309" y1="261" y2="261" /><line stroke="#333" stroke-width="10" x1="2309" x2="2309" y1="261" y2="773" /><line stroke="#333" stroke-width="10" x1="2693" x2="2693" y1="773" y2="261" /><line stroke="#333" stroke-width="10" x1="2693" x2="2821" y1="261" y2="261" /><line stroke="#333" stroke-width="10" x1="2821" x2="2821" y1="261" y2="5" /><line stroke="#333" stroke-width="10" x1="2821" x2="2565" y1="5" y2="5" /><line stroke="#333" stroke-width="10" x1="2309" x2="2437" y1="773" y2="773" /><line stroke="#333" stroke-width="10" x1="2565" x2="2693" y1="773" y2="773" /><line stroke="#333" stroke-width="10" x1="2437" x2="2437" y1="773" y2="829" /><line stroke="#333" stroke-width="10" x1="2565" x2="2565" y1="829" y2="773" /><line stroke="#333" stroke-width="10" x1="2437" x2="2437" y1="829" y2="845" /><line stroke="#333" stroke-width="10" x1="2437" x2="2437" y1="845" y2="901" /><line stroke="#333" stroke-width="10" x1="2565" x2="2565" y1="901" y2="845" /><line stroke="#333" stroke-width="10" x1="2565" x2="2565" y1="845" y2="829" /><line stroke="#999" stroke-width="3" x1="2437" x2="2565" y1="829" y2="829" /><line stroke="#999" stroke-width="3" x1="2565" x2="2437" y1="845" y2="845" /><line stroke="#333" stroke-width="10" x1="2437" x2="2309" y1="901" y2="901" /><line stroke="#333" stroke-width="10" x1="2309" x2="1925" y1="901" y2="901" /><line stroke="#333" stroke-width="10" x1="1925" x2="1925" y1="901" y2="1413" /><line stroke="#333" stroke-width="10" x1="1925" x2="1925" y1="1413" y2="1541" /><line stroke="#333" stroke-width="10" x1="1925" x2="1925" y1="1541" y2="1925" /><line stroke="#333" stroke-width="10" x1="1925" x2="1413" y1="1925" y2="1925" /><line stroke="#333" stroke-width="10" x1="1413" x2="1413" y1="1925" y2="2309" /><line stroke="#333" stroke-width="10" x1="1413" x2="1413" y1="2309" y2="2437" /><line stroke="#333" stroke-width="10" x1="1413" x2="1413" y1="2437" y2="2821" /><line stroke="#333" stroke-width="10" x1="1413" x2="1413" y1="2821" y2="2949" /><line stroke="#333" stroke-width="10" x1="1413" x2="1413" y1="2949" y2="3333" /><line stroke="#333" stroke-width="10" x1="1413" x2="1285" y1="3333" y2="3333" /><line stroke="#333" stroke-width="10" x1="1285" x2="1413" y1="3461" y2="3461" /><line stroke="#333" stroke-width="10" x1="1413" x2="1413" y1="3461" y2="3845" /><line stroke="#333" stroke-width="10" x1="1413" x2="1413" y1="3845" y2="3973" /><line stroke="#333" stroke-width="10" x1="1413" x2="1413" y1="3973" y2="4357" /><line stroke="#333" stroke-width="10" x1="1413" x2="1413" y1="4357" y2="4485" /><line stroke="#333" stroke-width="10" x1="1413" x2="1413" y1="4485" y2="4869" /><line stroke="#333" stroke-width="10" x1="1413" x2="1797" y1="4869" y2="4869" /><line stroke="#333" stroke-width="10" x1="1797" x2="1925" y1="4869" y2="4869" /><line stroke="#333" stroke-width="10" x1="1925" x2="2309" y1="4869" y2="4869" /><line stroke="#333" stroke-width="10" x1="2309" x2="2309" y1="4869" y2="5125" /><line stroke="#333" stroke-width="10" x1="2693" x2="3077" y1="4869" y2="4869" /><line stroke="#333" stroke-width="10" x1="3077" x2="3205" y1="4869" y2="4869" /><line stroke="#333" stroke-width="10" x1="3205" x2="3589" y1="4869" y2="4869" /><line stroke="#333" stroke-width="10" x1="3589" x2="3589" y1="4869" y2="4485" /><line stroke="#333" stroke-width="10" x1="3589" x2="3589" y1="4485" y2="4357" /><line stroke="#333" stroke-width="10" x1="3589" x2="3589" y1="4357" y2="3973" /><line stroke="#333" stroke-width="10" x1="3589" x2="3589" y1="3973" y2="3845" /><line stroke="#333" stroke-width="10" x1="3589" x2="3589" y1="3845" y2="3461" /><line stroke="#999" stroke-width="3" x1="3589" x2="3589" y1="3461" y2="3333" /><line stroke="#333" stroke-width="10" x1="3589" x2="3589" y1="3333" y2="2949" /><line stroke="#333" stroke-width="10" x1="3589" x2="3589" y1="2949" y2="2821" /><line stroke="#333" stroke-width="10" x1="3589" x2="3589" y1="2821" y2="2437" /><line stroke="#333" stroke-width="10" x1="3589" x2="3589" y1="2437" y2="2309" /><line stroke="#333" stroke-width="10" x1="3589" x2="3589" y1="2309" y2="1925" /><line stroke="#333" stroke-width="10" x1="3589" x2="3077" y1="1925" y2="1925" /><line stroke="#333" stroke-width="10" x1="3077" x2="3077" y1="1925" y2="1541" /><line stroke="#333" stroke-width="10" x1="3077" x2="3077" y1="1541" y2="1413" /><line stroke="#333" stroke-width="10" x1="3077" x2="3077" y1="1413" y2="901" /><line stroke="#333" stroke-width="10" x1="3077" x2="2693" y1="901" y2="901" /><line stroke="#333" stroke-width="10" x1="2693" x2="2565" y1="901" y2="901" /><line stroke="#999" stroke-width="3" x1="1413" x2="1413" y1="3333" y2="3461" /><line stroke="#333" stroke-width="10" x1="1285" x2="1157" y1="3333" y2="3333" /><line stroke="#333" stroke-width="10" x1="1157" x2="1157" y1="3333" y2="3461" /><line stroke="#333" stroke-width="10" x1="1157" x2="1029" y1="3461" y2="3461" /><line stroke="#333" stroke-width="10" x1="1029" x2="773" y1="3461" y2="3461" /><line stroke="#333" stroke-width="10" x1="773" x2="773" y1="3461" y2="4101" /><line stroke="#333" stroke-width="10" x1="773" x2="389" y1="4101" y2="4101" /><line stroke="#333" stroke-width="10" x1="389" x2="389" y1="4101" y2="3333" /><line stroke="#333" stroke-width="10" x1="389" x2="5" y1="3333" y2="3333" /><line stroke="#333" stroke-width="10" x1="5" x2="5" y1="3333" y2="4357" /><line stroke="#333" stroke-width="10" x1="5" x2="901" y1="4357" y2="4357" /><line stroke="#333" stroke-width="10" x1="901" x2="901" y1="4357" y2="4869" /><line stroke="#333" stroke-width="10" x1="901" x2="1157" y1="4869" y2="4869" /><line stroke="#333" stroke-width="10" x1="1157" x2="1157" y1="4869" y2="3717" /><line stroke="#333" stroke-width="10" x1="1157" x2="1285" y1="3717" y2="3717" /><line stroke="#333" stroke-width="10" x1="1285" x2="1285" y1="3717" y2="3461" /><line stroke="#999" stroke-width="3" x1="1797" x2="2053" y1="2309" y2="2309" /><line stroke="#999" stroke-width="3" x1="2053" x2="2053" y1="2309" y2="2437" /><line stroke="#999" stroke-width="3" x1="2053" x2="1797" y1="2437" y2="2437" /><line stroke="#999" stroke-width="3" x1="1797" x2="1797" y1="2437" y2="2309" /><line stroke="#333" stroke-width="10" x1="1797" x2="2053" y1="2821" y2="2821" /><line stroke="#333" stroke-width="10" x1="2053" x2="2053" y1="2821" y2="2949" /><line stroke="#333" stroke-width="10" x1="2053" x2="1797" y1="2949" y2="2949" /><line stroke="#333" stroke-width="10" x1="1797" x2="1797" y1="2949" y2="2821" /><line stroke="#333" stroke-width="10" x1="1797" x2="2053" y1="3333" y2="3333" /><line stroke="#333" stroke-width="10" x1="2053" x2="2053" y1="3333" y2="3461" /><line stroke="#333" stroke-width="10" x1="2053" x2="1797" y1="3461" y2="3461" /><line stroke="#333" stroke-width="10" x1="1797" x2="1797" y1="3461" y2="3333" /><line stroke="#999" stroke-width="3" x1="1285" x2="1285" y1="3461" y2="3333" /><line stroke="#999" stroke-width="3" x1="1797" x2="2053" y1="4357" y2="4357" /><line stroke="#999" stroke-width="3" x1="2053" x2="2053" y1="4357" y2="4485" /><line stroke="#999" stroke-width="3" x1="2053" x2="1797" y1="4485" y2="4485" /><line stroke="#999" stroke-width="3" x1="1797" x2="1797" y1="4485" y2="4357" /><line stroke="#333" stroke-width="10" x1="1797" x2="2053" y1="3845" y2="3845" /><line stroke="#333" stroke-width="10" x1="2053" x2="2053" y1="3845" y2="3973" /><line stroke="#333" stroke-width="10" x1="2053" x2="1797" y1="3973" y2="3973" /><line stroke="#333" stroke-width="10" x1="1797" x2="1797" y1="3973" y2="3845" /><line stroke="#999" stroke-width="3" x1="2949" x2="3205" y1="4357" y2="4357" /><line stroke="#999" stroke-width="3" x1="3205" x2="3205" y1="4357" y2="4485" /><line stroke="#999" stroke-width="3" x1="3205" x2="2949" y1="4485" y2="4485" /><line stroke="#999" stroke-width="3" x1="2949" x2="2949" y1="4485" y2="4357" /><line stroke="#333" stroke-width="10" x1="2949" x2="3205" y1="3845" y2="3845" /><line stroke="#333" stroke-width="10" x1="3205" x2="3205" y1="3845" y2="3973" /><line stroke="#333" stroke-width="10" x1="3205" x2="2949" y1="3973" y2="3973" /><line stroke="#333" stroke-width="10" x1="2949" x2="2949" y1="3973" y2="3845" /><line stroke="#333" stroke-width="10" x1="2949" x2="3205" y1="2821" y2="2821" /><line stroke="#333" stroke-width="10" x1="3205" x2="3205" y1="2821" y2="2949" /><line stroke="#333" stroke-width="10" x1="3205" x2="2949" y1="2949" y2="2949" /><line stroke="#333" stroke-width="10" x1="2949" x2="2949" y1="2949" y2="2821" /><line stroke="#333" stroke-width="10" x1="2949" x2="3205" y1="3333" y2="3333" /><line stroke="#333" stroke-width="10" x1="3205" x2="3205" y1="3333" y2="3461" /><line stroke="#333" stroke-width="10" x1="3205" x2="2949" y1="3461" y2="3461" /><line stroke="#333" stroke-width="10" x1="2949" x2="2949" y1="3461" y2="3333" /><line stroke="#999" stroke-width="3" x1="2949" x2="3205" y1="2309" y2="2309" /><line stroke="#999" stroke-width="3" x1="3205" x2="3205" y1="2309" y2="2437" /><line stroke="#999" stroke-width="3" x1="3205" x2="2949" y1="2437" y2="2437" /><line stroke="#999" stroke-width="3" x1="2949" x2="2949" y1="2437" y2="2309" /><line stroke="#333" stroke-width="10" x1="2309" x2="2181" y1="5125" y2="5125" /><line stroke="#333" stroke-width="10" x1="2181" x2="2181" y1="5125" y2="5253" /><line stroke="#333" stroke-width="10" x1="2181" x2="2309" y1="5253" y2="5253" /><line stroke="#333" stroke-width="10" x1="2309" x2="2309" y1="5253" y2="5509" /><line stroke="#333" stroke-width="10" x1="2309" x2="2437" y1="5509" y2="5509" /><line stroke="#333" stroke-width="10" x1="2565" x2="2693" y1="5509" y2="5509" /><line stroke="#333" stroke-width="10" x1="2693" x2="2693" y1="5509" y2="5253" /><line stroke="#333" stroke-width="10" x1="2693" x2="2821" y1="5253" y2="5253" /><line stroke="#333" stroke-width="10" x1="2821" x2="2821" y1="5253" y2="5125" /><line stroke="#333" stroke-width="10" x1="2821" x2="2693" y1="5125" y2="5125" /><line stroke="#333" stroke-width="10" x1="2693" x2="2693" y1="5125" y2="4869" /><line stroke="#333" stroke-width="10" x1="2437" x2="2309" y1="5637" y2="5637" /><line stroke="#333" stroke-width="10" x1="2309" x2="2309" y1="5637" y2="5765" /><line stroke="#333" stroke-width="10" x1="2309" x2="2309" y1="5765" y2="5893" /><line stroke="#333" stroke-width="10" x1="2309" x2="2053" y1="5893" y2="5893" /><line stroke="#333" stroke-width="10" x1="2053" x2="2053" y1="5893" y2="6021" /><line stroke="#333" stroke-width="10" x1="2053" x2="2309" y1="6021" y2="6021" /><line stroke="#333" stroke-width="10" x1="2309" x2="2309" y1="6021" y2="6277" /><line stroke="#333" stroke-width="10" x1="2309" x2="2437" y1="6277" y2="6277" /><line stroke="#333" stroke-width="10" x1="2565" x2="2693" y1="6277" y2="6277" /><line stroke="#333" stroke-width="10" x1="2693" x2="2693" y1="6277" y2="6021" /><line stroke="#333" stroke-width="10" x1="2693" x2="2949" y1="6021" y2="6021" /><line stroke="#333" stroke-width="10" x1="2949" x2="2949" y1="6021" y2="5893" /><line stroke="#333" stroke-width="10" x1="2949" x2="2693" y1="5893" y2="5893" /><line stroke="#333" stroke-width="10" x1="2693" x2="2693" y1="5893" y2="5765" /><line stroke="#333" stroke-width="10" x1="2693" x2="2693" y1="5765" y2="5637" /><line stroke="#333" stroke-width="10" x1="2693" x2="2565" y1="5637" y2="5637" /><line stroke="#333" stroke-width="10" x1="2437" x2="2309" y1="6405" y2="6405" /><line stroke="#333" stroke-width="10" x1="2309" x2="2053" y1="6405" y2="6789" /><line stroke="#333" stroke-width="10" x1="2053" x2="2309" y1="6789" y2="7173" /><line stroke="#333" stroke-width="10" x1="2309" x2="2693" y1="7173" y2="7173" /><line stroke="#333" stroke-width="10" x1="2693" x2="2949" y1="7173" y2="6789" /><line stroke="#333" stroke-width="10" x1="2949" x2="2693" y1="6789" y2="6405" /><line stroke="#333" stroke-width="10" x1="2693" x2="2565" y1="6405" y2="6405" /><line stroke="#333" stroke-width="10" x1="2437" x2="2437" y1="5509" y2="5565" /><line stroke="#333" stroke-width="10" x1="2565" x2="2565" y1="5565" y2="5509" /><line stroke="#333" stroke-width="10" x1="2437" x2="2437" y1="5565" y2="5581" /><line stroke="#333" stroke-width="10" x1="2437" x2="2437" y1="5581" y2="5637" /><line stroke="#333" stroke-width="10" x1="2565" x2="2565" y1="5637" y2="5581" /><line stroke="#333" stroke-width="10" x1="2565" x2="2565" y1="5581" y2="5565" /><line stroke="#999" stroke-width="3" x1="2437" x2="2565" y1="5565" y2="5565" /><line stroke="#999" stroke-width="3" x1="2565" x2="2437" y1="5581" y2="5581" /><line stroke="#333" stroke-width="10" x1="2437" x2="2437" y1="6277" y2="6333" /><line stroke="#333" stroke-width="10" x1="2565" x2="2565" y1="6333" y2="6277" /><line stroke="#333" stroke-width="10" x1="2437" x2="2437" y1="6333" y2="6349" /><line stroke="#333" stroke-width="10" x1="2437" x2="2437" y1="6349" y2="6405" /><line stroke="#333" stroke-width="10" x1="2565" x2="2565" y1="6405" y2="6349" /><line stroke="#333" stroke-width="10" x1="2565" x2="2565" y1="6349" y2="6333" /><line stroke="#999" stroke-width="3" x1="2437" x2="2565" y1="6333" y2="6333" /><line stroke="#999" stroke-width="3" x1="2565" x2="2437" y1="6349" y2="6349" /><line stroke="#999" stroke-width="3" x1="2309" x2="2693" y1="5253" y2="5253" /><line stroke="#999" stroke-width="3" x1="2565" x2="2437" y1="6405" y2="6405" /><line stroke="#999" stroke-width="3" x1="2437" x2="2565" y1="6597" y2="6597" /><line stroke="#999" stroke-width="3" x1="2565" x2="2565" y1="6597" y2="6725" /><line stroke="#999" stroke-width="3" x1="2437" x2="2437" y1="6725" y2="6597" /><line stroke="#999" stroke-width="3" x1="2309" x2="2501" y1="6597" y2="6533" /><line stroke="#999" stroke-width="3" x1="2245" x2="2309" y1="6789" y2="6597" /><line stroke="#999" stroke-width="3" x1="2757" x2="2693" y1="6789" y2="6981" /><line stroke="#999" stroke-width="3" x1="2693" x2="2757" y1="6597" y2="6789" /><line stroke="#999" stroke-width="3" x1="2501" x2="2693" y1="6533" y2="6597" /><line stroke="#999" stroke-width="3" x1="1541" x2="3461" y1="4741" y2="4741" /><line stroke="#999" stroke-width="3" x1="3461" x2="3461" y1="4741" y2="2053" /><line stroke="#999" stroke-width="3" x1="3461" x2="1541" y1="2053" y2="2053" /><line stroke="#999" stroke-width="3" x1="1541" x2="1541" y1="2053" y2="4741" /><line stroke="#333" stroke-width="10" x1="3589" x2="3717" y1="3461" y2="3461" /><line stroke="#333" stroke-width="10" x1="3717" x2="3717" y1="3461" y2="3589" /><line stroke="#333" stroke-width="10" x1="3717" x2="3973" y1="3589" y2="3589" /><line stroke="#333" stroke-width="10" x1="3973" x2="3973" y1="3589" y2="3461" /><line stroke="#333" stroke-width="10" x1="3973" x2="3973" y1="3461" y2="3333" /><line stroke="#333" stroke-width="10" x1="3973" x2="3973" y1="3333" y2="3205" /><line stroke="#333" stroke-width="10" x1="3973" x2="3717" y1="3205" y2="3205" /><line stroke="#333" stroke-width="10" x1="3717" x2="3717" y1="3205" y2="3333" /><line stroke="#333" stroke-width="10" x1="3717" x2="3589" y1="3333" y2="3333" /><line stroke="#999" stroke-width="3" x1="3717" x2="3717" y1="3333" y2="3461" /><line stroke="#999" stroke-width="3" x1="2693" x2="2501" y1="6981" y2="7045" /><line stroke="#999" stroke-width="3" x1="2501" x2="2309" y1="7045" y2="6981" /><line stroke="#999" stroke-width="3" x1="2309" x2="2245" y1="6981" y2="6789" /><line stroke="#999" stroke-width="3" x1="2309" x2="2437" y1="6725" y2="6725" /><line stroke="#999" stroke-width="3" x1="2565" x2="2693" y1="6725" y2="6725" /><line stroke="#999" stroke-width="3" x1="2693" x2="2693" y1="6725" y2="6853" /><line stroke="#999" stroke-width="3" x1="2693" x2="2565" y1="6853" y2="6853" /><line stroke="#999" stroke-width="3" x1="2565" x2="2565" y1="6853" y2="6981" /><line stroke="#999" stroke-width="3" x1="2565" x2="2437" y1="6981" y2="6981" /><line stroke="#999" stroke-width="3" x1="2437" x2="2437" y1="6981" y2="6853" /><line stroke="#999" stroke-width="3" x1="2437" x2="2309" y1="6853" y2="6853" /><line stroke="#999" stroke-width="3" x1="2309" x2="2309" y1="6853" y2="6725" /><line stroke="#999" stroke-width="3" x1="2437" x2="2565" y1="6725" y2="6725" /><line stroke="#999" stroke-width="3" x1="2565" x2="2565" y1="6725" y2="6853" /><line stroke="#999" stroke-width="3" x1="2565" x2="2437" y1="6853" y2="6853" /><line stroke="#999" stroke-width="3" x1="2437" x2="2437" y1="6853" y2="6725" /><line stroke="#999" stroke-width="3" x1="2557" x2="2445" y1="6733" y2="6733" /><line stroke="#999" stroke-width="3" x1="2557" x2="2557" y1="6845" y2="6733" /><line stroke="#999" stroke-width="3" x1="2445" x2="2557" y1="6845" y2="6845" /><line stroke="#999" stroke-width="3" x1="2445" x2="2445" y1="6733" y2="6845" /><line stroke="#333" stroke-width="10" x1="2533" x2="2469" y1="6821" y2="6821" /><line stroke="#333" stroke-width="10" x1="2533" x2="2533" y1="6757" y2="6821" /><line stroke="#333" stroke-width="10" x1="2469" x2="2533" y1="6757" y2="6757" /><line stroke="#333" stroke-width="10" x1="2469" x2="2469" y1="6821" y2="6757" /><rect fill="#090" height="24" stroke="#090" stroke-width="5" transform="rotate(0,2245,5189)" width="24" x="2233" y="5177" /><rect fill="#090" height="24" stroke="#090" stroke-width="5" transform="rotate(0,2757,5189)" width="24" x="2745" y="5177" /><rect fill="#090" height="24" stroke="#090" stroke-width="5" transform="rotate(0,2117,2373)" width="24" x="2105" y="2361" /><rect fill="#090" height="24" stroke="#090" stroke-width="5" transform="rotate(0,2117,2885)" width="24" x="2105" y="2873" /><rect fill="#090" height="24" stroke="#090" stroke-width="5" transform="rotate(0,2117,3397)" width="24" x="2105" y="3385" /><rect fill="#090" height="24" stroke="#090" stroke-width="5" transform="rotate(0,2117,3909)" width="24" x="2105" y="3897" /><rect fill="#090" height="24" stroke="#090" stroke-width="5" transform="rotate(0,2117,4421)" width="24" x="2105" y="4409" /><rect fill="#090" height="24" stroke="#090" stroke-width="5" transform="rotate(0,2885,4421)" width="24" x="2873" y="4409" /><rect fill="#090" height="24" stroke="#090" stroke-width="5" transform="rotate(0,2885,3909)" width="24" x="2873" y="3897" /><rect fill="#090" height="24" stroke="#090" stroke-width="5" transform="rotate(0,2885,3397)" width="24" x="2873" y="3385" /><rect fill="#090" height="24" stroke="#090" stroke-width="5" transform="rotate(0,2885,2885)" width="24" x="2873" y="2873" /><rect fill="#090" height="24" stroke="#090" stroke-width="5" transform="rotate(0,2885,2373)" width="24" x="2873" y="2361" /><rect fill="#090" height="24" stroke="#090" stroke-width="5" transform="rotate(0,2245,1093)" width="24" x="2233" y="1081" /><rect fill="#090" height="24" stroke="#090" stroke-width="5" transform="rotate(0,2245,1477)" width="24" x="2233" y="1465" /><rect fill="#090" height="24" stroke="#090" stroke-width="5" transform="rotate(0,2757,1477)" width="24" x="2745" y="1465" /><rect fill="#090" height="24" stroke="#090" stroke-width="5" transform="rotate(0,2757,1093)" width="24" x="2745" y="1081" /><rect fill="#090" height="24" stroke="#090" stroke-width="5" transform="rotate(0,2245,1861)" width="24" x="2233" y="1849" /><rect fill="#090" height="24" stroke="#090" stroke-width="5" transform="rotate(0,2757,1861)" width="24" x="2745" y="1849" /><rect fill="#090" height="24" stroke="#090" stroke-width="5" transform="rotate(0,2245,197)" width="24" x="2233" y="185" /><rect fill="#090" height="24" stroke="#090" stroke-width="5" transform="rotate(0,2757,197)" width="24" x="2745" y="185" /><rect fill="#090" height="24" stroke="#090" stroke-width="5" transform="rotate(0,1477,1989)" width="24" x="1465" y="1977" /><rect fill="#090" height="24" stroke="#090" stroke-width="5" transform="rotate(0,3525,1989)" width="24" x="3513" y="1977" /><rect fill="#090" height="24" stroke="#090" stroke-width="5" transform="rotate(0,1477,4805)" width="24" x="1465" y="4793" /><rect fill="#090" height="24" stroke="#090" stroke-width="5" transform="rotate(0,3525,4805)" width="24" x="3513" y="4793" /><rect fill="#090" height="24" stroke="#090" stroke-width="5" transform="rotate(0,2501,6661)" width="24" x="2489" y="6649" /><rect fill="#090" height="24" stroke="#090" stroke-width="5" transform="rotate(0,2117,5957)" width="24" x="2105" y="5945" /><rect fill="#090" height="24" stroke="#090" stroke-width="5" transform="rotate(0,2885,5957)" width="24" x="2873" y="5945" /><circle cx="965" cy="4293" fill="#009" r="16" stroke="#009" stroke-width="5" /><circle cx="1093" cy="4293" fill="#009" r="16" stroke="#009" stroke-width="5" /><circle cx="965" cy="4805" fill="#009" r="16" stroke="#009" stroke-width="5" /><circle cx="1093" cy="4805" fill="#009" r="16" stroke="#009" stroke-width="5" /><circle cx="965" cy="4549" fill="#009" r="16" stroke="#009" stroke-width="5" /><circle cx="1093" cy="4549" fill="#009" r="16" stroke="#009" stroke-width="5" /><circle cx="69" cy="4293" fill="#900" r="16" stroke="#900" stroke-width="5" /><circle cx="197" cy="4293" fill="#090" r="16" stroke="#090" stroke-width="5" /><circle cx="325" cy="4293" fill="#090" r="16" stroke="#090" stroke-width="5" /><circle cx="325" cy="4165" fill="#090" r="16" stroke="#090" stroke-width="5" /><circle cx="197" cy="4165" fill="#090" r="16" stroke="#090" stroke-width="5" /><circle cx="69" cy="4165" fill="#090" r="16" stroke="#090" stroke-width="5" /><circle cx="69" cy="4037" fill="#090" r="16" stroke="#090" stroke-width="5" /><circle cx="197" cy="4037" fill="#090" r="16" stroke="#090" stroke-width="5" /><circle cx="325" cy="4037" fill="#090" r="16" stroke="#090" stroke-width="5" /><circle cx="325" cy="3909" fill="#090" r="16" stroke="#090" stroke-width="5" /><circle cx="325" cy="3781" fill="#090" r="16" stroke="#090" stroke-width="5" /><circle cx="325" cy="3653" fill="#090" r="16" stroke="#090" stroke-width="5" /><circle cx="325" cy="3525" fill="#090" r="16" stroke="#090" stroke-width="5" /><circle cx="325" cy="3397" fill="#090" r="16" stroke="#090" stroke-width="5" /><circle cx="197" cy="3397" fill="#090" r="16" stroke="#090" stroke-width="5" /><circle cx="197" cy="3525" fill="#090" r="16" stroke="#090" stroke-width="5" /><circle cx="197" cy="3653" fill="#090" r="16" stroke="#090" stroke-width="5" /><circle cx="197" cy="3781" fill="#090" r="16" stroke="#090" stroke-width="5" /><circle cx="197" cy="3909" fill="#090" r="16" stroke="#090" stroke-width="5" /><circle cx="69" cy="3909" fill="#090" r="16" stroke="#090" stroke-width="5" /><circle cx="69" cy="3781" fill="#090" r="16" stroke="#090" stroke-width="5" /><circle cx="69" cy="3653" fill="#090" r="16" stroke="#090" stroke-width="5" /><circle cx="69" cy="3525" fill="#090" r="16" stroke="#090" stroke-width="5" /><circle cx="69" cy="3397" fill="#090" r="16" stroke="#090" stroke-width="5" /><circle cx="2501" cy="581" fill="#900" r="16" stroke="#900" stroke-width="5" /><circle cx="2629" cy="709" fill="#090" r="16" stroke="#090" stroke-width="5" /><circle cx="2373" cy="709" fill="#090" r="16" stroke="#090" stroke-width="5" /><rect fill="#900" height="48" stroke="#900" stroke-width="5" transform="rotate(270,2501,5701)" width="32" x="2485" y="5677" /><ellipse cx="2501" cy="261" fill="#009" rx="12" ry="24" stroke="#009" stroke-width="5" /><ellipse cx="2437" cy="197" fill="#009" rx="12" ry="24" stroke="#009" stroke-width="5" /><ellipse cx="2565" cy="197" fill="#009" rx="12" ry="24" stroke="#009" stroke-width="5" /><ellipse cx="2501" cy="133" fill="#009" rx="12" ry="24" stroke="#009" stroke-width="5" /><rect fill="#090" height="24" stroke="#090" stroke-width="5" transform="rotate(90,2501,69)" width="24" x="2489" y="57" /><rect fill="#090" height="24" stroke="#090" stroke-width="5" transform="rotate(180,3269,3301)" width="24" x="3257" y="3289" /><rect fill="#090" height="24" stroke="#090" stroke-width="5" transform="rotate(180,3269,3301)" width="24" x="3257" y="3289" /><rect fill="#090" height="24" stroke="#090" stroke-width="5" transform="rotate(225,3077,4101)" width="24" x="3065" y="4089" /><rect fill="#090" height="24" stroke="#090" stroke-width="5" transform="rotate(135,3077,2117)" width="24" x="3065" y="2105" /><circle cx="3909" cy="3397" fill="#009" r="16" stroke="#009" stroke-width="5" /><rect fill="#090" height="24" stroke="#090" stroke-width="5" transform="rotate(0,2373,6789)" width="24" x="2361" y="6777" /><rect fill="#090" height="24" stroke="#090" stroke-width="5" transform="rotate(0,2501,6917)" width="24" x="2489" y="6905" /><rect fill="#090" height="24" stroke="#090" stroke-width="5" transform="rotate(0,2629,6789)" width="24" x="2617" y="6777" /><circle cx="3077" cy="4421" fill="#900" r="16" stroke="#900" stroke-width="5" /><circle cx="1925" cy="4421" fill="#900" r="16" stroke="#900" stroke-width="5" /><circle cx="3013" cy="4421" fill="#090" r="16" stroke="#090" stroke-width="5" /><circle cx="3141" cy="4421" fill="#090" r="16" stroke="#090" stroke-width="5" /><circle cx="3077" cy="2373" fill="#009" r="16" stroke="#009" stroke-width="5" /><circle cx="1925" cy="2373" fill="#900" r="16" stroke="#900" stroke-width="5" /><circle cx="1861" cy="2373" fill="#900" r="16" stroke="#900" stroke-width="5" /><circle cx="1989" cy="2373" fill="#900" r="16" stroke="#900" stroke-width="5" /><circle cx="2501" cy="389" fill="#009" r="16" stroke="#009" stroke-width="5" /><rect fill="#090" height="24" stroke="#090" stroke-width="5" transform="rotate(0,1957,2469)" width="24" x="1945" y="2457" /><rect fill="#090" height="24" stroke="#090" stroke-width="5" transform="rotate(0,1957,2981)" width="24" x="1945" y="2969" /><rect fill="#090" height="24" stroke="#090" stroke-width="5" transform="rotate(0,1957,3493)" width="24" x="1945" y="3481" /><rect fill="#090" height="24" stroke="#090" stroke-width="5" transform="rotate(0,1957,4005)" width="24" x="1945" y="3993" /><rect fill="#090" height="24" stroke="#090" stroke-width="5" transform="rotate(0,1957,4517)" width="24" x="1945" y="4505" /><rect fill="#090" height="24" stroke="#090" stroke-width="5" transform="rotate(180,3045,4517)" width="24" x="3033" y="4505" /><rect fill="#090" height="24" stroke="#090" stroke-width="5" transform="rotate(180,3045,4005)" width="24" x="3033" y="3993" /><rect fill="#090" height="24" stroke="#090" stroke-width="5" transform="rotate(180,3045,3493)" width="24" x="3033" y="3481" /><rect fill="#090" height="24" stroke="#090" stroke-width="5" transform="rotate(180,3045,2981)" width="24" x="3033" y="2969" /><rect fill="#090" height="24" stroke="#090" stroke-width="5" transform="rotate(180,3045,2469)" width="24" x="3033" y="2457" /><rect fill="#090" height="24" stroke="#090" stroke-width="5" transform="rotate(0,1893,4517)" width="24" x="1881" y="4505" /><rect fill="#090" height="24" stroke="#090" stroke-width="5" transform="rotate(0,1893,4005)" width="24" x="1881" y="3993" /><rect fill="#090" height="24" stroke="#090" stroke-width="5" transform="rotate(0,1893,3493)" width="24" x="1881" y="3481" /><rect fill="#090" height="24" stroke="#090" stroke-width="5" transform="rotate(0,1893,2981)" width="24" x="1881" y="2969" /><rect fill="#090" height="24" stroke="#090" stroke-width="5" transform="rotate(0,1893,2469)" width="24" x="1881" y="2457" /><rect fill="#090" height="24" stroke="#090" stroke-width="5" transform="rotate(180,3109,2469)" width="24" x="3097" y="2457" /><rect fill="#090" height="24" stroke="#090" stroke-width="5" transform="rotate(180,3109,2981)" width="24" x="3097" y="2969" /><rect fill="#090" height="24" stroke="#090" stroke-width="5" transform="rotate(180,3109,3493)" width="24" x="3097" y="3481" /><rect fill="#090" height="24" stroke="#090" stroke-width="5" transform="rotate(180,3109,4005)" width="24" x="3097" y="3993" /><rect fill="#090" height="24" stroke="#090" stroke-width="5" transform="rotate(180,3109,4517)" width="24" x="3097" y="4505" /><rect fill="#090" height="24" stroke="#090" stroke-width="5" transform="rotate(0,1445,2149)" width="24" x="1433" y="2137" /><rect fill="#090" height="24" stroke="#090" stroke-width="5" transform="rotate(0,1509,2085)" width="24" x="1497" y="2073" /><rect fill="#090" height="24" stroke="#090" stroke-width="5" transform="rotate(0,1573,2021)" width="24" x="1561" y="2009" /><rect fill="#090" height="24" stroke="#090" stroke-width="5" transform="rotate(0,1637,1957)" width="24" x="1625" y="1945" /><rect fill="#090" height="24" stroke="#090" stroke-width="5" transform="rotate(180,3557,2149)" width="24" x="3545" y="2137" /><rect fill="#090" height="24" stroke="#090" stroke-width="5" transform="rotate(180,3493,2085)" width="24" x="3481" y="2073" /><rect fill="#090" height="24" stroke="#090" stroke-width="5" transform="rotate(180,3429,2021)" width="24" x="3417" y="2009" /><rect fill="#090" height="24" stroke="#090" stroke-width="5" transform="rotate(180,3365,1957)" width="24" x="3353" y="1945" /></svg>