<?xml version="1.0" encoding="utf-8" ?>
<svg baseProfile="tiny" height="1024" version="1.2" viewBox="0 0 2706 2778" width="997" xmlns="http://www.w3.org/2000/svg" xmlns:ev="http://www.w3.org/2001/xml-events" xmlns:xlink="http://www.w3.org/1999/xlink"><defs /><line stroke="#999" stroke-width="3" x1="965" x2="1229" y1="2477" y2="2477" /><line stroke="#999" stroke-width="3" x1="1485" x2="1741" y1="2477" y2="2477" /><line stroke="#999" stroke-width="3" x1="1229" x2="1229" y1="2477" y2="2475" /><line stroke="#999" stroke-width="3" x1="1229" x2="1485" y1="2475" y2="2475" /><line stroke="#999" stroke-width="3" x1="1485" x2="1485" y1="2475" y2="2477" /><line stroke="#999" stroke-width="3" x1="1229" x2="1229" y1="2475" y2="2473" /><line stroke="#999" stroke-width="3" x1="1229" x2="1485" y1="2473" y2="2473" /><line stroke="#333" stroke-width="10" x1="1741" x2="2701" y1="2475" y2="1965" /><line stroke="#333" stroke-width="10" x1="2701" x2="2701" y1="1965" y2="1133" /><line stroke="#333" stroke-width="10" x1="13" x2="5" y1="1133" y2="1965" /><line stroke="#333" stroke-width="10" x1="5" x2="965" y1="1965" y2="2475" /><line stroke="#333" stroke-width="10" x1="461" x2="13" y1="749" y2="1133" /><line stroke="#333" stroke-width="10" x1="965" x2="965" y1="2477" y2="2479" /><line stroke="#333" stroke-width="10" x1="965" x2="1229" y1="2479" y2="2479" /><line stroke="#333" stroke-width="10" x1="1229" x2="1229" y1="2479" y2="2477" /><line stroke="#333" stroke-width="10" x1="1485" x2="1485" y1="2477" y2="2479" /><line stroke="#333" stroke-width="10" x1="1485" x2="1741" y1="2479" y2="2479" /><line stroke="#333" stroke-width="10" x1="1741" x2="1741" y1="2479" y2="2477" /><line stroke="#999" stroke-width="3" x1="1101" x2="1613" y1="2285" y2="2285" /><line stroke="#999" stroke-width="3" x1="1613" x2="1741" y1="2285" y2="2475" /><line stroke="#333" stroke-width="10" x1="1229" x2="1325" y1="2477" y2="2477" /><line stroke="#999" stroke-width="3" x1="1325" x2="1389" y1="2477" y2="2477" /><line stroke="#333" stroke-width="10" x1="1389" x2="1485" y1="2477" y2="2477" /><line stroke="#333" stroke-width="10" x1="1325" x2="1325" y1="2477" y2="2541" /><line stroke="#333" stroke-width="10" x1="1325" x2="1325" y1="2541" y2="2773" /><line stroke="#333" stroke-width="10" x1="1389" x2="1389" y1="2541" y2="2477" /><line stroke="#333" stroke-width="10" x1="2701" x2="2253" y1="1133" y2="749" /><line stroke="#999" stroke-width="3" x1="2701" x2="2253" y1="1133" y2="1589" /><line stroke="#999" stroke-width="3" x1="2253" x2="461" y1="1589" y2="1589" /><line stroke="#999" stroke-width="3" x1="461" x2="13" y1="1589" y2="1133" /><line stroke="#999" stroke-width="3" x1="2253" x2="2253" y1="749" y2="1197" /><line stroke="#999" stroke-width="3" x1="2253" x2="2125" y1="1197" y2="1389" /><line stroke="#999" stroke-width="3" x1="2125" x2="589" y1="1389" y2="1389" /><line stroke="#999" stroke-width="3" x1="461" x2="461" y1="1197" y2="749" /><line stroke="#999" stroke-width="3" x1="1997" x2="589" y1="1069" y2="1069" /><line stroke="#333" stroke-width="10" x1="2189" x2="1453" y1="749" y2="749" /><line stroke="#333" stroke-width="10" x1="1453" x2="1453" y1="749" y2="685" /><line stroke="#333" stroke-width="10" x1="1261" x2="1261" y1="685" y2="749" /><line stroke="#333" stroke-width="10" x1="1261" x2="525" y1="749" y2="749" /><line stroke="#999" stroke-width="3" x1="1453" x2="1261" y1="749" y2="749" /><line stroke="#333" stroke-width="10" x1="1389" x2="1325" y1="621" y2="621" /><line stroke="#999" stroke-width="3" x1="1293" x2="1421" y1="1837" y2="1837" /><line stroke="#999" stroke-width="3" x1="1421" x2="1421" y1="1837" y2="1965" /><line stroke="#999" stroke-width="3" x1="1421" x2="1293" y1="1965" y2="1965" /><line stroke="#999" stroke-width="3" x1="1293" x2="1293" y1="1965" y2="1837" /><line stroke="#999" stroke-width="3" x1="589" x2="525" y1="1389" y2="1309" /><line stroke="#999" stroke-width="3" x1="525" x2="461" y1="1309" y2="1197" /><line stroke="#999" stroke-width="3" x1="2125" x2="1997" y1="1069" y2="1069" /><line stroke="#999" stroke-width="3" x1="1389" x2="1325" y1="2541" y2="2541" /><line stroke="#333" stroke-width="10" x1="2253" x2="2189" y1="749" y2="749" /><line stroke="#333" stroke-width="10" x1="525" x2="461" y1="749" y2="749" /><line stroke="#999" stroke-width="3" x1="589" x2="525" y1="1069" y2="749" /><line stroke="#999" stroke-width="3" x1="2189" x2="2125" y1="749" y2="1069" /><line stroke="#333" stroke-width="10" x1="1325" x2="1389" y1="2773" y2="2773" /><line stroke="#333" stroke-width="10" x1="1389" x2="1389" y1="2773" y2="2541" /><line stroke="#333" stroke-width="10" x1="2701" x2="2701" y1="1005" y2="813" /><line stroke="#999" stroke-width="3" x1="965" x2="1101" y1="2475" y2="2285" /><line stroke="#333" stroke-width="10" x1="965" x2="965" y1="2475" y2="2477" /><line stroke="#333" stroke-width="10" x1="1741" x2="1741" y1="2477" y2="2475" /><line stroke="#999" stroke-width="3" x1="1485" x2="1741" y1="2475" y2="2475" /><line stroke="#999" stroke-width="3" x1="965" x2="1229" y1="2475" y2="2475" /><line stroke="#999" stroke-width="3" x1="1485" x2="1485" y1="2473" y2="2475" /><line stroke="#333" stroke-width="10" x1="1293" x2="1293" y1="429" y2="493" /><line stroke="#333" stroke-width="10" x1="1293" x2="1357" y1="493" y2="493" /><line stroke="#333" stroke-width="10" x1="1357" x2="1357" y1="493" y2="429" /><line stroke="#333" stroke-width="10" x1="1357" x2="1389" y1="429" y2="397" /><line stroke="#999" stroke-width="3" x1="1389" x2="1485" y1="397" y2="301" /><line stroke="#333" stroke-width="10" x1="1485" x2="1485" y1="301" y2="173" /><line stroke="#999" stroke-width="3" x1="1485" x2="1381" y1="173" y2="69" /><line stroke="#333" stroke-width="10" x1="1381" x2="1357" y1="69" y2="45" /><line stroke="#333" stroke-width="10" x1="1357" x2="1293" y1="45" y2="45" /><line stroke="#333" stroke-width="10" x1="1293" x2="1269" y1="45" y2="69" /><line stroke="#999" stroke-width="3" x1="1269" x2="1165" y1="69" y2="173" /><line stroke="#333" stroke-width="10" x1="1165" x2="1165" y1="173" y2="301" /><line stroke="#999" stroke-width="3" x1="1165" x2="1253" y1="301" y2="389" /><line stroke="#333" stroke-width="10" x1="1253" x2="1293" y1="389" y2="429" /><line stroke="#333" stroke-width="10" x1="1389" x2="1413" y1="397" y2="421" /><line stroke="#333" stroke-width="10" x1="1413" x2="1509" y1="421" y2="325" /><line stroke="#333" stroke-width="10" x1="1509" x2="1485" y1="325" y2="301" /><line stroke="#333" stroke-width="10" x1="1485" x2="1549" y1="173" y2="109" /><line stroke="#333" stroke-width="10" x1="1549" x2="1445" y1="109" y2="5" /><line stroke="#333" stroke-width="10" x1="1445" x2="1381" y1="5" y2="69" /><line stroke="#333" stroke-width="10" x1="1269" x2="1205" y1="69" y2="5" /><line stroke="#333" stroke-width="10" x1="1205" x2="1101" y1="5" y2="109" /><line stroke="#333" stroke-width="10" x1="1101" x2="1165" y1="109" y2="173" /><line stroke="#333" stroke-width="10" x1="1165" x2="1141" y1="301" y2="325" /><line stroke="#333" stroke-width="10" x1="1141" x2="1229" y1="325" y2="413" /><line stroke="#333" stroke-width="10" x1="1229" x2="1253" y1="413" y2="389" /><line stroke="#999" stroke-width="3" x1="1293" x2="1357" y1="429" y2="429" /><line stroke="#333" stroke-width="10" x1="1453" x2="1389" y1="621" y2="621" /><line stroke="#333" stroke-width="10" x1="1325" x2="1261" y1="621" y2="621" /><line stroke="#333" stroke-width="10" x1="1261" x2="1261" y1="621" y2="685" /><line stroke="#333" stroke-width="10" x1="1453" x2="1453" y1="685" y2="621" /><rect fill="#900" height="48" stroke="#900" stroke-width="5" transform="rotate(0,1357,2717)" width="32" x="1341" y="2693" /><rect fill="#900" height="48" stroke="#900" stroke-width="5" transform="rotate(0,1357,2493)" width="32" x="1341" y="2469" /><rect fill="#900" height="48" stroke="#900" stroke-width="5" transform="rotate(0,813,909)" width="32" x="797" y="885" /><rect fill="#900" height="48" stroke="#900" stroke-width="5" transform="rotate(0,1357,909)" width="32" x="1341" y="885" /><rect fill="#900" height="48" stroke="#900" stroke-width="5" transform="rotate(0,1965,909)" width="32" x="1949" y="885" /><rect fill="#900" height="48" stroke="#900" stroke-width="5" transform="rotate(0,1965,1229)" width="32" x="1949" y="1205" /><rect fill="#900" height="48" stroke="#900" stroke-width="5" transform="rotate(0,749,1229)" width="32" x="733" y="1205" /><rect fill="#900" height="48" stroke="#900" stroke-width="5" transform="rotate(0,1101,1229)" width="32" x="1085" y="1205" /><rect fill="#900" height="48" stroke="#900" stroke-width="5" transform="rotate(0,1613,1229)" width="32" x="1597" y="1205" /><rect fill="#900" height="48" stroke="#900" stroke-width="5" transform="rotate(0,685,1485)" width="32" x="669" y="1461" /><rect fill="#900" height="48" stroke="#900" stroke-width="5" transform="rotate(0,2029,1485)" width="32" x="2013" y="1461" /><rect fill="#900" height="48" stroke="#900" stroke-width="5" transform="rotate(0,1357,1485)" width="32" x="1341" y="1461" /><rect fill="#900" height="48" stroke="#900" stroke-width="5" transform="rotate(0,717,1965)" width="32" x="701" y="1941" /><rect fill="#900" height="48" stroke="#900" stroke-width="5" transform="rotate(0,1997,1965)" width="32" x="1981" y="1941" /><rect fill="#900" height="48" stroke="#900" stroke-width="5" transform="rotate(270,1357,2381)" width="32" x="1341" y="2357" /><circle cx="1357" cy="1901" fill="#090" r="16" stroke="#090" stroke-width="5" /><circle cx="1357" cy="1901" fill="#090" r="16" stroke="#090" stroke-width="5" /><circle cx="1357" cy="1901" fill="#090" r="16" stroke="#090" stroke-width="5" /><circle cx="1357" cy="1901" fill="#090" r="16" stroke="#090" stroke-width="5" /><circle cx="1357" cy="1901" fill="#090" r="16" stroke="#090" stroke-width="5" /><circle cx="1357" cy="1901" fill="#090" r="16" stroke="#090" stroke-width="5" /><circle cx="1357" cy="1901" fill="#090" r="16" stroke="#090" stroke-width="5" /><circle cx="1357" cy="1901" fill="#090" r="16" stroke="#090" stroke-width="5" /><circle cx="1357" cy="1901" fill="#090" r="16" stroke="#090" stroke-width="5" /><circle cx="1357" cy="1901" fill="#090" r="16" stroke="#090" stroke-width="5" /><circle cx="365" cy="1101" fill="#009" r="16" stroke="#009" stroke-width="5" /><circle cx="2221" cy="1165" fill="#009" r="16" stroke="#009" stroke-width="5" /><rect fill="#900" height="48" stroke="#900" stroke-width="5" transform="rotate(0,1357,2157)" width="32" x="1341" y="2133" /><circle cx="1197" cy="845" fill="#009" r="16" stroke="#009" stroke-width="5" /><circle cx="1485" cy="2029" fill="#009" r="16" stroke="#009" stroke-width="5" /><circle cx="1485" cy="1773" fill="#009" r="16" stroke="#009" stroke-width="5" /><circle cx="1229" cy="1773" fill="#009" r="16" stroke="#009" stroke-width="5" /><circle cx="1229" cy="2029" fill="#009" r="16" stroke="#009" stroke-width="5" /><rect fill="#090" height="24" stroke="#090" stroke-width="5" transform="rotate(90,1357,1421)" width="24" x="1345" y="1409" /><rect fill="#090" height="24" stroke="#090" stroke-width="5" transform="rotate(90,1181,93)" width="24" x="1169" y="81" /><rect fill="#090" height="24" stroke="#090" stroke-width="5" transform="rotate(90,1469,93)" width="24" x="1457" y="81" /><ellipse cx="1325" cy="141" fill="#009" rx="12" ry="24" stroke="#009" stroke-width="5" /><ellipse cx="1277" cy="109" fill="#009" rx="12" ry="24" stroke="#009" stroke-width="5" /><ellipse cx="1373" cy="109" fill="#009" rx="12" ry="24" stroke="#009" stroke-width="5" /><ellipse cx="1325" cy="77" fill="#009" rx="12" ry="24" stroke="#009" stroke-width="5" /><circle cx="1197" cy="205" fill="#900" r="16" stroke="#900" stroke-width="5" /><circle cx="1261" cy="205" fill="#900" r="16" stroke="#900" stroke-width="5" /><circle cx="1325" cy="205" fill="#900" r="16" stroke="#900" stroke-width="5" /><circle cx="1389" cy="205" fill="#900" r="16" stroke="#900" stroke-width="5" /><circle cx="1453" cy="205" fill="#900" r="16" stroke="#900" stroke-width="5" /><circle cx="1261" cy="141" fill="#900" r="16" stroke="#900" stroke-width="5" /><circle cx="1389" cy="141" fill="#900" r="16" stroke="#900" stroke-width="5" /><rect fill="#090" height="24" stroke="#090" stroke-width="5" transform="rotate(90,1325,109)" width="24" x="1313" y="97" /><circle cx="1229" cy="269" fill="#090" r="16" stroke="#090" stroke-width="5" /><circle cx="1293" cy="269" fill="#090" r="16" stroke="#090" stroke-width="5" /><circle cx="1293" cy="269" fill="#090" r="16" stroke="#090" stroke-width="5" /><circle cx="1293" cy="269" fill="#090" r="16" stroke="#090" stroke-width="5" /><circle cx="1293" cy="269" fill="#090" r="16" stroke="#090" stroke-width="5" /><circle cx="1357" cy="269" fill="#090" r="16" stroke="#090" stroke-width="5" /><circle cx="1357" cy="269" fill="#090" r="16" stroke="#090" stroke-width="5" /><circle cx="1357" cy="269" fill="#090" r="16" stroke="#090" stroke-width="5" /><circle cx="1357" cy="269" fill="#090" r="16" stroke="#090" stroke-width="5" /><circle cx="1357" cy="269" fill="#090" r="16" stroke="#090" stroke-width="5" /><circle cx="1357" cy="269" fill="#090" r="16" stroke="#090" stroke-width="5" /><circle cx="1357" cy="269" fill="#090" r="16" stroke="#090" stroke-width="5" /><circle cx="1357" cy="269" fill="#090" r="16" stroke="#090" stroke-width="5" /><circle cx="1421" cy="269" fill="#090" r="16" stroke="#090" stroke-width="5" /><circle cx="1421" cy="269" fill="#090" r="16" stroke="#090" stroke-width="5" /><circle cx="1421" cy="269" fill="#090" r="16" stroke="#090" stroke-width="5" /><circle cx="1325" cy="333" fill="#009" r="16" stroke="#009" stroke-width="5" /><circle cx="1261" cy="333" fill="#009" r="16" stroke="#009" stroke-width="5" /><circle cx="1389" cy="333" fill="#009" r="16" stroke="#009" stroke-width="5" /><circle cx="1325" cy="397" fill="#009" r="16" stroke="#009" stroke-width="5" /><rect fill="#090" height="24" stroke="#090" stroke-width="5" transform="rotate(90,1181,93)" width="24" x="1169" y="81" /><rect fill="#090" height="24" stroke="#090" stroke-width="5" transform="rotate(90,1469,93)" width="24" x="1457" y="81" /><circle cx="1421" cy="269" fill="#090" r="16" stroke="#090" stroke-width="5" /><circle cx="1293" cy="269" fill="#090" r="16" stroke="#090" stroke-width="5" /><circle cx="1293" cy="269" fill="#090" r="16" stroke="#090" stroke-width="5" /><circle cx="1293" cy="269" fill="#090" r="16" stroke="#090" stroke-width="5" /><rect fill="#090" height="24" stroke="#090" stroke-width="5" transform="rotate(270,1325,365)" width="24" x="1313" y="353" /><rect fill="#090" height="24" stroke="#090" stroke-width="5" transform="rotate(270,1357,1933)" width="24" x="1345" y="1921" /><rect fill="#090" height="24" stroke="#090" stroke-width="5" transform="rotate(90,1357,1549)" width="24" x="1345" y="1537" /><rect fill="#090" height="24" stroke="#090" stroke-width="5" transform="rotate(90,1357,1197)" width="24" x="1345" y="1185" /><rect fill="#090" height="24" stroke="#090" stroke-width="5" transform="rotate(90,1357,813)" width="24" x="1345" y="801" /><circle cx="1357" cy="1869" fill="#900" r="16" stroke="#900" stroke-width="5" /><circle cx="1709" cy="1485" fill="#900" r="16" stroke="#900" stroke-width="5" /><circle cx="1357" cy="1261" fill="#900" r="16" stroke="#900" stroke-width="5" /><circle cx="941" cy="909" fill="#900" r="16" stroke="#900" stroke-width="5" /><circle cx="941" cy="1485" fill="#900" r="16" stroke="#900" stroke-width="5" /><circle cx="1645" cy="909" fill="#900" r="16" stroke="#900" stroke-width="5" /><circle cx="1165" cy="2445" fill="#009" r="16" stroke="#009" stroke-width="5" /><rect fill="#090" height="24" stroke="#090" stroke-width="5" transform="rotate(90,1485,2413)" width="24" x="1473" y="2401" /><rect fill="#090" height="24" stroke="#090" stroke-width="5" transform="rotate(90,1229,2413)" width="24" x="1217" y="2401" /><circle cx="1229" cy="269" fill="#090" r="16" stroke="#090" stroke-width="5" /><circle cx="1229" cy="269" fill="#090" r="16" stroke="#090" stroke-width="5" /><circle cx="1229" cy="269" fill="#090" r="16" stroke="#090" stroke-width="5" /><circle cx="1229" cy="269" fill="#090" r="16" stroke="#090" stroke-width="5" /><circle cx="1133" cy="2317" fill="#009" r="16" stroke="#009" stroke-width="5" /><circle cx="1581" cy="2317" fill="#009" r="16" stroke="#009" stroke-width="5" /><circle cx="1549" cy="2445" fill="#009" r="16" stroke="#009" stroke-width="5" /></svg>