<?xml version="1.0" encoding="UTF-8" standalone="no"?>
<!DOCTYPE svg PUBLIC "-//W3C//DTD SVG 1.1//EN"
 "http://www.w3.org/Graphics/SVG/1.1/DTD/svg11.dtd">
<!-- Generated by graphviz version 2.38.0 (20140413.2041)
 -->
<!-- Title: %3 Pages: 1 -->
<svg width="572pt" height="712pt"
 viewBox="0.00 0.00 572.00 712.00" xmlns="http://www.w3.org/2000/svg" xmlns:xlink="http://www.w3.org/1999/xlink">
<g id="graph0" class="graph" transform="scale(1 1) rotate(0) translate(4 708)">
<title>%3</title>
<polygon fill="white" stroke="none" points="-4,4 -4,-708 568,-708 568,4 -4,4"/>
<!-- 0 -->
<g id="node1" class="node"><title>0</title>
<ellipse fill="none" stroke="black" cx="161" cy="-686" rx="27" ry="18"/>
<text text-anchor="middle" x="161" y="-682.3" font-family="Times New Roman,serif" font-size="14.00">e,i</text>
</g>
<!-- 1 -->
<g id="node2" class="node"><title>1</title>
<ellipse fill="none" stroke="black" cx="161" cy="-613" rx="28.6953" ry="18"/>
<text text-anchor="middle" x="161" y="-609.3" font-family="Times New Roman,serif" font-size="14.00">e,k,p</text>
</g>
<!-- 0&#45;&gt;1 -->
<g id="edge6" class="edge"><title>0&#45;&gt;1</title>
<path fill="none" stroke="black" d="M155.16,-668.174C154.285,-660.039 154.041,-650.076 154.428,-640.921"/>
<polygon fill="black" stroke="black" points="157.937,-640.933 155.173,-630.705 150.955,-640.424 157.937,-640.933"/>
</g>
<!-- 1&#45;&gt;0 -->
<g id="edge5" class="edge"><title>1&#45;&gt;0</title>
<path fill="none" stroke="black" d="M166.827,-630.705C167.708,-638.822 167.959,-648.78 167.577,-657.942"/>
<polygon fill="black" stroke="black" points="164.068,-657.948 166.84,-668.174 171.05,-658.452 164.068,-657.948"/>
</g>
<!-- 2 -->
<g id="node3" class="node"><title>2</title>
<ellipse fill="none" stroke="black" cx="99" cy="-526" rx="27" ry="18"/>
</g>
<!-- 1&#45;&gt;2 -->
<g id="edge4" class="edge"><title>1&#45;&gt;2</title>
<path fill="none" stroke="black" d="M145.266,-597.581C134.606,-585.186 121.021,-567.023 111.173,-552.227"/>
<polygon fill="black" stroke="black" points="113.935,-550.05 105.583,-543.531 108.046,-553.835 113.935,-550.05"/>
</g>
<!-- 14 -->
<g id="node15" class="node"><title>14</title>
<ellipse fill="none" stroke="black" cx="194" cy="-526" rx="27" ry="18"/>
<text text-anchor="middle" x="194" y="-522.3" font-family="Times New Roman,serif" font-size="14.00">e</text>
</g>
<!-- 1&#45;&gt;14 -->
<g id="edge13" class="edge"><title>1&#45;&gt;14</title>
<path fill="none" stroke="black" d="M164.749,-595.02C167.165,-585.193 170.665,-572.693 175,-562 176.339,-558.696 177.91,-555.303 179.565,-551.991"/>
<polygon fill="black" stroke="black" points="182.733,-553.487 184.326,-543.013 176.549,-550.207 182.733,-553.487"/>
</g>
<!-- 2&#45;&gt;1 -->
<g id="edge3" class="edge"><title>2&#45;&gt;1</title>
<path fill="none" stroke="black" d="M114.327,-540.947C124.964,-553.254 138.642,-571.505 148.597,-586.428"/>
<polygon fill="black" stroke="black" points="145.895,-588.697 154.255,-595.207 151.779,-584.905 145.895,-588.697"/>
</g>
<!-- 3 -->
<g id="node4" class="node"><title>3</title>
<ellipse fill="none" stroke="black" cx="27" cy="-439" rx="27" ry="18"/>
<text text-anchor="middle" x="27" y="-435.3" font-family="Times New Roman,serif" font-size="14.00">s</text>
</g>
<!-- 2&#45;&gt;3 -->
<g id="edge2" class="edge"><title>2&#45;&gt;3</title>
<path fill="none" stroke="black" d="M82.3171,-511.343C69.8414,-498.673 53.2731,-479.525 41.3827,-464.256"/>
<polygon fill="black" stroke="black" points="44.1398,-462.099 35.314,-456.238 38.5583,-466.324 44.1398,-462.099"/>
</g>
<!-- 5 -->
<g id="node6" class="node"><title>5</title>
<ellipse fill="none" stroke="black" cx="99" cy="-439" rx="27" ry="18"/>
<text text-anchor="middle" x="99" y="-435.3" font-family="Times New Roman,serif" font-size="14.00">e,k</text>
</g>
<!-- 2&#45;&gt;5 -->
<g id="edge9" class="edge"><title>2&#45;&gt;5</title>
<path fill="none" stroke="black" d="M93.4963,-508.207C92.1841,-496.448 91.9081,-480.485 92.6683,-466.958"/>
<polygon fill="black" stroke="black" points="96.1756,-467.01 93.5002,-456.758 89.1988,-466.441 96.1756,-467.01"/>
</g>
<!-- 3&#45;&gt;2 -->
<g id="edge1" class="edge"><title>3&#45;&gt;2</title>
<path fill="none" stroke="black" d="M43.5669,-453.539C56.0106,-466.163 72.5698,-485.288 84.4877,-500.577"/>
<polygon fill="black" stroke="black" points="81.7464,-502.755 90.5757,-508.611 87.3254,-498.527 81.7464,-502.755"/>
</g>
<!-- 4 -->
<g id="node5" class="node"><title>4</title>
<ellipse fill="none" stroke="black" cx="49" cy="-352" rx="27" ry="18"/>
<text text-anchor="middle" x="49" y="-348.3" font-family="Times New Roman,serif" font-size="14.00">i</text>
</g>
<!-- 4&#45;&gt;5 -->
<g id="edge12" class="edge"><title>4&#45;&gt;5</title>
<path fill="none" stroke="black" d="M58.3624,-368.916C65.6839,-381.363 75.9953,-398.892 84.399,-413.178"/>
<polygon fill="black" stroke="black" points="81.5084,-415.167 89.5954,-422.012 87.5419,-411.618 81.5084,-415.167"/>
<text text-anchor="middle" x="79" y="-391.8" font-family="Times New Roman,serif" font-size="14.00">l</text>
</g>
<!-- 5&#45;&gt;2 -->
<g id="edge10" class="edge"><title>5&#45;&gt;2</title>
<path fill="none" stroke="black" d="M104.5,-456.758C105.814,-468.508 106.092,-484.47 105.334,-498.002"/>
<polygon fill="black" stroke="black" points="101.826,-497.956 104.504,-508.207 108.803,-498.524 101.826,-497.956"/>
</g>
<!-- 5&#45;&gt;4 -->
<g id="edge11" class="edge"><title>5&#45;&gt;4</title>
<path fill="none" stroke="black" d="M84.6973,-423.506C79.2935,-417.504 73.3947,-410.256 69,-403 64.5729,-395.69 60.7574,-387.226 57.6813,-379.364"/>
<polygon fill="black" stroke="black" points="60.9233,-378.039 54.1898,-369.859 54.3526,-380.452 60.9233,-378.039"/>
</g>
<!-- 6 -->
<g id="node7" class="node"><title>6</title>
<ellipse fill="none" stroke="black" cx="121" cy="-352" rx="27" ry="18"/>
<text text-anchor="middle" x="121" y="-348.3" font-family="Times New Roman,serif" font-size="14.00">K</text>
</g>
<!-- 8 -->
<g id="node9" class="node"><title>8</title>
<ellipse fill="none" stroke="black" cx="224" cy="-265" rx="27" ry="18"/>
<text text-anchor="middle" x="224" y="-261.3" font-family="Times New Roman,serif" font-size="14.00">p</text>
</g>
<!-- 6&#45;&gt;8 -->
<g id="edge43" class="edge"><title>6&#45;&gt;8</title>
<path fill="none" stroke="black" d="M129.706,-334.588C135.945,-323.996 145.144,-310.477 156,-301 166.418,-291.905 179.615,-284.417 191.605,-278.734"/>
<polygon fill="black" stroke="black" points="193.197,-281.856 200.886,-274.567 190.33,-275.47 193.197,-281.856"/>
<text text-anchor="middle" x="159.5" y="-304.8" font-family="Times New Roman,serif" font-size="14.00">k</text>
</g>
<!-- 13 -->
<g id="node14" class="node"><title>13</title>
<ellipse fill="none" stroke="black" cx="249" cy="-439" rx="28.6953" ry="18"/>
<text text-anchor="middle" x="249" y="-435.3" font-family="Times New Roman,serif" font-size="14.00">e,k,p</text>
</g>
<!-- 6&#45;&gt;13 -->
<g id="edge39" class="edge"><title>6&#45;&gt;13</title>
<path fill="none" stroke="black" d="M139.548,-365.317C161.078,-379.614 196.789,-403.328 221.538,-419.763"/>
<polygon fill="black" stroke="black" points="219.846,-422.842 230.113,-425.458 223.719,-417.01 219.846,-422.842"/>
<text text-anchor="middle" x="196.5" y="-391.8" font-family="Times New Roman,serif" font-size="14.00">s</text>
</g>
<!-- 7 -->
<g id="node8" class="node"><title>7</title>
<ellipse fill="none" stroke="black" cx="193" cy="-352" rx="27" ry="18"/>
<text text-anchor="middle" x="193" y="-348.3" font-family="Times New Roman,serif" font-size="14.00">i</text>
</g>
<!-- 7&#45;&gt;13 -->
<g id="edge22" class="edge"><title>7&#45;&gt;13</title>
<path fill="none" stroke="black" d="M207.559,-367.22C217.305,-379.539 229.597,-397.661 238.436,-412.485"/>
<polygon fill="black" stroke="black" points="235.428,-414.275 243.44,-421.207 241.499,-410.791 235.428,-414.275"/>
</g>
<!-- 8&#45;&gt;6 -->
<g id="edge42" class="edge"><title>8&#45;&gt;6</title>
<path fill="none" stroke="black" d="M207.492,-279.623C190.689,-293.489 164.457,-315.137 145.285,-330.959"/>
<polygon fill="black" stroke="black" points="143.034,-328.279 137.549,-337.343 147.489,-333.678 143.034,-328.279"/>
<text text-anchor="middle" x="182.5" y="-304.8" font-family="Times New Roman,serif" font-size="14.00">k</text>
</g>
<!-- 8&#45;&gt;13 -->
<g id="edge41" class="edge"><title>8&#45;&gt;13</title>
<path fill="none" stroke="black" d="M235.225,-281.72C238.88,-287.53 242.608,-294.33 245,-301 252.405,-321.645 262.386,-368.329 258,-403 257.657,-405.708 257.171,-408.506 256.601,-411.285"/>
<polygon fill="black" stroke="black" points="253.181,-410.538 254.266,-421.077 259.99,-412.161 253.181,-410.538"/>
<text text-anchor="middle" x="260.5" y="-348.3" font-family="Times New Roman,serif" font-size="14.00">I</text>
</g>
<!-- 9 -->
<g id="node10" class="node"><title>9</title>
<ellipse fill="none" stroke="black" cx="347" cy="-352" rx="27" ry="18"/>
<text text-anchor="middle" x="347" y="-348.3" font-family="Times New Roman,serif" font-size="14.00">e,p</text>
</g>
<!-- 10 -->
<g id="node11" class="node"><title>10</title>
<ellipse fill="none" stroke="black" cx="336" cy="-265" rx="27" ry="18"/>
<text text-anchor="middle" x="336" y="-261.3" font-family="Times New Roman,serif" font-size="14.00">e,p</text>
</g>
<!-- 9&#45;&gt;10 -->
<g id="edge17" class="edge"><title>9&#45;&gt;10</title>
<path fill="none" stroke="black" d="M344.774,-333.799C343.268,-322.163 341.247,-306.548 339.525,-293.237"/>
<polygon fill="black" stroke="black" points="342.977,-292.644 338.223,-283.175 336.035,-293.542 342.977,-292.644"/>
</g>
<!-- 9&#45;&gt;13 -->
<g id="edge27" class="edge"><title>9&#45;&gt;13</title>
<path fill="none" stroke="black" d="M347.526,-370.035C346.979,-380.616 344.595,-393.888 337,-403 324.504,-417.992 304.676,-426.606 287.003,-431.534"/>
<polygon fill="black" stroke="black" points="285.784,-428.23 276.917,-434.029 287.465,-435.025 285.784,-428.23"/>
<text text-anchor="middle" x="347.5" y="-391.8" font-family="Times New Roman,serif" font-size="14.00">k</text>
</g>
<!-- 10&#45;&gt;9 -->
<g id="edge18" class="edge"><title>10&#45;&gt;9</title>
<path fill="none" stroke="black" d="M340.474,-282.984C341.814,-288.674 343.151,-295.077 344,-301 345.044,-308.287 345.726,-316.223 346.171,-323.581"/>
<polygon fill="black" stroke="black" points="342.686,-323.987 346.667,-333.805 349.678,-323.647 342.686,-323.987"/>
<text text-anchor="middle" x="347" y="-304.8" font-family="Times New Roman,serif" font-size="14.00">l</text>
</g>
<!-- 11 -->
<g id="node12" class="node"><title>11</title>
<ellipse fill="none" stroke="black" cx="337" cy="-178" rx="27" ry="18"/>
<text text-anchor="middle" x="337" y="-174.3" font-family="Times New Roman,serif" font-size="14.00">I</text>
</g>
<!-- 10&#45;&gt;11 -->
<g id="edge26" class="edge"><title>10&#45;&gt;11</title>
<path fill="none" stroke="black" d="M334.615,-246.875C334.009,-237.22 333.532,-224.936 334,-214 334.109,-211.441 334.264,-208.779 334.445,-206.118"/>
<polygon fill="black" stroke="black" points="337.94,-206.317 335.242,-196.071 330.962,-205.763 337.94,-206.317"/>
</g>
<!-- 11&#45;&gt;10 -->
<g id="edge25" class="edge"><title>11&#45;&gt;10</title>
<path fill="none" stroke="black" d="M336.798,-196.175C336.661,-207.806 336.477,-223.419 336.321,-236.734"/>
<polygon fill="black" stroke="black" points="332.82,-236.758 336.202,-246.799 339.82,-236.841 332.82,-236.758"/>
<text text-anchor="middle" x="338" y="-217.8" font-family="Times New Roman,serif" font-size="14.00">l</text>
</g>
<!-- 12 -->
<g id="node13" class="node"><title>12</title>
<ellipse fill="none" stroke="black" cx="464" cy="-91" rx="27" ry="18"/>
<text text-anchor="middle" x="464" y="-87.3" font-family="Times New Roman,serif" font-size="14.00">e</text>
</g>
<!-- 17 -->
<g id="node18" class="node"><title>17</title>
<ellipse fill="none" stroke="black" cx="485" cy="-178" rx="27" ry="18"/>
<text text-anchor="middle" x="485" y="-174.3" font-family="Times New Roman,serif" font-size="14.00">p</text>
</g>
<!-- 12&#45;&gt;17 -->
<g id="edge34" class="edge"><title>12&#45;&gt;17</title>
<path fill="none" stroke="black" d="M473.375,-108.025C477.665,-119.798 481.995,-136.074 484.636,-149.859"/>
<polygon fill="black" stroke="black" points="481.197,-150.513 486.299,-159.799 488.101,-149.359 481.197,-150.513"/>
</g>
<!-- 13&#45;&gt;0 -->
<g id="edge35" class="edge"><title>13&#45;&gt;0</title>
<path fill="none" stroke="black" d="M247.105,-456.99C242.723,-491.483 229.811,-571.492 199,-631 193.568,-641.492 186.351,-652.288 179.666,-661.443"/>
<polygon fill="black" stroke="black" points="176.705,-659.557 173.496,-669.654 182.301,-663.762 176.705,-659.557"/>
</g>
<!-- 13&#45;&gt;6 -->
<g id="edge38" class="edge"><title>13&#45;&gt;6</title>
<path fill="none" stroke="black" d="M220.285,-437.691C192.983,-435.766 152.798,-428.402 130,-403 124.449,-396.815 121.765,-388.41 120.59,-380.257"/>
<polygon fill="black" stroke="black" points="124.076,-379.946 119.805,-370.25 117.098,-380.494 124.076,-379.946"/>
<text text-anchor="middle" x="133.5" y="-391.8" font-family="Times New Roman,serif" font-size="14.00">s</text>
</g>
<!-- 13&#45;&gt;7 -->
<g id="edge21" class="edge"><title>13&#45;&gt;7</title>
<path fill="none" stroke="black" d="M233.979,-423.194C224.348,-410.943 212.364,-393.253 203.672,-378.697"/>
<polygon fill="black" stroke="black" points="206.507,-376.604 198.494,-369.673 200.436,-380.088 206.507,-376.604"/>
</g>
<!-- 13&#45;&gt;8 -->
<g id="edge40" class="edge"><title>13&#45;&gt;8</title>
<path fill="none" stroke="black" d="M246.634,-420.871C245.292,-411.215 243.572,-398.932 242,-388 237.302,-355.325 231.734,-317.755 228.048,-293.038"/>
<polygon fill="black" stroke="black" points="231.483,-292.341 226.544,-282.968 224.559,-293.375 231.483,-292.341"/>
<text text-anchor="middle" x="242.5" y="-348.3" font-family="Times New Roman,serif" font-size="14.00">I</text>
</g>
<!-- 13&#45;&gt;9 -->
<g id="edge28" class="edge"><title>13&#45;&gt;9</title>
<path fill="none" stroke="black" d="M270.888,-427.194C282.305,-420.985 296.12,-412.533 307,-403 315.528,-395.528 323.611,-386.072 330.249,-377.4"/>
<polygon fill="black" stroke="black" points="333.256,-379.219 336.368,-369.092 327.62,-375.068 333.256,-379.219"/>
<text text-anchor="middle" x="323.5" y="-391.8" font-family="Times New Roman,serif" font-size="14.00">k</text>
</g>
<!-- 13&#45;&gt;14 -->
<g id="edge24" class="edge"><title>13&#45;&gt;14</title>
<path fill="none" stroke="black" d="M238.701,-455.916C230.571,-468.481 219.089,-486.226 209.798,-500.586"/>
<polygon fill="black" stroke="black" points="206.839,-498.715 204.345,-509.012 212.716,-502.518 206.839,-498.715"/>
<text text-anchor="middle" x="227" y="-478.8" font-family="Times New Roman,serif" font-size="14.00">l</text>
</g>
<!-- 16 -->
<g id="node17" class="node"><title>16</title>
<ellipse fill="none" stroke="black" cx="419" cy="-352" rx="27" ry="18"/>
<text text-anchor="middle" x="419" y="-348.3" font-family="Times New Roman,serif" font-size="14.00">e,p</text>
</g>
<!-- 13&#45;&gt;16 -->
<g id="edge36" class="edge"><title>13&#45;&gt;16</title>
<path fill="none" stroke="black" d="M275.729,-431.905C297.805,-426.239 329.536,-416.617 355,-403 369.708,-395.135 384.488,-383.863 396.134,-374.012"/>
<polygon fill="black" stroke="black" points="398.765,-376.362 404.013,-367.159 394.171,-371.08 398.765,-376.362"/>
<text text-anchor="middle" x="380.5" y="-391.8" font-family="Times New Roman,serif" font-size="14.00">k</text>
</g>
<!-- 14&#45;&gt;1 -->
<g id="edge14" class="edge"><title>14&#45;&gt;1</title>
<path fill="none" stroke="black" d="M187.494,-543.758C182.842,-555.741 176.489,-572.104 171.171,-585.803"/>
<polygon fill="black" stroke="black" points="167.876,-584.618 167.52,-595.207 174.402,-587.151 167.876,-584.618"/>
<text text-anchor="middle" x="182" y="-565.8" font-family="Times New Roman,serif" font-size="14.00">l</text>
</g>
<!-- 14&#45;&gt;13 -->
<g id="edge23" class="edge"><title>14&#45;&gt;13</title>
<path fill="none" stroke="black" d="M196.691,-507.787C198.857,-497.647 202.625,-484.908 209,-475 212.604,-469.398 217.356,-464.173 222.322,-459.556"/>
<polygon fill="black" stroke="black" points="224.849,-462.001 230.168,-452.838 220.296,-456.684 224.849,-462.001"/>
</g>
<!-- 15 -->
<g id="node16" class="node"><title>15</title>
<ellipse fill="none" stroke="black" cx="414" cy="-265" rx="27" ry="18"/>
<text text-anchor="middle" x="414" y="-261.3" font-family="Times New Roman,serif" font-size="14.00">e</text>
</g>
<!-- 15&#45;&gt;16 -->
<g id="edge8" class="edge"><title>15&#45;&gt;16</title>
<path fill="none" stroke="black" d="M420.486,-282.758C422.491,-294.508 423.708,-310.47 423.746,-324.002"/>
<polygon fill="black" stroke="black" points="420.242,-324.13 423.516,-334.207 427.24,-324.288 420.242,-324.13"/>
</g>
<!-- 16&#45;&gt;13 -->
<g id="edge37" class="edge"><title>16&#45;&gt;13</title>
<path fill="none" stroke="black" d="M412.565,-369.775C407.498,-380.803 399.379,-394.682 388,-403 358.617,-424.479 317.439,-432.839 287.533,-436.06"/>
<polygon fill="black" stroke="black" points="287.095,-432.586 277.463,-436.998 287.745,-439.556 287.095,-432.586"/>
<text text-anchor="middle" x="405.5" y="-391.8" font-family="Times New Roman,serif" font-size="14.00">k</text>
</g>
<!-- 16&#45;&gt;15 -->
<g id="edge7" class="edge"><title>16&#45;&gt;15</title>
<path fill="none" stroke="black" d="M412.508,-334.207C410.505,-322.448 409.29,-306.485 409.254,-292.958"/>
<polygon fill="black" stroke="black" points="412.758,-292.835 409.486,-282.758 405.759,-292.676 412.758,-292.835"/>
</g>
<!-- 18 -->
<g id="node19" class="node"><title>18</title>
<ellipse fill="none" stroke="black" cx="486" cy="-265" rx="27" ry="18"/>
<text text-anchor="middle" x="486" y="-261.3" font-family="Times New Roman,serif" font-size="14.00">m</text>
</g>
<!-- 16&#45;&gt;18 -->
<g id="edge19" class="edge"><title>16&#45;&gt;18</title>
<path fill="none" stroke="black" d="M430.978,-335.804C441.11,-322.95 455.796,-304.319 467.447,-289.537"/>
<polygon fill="black" stroke="black" points="470.458,-291.372 473.9,-281.351 464.96,-287.038 470.458,-291.372"/>
<text text-anchor="middle" x="458.5" y="-304.8" font-family="Times New Roman,serif" font-size="14.00">I</text>
</g>
<!-- 17&#45;&gt;12 -->
<g id="edge33" class="edge"><title>17&#45;&gt;12</title>
<path fill="none" stroke="black" d="M475.639,-161.012C471.334,-149.209 466.987,-132.863 464.345,-119.042"/>
<polygon fill="black" stroke="black" points="467.781,-118.371 462.685,-109.083 460.876,-119.522 467.781,-118.371"/>
</g>
<!-- 17&#45;&gt;18 -->
<g id="edge16" class="edge"><title>17&#45;&gt;18</title>
<path fill="none" stroke="black" d="M485.202,-196.175C485.339,-207.806 485.523,-223.419 485.679,-236.734"/>
<polygon fill="black" stroke="black" points="482.18,-236.841 485.798,-246.799 489.18,-236.758 482.18,-236.841"/>
<text text-anchor="middle" x="487" y="-217.8" font-family="Times New Roman,serif" font-size="14.00">l</text>
</g>
<!-- 20 -->
<g id="node21" class="node"><title>20</title>
<ellipse fill="none" stroke="black" cx="537" cy="-91" rx="27" ry="18"/>
<text text-anchor="middle" x="537" y="-87.3" font-family="Times New Roman,serif" font-size="14.00">b</text>
</g>
<!-- 17&#45;&gt;20 -->
<g id="edge29" class="edge"><title>17&#45;&gt;20</title>
<path fill="none" stroke="black" d="M490.971,-160.17C494.864,-150.166 500.435,-137.435 507,-127 509.682,-122.737 512.859,-118.454 516.125,-114.419"/>
<polygon fill="black" stroke="black" points="518.993,-116.45 522.824,-106.572 513.669,-111.905 518.993,-116.45"/>
<text text-anchor="middle" x="512" y="-130.8" font-family="Times New Roman,serif" font-size="14.00">K</text>
</g>
<!-- 18&#45;&gt;16 -->
<g id="edge20" class="edge"><title>18&#45;&gt;16</title>
<path fill="none" stroke="black" d="M480.933,-282.879C477.305,-293.142 471.696,-306.127 464,-316 459.147,-322.225 452.951,-327.968 446.719,-332.926"/>
<polygon fill="black" stroke="black" points="444.258,-330.395 438.322,-339.17 448.435,-336.012 444.258,-330.395"/>
<text text-anchor="middle" x="474.5" y="-304.8" font-family="Times New Roman,serif" font-size="14.00">I</text>
</g>
<!-- 18&#45;&gt;17 -->
<g id="edge15" class="edge"><title>18&#45;&gt;17</title>
<path fill="none" stroke="black" d="M484.242,-246.929C483.735,-241.234 483.25,-234.849 483,-229 482.686,-221.652 482.798,-213.696 483.089,-206.338"/>
<polygon fill="black" stroke="black" points="486.596,-206.292 483.615,-196.125 479.605,-205.932 486.596,-206.292"/>
</g>
<!-- 19 -->
<g id="node20" class="node"><title>19</title>
<ellipse fill="none" stroke="black" cx="537" cy="-18" rx="27" ry="18"/>
<text text-anchor="middle" x="537" y="-14.3" font-family="Times New Roman,serif" font-size="14.00">t</text>
</g>
<!-- 19&#45;&gt;20 -->
<g id="edge32" class="edge"><title>19&#45;&gt;20</title>
<path fill="none" stroke="black" d="M542.827,-35.7052C543.708,-43.8218 543.959,-53.7804 543.577,-62.9424"/>
<polygon fill="black" stroke="black" points="540.068,-62.9482 542.84,-73.174 547.05,-63.4515 540.068,-62.9482"/>
</g>
<!-- 20&#45;&gt;17 -->
<g id="edge30" class="edge"><title>20&#45;&gt;17</title>
<path fill="none" stroke="black" d="M531.931,-108.933C528.519,-118.973 523.462,-131.706 517,-142 514.119,-146.589 510.605,-151.132 506.973,-155.349"/>
<polygon fill="black" stroke="black" points="504.153,-153.245 499.979,-162.983 509.315,-157.973 504.153,-153.245"/>
<text text-anchor="middle" x="529" y="-130.8" font-family="Times New Roman,serif" font-size="14.00">K</text>
</g>
<!-- 20&#45;&gt;19 -->
<g id="edge31" class="edge"><title>20&#45;&gt;19</title>
<path fill="none" stroke="black" d="M531.16,-73.174C530.285,-65.0392 530.041,-55.0756 530.428,-45.9214"/>
<polygon fill="black" stroke="black" points="533.937,-45.9333 531.173,-35.7052 526.955,-45.4242 533.937,-45.9333"/>
</g>
</g>
</svg>
