<?xml version="1.0" encoding="UTF-8" standalone="no"?>
<!DOCTYPE svg PUBLIC "-//W3C//DTD SVG 1.1//EN"
 "http://www.w3.org/Graphics/SVG/1.1/DTD/svg11.dtd">
<!-- Generated by graphviz version 2.38.0 (20140413.2041)
 -->
<!-- Title: %3 Pages: 1 -->
<svg width="444pt" height="827pt"
 viewBox="0.00 0.00 444.00 827.00" xmlns="http://www.w3.org/2000/svg" xmlns:xlink="http://www.w3.org/1999/xlink">
<g id="graph0" class="graph" transform="scale(1 1) rotate(0) translate(4 823)">
<title>%3</title>
<polygon fill="white" stroke="none" points="-4,4 -4,-823 440,-823 440,4 -4,4"/>
<!-- 0 -->
<g id="node1" class="node"><title>0</title>
<ellipse fill="none" stroke="black" cx="101" cy="-801" rx="27" ry="18"/>
<text text-anchor="middle" x="101" y="-797.3" font-family="Times New Roman,serif" font-size="14.00">e,p</text>
</g>
<!-- 7 -->
<g id="node8" class="node"><title>7</title>
<ellipse fill="none" stroke="black" cx="65" cy="-714" rx="27" ry="18"/>
<text text-anchor="middle" x="65" y="-710.3" font-family="Times New Roman,serif" font-size="14.00">e</text>
</g>
<!-- 0&#45;&gt;7 -->
<g id="edge36" class="edge"><title>0&#45;&gt;7</title>
<path fill="none" stroke="black" d="M85.0942,-786.152C79.355,-780.239 73.4476,-772.883 70,-765 66.9589,-758.046 65.4073,-750.044 64.6841,-742.509"/>
<polygon fill="black" stroke="black" points="68.1688,-742.127 64.1443,-732.327 61.1787,-742.498 68.1688,-742.127"/>
<text text-anchor="middle" x="73.5" y="-753.8" font-family="Times New Roman,serif" font-size="14.00">k</text>
</g>
<!-- 21 -->
<g id="node22" class="node"><title>21</title>
<ellipse fill="none" stroke="black" cx="145" cy="-714" rx="27" ry="18"/>
<text text-anchor="middle" x="145" y="-710.3" font-family="Times New Roman,serif" font-size="14.00">e,p</text>
</g>
<!-- 0&#45;&gt;21 -->
<g id="edge48" class="edge"><title>0&#45;&gt;21</title>
<path fill="none" stroke="black" d="M108.969,-783.717C113.813,-773.907 120.168,-761.188 126,-750 127.648,-746.839 129.403,-743.531 131.155,-740.264"/>
<polygon fill="black" stroke="black" points="134.313,-741.781 135.993,-731.32 128.156,-738.451 134.313,-741.781"/>
</g>
<!-- 1 -->
<g id="node2" class="node"><title>1</title>
<ellipse fill="none" stroke="black" cx="409" cy="-279" rx="27" ry="18"/>
<text text-anchor="middle" x="409" y="-275.3" font-family="Times New Roman,serif" font-size="14.00">p</text>
</g>
<!-- 10 -->
<g id="node11" class="node"><title>10</title>
<ellipse fill="none" stroke="black" cx="408" cy="-192" rx="27" ry="18"/>
<text text-anchor="middle" x="408" y="-188.3" font-family="Times New Roman,serif" font-size="14.00">b</text>
</g>
<!-- 1&#45;&gt;10 -->
<g id="edge57" class="edge"><title>1&#45;&gt;10</title>
<path fill="none" stroke="black" d="M400.4,-261.713C397.806,-255.963 395.303,-249.346 394,-243 392.387,-235.141 393.587,-226.703 395.84,-219.039"/>
<polygon fill="black" stroke="black" points="399.172,-220.117 399.26,-209.523 392.584,-217.75 399.172,-220.117"/>
<text text-anchor="middle" x="399" y="-231.8" font-family="Times New Roman,serif" font-size="14.00">K</text>
</g>
<!-- 25 -->
<g id="node26" class="node"><title>25</title>
<ellipse fill="none" stroke="black" cx="376" cy="-366" rx="28.6953" ry="18"/>
<text text-anchor="middle" x="376" y="-362.3" font-family="Times New Roman,serif" font-size="14.00">e,p,k</text>
</g>
<!-- 1&#45;&gt;25 -->
<g id="edge53" class="edge"><title>1&#45;&gt;25</title>
<path fill="none" stroke="black" d="M402.494,-296.758C397.842,-308.741 391.489,-325.104 386.171,-338.803"/>
<polygon fill="black" stroke="black" points="382.876,-337.618 382.52,-348.207 389.402,-340.151 382.876,-337.618"/>
<text text-anchor="middle" x="397" y="-318.8" font-family="Times New Roman,serif" font-size="14.00">l</text>
</g>
<!-- 2 -->
<g id="node3" class="node"><title>2</title>
<ellipse fill="none" stroke="black" cx="124" cy="-366" rx="27" ry="18"/>
<text text-anchor="middle" x="124" y="-362.3" font-family="Times New Roman,serif" font-size="14.00">p</text>
</g>
<!-- 5 -->
<g id="node6" class="node"><title>5</title>
<ellipse fill="none" stroke="black" cx="119" cy="-453" rx="28.6953" ry="18"/>
<text text-anchor="middle" x="119" y="-449.3" font-family="Times New Roman,serif" font-size="14.00">e,p,k</text>
</g>
<!-- 2&#45;&gt;5 -->
<g id="edge17" class="edge"><title>2&#45;&gt;5</title>
<path fill="none" stroke="black" d="M115.4,-383.287C112.806,-389.037 110.303,-395.654 109,-402 107.434,-409.631 108.126,-417.924 109.709,-425.522"/>
<polygon fill="black" stroke="black" points="106.359,-426.546 112.291,-435.325 113.128,-424.763 106.359,-426.546"/>
</g>
<!-- 6 -->
<g id="node7" class="node"><title>6</title>
<ellipse fill="none" stroke="black" cx="59" cy="-279" rx="27" ry="18"/>
<text text-anchor="middle" x="59" y="-275.3" font-family="Times New Roman,serif" font-size="14.00">k</text>
</g>
<!-- 2&#45;&gt;6 -->
<g id="edge33" class="edge"><title>2&#45;&gt;6</title>
<path fill="none" stroke="black" d="M103.986,-353.859C94.6958,-347.832 84.1513,-339.642 77,-330 71.8992,-323.122 68.131,-314.659 65.3996,-306.665"/>
<polygon fill="black" stroke="black" points="68.707,-305.51 62.4721,-296.944 62.0043,-307.528 68.707,-305.51"/>
<text text-anchor="middle" x="85" y="-318.8" font-family="Times New Roman,serif" font-size="14.00">S1</text>
</g>
<!-- 12 -->
<g id="node13" class="node"><title>12</title>
<ellipse fill="none" stroke="black" cx="155" cy="-279" rx="27" ry="18"/>
<text text-anchor="middle" x="155" y="-275.3" font-family="Times New Roman,serif" font-size="14.00">e,k</text>
</g>
<!-- 2&#45;&gt;12 -->
<g id="edge8" class="edge"><title>2&#45;&gt;12</title>
<path fill="none" stroke="black" d="M124.725,-347.799C127.883,-335.464 133.793,-318.658 139.727,-304.865"/>
<polygon fill="black" stroke="black" points="143.051,-306.012 144.013,-295.461 136.681,-303.109 143.051,-306.012"/>
</g>
<!-- 3 -->
<g id="node4" class="node"><title>3</title>
<ellipse fill="none" stroke="black" cx="100" cy="-540" rx="27" ry="18"/>
<text text-anchor="middle" x="100" y="-536.3" font-family="Times New Roman,serif" font-size="14.00">p,k</text>
</g>
<!-- 4 -->
<g id="node5" class="node"><title>4</title>
<ellipse fill="none" stroke="black" cx="65" cy="-627" rx="34.394" ry="18"/>
<text text-anchor="middle" x="65" y="-623.3" font-family="Times New Roman,serif" font-size="14.00">e,p,S1</text>
</g>
<!-- 3&#45;&gt;4 -->
<g id="edge21" class="edge"><title>3&#45;&gt;4</title>
<path fill="none" stroke="black" d="M91.0678,-557.144C88,-562.994 84.6695,-569.71 82,-576 78.812,-583.512 75.786,-591.843 73.1946,-599.517"/>
<polygon fill="black" stroke="black" points="69.8418,-598.51 70.0613,-609.102 76.4953,-600.685 69.8418,-598.51"/>
</g>
<!-- 3&#45;&gt;5 -->
<g id="edge20" class="edge"><title>3&#45;&gt;5</title>
<path fill="none" stroke="black" d="M103.845,-521.799C106.463,-510.086 109.982,-494.342 112.97,-480.974"/>
<polygon fill="black" stroke="black" points="116.46,-481.408 115.226,-470.885 109.628,-479.881 116.46,-481.408"/>
<text text-anchor="middle" x="113" y="-492.8" font-family="Times New Roman,serif" font-size="14.00">l</text>
</g>
<!-- 4&#45;&gt;3 -->
<g id="edge22" class="edge"><title>4&#45;&gt;3</title>
<path fill="none" stroke="black" d="M71.9149,-609.207C76.8845,-597.138 83.6783,-580.638 89.3392,-566.891"/>
<polygon fill="black" stroke="black" points="92.6474,-568.049 93.2186,-557.469 86.1746,-565.383 92.6474,-568.049"/>
<text text-anchor="middle" x="87" y="-579.8" font-family="Times New Roman,serif" font-size="14.00">l</text>
</g>
<!-- 4&#45;&gt;6 -->
<g id="edge47" class="edge"><title>4&#45;&gt;6</title>
<path fill="none" stroke="black" d="M45.1447,-612.208C26.0294,-597.139 0,-571.095 0,-541 0,-541 0,-541 0,-365 0,-339.528 18.1011,-316.196 34.2512,-300.448"/>
<polygon fill="black" stroke="black" points="36.9642,-302.706 41.9348,-293.35 32.2143,-297.564 36.9642,-302.706"/>
<text text-anchor="middle" x="3.5" y="-449.3" font-family="Times New Roman,serif" font-size="14.00">s</text>
</g>
<!-- 4&#45;&gt;7 -->
<g id="edge9" class="edge"><title>4&#45;&gt;7</title>
<path fill="none" stroke="black" d="M70.5321,-645.049C71.8208,-656.791 72.0868,-672.637 71.33,-686.073"/>
<polygon fill="black" stroke="black" points="67.828,-685.955 70.5037,-696.207 74.8049,-686.524 67.828,-685.955"/>
</g>
<!-- 5&#45;&gt;2 -->
<g id="edge18" class="edge"><title>5&#45;&gt;2</title>
<path fill="none" stroke="black" d="M120.012,-434.799C120.696,-423.163 121.615,-407.548 122.398,-394.237"/>
<polygon fill="black" stroke="black" points="125.896,-394.364 122.99,-384.175 118.908,-393.953 125.896,-394.364"/>
<text text-anchor="middle" x="124" y="-405.8" font-family="Times New Roman,serif" font-size="14.00">l</text>
</g>
<!-- 5&#45;&gt;3 -->
<g id="edge19" class="edge"><title>5&#45;&gt;3</title>
<path fill="none" stroke="black" d="M113.772,-471.001C112.122,-476.691 110.372,-483.091 109,-489 107.291,-496.358 105.719,-504.388 104.382,-511.818"/>
<polygon fill="black" stroke="black" points="100.913,-511.339 102.661,-521.789 107.811,-512.53 100.913,-511.339"/>
</g>
<!-- 6&#45;&gt;2 -->
<g id="edge34" class="edge"><title>6&#45;&gt;2</title>
<path fill="none" stroke="black" d="M73.9662,-294C80.181,-300.16 87.2649,-307.655 93,-315 99.0286,-322.721 104.891,-331.674 109.866,-339.853"/>
<polygon fill="black" stroke="black" points="106.965,-341.823 115.067,-348.651 112.991,-338.261 106.965,-341.823"/>
<text text-anchor="middle" x="112" y="-318.8" font-family="Times New Roman,serif" font-size="14.00">S1</text>
</g>
<!-- 6&#45;&gt;4 -->
<g id="edge46" class="edge"><title>6&#45;&gt;4</title>
<path fill="none" stroke="black" d="M53.9375,-296.759C49.25,-313.778 43,-340.974 43,-365 43,-541 43,-541 43,-541 43,-561.071 48.8201,-582.982 54.4732,-599.53"/>
<polygon fill="black" stroke="black" points="51.2314,-600.858 57.918,-609.077 57.8159,-598.482 51.2314,-600.858"/>
<text text-anchor="middle" x="46.5" y="-449.3" font-family="Times New Roman,serif" font-size="14.00">s</text>
</g>
<!-- 7&#45;&gt;0 -->
<g id="edge35" class="edge"><title>7&#45;&gt;0</title>
<path fill="none" stroke="black" d="M71.9752,-731.469C77.0528,-743.458 84.0341,-759.942 89.8774,-773.738"/>
<polygon fill="black" stroke="black" points="86.7647,-775.364 93.8876,-783.207 93.2104,-772.634 86.7647,-775.364"/>
<text text-anchor="middle" x="89.5" y="-753.8" font-family="Times New Roman,serif" font-size="14.00">k</text>
</g>
<!-- 7&#45;&gt;4 -->
<g id="edge10" class="edge"><title>7&#45;&gt;4</title>
<path fill="none" stroke="black" d="M59.4963,-696.207C58.1926,-684.525 57.9117,-668.692 58.6536,-655.222"/>
<polygon fill="black" stroke="black" points="62.1587,-655.297 59.4679,-645.049 55.181,-654.738 62.1587,-655.297"/>
</g>
<!-- 8 -->
<g id="node9" class="node"><title>8</title>
<ellipse fill="none" stroke="black" cx="219" cy="-714" rx="27" ry="18"/>
<text text-anchor="middle" x="219" y="-710.3" font-family="Times New Roman,serif" font-size="14.00">p</text>
</g>
<!-- 20 -->
<g id="node21" class="node"><title>20</title>
<ellipse fill="none" stroke="black" cx="189" cy="-801" rx="27" ry="18"/>
<text text-anchor="middle" x="189" y="-797.3" font-family="Times New Roman,serif" font-size="14.00">m</text>
</g>
<!-- 8&#45;&gt;20 -->
<g id="edge28" class="edge"><title>8&#45;&gt;20</title>
<path fill="none" stroke="black" d="M213.085,-731.758C208.897,-743.625 203.193,-759.787 198.387,-773.403"/>
<polygon fill="black" stroke="black" points="194.955,-772.612 194.927,-783.207 201.556,-774.942 194.955,-772.612"/>
<text text-anchor="middle" x="208" y="-753.8" font-family="Times New Roman,serif" font-size="14.00">l</text>
</g>
<!-- 22 -->
<g id="node23" class="node"><title>22</title>
<ellipse fill="none" stroke="black" cx="228" cy="-279" rx="27" ry="18"/>
<text text-anchor="middle" x="228" y="-275.3" font-family="Times New Roman,serif" font-size="14.00">e,p,i</text>
</g>
<!-- 8&#45;&gt;22 -->
<g id="edge11" class="edge"><title>8&#45;&gt;22</title>
<path fill="none" stroke="black" d="M211.364,-696.711C208.201,-679.605 207,-651.921 207,-628 207,-628 207,-628 207,-365 207,-344.883 210.336,-322.348 214.81,-305.539"/>
<polygon fill="black" stroke="black" points="218.185,-306.47 217.723,-295.885 211.483,-304.448 218.185,-306.47"/>
</g>
<!-- 23 -->
<g id="node24" class="node"><title>23</title>
<ellipse fill="none" stroke="black" cx="285" cy="-627" rx="27" ry="18"/>
</g>
<!-- 8&#45;&gt;23 -->
<g id="edge41" class="edge"><title>8&#45;&gt;23</title>
<path fill="none" stroke="black" d="M238.391,-701.224C247.124,-695.155 257.018,-687.114 264,-678 269.373,-670.986 273.629,-662.395 276.864,-654.327"/>
<polygon fill="black" stroke="black" points="280.17,-655.478 280.312,-644.884 273.594,-653.078 280.17,-655.478"/>
<text text-anchor="middle" x="275.5" y="-666.8" font-family="Times New Roman,serif" font-size="14.00">I</text>
</g>
<!-- 9 -->
<g id="node10" class="node"><title>9</title>
<ellipse fill="none" stroke="black" cx="296" cy="-366" rx="27" ry="18"/>
<text text-anchor="middle" x="296" y="-362.3" font-family="Times New Roman,serif" font-size="14.00">e,p,i</text>
</g>
<!-- 18 -->
<g id="node19" class="node"><title>18</title>
<ellipse fill="none" stroke="black" cx="301" cy="-279" rx="27" ry="18"/>
<text text-anchor="middle" x="301" y="-275.3" font-family="Times New Roman,serif" font-size="14.00">I</text>
</g>
<!-- 9&#45;&gt;18 -->
<g id="edge39" class="edge"><title>9&#45;&gt;18</title>
<path fill="none" stroke="black" d="M297.012,-347.799C297.696,-336.163 298.615,-320.548 299.398,-307.237"/>
<polygon fill="black" stroke="black" points="302.896,-307.364 299.99,-297.175 295.908,-306.953 302.896,-307.364"/>
<text text-anchor="middle" x="302.5" y="-318.8" font-family="Times New Roman,serif" font-size="14.00">k</text>
</g>
<!-- 9&#45;&gt;22 -->
<g id="edge26" class="edge"><title>9&#45;&gt;22</title>
<path fill="none" stroke="black" d="M279.96,-351.343C268.264,-338.868 252.896,-320.116 241.762,-304.967"/>
<polygon fill="black" stroke="black" points="244.41,-302.651 235.756,-296.539 238.709,-306.713 244.41,-302.651"/>
</g>
<!-- 24 -->
<g id="node25" class="node"><title>24</title>
<ellipse fill="none" stroke="black" cx="318" cy="-453" rx="28.6953" ry="18"/>
<text text-anchor="middle" x="318" y="-449.3" font-family="Times New Roman,serif" font-size="14.00">e,p,k</text>
</g>
<!-- 9&#45;&gt;24 -->
<g id="edge43" class="edge"><title>9&#45;&gt;24</title>
<path fill="none" stroke="black" d="M293.111,-384.015C292.065,-393.853 291.815,-406.353 295,-417 296.107,-420.701 297.745,-424.373 299.646,-427.868"/>
<polygon fill="black" stroke="black" points="296.841,-429.984 305.108,-436.61 302.777,-426.274 296.841,-429.984"/>
<text text-anchor="middle" x="297.5" y="-405.8" font-family="Times New Roman,serif" font-size="14.00">I</text>
</g>
<!-- 10&#45;&gt;1 -->
<g id="edge56" class="edge"><title>10&#45;&gt;1</title>
<path fill="none" stroke="black" d="M408.202,-210.175C408.339,-221.806 408.523,-237.419 408.679,-250.734"/>
<polygon fill="black" stroke="black" points="405.18,-250.841 408.798,-260.799 412.18,-250.758 405.18,-250.841"/>
<text text-anchor="middle" x="413" y="-231.8" font-family="Times New Roman,serif" font-size="14.00">K</text>
</g>
<!-- 11 -->
<g id="node12" class="node"><title>11</title>
<ellipse fill="none" stroke="black" cx="408" cy="-105" rx="27" ry="18"/>
<text text-anchor="middle" x="408" y="-101.3" font-family="Times New Roman,serif" font-size="14.00">t</text>
</g>
<!-- 10&#45;&gt;11 -->
<g id="edge55" class="edge"><title>10&#45;&gt;11</title>
<path fill="none" stroke="black" d="M402.496,-174.207C401.184,-162.448 400.908,-146.485 401.668,-132.958"/>
<polygon fill="black" stroke="black" points="405.176,-133.01 402.5,-122.758 398.199,-132.441 405.176,-133.01"/>
</g>
<!-- 11&#45;&gt;10 -->
<g id="edge54" class="edge"><title>11&#45;&gt;10</title>
<path fill="none" stroke="black" d="M413.5,-122.758C414.814,-134.508 415.092,-150.47 414.334,-164.002"/>
<polygon fill="black" stroke="black" points="410.826,-163.956 413.504,-174.207 417.803,-164.524 410.826,-163.956"/>
</g>
<!-- 12&#45;&gt;2 -->
<g id="edge7" class="edge"><title>12&#45;&gt;2</title>
<path fill="none" stroke="black" d="M154.264,-297.246C151.111,-309.544 145.231,-326.268 139.321,-340.024"/>
<polygon fill="black" stroke="black" points="136.006,-338.858 135.05,-349.41 142.377,-341.757 136.006,-338.858"/>
</g>
<!-- 13 -->
<g id="node14" class="node"><title>13</title>
<ellipse fill="none" stroke="black" cx="112" cy="-192" rx="27" ry="18"/>
<text text-anchor="middle" x="112" y="-188.3" font-family="Times New Roman,serif" font-size="14.00">e,i</text>
</g>
<!-- 12&#45;&gt;13 -->
<g id="edge31" class="edge"><title>12&#45;&gt;13</title>
<path fill="none" stroke="black" d="M134.895,-266.642C126.529,-260.76 117.687,-252.753 113,-243 109.639,-236.006 108.502,-227.801 108.447,-220.084"/>
<polygon fill="black" stroke="black" points="111.947,-220.179 108.935,-210.021 104.955,-219.84 111.947,-220.179"/>
<text text-anchor="middle" x="116.5" y="-231.8" font-family="Times New Roman,serif" font-size="14.00">k</text>
</g>
<!-- 16 -->
<g id="node17" class="node"><title>16</title>
<ellipse fill="none" stroke="black" cx="186" cy="-192" rx="27" ry="18"/>
<text text-anchor="middle" x="186" y="-188.3" font-family="Times New Roman,serif" font-size="14.00">p</text>
</g>
<!-- 12&#45;&gt;16 -->
<g id="edge14" class="edge"><title>12&#45;&gt;16</title>
<path fill="none" stroke="black" d="M161.125,-261.207C165.498,-249.216 171.466,-232.851 176.46,-219.157"/>
<polygon fill="black" stroke="black" points="179.75,-220.352 179.888,-209.758 173.174,-217.954 179.75,-220.352"/>
<text text-anchor="middle" x="175" y="-231.8" font-family="Times New Roman,serif" font-size="14.00">l</text>
</g>
<!-- 13&#45;&gt;12 -->
<g id="edge32" class="edge"><title>13&#45;&gt;12</title>
<path fill="none" stroke="black" d="M120.265,-209.339C126.445,-221.555 135.013,-238.491 142.093,-252.486"/>
<polygon fill="black" stroke="black" points="139.072,-254.268 146.709,-261.611 145.318,-251.108 139.072,-254.268"/>
<text text-anchor="middle" x="140.5" y="-231.8" font-family="Times New Roman,serif" font-size="14.00">k</text>
</g>
<!-- 14 -->
<g id="node15" class="node"><title>14</title>
<ellipse fill="none" stroke="black" cx="165" cy="-18" rx="27" ry="18"/>
<text text-anchor="middle" x="165" y="-14.3" font-family="Times New Roman,serif" font-size="14.00">s</text>
</g>
<!-- 15 -->
<g id="node16" class="node"><title>15</title>
<ellipse fill="none" stroke="black" cx="165" cy="-105" rx="27" ry="18"/>
<text text-anchor="middle" x="165" y="-101.3" font-family="Times New Roman,serif" font-size="14.00">i,p</text>
</g>
<!-- 14&#45;&gt;15 -->
<g id="edge3" class="edge"><title>14&#45;&gt;15</title>
<path fill="none" stroke="black" d="M170.5,-35.7584C171.814,-47.5084 172.092,-63.4701 171.334,-77.0021"/>
<polygon fill="black" stroke="black" points="167.826,-76.9558 170.504,-87.2067 174.803,-77.5235 167.826,-76.9558"/>
</g>
<!-- 15&#45;&gt;14 -->
<g id="edge4" class="edge"><title>15&#45;&gt;14</title>
<path fill="none" stroke="black" d="M159.496,-87.2067C158.184,-75.4484 157.908,-59.4849 158.668,-45.9577"/>
<polygon fill="black" stroke="black" points="162.176,-46.0098 159.5,-35.7584 155.199,-45.4407 162.176,-46.0098"/>
</g>
<!-- 15&#45;&gt;16 -->
<g id="edge5" class="edge"><title>15&#45;&gt;16</title>
<path fill="none" stroke="black" d="M174.375,-122.025C178.665,-133.798 182.995,-150.074 185.636,-163.859"/>
<polygon fill="black" stroke="black" points="182.197,-164.513 187.299,-173.799 189.101,-163.359 182.197,-164.513"/>
</g>
<!-- 16&#45;&gt;12 -->
<g id="edge13" class="edge"><title>16&#45;&gt;12</title>
<path fill="none" stroke="black" d="M183.568,-210.038C181.841,-219.884 179.091,-232.384 175,-243 173.702,-246.367 172.116,-249.798 170.41,-253.13"/>
<polygon fill="black" stroke="black" points="167.211,-251.681 165.425,-262.124 173.334,-255.074 167.211,-251.681"/>
</g>
<!-- 16&#45;&gt;15 -->
<g id="edge6" class="edge"><title>16&#45;&gt;15</title>
<path fill="none" stroke="black" d="M176.639,-175.012C172.334,-163.209 167.987,-146.863 165.345,-133.042"/>
<polygon fill="black" stroke="black" points="168.781,-132.371 163.685,-123.083 161.876,-133.522 168.781,-132.371"/>
</g>
<!-- 17 -->
<g id="node18" class="node"><title>17</title>
<ellipse fill="none" stroke="black" cx="237" cy="-105" rx="27" ry="18"/>
<text text-anchor="middle" x="237" y="-101.3" font-family="Times New Roman,serif" font-size="14.00">p,i</text>
</g>
<!-- 16&#45;&gt;17 -->
<g id="edge30" class="edge"><title>16&#45;&gt;17</title>
<path fill="none" stroke="black" d="M199.675,-176.363C204.878,-170.341 210.605,-163.117 215,-156 219.555,-148.624 223.662,-140.141 227.06,-132.282"/>
<polygon fill="black" stroke="black" points="230.397,-133.37 230.966,-122.791 223.923,-130.706 230.397,-133.37"/>
<text text-anchor="middle" x="226.5" y="-144.8" font-family="Times New Roman,serif" font-size="14.00">k</text>
</g>
<!-- 17&#45;&gt;16 -->
<g id="edge29" class="edge"><title>17&#45;&gt;16</title>
<path fill="none" stroke="black" d="M224.176,-121.178C219.429,-127.155 214.187,-134.205 210,-141 205.331,-148.576 200.905,-157.199 197.156,-165.125"/>
<polygon fill="black" stroke="black" points="193.922,-163.781 192.946,-174.33 200.288,-166.692 193.922,-163.781"/>
<text text-anchor="middle" x="213.5" y="-144.8" font-family="Times New Roman,serif" font-size="14.00">k</text>
</g>
<!-- 19 -->
<g id="node20" class="node"><title>19</title>
<ellipse fill="none" stroke="black" cx="245" cy="-18" rx="27" ry="18"/>
<text text-anchor="middle" x="245" y="-14.3" font-family="Times New Roman,serif" font-size="14.00">e,i,p</text>
</g>
<!-- 17&#45;&gt;19 -->
<g id="edge16" class="edge"><title>17&#45;&gt;19</title>
<path fill="none" stroke="black" d="M238.619,-86.799C239.714,-75.1626 241.184,-59.5479 242.437,-46.2368"/>
<polygon fill="black" stroke="black" points="245.931,-46.4594 243.383,-36.1754 238.962,-45.8034 245.931,-46.4594"/>
<text text-anchor="middle" x="244" y="-57.8" font-family="Times New Roman,serif" font-size="14.00">l</text>
</g>
<!-- 18&#45;&gt;9 -->
<g id="edge40" class="edge"><title>18&#45;&gt;9</title>
<path fill="none" stroke="black" d="M306.493,-296.694C308.99,-306.425 310.99,-318.925 309,-330 308.473,-332.931 307.717,-335.937 306.831,-338.896"/>
<polygon fill="black" stroke="black" points="303.433,-338.01 303.459,-348.605 310.046,-340.307 303.433,-338.01"/>
<text text-anchor="middle" x="313.5" y="-318.8" font-family="Times New Roman,serif" font-size="14.00">k</text>
</g>
<!-- 18&#45;&gt;18 -->
<g id="edge1" class="edge"><title>18&#45;&gt;18</title>
<path fill="none" stroke="black" d="M327.795,-282.929C337.78,-283.058 346,-281.748 346,-279 346,-277.282 342.789,-276.127 337.943,-275.533"/>
<polygon fill="black" stroke="black" points="337.944,-272.03 327.795,-275.071 337.625,-279.022 337.944,-272.03"/>
</g>
<!-- 18&#45;&gt;18 -->
<g id="edge2" class="edge"><title>18&#45;&gt;18</title>
<path fill="none" stroke="black" d="M326.229,-285.944C345.041,-288.37 364,-286.055 364,-279 364,-273.213 351.242,-270.615 336.273,-271.207"/>
<polygon fill="black" stroke="black" points="335.899,-267.726 326.229,-272.056 336.488,-274.702 335.899,-267.726"/>
</g>
<!-- 19&#45;&gt;17 -->
<g id="edge15" class="edge"><title>19&#45;&gt;17</title>
<path fill="none" stroke="black" d="M243.383,-36.1754C242.289,-47.806 240.819,-63.4194 239.566,-76.7339"/>
<polygon fill="black" stroke="black" points="236.071,-76.515 238.619,-86.799 243.041,-77.171 236.071,-76.515"/>
</g>
<!-- 20&#45;&gt;8 -->
<g id="edge27" class="edge"><title>20&#45;&gt;8</title>
<path fill="none" stroke="black" d="M193.025,-783.127C195.534,-773.335 199.034,-760.835 203,-750 204.09,-747.022 205.326,-743.945 206.616,-740.908"/>
<polygon fill="black" stroke="black" points="209.93,-742.071 210.811,-731.513 203.538,-739.217 209.93,-742.071"/>
</g>
<!-- 20&#45;&gt;21 -->
<g id="edge45" class="edge"><title>20&#45;&gt;21</title>
<path fill="none" stroke="black" d="M180.516,-783.611C174.186,-771.382 165.418,-754.443 158.177,-740.456"/>
<polygon fill="black" stroke="black" points="161.163,-738.61 153.458,-731.339 154.946,-741.828 161.163,-738.61"/>
</g>
<!-- 21&#45;&gt;0 -->
<g id="edge49" class="edge"><title>21&#45;&gt;0</title>
<path fill="none" stroke="black" d="M138.457,-731.499C134.362,-741.386 128.779,-754.109 123,-765 121.124,-768.536 119.02,-772.194 116.878,-775.751"/>
<polygon fill="black" stroke="black" points="113.893,-773.922 111.58,-784.262 119.836,-777.622 113.893,-773.922"/>
<text text-anchor="middle" x="133" y="-753.8" font-family="Times New Roman,serif" font-size="14.00">l</text>
</g>
<!-- 22&#45;&gt;8 -->
<g id="edge12" class="edge"><title>22&#45;&gt;8</title>
<path fill="none" stroke="black" d="M230.981,-297.156C229.629,-314.253 225,-341.304 225,-365 225,-628 225,-628 225,-628 225,-647.502 225.798,-669.504 225.336,-686.237"/>
<polygon fill="black" stroke="black" points="221.832,-686.231 224.829,-696.393 228.823,-686.58 221.832,-686.231"/>
</g>
<!-- 22&#45;&gt;9 -->
<g id="edge25" class="edge"><title>22&#45;&gt;9</title>
<path fill="none" stroke="black" d="M243.93,-293.539C255.67,-306.046 271.149,-324.935 282.325,-340.152"/>
<polygon fill="black" stroke="black" points="279.696,-342.494 288.347,-348.611 285.399,-338.435 279.696,-342.494"/>
</g>
<!-- 23&#45;&gt;8 -->
<g id="edge42" class="edge"><title>23&#45;&gt;8</title>
<path fill="none" stroke="black" d="M273.08,-643.351C263.064,-656.251 248.591,-674.89 237.138,-689.641"/>
<polygon fill="black" stroke="black" points="234.168,-687.759 230.799,-697.804 239.697,-692.052 234.168,-687.759"/>
<text text-anchor="middle" x="258.5" y="-666.8" font-family="Times New Roman,serif" font-size="14.00">I</text>
</g>
<!-- 26 -->
<g id="node27" class="node"><title>26</title>
<ellipse fill="none" stroke="black" cx="318" cy="-540" rx="30.5947" ry="18"/>
<text text-anchor="middle" x="318" y="-536.3" font-family="Times New Roman,serif" font-size="14.00">e,p,K</text>
</g>
<!-- 23&#45;&gt;26 -->
<g id="edge51" class="edge"><title>23&#45;&gt;26</title>
<path fill="none" stroke="black" d="M291.52,-609.207C296.175,-597.216 302.528,-580.851 307.845,-567.157"/>
<polygon fill="black" stroke="black" points="311.137,-568.347 311.494,-557.758 304.612,-565.814 311.137,-568.347"/>
<text text-anchor="middle" x="306" y="-579.8" font-family="Times New Roman,serif" font-size="14.00">l</text>
</g>
<!-- 24&#45;&gt;9 -->
<g id="edge44" class="edge"><title>24&#45;&gt;9</title>
<path fill="none" stroke="black" d="M313.654,-435.207C310.6,-423.409 306.451,-407.378 302.942,-393.822"/>
<polygon fill="black" stroke="black" points="306.307,-392.853 300.413,-384.049 299.53,-394.607 306.307,-392.853"/>
<text text-anchor="middle" x="311.5" y="-405.8" font-family="Times New Roman,serif" font-size="14.00">I</text>
</g>
<!-- 24&#45;&gt;25 -->
<g id="edge37" class="edge"><title>24&#45;&gt;25</title>
<path fill="none" stroke="black" d="M327.368,-435.971C333.319,-426.028 341.321,-413.081 349,-402 351.628,-398.208 354.511,-394.266 357.385,-390.454"/>
<polygon fill="black" stroke="black" points="360.236,-392.488 363.556,-382.426 354.686,-388.221 360.236,-392.488"/>
<text text-anchor="middle" x="352.5" y="-405.8" font-family="Times New Roman,serif" font-size="14.00">k</text>
</g>
<!-- 24&#45;&gt;26 -->
<g id="edge23" class="edge"><title>24&#45;&gt;26</title>
<path fill="none" stroke="black" d="M323.5,-470.758C324.814,-482.508 325.092,-498.47 324.334,-512.002"/>
<polygon fill="black" stroke="black" points="320.826,-511.956 323.504,-522.207 327.803,-512.524 320.826,-511.956"/>
</g>
<!-- 25&#45;&gt;1 -->
<g id="edge52" class="edge"><title>25&#45;&gt;1</title>
<path fill="none" stroke="black" d="M379.749,-348.02C382.165,-338.193 385.665,-325.693 390,-315 391.339,-311.696 392.91,-308.303 394.565,-304.991"/>
<polygon fill="black" stroke="black" points="397.733,-306.487 399.326,-296.013 391.549,-303.207 397.733,-306.487"/>
</g>
<!-- 25&#45;&gt;24 -->
<g id="edge38" class="edge"><title>25&#45;&gt;24</title>
<path fill="none" stroke="black" d="M370.369,-384.055C366.596,-394.138 361.032,-406.874 354,-417 350.56,-421.954 346.35,-426.786 342.037,-431.201"/>
<polygon fill="black" stroke="black" points="339.565,-428.722 334.8,-438.185 344.426,-433.76 339.565,-428.722"/>
<text text-anchor="middle" x="366.5" y="-405.8" font-family="Times New Roman,serif" font-size="14.00">k</text>
</g>
<!-- 26&#45;&gt;23 -->
<g id="edge50" class="edge"><title>26&#45;&gt;23</title>
<path fill="none" stroke="black" d="M308.131,-557.364C304.927,-563.12 301.546,-569.721 299,-576 296.02,-583.351 293.434,-591.557 291.324,-599.161"/>
<polygon fill="black" stroke="black" points="287.889,-598.46 288.749,-609.02 294.662,-600.229 287.889,-598.46"/>
</g>
<!-- 26&#45;&gt;24 -->
<g id="edge24" class="edge"><title>26&#45;&gt;24</title>
<path fill="none" stroke="black" d="M312.496,-522.207C311.184,-510.448 310.908,-494.485 311.668,-480.958"/>
<polygon fill="black" stroke="black" points="315.176,-481.01 312.5,-470.758 308.199,-480.441 315.176,-481.01"/>
</g>
</g>
</svg>
