<?xml version="1.0" encoding="UTF-8" standalone="no"?>
<!DOCTYPE svg PUBLIC "-//W3C//DTD SVG 1.1//EN"
 "http://www.w3.org/Graphics/SVG/1.1/DTD/svg11.dtd">
<!-- Generated by graphviz version 2.38.0 (20140413.2041)
 -->
<!-- Title: %3 Pages: 1 -->
<svg width="595pt" height="1453pt"
 viewBox="0.00 0.00 595.00 1453.00" xmlns="http://www.w3.org/2000/svg" xmlns:xlink="http://www.w3.org/1999/xlink">
<g id="graph0" class="graph" transform="scale(1 1) rotate(0) translate(4 1449)">
<title>%3</title>
<polygon fill="white" stroke="none" points="-4,4 -4,-1449 591,-1449 591,4 -4,4"/>
<!-- 0 -->
<g id="node1" class="node"><title>0</title>
<ellipse fill="none" stroke="black" cx="334" cy="-1427" rx="27" ry="18"/>
</g>
<!-- 1 -->
<g id="node2" class="node"><title>1</title>
<ellipse fill="none" stroke="black" cx="104" cy="-1340" rx="27" ry="18"/>
<text text-anchor="middle" x="104" y="-1336.3" font-family="Times New Roman,serif" font-size="14.00">i</text>
</g>
<!-- 0&#45;&gt;1 -->
<g id="edge39" class="edge"><title>0&#45;&gt;1</title>
<path fill="none" stroke="black" d="M307.397,-1423.4C274.985,-1419.51 219.099,-1410.44 175,-1391 158.025,-1383.52 140.965,-1371.68 127.824,-1361.4"/>
<polygon fill="black" stroke="black" points="129.777,-1358.48 119.794,-1354.93 125.385,-1363.93 129.777,-1358.48"/>
<text text-anchor="middle" x="177.5" y="-1379.8" font-family="Times New Roman,serif" font-size="14.00">I</text>
</g>
<!-- 3 -->
<g id="node4" class="node"><title>3</title>
<ellipse fill="none" stroke="black" cx="230" cy="-1340" rx="27" ry="18"/>
</g>
<!-- 0&#45;&gt;3 -->
<g id="edge70" class="edge"><title>0&#45;&gt;3</title>
<path fill="none" stroke="black" d="M310.865,-1417.63C296.589,-1411.7 278.493,-1402.71 265,-1391 256.922,-1383.99 249.773,-1374.73 244.076,-1366.09"/>
<polygon fill="black" stroke="black" points="246.942,-1364.07 238.687,-1357.43 240.998,-1367.77 246.942,-1364.07"/>
<text text-anchor="middle" x="268.5" y="-1379.8" font-family="Times New Roman,serif" font-size="14.00">s</text>
</g>
<!-- 5 -->
<g id="node6" class="node"><title>5</title>
<ellipse fill="none" stroke="black" cx="345" cy="-1093" rx="27" ry="18"/>
<text text-anchor="middle" x="345" y="-1089.3" font-family="Times New Roman,serif" font-size="14.00">e</text>
</g>
<!-- 0&#45;&gt;5 -->
<g id="edge25" class="edge"><title>0&#45;&gt;5</title>
<path fill="none" stroke="black" d="M341.523,-1409.71C352.24,-1393.48 369,-1367.25 369,-1341 369,-1341 369,-1341 369,-1165 369,-1149.08 362.09,-1132.86 355.457,-1119.95"/>
<polygon fill="black" stroke="black" points="358.358,-1117.96 350.557,-1110.79 352.185,-1121.26 358.358,-1117.96"/>
</g>
<!-- 33 -->
<g id="node34" class="node"><title>33</title>
<ellipse fill="none" stroke="black" cx="374" cy="-425" rx="27" ry="18"/>
<text text-anchor="middle" x="374" y="-421.3" font-family="Times New Roman,serif" font-size="14.00">e,p</text>
</g>
<!-- 0&#45;&gt;33 -->
<g id="edge43" class="edge"><title>0&#45;&gt;33</title>
<path fill="none" stroke="black" d="M360.13,-1421.87C421.56,-1412.24 569,-1385.63 569,-1341 569,-1341 569,-1341 569,-548 569,-473.216 466.773,-443.174 410.243,-432.005"/>
<polygon fill="black" stroke="black" points="410.728,-428.535 400.255,-430.132 409.438,-435.415 410.728,-428.535"/>
</g>
<!-- 1&#45;&gt;0 -->
<g id="edge40" class="edge"><title>1&#45;&gt;0</title>
<path fill="none" stroke="black" d="M127.039,-1349.51C168.098,-1364.69 254.032,-1396.45 301.228,-1413.89"/>
<polygon fill="black" stroke="black" points="300.087,-1417.2 310.681,-1417.38 302.514,-1410.63 300.087,-1417.2"/>
<text text-anchor="middle" x="235.5" y="-1379.8" font-family="Times New Roman,serif" font-size="14.00">I</text>
</g>
<!-- 6 -->
<g id="node7" class="node"><title>6</title>
<ellipse fill="none" stroke="black" cx="36" cy="-1253" rx="27" ry="18"/>
<text text-anchor="middle" x="36" y="-1249.3" font-family="Times New Roman,serif" font-size="14.00">e,p</text>
</g>
<!-- 1&#45;&gt;6 -->
<g id="edge46" class="edge"><title>1&#45;&gt;6</title>
<path fill="none" stroke="black" d="M83.1986,-1328.41C73.1925,-1322.42 61.7235,-1314.1 54,-1304 48.7987,-1297.2 45.003,-1288.76 42.2772,-1280.76"/>
<polygon fill="black" stroke="black" points="45.5848,-1279.6 39.3716,-1271.02 38.877,-1281.6 45.5848,-1279.6"/>
<text text-anchor="middle" x="56.5" y="-1292.8" font-family="Times New Roman,serif" font-size="14.00">I</text>
</g>
<!-- 2 -->
<g id="node3" class="node"><title>2</title>
<ellipse fill="none" stroke="black" cx="240" cy="-512" rx="27" ry="18"/>
</g>
<!-- 2&#45;&gt;3 -->
<g id="edge8" class="edge"><title>2&#45;&gt;3</title>
<path fill="none" stroke="black" d="M235.222,-529.901C228.222,-543.753 218,-564.228 218,-584 218,-1254 218,-1254 218,-1254 218,-1273.7 223.383,-1295.24 227.53,-1311.71"/>
<polygon fill="black" stroke="black" points="224.209,-1312.86 230.008,-1321.73 231.004,-1311.18 224.209,-1312.86"/>
</g>
<!-- 12 -->
<g id="node13" class="node"><title>12</title>
<ellipse fill="none" stroke="black" cx="240" cy="-425" rx="27" ry="18"/>
<text text-anchor="middle" x="240" y="-421.3" font-family="Times New Roman,serif" font-size="14.00">i</text>
</g>
<!-- 2&#45;&gt;12 -->
<g id="edge11" class="edge"><title>2&#45;&gt;12</title>
<path fill="none" stroke="black" d="M234.496,-494.207C233.184,-482.448 232.908,-466.485 233.668,-452.958"/>
<polygon fill="black" stroke="black" points="237.176,-453.01 234.5,-442.758 230.199,-452.441 237.176,-453.01"/>
</g>
<!-- 23 -->
<g id="node24" class="node"><title>23</title>
<ellipse fill="none" stroke="black" cx="179" cy="-251" rx="27" ry="18"/>
<text text-anchor="middle" x="179" y="-247.3" font-family="Times New Roman,serif" font-size="14.00">e,p,i</text>
</g>
<!-- 2&#45;&gt;23 -->
<g id="edge73" class="edge"><title>2&#45;&gt;23</title>
<path fill="none" stroke="black" d="M229.557,-495.231C221.248,-481.888 210.044,-461.963 204,-443 186.023,-386.594 180.954,-316.865 179.537,-279.212"/>
<polygon fill="black" stroke="black" points="183.03,-278.927 179.216,-269.043 176.034,-279.149 183.03,-278.927"/>
<text text-anchor="middle" x="194.5" y="-377.8" font-family="Times New Roman,serif" font-size="14.00">s</text>
</g>
<!-- 26 -->
<g id="node27" class="node"><title>26</title>
<ellipse fill="none" stroke="black" cx="349" cy="-585" rx="27" ry="18"/>
</g>
<!-- 2&#45;&gt;26 -->
<g id="edge9" class="edge"><title>2&#45;&gt;26</title>
<path fill="none" stroke="black" d="M259.621,-524.867C268.767,-532.326 279.509,-541.854 290,-549 296.005,-553.09 309.302,-560.079 321.857,-566.742"/>
<polygon fill="black" stroke="black" points="320.283,-569.869 330.753,-571.489 323.578,-563.693 320.283,-569.869"/>
</g>
<!-- 2&#45;&gt;33 -->
<g id="edge75" class="edge"><title>2&#45;&gt;33</title>
<path fill="none" stroke="black" d="M258.915,-499.002C281.76,-484.511 320.369,-460.02 346.504,-443.442"/>
<polygon fill="black" stroke="black" points="348.612,-446.249 355.181,-437.937 344.862,-440.338 348.612,-446.249"/>
<text text-anchor="middle" x="319.5" y="-464.8" font-family="Times New Roman,serif" font-size="14.00">s</text>
</g>
<!-- 3&#45;&gt;0 -->
<g id="edge69" class="edge"><title>3&#45;&gt;0</title>
<path fill="none" stroke="black" d="M246.325,-1354.34C263.261,-1368.18 289.945,-1389.99 309.43,-1405.92"/>
<polygon fill="black" stroke="black" points="307.333,-1408.72 317.291,-1412.34 311.763,-1403.3 307.333,-1408.72"/>
<text text-anchor="middle" x="292.5" y="-1379.8" font-family="Times New Roman,serif" font-size="14.00">s</text>
</g>
<!-- 3&#45;&gt;2 -->
<g id="edge7" class="edge"><title>3&#45;&gt;2</title>
<path fill="none" stroke="black" d="M217.336,-1323.92C208.724,-1307.14 200,-1279.08 200,-1254 200,-1254 200,-1254 200,-584 200,-566.347 208.149,-548.132 217.303,-534.572"/>
<polygon fill="black" stroke="black" points="220.231,-536.5 223.389,-526.386 214.614,-532.323 220.231,-536.5"/>
</g>
<!-- 18 -->
<g id="node19" class="node"><title>18</title>
<ellipse fill="none" stroke="black" cx="118" cy="-164" rx="27" ry="18"/>
<text text-anchor="middle" x="118" y="-160.3" font-family="Times New Roman,serif" font-size="14.00">e</text>
</g>
<!-- 3&#45;&gt;18 -->
<g id="edge6" class="edge"><title>3&#45;&gt;18</title>
<path fill="none" stroke="black" d="M203.851,-1335.3C163.365,-1327.47 91,-1305.5 91,-1254 91,-1254 91,-1254 91,-250 91,-229.514 96.0661,-206.841 102.167,-190.068"/>
<polygon fill="black" stroke="black" points="105.549,-191.041 106.063,-180.458 99.0619,-188.41 105.549,-191.041"/>
</g>
<!-- 19 -->
<g id="node20" class="node"><title>19</title>
<ellipse fill="none" stroke="black" cx="281" cy="-1253" rx="27" ry="18"/>
<text text-anchor="middle" x="281" y="-1249.3" font-family="Times New Roman,serif" font-size="14.00">K</text>
</g>
<!-- 3&#45;&gt;19 -->
<g id="edge71" class="edge"><title>3&#45;&gt;19</title>
<path fill="none" stroke="black" d="M236.946,-1322.33C241.346,-1312.38 247.433,-1299.66 254,-1289 256.421,-1285.07 259.194,-1281.06 262.02,-1277.22"/>
<polygon fill="black" stroke="black" points="264.874,-1279.25 268.176,-1269.18 259.317,-1274.99 264.874,-1279.25"/>
<text text-anchor="middle" x="257.5" y="-1292.8" font-family="Times New Roman,serif" font-size="14.00">s</text>
</g>
<!-- 4 -->
<g id="node5" class="node"><title>4</title>
<ellipse fill="none" stroke="black" cx="27" cy="-1093" rx="27" ry="18"/>
<text text-anchor="middle" x="27" y="-1089.3" font-family="Times New Roman,serif" font-size="14.00">t</text>
</g>
<!-- 17 -->
<g id="node18" class="node"><title>17</title>
<ellipse fill="none" stroke="black" cx="27" cy="-1166" rx="27" ry="18"/>
<text text-anchor="middle" x="27" y="-1162.3" font-family="Times New Roman,serif" font-size="14.00">b</text>
</g>
<!-- 4&#45;&gt;17 -->
<g id="edge30" class="edge"><title>4&#45;&gt;17</title>
<path fill="none" stroke="black" d="M32.8269,-1110.71C33.7084,-1118.82 33.9586,-1128.78 33.5774,-1137.94"/>
<polygon fill="black" stroke="black" points="30.068,-1137.95 32.8399,-1148.17 37.0499,-1138.45 30.068,-1137.95"/>
</g>
<!-- 5&#45;&gt;0 -->
<g id="edge26" class="edge"><title>5&#45;&gt;0</title>
<path fill="none" stroke="black" d="M362.022,-1107.03C373.948,-1120.68 387,-1143.12 387,-1165 387,-1341 387,-1341 387,-1341 387,-1365.06 372.93,-1389.09 359.075,-1405.43"/>
<polygon fill="black" stroke="black" points="356.1,-1403.49 351.925,-1413.23 361.261,-1408.22 356.1,-1403.49"/>
</g>
<!-- 7 -->
<g id="node8" class="node"><title>7</title>
<ellipse fill="none" stroke="black" cx="275" cy="-1166" rx="27" ry="18"/>
<text text-anchor="middle" x="275" y="-1162.3" font-family="Times New Roman,serif" font-size="14.00">e,p</text>
</g>
<!-- 5&#45;&gt;7 -->
<g id="edge27" class="edge"><title>5&#45;&gt;7</title>
<path fill="none" stroke="black" d="M335.136,-1109.81C326.002,-1120.32 312.458,-1134.18 300.443,-1145.39"/>
<polygon fill="black" stroke="black" points="297.878,-1142.99 292.83,-1152.31 302.585,-1148.17 297.878,-1142.99"/>
</g>
<!-- 5&#45;&gt;19 -->
<g id="edge32" class="edge"><title>5&#45;&gt;19</title>
<path fill="none" stroke="black" d="M339.002,-1110.69C332.409,-1128.84 321.372,-1158.65 311,-1184 305.256,-1198.04 298.46,-1213.53 292.79,-1226.17"/>
<polygon fill="black" stroke="black" points="289.45,-1225.06 288.526,-1235.62 295.83,-1227.94 289.45,-1225.06"/>
</g>
<!-- 6&#45;&gt;1 -->
<g id="edge45" class="edge"><title>6&#45;&gt;1</title>
<path fill="none" stroke="black" d="M47.4117,-1269.5C54.8406,-1279.47 64.8219,-1292.63 74,-1304 77.3088,-1308.1 80.899,-1312.4 84.4073,-1316.54"/>
<polygon fill="black" stroke="black" points="81.7912,-1318.86 90.9574,-1324.17 87.1053,-1314.31 81.7912,-1318.86"/>
<text text-anchor="middle" x="76.5" y="-1292.8" font-family="Times New Roman,serif" font-size="14.00">I</text>
</g>
<!-- 6&#45;&gt;17 -->
<g id="edge85" class="edge"><title>6&#45;&gt;17</title>
<path fill="none" stroke="black" d="M26.2622,-1235.83C23.323,-1230.09 20.4839,-1223.45 19,-1217 17.2659,-1209.46 17.6693,-1201.2 18.9456,-1193.6"/>
<polygon fill="black" stroke="black" points="22.3758,-1194.29 21.1083,-1183.78 15.5396,-1192.79 22.3758,-1194.29"/>
<text text-anchor="middle" x="24" y="-1205.8" font-family="Times New Roman,serif" font-size="14.00">K</text>
</g>
<!-- 7&#45;&gt;5 -->
<g id="edge28" class="edge"><title>7&#45;&gt;5</title>
<path fill="none" stroke="black" d="M285.123,-1148.89C294.256,-1138.42 307.666,-1124.7 319.571,-1113.6"/>
<polygon fill="black" stroke="black" points="322.07,-1116.06 327.117,-1106.74 317.363,-1110.87 322.07,-1116.06"/>
</g>
<!-- 7&#45;&gt;19 -->
<g id="edge37" class="edge"><title>7&#45;&gt;19</title>
<path fill="none" stroke="black" d="M276.212,-1184.18C277.033,-1195.81 278.135,-1211.42 279.075,-1224.73"/>
<polygon fill="black" stroke="black" points="275.59,-1225.07 279.786,-1234.8 282.573,-1224.58 275.59,-1225.07"/>
<text text-anchor="middle" x="281.5" y="-1205.8" font-family="Times New Roman,serif" font-size="14.00">I</text>
</g>
<!-- 27 -->
<g id="node28" class="node"><title>27</title>
<ellipse fill="none" stroke="black" cx="273" cy="-1093" rx="27" ry="18"/>
<text text-anchor="middle" x="273" y="-1089.3" font-family="Times New Roman,serif" font-size="14.00">p,k</text>
</g>
<!-- 7&#45;&gt;27 -->
<g id="edge60" class="edge"><title>7&#45;&gt;27</title>
<path fill="none" stroke="black" d="M268.686,-1148.17C267.582,-1140.04 267.057,-1130.08 267.187,-1120.92"/>
<polygon fill="black" stroke="black" points="270.693,-1120.85 267.644,-1110.71 263.7,-1120.54 270.693,-1120.85"/>
</g>
<!-- 8 -->
<g id="node9" class="node"><title>8</title>
<ellipse fill="none" stroke="black" cx="408" cy="-832" rx="27" ry="18"/>
<text text-anchor="middle" x="408" y="-828.3" font-family="Times New Roman,serif" font-size="14.00">m</text>
</g>
<!-- 29 -->
<g id="node30" class="node"><title>29</title>
<ellipse fill="none" stroke="black" cx="420" cy="-745" rx="27" ry="18"/>
<text text-anchor="middle" x="420" y="-741.3" font-family="Times New Roman,serif" font-size="14.00">p</text>
</g>
<!-- 8&#45;&gt;29 -->
<g id="edge33" class="edge"><title>8&#45;&gt;29</title>
<path fill="none" stroke="black" d="M410.428,-813.799C412.071,-802.163 414.276,-786.548 416.155,-773.237"/>
<polygon fill="black" stroke="black" points="419.643,-773.567 417.575,-763.175 412.712,-772.588 419.643,-773.567"/>
</g>
<!-- 34 -->
<g id="node35" class="node"><title>34</title>
<ellipse fill="none" stroke="black" cx="378" cy="-919" rx="27" ry="18"/>
<text text-anchor="middle" x="378" y="-915.3" font-family="Times New Roman,serif" font-size="14.00">S1</text>
</g>
<!-- 8&#45;&gt;34 -->
<g id="edge50" class="edge"><title>8&#45;&gt;34</title>
<path fill="none" stroke="black" d="M402.085,-849.758C397.897,-861.625 392.193,-877.787 387.387,-891.403"/>
<polygon fill="black" stroke="black" points="383.955,-890.612 383.927,-901.207 390.556,-892.942 383.955,-890.612"/>
<text text-anchor="middle" x="398.5" y="-871.8" font-family="Times New Roman,serif" font-size="14.00">k</text>
</g>
<!-- 9 -->
<g id="node10" class="node"><title>9</title>
<ellipse fill="none" stroke="black" cx="348" cy="-745" rx="27" ry="18"/>
<text text-anchor="middle" x="348" y="-741.3" font-family="Times New Roman,serif" font-size="14.00">p,k</text>
</g>
<!-- 15 -->
<g id="node16" class="node"><title>15</title>
<ellipse fill="none" stroke="black" cx="336" cy="-832" rx="27" ry="18"/>
<text text-anchor="middle" x="336" y="-828.3" font-family="Times New Roman,serif" font-size="14.00">p</text>
</g>
<!-- 9&#45;&gt;15 -->
<g id="edge57" class="edge"><title>9&#45;&gt;15</title>
<path fill="none" stroke="black" d="M344.247,-763.031C343.085,-768.724 341.88,-775.117 341,-781 339.894,-788.389 338.969,-796.43 338.227,-803.859"/>
<polygon fill="black" stroke="black" points="334.741,-803.543 337.3,-813.824 341.711,-804.191 334.741,-803.543"/>
<text text-anchor="middle" x="343.5" y="-784.8" font-family="Times New Roman,serif" font-size="14.00">I</text>
</g>
<!-- 10 -->
<g id="node11" class="node"><title>10</title>
<ellipse fill="none" stroke="black" cx="318" cy="-164" rx="27" ry="18"/>
<text text-anchor="middle" x="318" y="-160.3" font-family="Times New Roman,serif" font-size="14.00">e,i</text>
</g>
<!-- 25 -->
<g id="node26" class="node"><title>25</title>
<ellipse fill="none" stroke="black" cx="274" cy="-251" rx="27" ry="18"/>
<text text-anchor="middle" x="274" y="-247.3" font-family="Times New Roman,serif" font-size="14.00">e,p</text>
</g>
<!-- 10&#45;&gt;25 -->
<g id="edge48" class="edge"><title>10&#45;&gt;25</title>
<path fill="none" stroke="black" d="M301.891,-178.573C295.747,-184.551 289.215,-192.026 285,-200 281.288,-207.023 278.827,-215.236 277.196,-222.953"/>
<polygon fill="black" stroke="black" points="273.712,-222.558 275.447,-233.01 280.609,-223.757 273.712,-222.558"/>
<text text-anchor="middle" x="287.5" y="-203.8" font-family="Times New Roman,serif" font-size="14.00">I</text>
</g>
<!-- 10&#45;&gt;26 -->
<g id="edge80" class="edge"><title>10&#45;&gt;26</title>
<path fill="none" stroke="black" d="M316.35,-181.971C312.133,-228.987 302.355,-364.79 318,-476 322.035,-504.683 331.818,-536.426 339.324,-558.03"/>
<polygon fill="black" stroke="black" points="336.037,-559.231 342.687,-567.479 342.631,-556.884 336.037,-559.231"/>
<text text-anchor="middle" x="314.5" y="-377.8" font-family="Times New Roman,serif" font-size="14.00">s</text>
</g>
<!-- 11 -->
<g id="node12" class="node"><title>11</title>
<ellipse fill="none" stroke="black" cx="251" cy="-338" rx="27" ry="18"/>
<text text-anchor="middle" x="251" y="-334.3" font-family="Times New Roman,serif" font-size="14.00">e,p</text>
</g>
<!-- 11&#45;&gt;12 -->
<g id="edge78" class="edge"><title>11&#45;&gt;12</title>
<path fill="none" stroke="black" d="M248.777,-356.175C247.272,-367.806 245.252,-383.419 243.529,-396.734"/>
<polygon fill="black" stroke="black" points="240.038,-396.432 242.226,-406.799 246.981,-397.331 240.038,-396.432"/>
<text text-anchor="middle" x="250.5" y="-377.8" font-family="Times New Roman,serif" font-size="14.00">s</text>
</g>
<!-- 11&#45;&gt;23 -->
<g id="edge54" class="edge"><title>11&#45;&gt;23</title>
<path fill="none" stroke="black" d="M236.367,-322.726C230.209,-316.52 223.077,-309.064 217,-302 209.854,-293.693 202.463,-284.202 196.119,-275.738"/>
<polygon fill="black" stroke="black" points="198.933,-273.657 190.174,-267.697 193.305,-277.819 198.933,-273.657"/>
<text text-anchor="middle" x="220.5" y="-290.8" font-family="Times New Roman,serif" font-size="14.00">k</text>
</g>
<!-- 11&#45;&gt;25 -->
<g id="edge55" class="edge"><title>11&#45;&gt;25</title>
<path fill="none" stroke="black" d="M267.315,-323.319C273.11,-317.429 278.949,-310.045 282,-302 284.817,-294.57 284.648,-286.153 283.249,-278.373"/>
<polygon fill="black" stroke="black" points="286.644,-277.519 280.851,-268.648 279.847,-279.195 286.644,-277.519"/>
<text text-anchor="middle" x="288.5" y="-290.8" font-family="Times New Roman,serif" font-size="14.00">k</text>
</g>
<!-- 12&#45;&gt;2 -->
<g id="edge12" class="edge"><title>12&#45;&gt;2</title>
<path fill="none" stroke="black" d="M245.5,-442.758C246.814,-454.508 247.092,-470.47 246.334,-484.002"/>
<polygon fill="black" stroke="black" points="242.826,-483.956 245.504,-494.207 249.803,-484.524 242.826,-483.956"/>
</g>
<!-- 12&#45;&gt;11 -->
<g id="edge77" class="edge"><title>12&#45;&gt;11</title>
<path fill="none" stroke="black" d="M233.327,-407.184C230.352,-397.411 228.102,-384.911 231,-374 231.926,-370.512 233.291,-367.01 234.879,-363.64"/>
<polygon fill="black" stroke="black" points="238.083,-365.075 239.772,-354.615 231.929,-361.738 238.083,-365.075"/>
<text text-anchor="middle" x="234.5" y="-377.8" font-family="Times New Roman,serif" font-size="14.00">s</text>
</g>
<!-- 13 -->
<g id="node14" class="node"><title>13</title>
<ellipse fill="none" stroke="black" cx="275" cy="-585" rx="28.6953" ry="18"/>
<text text-anchor="middle" x="275" y="-581.3" font-family="Times New Roman,serif" font-size="14.00">e,p,k</text>
</g>
<!-- 16 -->
<g id="node17" class="node"><title>16</title>
<ellipse fill="none" stroke="black" cx="166" cy="-512" rx="28.6953" ry="18"/>
<text text-anchor="middle" x="166" y="-508.3" font-family="Times New Roman,serif" font-size="14.00">e,p,k</text>
</g>
<!-- 13&#45;&gt;16 -->
<g id="edge23" class="edge"><title>13&#45;&gt;16</title>
<path fill="none" stroke="black" d="M253.172,-573.062C234.949,-562.383 209.261,-545.889 190.396,-532.885"/>
<polygon fill="black" stroke="black" points="192.201,-529.877 182.002,-527.007 188.185,-535.61 192.201,-529.877"/>
</g>
<!-- 31 -->
<g id="node32" class="node"><title>31</title>
<ellipse fill="none" stroke="black" cx="285" cy="-658" rx="27" ry="18"/>
<text text-anchor="middle" x="285" y="-654.3" font-family="Times New Roman,serif" font-size="14.00">i</text>
</g>
<!-- 13&#45;&gt;31 -->
<g id="edge22" class="edge"><title>13&#45;&gt;31</title>
<path fill="none" stroke="black" d="M283.138,-602.54C285.157,-610.585 286.809,-620.469 287.732,-629.598"/>
<polygon fill="black" stroke="black" points="284.258,-630.086 288.458,-639.813 291.24,-629.59 284.258,-630.086"/>
</g>
<!-- 14 -->
<g id="node15" class="node"><title>14</title>
<ellipse fill="none" stroke="black" cx="276" cy="-745" rx="27" ry="18"/>
<text text-anchor="middle" x="276" y="-741.3" font-family="Times New Roman,serif" font-size="14.00">e</text>
</g>
<!-- 14&#45;&gt;15 -->
<g id="edge51" class="edge"><title>14&#45;&gt;15</title>
<path fill="none" stroke="black" d="M286.935,-761.491C295.88,-774.164 308.687,-792.306 318.973,-806.879"/>
<polygon fill="black" stroke="black" points="316.369,-809.258 324.995,-815.41 322.088,-805.222 316.369,-809.258"/>
<text text-anchor="middle" x="313.5" y="-784.8" font-family="Times New Roman,serif" font-size="14.00">k</text>
</g>
<!-- 14&#45;&gt;25 -->
<g id="edge19" class="edge"><title>14&#45;&gt;25</title>
<path fill="none" stroke="black" d="M287.196,-728.044C315.795,-694.697 389.26,-613.741 422,-530 436.213,-493.647 432.819,-482.015 434,-443 435.716,-386.309 441.183,-358.997 400,-320 372.676,-294.127 333.607,-275.904 306.105,-264.878"/>
<polygon fill="black" stroke="black" points="307.127,-261.52 296.539,-261.141 304.58,-268.04 307.127,-261.52"/>
</g>
<!-- 14&#45;&gt;31 -->
<g id="edge84" class="edge"><title>14&#45;&gt;31</title>
<path fill="none" stroke="black" d="M277.821,-726.799C279.053,-715.163 280.707,-699.548 282.116,-686.237"/>
<polygon fill="black" stroke="black" points="285.609,-686.488 283.181,-676.175 278.648,-685.751 285.609,-686.488"/>
<text text-anchor="middle" x="285.5" y="-697.8" font-family="Times New Roman,serif" font-size="14.00">s</text>
</g>
<!-- 15&#45;&gt;9 -->
<g id="edge58" class="edge"><title>15&#45;&gt;9</title>
<path fill="none" stroke="black" d="M339.102,-813.937C340.09,-808.243 341.147,-801.857 342,-796 343.079,-788.591 344.107,-780.543 344.999,-773.113"/>
<polygon fill="black" stroke="black" points="348.478,-773.49 346.158,-763.153 341.525,-772.681 348.478,-773.49"/>
<text text-anchor="middle" x="346.5" y="-784.8" font-family="Times New Roman,serif" font-size="14.00">I</text>
</g>
<!-- 15&#45;&gt;14 -->
<g id="edge52" class="edge"><title>15&#45;&gt;14</title>
<path fill="none" stroke="black" d="M316.687,-819.406C308.07,-813.377 298.433,-805.318 292,-796 287.319,-789.221 283.949,-780.995 281.548,-773.19"/>
<polygon fill="black" stroke="black" points="284.877,-772.09 278.92,-763.328 278.113,-773.892 284.877,-772.09"/>
<text text-anchor="middle" x="295.5" y="-784.8" font-family="Times New Roman,serif" font-size="14.00">k</text>
</g>
<!-- 15&#45;&gt;34 -->
<g id="edge18" class="edge"><title>15&#45;&gt;34</title>
<path fill="none" stroke="black" d="M348.815,-848.181C356.236,-860.185 364.991,-877.235 371.203,-891.481"/>
<polygon fill="black" stroke="black" points="367.999,-892.891 375.049,-900.799 374.469,-890.22 367.999,-892.891"/>
</g>
<!-- 16&#45;&gt;13 -->
<g id="edge24" class="edge"><title>16&#45;&gt;13</title>
<path fill="none" stroke="black" d="M187.893,-523.976C206.105,-534.652 231.743,-551.115 250.585,-564.101"/>
<polygon fill="black" stroke="black" points="248.77,-567.103 258.969,-569.973 252.785,-561.369 248.77,-567.103"/>
</g>
<!-- 17&#45;&gt;4 -->
<g id="edge29" class="edge"><title>17&#45;&gt;4</title>
<path fill="none" stroke="black" d="M21.1601,-1148.17C20.2848,-1140.04 20.0409,-1130.08 20.4283,-1120.92"/>
<polygon fill="black" stroke="black" points="23.9366,-1120.93 21.1731,-1110.71 16.9552,-1120.42 23.9366,-1120.93"/>
</g>
<!-- 17&#45;&gt;6 -->
<g id="edge86" class="edge"><title>17&#45;&gt;6</title>
<path fill="none" stroke="black" d="M28.8186,-1184.18C30.05,-1195.81 31.7032,-1211.42 33.113,-1224.73"/>
<polygon fill="black" stroke="black" points="29.6451,-1225.22 34.1787,-1234.8 36.6062,-1224.49 29.6451,-1225.22"/>
<text text-anchor="middle" x="38" y="-1205.8" font-family="Times New Roman,serif" font-size="14.00">K</text>
</g>
<!-- 18&#45;&gt;3 -->
<g id="edge5" class="edge"><title>18&#45;&gt;3</title>
<path fill="none" stroke="black" d="M119.049,-182.032C115.944,-199.035 109,-226.016 109,-250 109,-1254 109,-1254 109,-1254 109,-1297.01 159.467,-1319.42 195.336,-1330.21"/>
<polygon fill="black" stroke="black" points="194.436,-1333.59 205.011,-1332.95 196.344,-1326.85 194.436,-1333.59"/>
</g>
<!-- 21 -->
<g id="node22" class="node"><title>21</title>
<ellipse fill="none" stroke="black" cx="118" cy="-91" rx="27" ry="18"/>
</g>
<!-- 18&#45;&gt;21 -->
<g id="edge4" class="edge"><title>18&#45;&gt;21</title>
<path fill="none" stroke="black" d="M112.16,-146.174C111.285,-138.039 111.041,-128.076 111.428,-118.921"/>
<polygon fill="black" stroke="black" points="114.937,-118.933 112.173,-108.705 107.955,-118.424 114.937,-118.933"/>
</g>
<!-- 18&#45;&gt;23 -->
<g id="edge13" class="edge"><title>18&#45;&gt;23</title>
<path fill="none" stroke="black" d="M133.163,-178.947C143.655,-191.254 157.118,-209.505 166.898,-224.428"/>
<polygon fill="black" stroke="black" points="164.148,-226.627 172.452,-233.207 170.063,-222.885 164.148,-226.627"/>
</g>
<!-- 19&#45;&gt;3 -->
<g id="edge72" class="edge"><title>19&#45;&gt;3</title>
<path fill="none" stroke="black" d="M274.966,-1270.79C271.05,-1280.78 265.478,-1293.51 259,-1304 256.39,-1308.23 253.311,-1312.49 250.151,-1316.52"/>
<polygon fill="black" stroke="black" points="247.341,-1314.42 243.675,-1324.36 252.74,-1318.88 247.341,-1314.42"/>
<text text-anchor="middle" x="270.5" y="-1292.8" font-family="Times New Roman,serif" font-size="14.00">s</text>
</g>
<!-- 19&#45;&gt;7 -->
<g id="edge38" class="edge"><title>19&#45;&gt;7</title>
<path fill="none" stroke="black" d="M274.112,-1235.56C272.036,-1229.79 270.035,-1223.21 269,-1217 267.769,-1209.61 268.033,-1201.57 268.93,-1194.14"/>
<polygon fill="black" stroke="black" points="272.4,-1194.61 270.529,-1184.18 265.489,-1193.5 272.4,-1194.61"/>
<text text-anchor="middle" x="271.5" y="-1205.8" font-family="Times New Roman,serif" font-size="14.00">I</text>
</g>
<!-- 20 -->
<g id="node21" class="node"><title>20</title>
<ellipse fill="none" stroke="black" cx="118" cy="-18" rx="27" ry="18"/>
<text text-anchor="middle" x="118" y="-14.3" font-family="Times New Roman,serif" font-size="14.00">s</text>
</g>
<!-- 20&#45;&gt;21 -->
<g id="edge1" class="edge"><title>20&#45;&gt;21</title>
<path fill="none" stroke="black" d="M123.827,-35.7052C124.708,-43.8218 124.959,-53.7804 124.577,-62.9424"/>
<polygon fill="black" stroke="black" points="121.068,-62.9482 123.84,-73.174 128.05,-63.4515 121.068,-62.9482"/>
</g>
<!-- 21&#45;&gt;18 -->
<g id="edge3" class="edge"><title>21&#45;&gt;18</title>
<path fill="none" stroke="black" d="M123.827,-108.705C124.708,-116.822 124.959,-126.78 124.577,-135.942"/>
<polygon fill="black" stroke="black" points="121.068,-135.948 123.84,-146.174 128.05,-136.452 121.068,-135.948"/>
</g>
<!-- 21&#45;&gt;20 -->
<g id="edge2" class="edge"><title>21&#45;&gt;20</title>
<path fill="none" stroke="black" d="M112.16,-73.174C111.285,-65.0392 111.041,-55.0756 111.428,-45.9214"/>
<polygon fill="black" stroke="black" points="114.937,-45.9333 112.173,-35.7052 107.955,-45.4242 114.937,-45.9333"/>
</g>
<!-- 22 -->
<g id="node23" class="node"><title>22</title>
<ellipse fill="none" stroke="black" cx="194" cy="-164" rx="28.6953" ry="18"/>
<text text-anchor="middle" x="194" y="-160.3" font-family="Times New Roman,serif" font-size="14.00">e,p,k</text>
</g>
<!-- 22&#45;&gt;23 -->
<g id="edge35" class="edge"><title>22&#45;&gt;23</title>
<path fill="none" stroke="black" d="M190.969,-182.175C188.917,-193.806 186.161,-209.419 183.812,-222.734"/>
<polygon fill="black" stroke="black" points="180.327,-222.343 182.035,-232.799 187.22,-223.559 180.327,-222.343"/>
</g>
<!-- 23&#45;&gt;2 -->
<g id="edge74" class="edge"><title>23&#45;&gt;2</title>
<path fill="none" stroke="black" d="M176.873,-269.022C173.277,-303.239 168.421,-382.273 191,-443 196.75,-458.464 198.573,-462.46 208,-476 211.096,-480.447 214.715,-484.921 218.384,-489.113"/>
<polygon fill="black" stroke="black" points="216.04,-491.737 225.375,-496.749 221.203,-487.01 216.04,-491.737"/>
<text text-anchor="middle" x="181.5" y="-377.8" font-family="Times New Roman,serif" font-size="14.00">s</text>
</g>
<!-- 23&#45;&gt;11 -->
<g id="edge53" class="edge"><title>23&#45;&gt;11</title>
<path fill="none" stroke="black" d="M197.437,-264.656C205.569,-270.801 214.876,-278.654 222,-287 228.248,-294.32 233.885,-303.173 238.492,-311.383"/>
<polygon fill="black" stroke="black" points="235.435,-313.089 243.233,-320.263 241.611,-309.793 235.435,-313.089"/>
<text text-anchor="middle" x="236.5" y="-290.8" font-family="Times New Roman,serif" font-size="14.00">k</text>
</g>
<!-- 23&#45;&gt;18 -->
<g id="edge14" class="edge"><title>23&#45;&gt;18</title>
<path fill="none" stroke="black" d="M163.761,-235.964C153.252,-223.625 139.786,-205.361 130.023,-190.452"/>
<polygon fill="black" stroke="black" points="132.784,-188.269 124.483,-181.686 126.867,-192.009 132.784,-188.269"/>
</g>
<!-- 23&#45;&gt;22 -->
<g id="edge36" class="edge"><title>23&#45;&gt;22</title>
<path fill="none" stroke="black" d="M184.5,-233.057C186.169,-227.37 187.86,-220.959 189,-215 190.404,-207.662 191.428,-199.638 192.169,-192.208"/>
<polygon fill="black" stroke="black" points="195.657,-192.5 193.039,-182.234 188.683,-191.892 195.657,-192.5"/>
<text text-anchor="middle" x="194" y="-203.8" font-family="Times New Roman,serif" font-size="14.00">l</text>
</g>
<!-- 24 -->
<g id="node25" class="node"><title>24</title>
<ellipse fill="none" stroke="black" cx="383" cy="-1006" rx="27" ry="18"/>
</g>
<!-- 24&#45;&gt;27 -->
<g id="edge68" class="edge"><title>24&#45;&gt;27</title>
<path fill="none" stroke="black" d="M371.237,-1022.23C362.545,-1032.83 350.008,-1046.83 337,-1057 326.97,-1064.84 314.946,-1071.93 304.042,-1077.63"/>
<polygon fill="black" stroke="black" points="302.179,-1074.65 294.826,-1082.28 305.331,-1080.9 302.179,-1074.65"/>
<text text-anchor="middle" x="357.5" y="-1045.8" font-family="Times New Roman,serif" font-size="14.00">s</text>
</g>
<!-- 28 -->
<g id="node29" class="node"><title>28</title>
<ellipse fill="none" stroke="black" cx="450" cy="-919" rx="27" ry="18"/>
<text text-anchor="middle" x="450" y="-915.3" font-family="Times New Roman,serif" font-size="14.00">e,p</text>
</g>
<!-- 24&#45;&gt;28 -->
<g id="edge64" class="edge"><title>24&#45;&gt;28</title>
<path fill="none" stroke="black" d="M390.46,-988.611C399.509,-975.179 414.411,-956.065 427.165,-941.421"/>
<polygon fill="black" stroke="black" points="429.916,-943.595 433.978,-933.81 424.701,-938.927 429.916,-943.595"/>
</g>
<!-- 24&#45;&gt;34 -->
<g id="edge65" class="edge"><title>24&#45;&gt;34</title>
<path fill="none" stroke="black" d="M374.97,-988.657C372.549,-982.903 370.213,-976.298 369,-970 367.532,-962.378 368.137,-954.088 369.563,-946.49"/>
<polygon fill="black" stroke="black" points="372.986,-947.224 371.899,-936.686 366.176,-945.602 372.986,-947.224"/>
<text text-anchor="middle" x="371.5" y="-958.8" font-family="Times New Roman,serif" font-size="14.00">I</text>
</g>
<!-- 25&#45;&gt;10 -->
<g id="edge47" class="edge"><title>25&#45;&gt;10</title>
<path fill="none" stroke="black" d="M282.484,-233.611C288.814,-221.382 297.582,-204.443 304.823,-190.456"/>
<polygon fill="black" stroke="black" points="308.054,-191.828 309.542,-181.339 301.837,-188.61 308.054,-191.828"/>
<text text-anchor="middle" x="301.5" y="-203.8" font-family="Times New Roman,serif" font-size="14.00">I</text>
</g>
<!-- 25&#45;&gt;11 -->
<g id="edge56" class="edge"><title>25&#45;&gt;11</title>
<path fill="none" stroke="black" d="M269.465,-268.758C266.254,-280.625 261.881,-296.787 258.197,-310.403"/>
<polygon fill="black" stroke="black" points="254.778,-309.64 255.544,-320.207 261.535,-311.468 254.778,-309.64"/>
<text text-anchor="middle" x="267.5" y="-290.8" font-family="Times New Roman,serif" font-size="14.00">k</text>
</g>
<!-- 25&#45;&gt;14 -->
<g id="edge20" class="edge"><title>25&#45;&gt;14</title>
<path fill="none" stroke="black" d="M299.171,-257.757C330.599,-266.984 383.605,-287.431 418,-320 459.183,-358.997 453.716,-386.309 452,-443 450.819,-482.015 454.213,-493.647 440,-530 408.42,-610.773 338.952,-688.954 301.153,-724.321"/>
<polygon fill="black" stroke="black" points="298.631,-721.883 293.593,-731.203 303.344,-727.06 298.631,-721.883"/>
</g>
<!-- 26&#45;&gt;2 -->
<g id="edge10" class="edge"><title>26&#45;&gt;2</title>
<path fill="none" stroke="black" d="M325.462,-575.911C306.066,-567.615 280.944,-555.092 272,-549 266.451,-545.221 260.832,-540.774 255.798,-536.321"/>
<polygon fill="black" stroke="black" points="258.142,-533.72 248.463,-529.41 253.342,-538.815 258.142,-533.72"/>
</g>
<!-- 26&#45;&gt;10 -->
<g id="edge79" class="edge"><title>26&#45;&gt;10</title>
<path fill="none" stroke="black" d="M363.079,-569.598C368.338,-563.608 373.998,-556.345 378,-549 398.553,-511.28 429,-587.333 429,-382.5 429,-382.5 429,-382.5 429,-250 429,-210.846 384.926,-187.286 352.323,-175.214"/>
<polygon fill="black" stroke="black" points="353.229,-171.823 342.634,-171.832 350.922,-178.432 353.229,-171.823"/>
<text text-anchor="middle" x="432.5" y="-377.8" font-family="Times New Roman,serif" font-size="14.00">s</text>
</g>
<!-- 26&#45;&gt;31 -->
<g id="edge87" class="edge"><title>26&#45;&gt;31</title>
<path fill="none" stroke="black" d="M340.184,-602.18C332.076,-612.465 320.131,-625.86 309.333,-636.834"/>
<polygon fill="black" stroke="black" points="306.757,-634.46 302.103,-643.978 311.676,-639.44 306.757,-634.46"/>
</g>
<!-- 26&#45;&gt;33 -->
<g id="edge81" class="edge"><title>26&#45;&gt;33</title>
<path fill="none" stroke="black" d="M349.095,-566.958C349.439,-548.767 350.694,-519.159 355,-494 357.375,-480.125 361.443,-465.013 365.207,-452.568"/>
<polygon fill="black" stroke="black" points="368.609,-453.415 368.253,-442.826 361.928,-451.325 368.609,-453.415"/>
<text text-anchor="middle" x="358.5" y="-508.3" font-family="Times New Roman,serif" font-size="14.00">s</text>
</g>
<!-- 27&#45;&gt;7 -->
<g id="edge59" class="edge"><title>27&#45;&gt;7</title>
<path fill="none" stroke="black" d="M279.297,-1110.71C280.408,-1118.82 280.938,-1128.78 280.815,-1137.94"/>
<polygon fill="black" stroke="black" points="277.308,-1138.03 280.366,-1148.17 284.301,-1138.34 277.308,-1138.03"/>
</g>
<!-- 27&#45;&gt;24 -->
<g id="edge67" class="edge"><title>27&#45;&gt;24</title>
<path fill="none" stroke="black" d="M288.003,-1077.83C299.228,-1067.48 315.14,-1053.34 330,-1042 337.854,-1036.01 346.702,-1029.92 354.886,-1024.54"/>
<polygon fill="black" stroke="black" points="356.93,-1027.39 363.428,-1019.02 353.13,-1021.51 356.93,-1027.39"/>
<text text-anchor="middle" x="333.5" y="-1045.8" font-family="Times New Roman,serif" font-size="14.00">s</text>
</g>
<!-- 28&#45;&gt;24 -->
<g id="edge63" class="edge"><title>28&#45;&gt;24</title>
<path fill="none" stroke="black" d="M442.439,-936.539C433.344,-950.017 418.422,-969.143 405.682,-983.755"/>
<polygon fill="black" stroke="black" points="402.948,-981.561 398.88,-991.343 408.161,-986.233 402.948,-981.561"/>
</g>
<!-- 30 -->
<g id="node31" class="node"><title>30</title>
<ellipse fill="none" stroke="black" cx="458" cy="-658" rx="27" ry="18"/>
<text text-anchor="middle" x="458" y="-654.3" font-family="Times New Roman,serif" font-size="14.00">I,e</text>
</g>
<!-- 28&#45;&gt;30 -->
<g id="edge31" class="edge"><title>28&#45;&gt;30</title>
<path fill="none" stroke="black" d="M473.641,-909.969C485.937,-904.448 499.856,-895.769 507,-883 543.757,-817.296 499.462,-726.419 473.81,-683.422"/>
<polygon fill="black" stroke="black" points="476.712,-681.459 468.504,-674.759 470.743,-685.115 476.712,-681.459"/>
</g>
<!-- 29&#45;&gt;8 -->
<g id="edge34" class="edge"><title>29&#45;&gt;8</title>
<path fill="none" stroke="black" d="M414.291,-762.906C412.608,-768.591 410.961,-775.01 410,-781 408.835,-788.262 408.221,-796.188 407.922,-803.546"/>
<polygon fill="black" stroke="black" points="404.418,-803.696 407.681,-813.775 411.416,-803.86 404.418,-803.696"/>
<text text-anchor="middle" x="412" y="-784.8" font-family="Times New Roman,serif" font-size="14.00">l</text>
</g>
<!-- 29&#45;&gt;30 -->
<g id="edge62" class="edge"><title>29&#45;&gt;30</title>
<path fill="none" stroke="black" d="M431.552,-728.538C435.577,-722.643 439.865,-715.721 443,-709 446.371,-701.772 449.197,-693.605 451.454,-685.999"/>
<polygon fill="black" stroke="black" points="454.895,-686.686 454.178,-676.115 448.147,-684.826 454.895,-686.686"/>
</g>
<!-- 30&#45;&gt;29 -->
<g id="edge61" class="edge"><title>30&#45;&gt;29</title>
<path fill="none" stroke="black" d="M450.696,-675.339C445.287,-687.438 437.808,-704.166 431.587,-718.082"/>
<polygon fill="black" stroke="black" points="428.213,-717.053 427.327,-727.611 434.603,-719.91 428.213,-717.053"/>
<text text-anchor="middle" x="443" y="-697.8" font-family="Times New Roman,serif" font-size="14.00">l</text>
</g>
<!-- 31&#45;&gt;13 -->
<g id="edge21" class="edge"><title>31&#45;&gt;13</title>
<path fill="none" stroke="black" d="M276.88,-640.533C274.814,-632.318 273.129,-622.173 272.215,-612.869"/>
<polygon fill="black" stroke="black" points="275.705,-612.609 271.531,-602.871 268.722,-613.086 275.705,-612.609"/>
</g>
<!-- 31&#45;&gt;14 -->
<g id="edge83" class="edge"><title>31&#45;&gt;14</title>
<path fill="none" stroke="black" d="M274.885,-674.752C271.706,-680.566 268.608,-687.359 267,-694 265.174,-701.544 265.667,-709.809 267.1,-717.409"/>
<polygon fill="black" stroke="black" points="263.727,-718.351 269.508,-727.23 270.526,-716.684 263.727,-718.351"/>
<text text-anchor="middle" x="270.5" y="-697.8" font-family="Times New Roman,serif" font-size="14.00">s</text>
</g>
<!-- 31&#45;&gt;26 -->
<g id="edge88" class="edge"><title>31&#45;&gt;26</title>
<path fill="none" stroke="black" d="M293.762,-640.889C301.827,-630.65 313.718,-617.308 324.494,-606.341"/>
<polygon fill="black" stroke="black" points="327.069,-608.717 331.716,-599.196 322.146,-603.741 327.069,-608.717"/>
</g>
<!-- 32 -->
<g id="node33" class="node"><title>32</title>
<ellipse fill="none" stroke="black" cx="373" cy="-338" rx="27" ry="18"/>
<text text-anchor="middle" x="373" y="-334.3" font-family="Times New Roman,serif" font-size="14.00">i</text>
</g>
<!-- 32&#45;&gt;33 -->
<g id="edge41" class="edge"><title>32&#45;&gt;33</title>
<path fill="none" stroke="black" d="M373.202,-356.175C373.339,-367.806 373.523,-383.419 373.679,-396.734"/>
<polygon fill="black" stroke="black" points="370.18,-396.841 373.798,-406.799 377.18,-396.758 370.18,-396.841"/>
<text text-anchor="middle" x="376.5" y="-377.8" font-family="Times New Roman,serif" font-size="14.00">I</text>
</g>
<!-- 33&#45;&gt;0 -->
<g id="edge44" class="edge"><title>33&#45;&gt;0</title>
<path fill="none" stroke="black" d="M400.699,-428.693C458.092,-436.464 587,-464.022 587,-548 587,-1341 587,-1341 587,-1341 587,-1385.37 441.268,-1411.93 370.901,-1421.7"/>
<polygon fill="black" stroke="black" points="370.135,-1418.27 360.69,-1423.08 371.067,-1425.21 370.135,-1418.27"/>
</g>
<!-- 33&#45;&gt;2 -->
<g id="edge76" class="edge"><title>33&#45;&gt;2</title>
<path fill="none" stroke="black" d="M349.674,-432.873C331.674,-438.653 307.075,-448.058 288,-461 277.218,-468.316 266.969,-478.388 258.732,-487.576"/>
<polygon fill="black" stroke="black" points="255.925,-485.472 252.048,-495.332 261.228,-490.042 255.925,-485.472"/>
<text text-anchor="middle" x="291.5" y="-464.8" font-family="Times New Roman,serif" font-size="14.00">s</text>
</g>
<!-- 33&#45;&gt;26 -->
<g id="edge82" class="edge"><title>33&#45;&gt;26</title>
<path fill="none" stroke="black" d="M374.342,-443.396C374.422,-467.486 373.141,-512.197 364,-549 363.244,-552.046 362.252,-555.165 361.138,-558.226"/>
<polygon fill="black" stroke="black" points="357.833,-557.064 357.304,-567.646 364.316,-559.703 357.833,-557.064"/>
<text text-anchor="middle" x="376.5" y="-508.3" font-family="Times New Roman,serif" font-size="14.00">s</text>
</g>
<!-- 33&#45;&gt;32 -->
<g id="edge42" class="edge"><title>33&#45;&gt;32</title>
<path fill="none" stroke="black" d="M368.734,-407.077C367.211,-401.391 365.756,-394.975 365,-389 364.055,-381.531 364.638,-373.463 365.831,-366.034"/>
<polygon fill="black" stroke="black" points="369.292,-366.578 367.831,-356.085 362.429,-365.199 369.292,-366.578"/>
<text text-anchor="middle" x="367.5" y="-377.8" font-family="Times New Roman,serif" font-size="14.00">I</text>
</g>
<!-- 33&#45;&gt;34 -->
<g id="edge15" class="edge"><title>33&#45;&gt;34</title>
<path fill="none" stroke="black" d="M395.878,-435.672C439.308,-458.132 531,-514.451 531,-548 531,-659 531,-659 531,-659 531,-750.695 503.181,-773.255 453,-850 440.426,-869.23 421.929,-887.716 406.252,-900.547"/>
<polygon fill="black" stroke="black" points="404.083,-897.8 398.358,-906.715 408.393,-903.316 404.083,-897.8"/>
</g>
<!-- 34&#45;&gt;8 -->
<g id="edge49" class="edge"><title>34&#45;&gt;8</title>
<path fill="none" stroke="black" d="M376.571,-900.818C376.344,-890.923 377.094,-878.423 381,-868 382.619,-863.679 384.967,-859.457 387.612,-855.526"/>
<polygon fill="black" stroke="black" points="390.471,-857.548 393.709,-847.46 384.887,-853.327 390.471,-857.548"/>
<text text-anchor="middle" x="384.5" y="-871.8" font-family="Times New Roman,serif" font-size="14.00">k</text>
</g>
<!-- 34&#45;&gt;15 -->
<g id="edge17" class="edge"><title>34&#45;&gt;15</title>
<path fill="none" stroke="black" d="M365.175,-902.804C357.742,-890.776 348.97,-873.689 342.759,-859.432"/>
<polygon fill="black" stroke="black" points="345.963,-858.021 338.916,-850.11 339.492,-860.689 345.963,-858.021"/>
</g>
<!-- 34&#45;&gt;24 -->
<g id="edge66" class="edge"><title>34&#45;&gt;24</title>
<path fill="none" stroke="black" d="M379.01,-937.175C379.694,-948.806 380.613,-964.419 381.396,-977.734"/>
<polygon fill="black" stroke="black" points="377.907,-978.022 381.988,-987.799 384.895,-977.611 377.907,-978.022"/>
<text text-anchor="middle" x="383.5" y="-958.8" font-family="Times New Roman,serif" font-size="14.00">I</text>
</g>
<!-- 34&#45;&gt;33 -->
<g id="edge16" class="edge"><title>34&#45;&gt;33</title>
<path fill="none" stroke="black" d="M389.212,-902.523C401.967,-889.658 421.765,-870.241 435,-850 485.181,-773.255 513,-750.695 513,-659 513,-659 513,-659 513,-548 513,-518.203 440.67,-470.444 400.214,-444.399"/>
<polygon fill="black" stroke="black" points="401.932,-441.342 391.627,-438.879 398.147,-447.231 401.932,-441.342"/>
</g>
</g>
</svg>
