<?xml version="1.0" encoding="UTF-8" standalone="no"?>
<!DOCTYPE svg PUBLIC "-//W3C//DTD SVG 1.1//EN"
 "http://www.w3.org/Graphics/SVG/1.1/DTD/svg11.dtd">
<!-- Generated by graphviz version 2.38.0 (20140413.2041)
 -->
<!-- Title: %3 Pages: 1 -->
<svg width="350pt" height="1961pt"
 viewBox="0.00 0.00 350.00 1961.00" xmlns="http://www.w3.org/2000/svg" xmlns:xlink="http://www.w3.org/1999/xlink">
<g id="graph0" class="graph" transform="scale(1 1) rotate(0) translate(4 1957)">
<title>%3</title>
<polygon fill="white" stroke="none" points="-4,4 -4,-1957 346,-1957 346,4 -4,4"/>
<!-- 0 -->
<g id="node1" class="node"><title>0</title>
<ellipse fill="none" stroke="black" cx="94" cy="-1935" rx="27" ry="18"/>
<text text-anchor="middle" x="94" y="-1931.3" font-family="Times New Roman,serif" font-size="14.00">i</text>
</g>
<!-- 6 -->
<g id="node7" class="node"><title>6</title>
<ellipse fill="none" stroke="black" cx="54" cy="-1862" rx="28.6953" ry="18"/>
<text text-anchor="middle" x="54" y="-1858.3" font-family="Times New Roman,serif" font-size="14.00">e,p,k</text>
</g>
<!-- 0&#45;&gt;6 -->
<g id="edge32" class="edge"><title>0&#45;&gt;6</title>
<path fill="none" stroke="black" d="M80.1192,-1919.29C74.1293,-1910.61 67.4807,-1899.37 62.2296,-1889.22"/>
<polygon fill="black" stroke="black" points="65.2284,-1887.38 57.6902,-1879.94 58.9404,-1890.46 65.2284,-1887.38"/>
</g>
<!-- 44 -->
<g id="node45" class="node"><title>44</title>
<ellipse fill="none" stroke="black" cx="128" cy="-1862" rx="27" ry="18"/>
<text text-anchor="middle" x="128" y="-1858.3" font-family="Times New Roman,serif" font-size="14.00">p</text>
</g>
<!-- 0&#45;&gt;44 -->
<g id="edge33" class="edge"><title>0&#45;&gt;44</title>
<path fill="none" stroke="black" d="M96.3522,-1916.81C99.7044,-1907.86 104.838,-1896.76 110.099,-1886.97"/>
<polygon fill="black" stroke="black" points="113.24,-1888.53 115.127,-1878.1 107.15,-1885.07 113.24,-1888.53"/>
</g>
<!-- 1 -->
<g id="node2" class="node"><title>1</title>
<ellipse fill="none" stroke="black" cx="63" cy="-1455" rx="27" ry="18"/>
</g>
<!-- 2 -->
<g id="node3" class="node"><title>2</title>
<ellipse fill="none" stroke="black" cx="63" cy="-1528" rx="27" ry="18"/>
</g>
<!-- 1&#45;&gt;2 -->
<g id="edge18" class="edge"><title>1&#45;&gt;2</title>
<path fill="none" stroke="black" d="M68.8269,-1472.71C69.7084,-1480.82 69.9586,-1490.78 69.5774,-1499.94"/>
<polygon fill="black" stroke="black" points="66.068,-1499.95 68.8399,-1510.17 73.0499,-1500.45 66.068,-1499.95"/>
</g>
<!-- 2&#45;&gt;1 -->
<g id="edge17" class="edge"><title>2&#45;&gt;1</title>
<path fill="none" stroke="black" d="M57.1601,-1510.17C56.2848,-1502.04 56.0409,-1492.08 56.4283,-1482.92"/>
<polygon fill="black" stroke="black" points="59.9366,-1482.93 57.1731,-1472.71 52.9552,-1482.42 59.9366,-1482.93"/>
</g>
<!-- 34 -->
<g id="node35" class="node"><title>34</title>
<ellipse fill="none" stroke="black" cx="141" cy="-1615" rx="27" ry="18"/>
<text text-anchor="middle" x="141" y="-1611.3" font-family="Times New Roman,serif" font-size="14.00">p</text>
</g>
<!-- 2&#45;&gt;34 -->
<g id="edge16" class="edge"><title>2&#45;&gt;34</title>
<path fill="none" stroke="black" d="M80.0896,-1542.13C93.5561,-1554.83 111.866,-1574.38 125.024,-1589.88"/>
<polygon fill="black" stroke="black" points="122.672,-1592.53 131.74,-1598.01 128.069,-1588.07 122.672,-1592.53"/>
</g>
<!-- 3 -->
<g id="node4" class="node"><title>3</title>
<ellipse fill="none" stroke="black" cx="263" cy="-265" rx="27" ry="18"/>
<text text-anchor="middle" x="263" y="-261.3" font-family="Times New Roman,serif" font-size="14.00">e</text>
</g>
<!-- 11 -->
<g id="node12" class="node"><title>11</title>
<ellipse fill="none" stroke="black" cx="263" cy="-352" rx="27" ry="18"/>
<text text-anchor="middle" x="263" y="-348.3" font-family="Times New Roman,serif" font-size="14.00">e</text>
</g>
<!-- 3&#45;&gt;11 -->
<g id="edge27" class="edge"><title>3&#45;&gt;11</title>
<path fill="none" stroke="black" d="M268.5,-282.758C269.814,-294.508 270.092,-310.47 269.334,-324.002"/>
<polygon fill="black" stroke="black" points="265.826,-323.956 268.504,-334.207 272.803,-324.524 265.826,-323.956"/>
</g>
<!-- 39 -->
<g id="node40" class="node"><title>39</title>
<ellipse fill="none" stroke="black" cx="205" cy="-105" rx="27" ry="18"/>
<text text-anchor="middle" x="205" y="-101.3" font-family="Times New Roman,serif" font-size="14.00">p</text>
</g>
<!-- 3&#45;&gt;39 -->
<g id="edge86" class="edge"><title>3&#45;&gt;39</title>
<path fill="none" stroke="black" d="M261.382,-246.838C258.943,-225.72 253.238,-189.089 241,-160 236.497,-149.296 229.785,-138.459 223.372,-129.33"/>
<polygon fill="black" stroke="black" points="226.126,-127.167 217.398,-121.161 220.476,-131.299 226.126,-127.167"/>
</g>
<!-- 41 -->
<g id="node42" class="node"><title>41</title>
<ellipse fill="none" stroke="black" cx="315" cy="-178" rx="27" ry="18"/>
<text text-anchor="middle" x="315" y="-174.3" font-family="Times New Roman,serif" font-size="14.00">e,k</text>
</g>
<!-- 3&#45;&gt;41 -->
<g id="edge25" class="edge"><title>3&#45;&gt;41</title>
<path fill="none" stroke="black" d="M267.77,-247.207C274.263,-234.225 285.154,-216.118 294.977,-201.823"/>
<polygon fill="black" stroke="black" points="297.958,-203.671 300.906,-193.494 292.255,-199.611 297.958,-203.671"/>
</g>
<!-- 42 -->
<g id="node43" class="node"><title>42</title>
<ellipse fill="none" stroke="black" cx="205" cy="-178" rx="27" ry="18"/>
<text text-anchor="middle" x="205" y="-174.3" font-family="Times New Roman,serif" font-size="14.00">p</text>
</g>
<!-- 3&#45;&gt;42 -->
<g id="edge82" class="edge"><title>3&#45;&gt;42</title>
<path fill="none" stroke="black" d="M247.944,-249.581C237.932,-237.265 225.299,-219.253 216.16,-204.508"/>
<polygon fill="black" stroke="black" points="219.109,-202.62 210.976,-195.83 213.099,-206.21 219.109,-202.62"/>
</g>
<!-- 3&#45;&gt;42 -->
<g id="edge85" class="edge"><title>3&#45;&gt;42</title>
<path fill="none" stroke="black" d="M257.045,-247.207C249.519,-234.022 237.083,-215.55 226.126,-201.154"/>
<polygon fill="black" stroke="black" points="228.823,-198.922 219.894,-193.22 223.318,-203.246 228.823,-198.922"/>
</g>
<!-- 4 -->
<g id="node5" class="node"><title>4</title>
<ellipse fill="none" stroke="black" cx="113" cy="-526" rx="27" ry="18"/>
<text text-anchor="middle" x="113" y="-522.3" font-family="Times New Roman,serif" font-size="14.00">e,p</text>
</g>
<!-- 7 -->
<g id="node8" class="node"><title>7</title>
<ellipse fill="none" stroke="black" cx="114" cy="-613" rx="27" ry="18"/>
<text text-anchor="middle" x="114" y="-609.3" font-family="Times New Roman,serif" font-size="14.00">p</text>
</g>
<!-- 4&#45;&gt;7 -->
<g id="edge71" class="edge"><title>4&#45;&gt;7</title>
<path fill="none" stroke="black" d="M113.202,-544.175C113.339,-555.806 113.523,-571.419 113.679,-584.734"/>
<polygon fill="black" stroke="black" points="110.18,-584.841 113.798,-594.799 117.18,-584.758 110.18,-584.841"/>
<text text-anchor="middle" x="116" y="-565.8" font-family="Times New Roman,serif" font-size="14.00">l</text>
</g>
<!-- 26 -->
<g id="node27" class="node"><title>26</title>
<ellipse fill="none" stroke="black" cx="119" cy="-439" rx="27" ry="18"/>
</g>
<!-- 4&#45;&gt;26 -->
<g id="edge72" class="edge"><title>4&#45;&gt;26</title>
<path fill="none" stroke="black" d="M112.827,-507.85C112.859,-498.187 113.115,-485.904 114,-475 114.208,-472.43 114.483,-469.762 114.797,-467.096"/>
<polygon fill="black" stroke="black" points="118.285,-467.419 116.14,-457.043 111.346,-466.491 118.285,-467.419"/>
</g>
<!-- 5 -->
<g id="node6" class="node"><title>5</title>
<ellipse fill="none" stroke="black" cx="69" cy="-1702" rx="27" ry="18"/>
<text text-anchor="middle" x="69" y="-1698.3" font-family="Times New Roman,serif" font-size="14.00">i</text>
</g>
<!-- 27 -->
<g id="node28" class="node"><title>27</title>
<ellipse fill="none" stroke="black" cx="97" cy="-1775" rx="27" ry="18"/>
<text text-anchor="middle" x="97" y="-1771.3" font-family="Times New Roman,serif" font-size="14.00">p</text>
</g>
<!-- 5&#45;&gt;27 -->
<g id="edge12" class="edge"><title>5&#45;&gt;27</title>
<path fill="none" stroke="black" d="M80.8412,-1718.58C85.1424,-1726.96 89.604,-1737.54 92.9994,-1747.21"/>
<polygon fill="black" stroke="black" points="89.6978,-1748.37 96.1002,-1756.81 96.3595,-1746.22 89.6978,-1748.37"/>
</g>
<!-- 6&#45;&gt;0 -->
<g id="edge31" class="edge"><title>6&#45;&gt;0</title>
<path fill="none" stroke="black" d="M68.1488,-1878.1C74.0484,-1886.7 80.5534,-1897.71 85.7179,-1907.68"/>
<polygon fill="black" stroke="black" points="82.6501,-1909.38 90.1954,-1916.81 88.9352,-1906.29 82.6501,-1909.38"/>
</g>
<!-- 7&#45;&gt;4 -->
<g id="edge70" class="edge"><title>7&#45;&gt;4</title>
<path fill="none" stroke="black" d="M103.885,-596.248C100.706,-590.434 97.6076,-583.641 96,-577 94.0282,-568.855 95.6318,-560.152 98.5089,-552.327"/>
<polygon fill="black" stroke="black" points="101.794,-553.554 102.661,-542.995 95.3983,-550.709 101.794,-553.554"/>
<text text-anchor="middle" x="98" y="-565.8" font-family="Times New Roman,serif" font-size="14.00">l</text>
</g>
<!-- 28 -->
<g id="node29" class="node"><title>28</title>
<ellipse fill="none" stroke="black" cx="88" cy="-700" rx="27" ry="18"/>
<text text-anchor="middle" x="88" y="-696.3" font-family="Times New Roman,serif" font-size="14.00">p,k</text>
</g>
<!-- 7&#45;&gt;28 -->
<g id="edge69" class="edge"><title>7&#45;&gt;28</title>
<path fill="none" stroke="black" d="M108.874,-630.758C105.244,-642.625 100.301,-658.787 96.1355,-672.403"/>
<polygon fill="black" stroke="black" points="92.7149,-671.62 93.1368,-682.207 99.4088,-673.668 92.7149,-671.62"/>
<text text-anchor="middle" x="106.5" y="-652.8" font-family="Times New Roman,serif" font-size="14.00">k</text>
</g>
<!-- 8 -->
<g id="node9" class="node"><title>8</title>
<ellipse fill="none" stroke="black" cx="34" cy="-439" rx="27" ry="18"/>
<text text-anchor="middle" x="34" y="-435.3" font-family="Times New Roman,serif" font-size="14.00">p</text>
</g>
<!-- 12 -->
<g id="node13" class="node"><title>12</title>
<ellipse fill="none" stroke="black" cx="36" cy="-526" rx="27" ry="18"/>
<text text-anchor="middle" x="36" y="-522.3" font-family="Times New Roman,serif" font-size="14.00">e,p</text>
</g>
<!-- 8&#45;&gt;12 -->
<g id="edge90" class="edge"><title>8&#45;&gt;12</title>
<path fill="none" stroke="black" d="M38.0982,-456.988C39.2829,-462.678 40.4138,-469.08 41,-475 41.7362,-482.435 41.4203,-490.491 40.6737,-497.92"/>
<polygon fill="black" stroke="black" points="37.1975,-497.512 39.3965,-507.876 44.1406,-498.403 37.1975,-497.512"/>
<text text-anchor="middle" x="44" y="-478.8" font-family="Times New Roman,serif" font-size="14.00">l</text>
</g>
<!-- 46 -->
<g id="node47" class="node"><title>46</title>
<ellipse fill="none" stroke="black" cx="29" cy="-352" rx="27" ry="18"/>
<text text-anchor="middle" x="29" y="-348.3" font-family="Times New Roman,serif" font-size="14.00">b</text>
</g>
<!-- 8&#45;&gt;46 -->
<g id="edge91" class="edge"><title>8&#45;&gt;46</title>
<path fill="none" stroke="black" d="M31.0715,-420.962C30.2253,-415.269 29.4177,-408.878 29,-403 28.4791,-395.67 28.3027,-387.72 28.2999,-380.362"/>
<polygon fill="black" stroke="black" points="31.8018,-380.18 28.4002,-370.146 24.8021,-380.111 31.8018,-380.18"/>
<text text-anchor="middle" x="34" y="-391.8" font-family="Times New Roman,serif" font-size="14.00">K</text>
</g>
<!-- 9 -->
<g id="node10" class="node"><title>9</title>
<ellipse fill="none" stroke="black" cx="109" cy="-874" rx="27" ry="18"/>
<text text-anchor="middle" x="109" y="-870.3" font-family="Times New Roman,serif" font-size="14.00">m</text>
</g>
<!-- 13 -->
<g id="node14" class="node"><title>13</title>
<ellipse fill="none" stroke="black" cx="132" cy="-961" rx="27" ry="18"/>
<text text-anchor="middle" x="132" y="-957.3" font-family="Times New Roman,serif" font-size="14.00">p</text>
</g>
<!-- 9&#45;&gt;13 -->
<g id="edge63" class="edge"><title>9&#45;&gt;13</title>
<path fill="none" stroke="black" d="M113.535,-891.758C116.746,-903.625 121.119,-919.787 124.803,-933.403"/>
<polygon fill="black" stroke="black" points="121.465,-934.468 127.456,-943.207 128.222,-932.64 121.465,-934.468"/>
<text text-anchor="middle" x="126" y="-913.8" font-family="Times New Roman,serif" font-size="14.00">b</text>
</g>
<!-- 43 -->
<g id="node44" class="node"><title>43</title>
<ellipse fill="none" stroke="black" cx="88" cy="-787" rx="27" ry="18"/>
<text text-anchor="middle" x="88" y="-783.3" font-family="Times New Roman,serif" font-size="14.00">p</text>
</g>
<!-- 9&#45;&gt;43 -->
<g id="edge64" class="edge"><title>9&#45;&gt;43</title>
<path fill="none" stroke="black" d="M98.477,-857.275C95.1359,-851.465 91.8353,-844.666 90,-838 88.0251,-830.827 87.1477,-822.857 86.8546,-815.427"/>
<polygon fill="black" stroke="black" points="90.3545,-815.393 86.7756,-805.421 83.3547,-815.449 90.3545,-815.393"/>
<text text-anchor="middle" x="92" y="-826.8" font-family="Times New Roman,serif" font-size="14.00">l</text>
</g>
<!-- 10 -->
<g id="node11" class="node"><title>10</title>
<ellipse fill="none" stroke="black" cx="191" cy="-352" rx="27" ry="18"/>
<text text-anchor="middle" x="191" y="-348.3" font-family="Times New Roman,serif" font-size="14.00">e,p,i</text>
</g>
<!-- 17 -->
<g id="node18" class="node"><title>17</title>
<ellipse fill="none" stroke="black" cx="222" cy="-439" rx="27" ry="18"/>
<text text-anchor="middle" x="222" y="-435.3" font-family="Times New Roman,serif" font-size="14.00">e</text>
</g>
<!-- 10&#45;&gt;17 -->
<g id="edge96" class="edge"><title>10&#45;&gt;17</title>
<path fill="none" stroke="black" d="M197.112,-369.758C201.482,-381.741 207.45,-398.104 212.446,-411.803"/>
<polygon fill="black" stroke="black" points="209.161,-413.011 215.875,-421.207 215.737,-410.613 209.161,-413.011"/>
<text text-anchor="middle" x="210" y="-391.8" font-family="Times New Roman,serif" font-size="14.00">l</text>
</g>
<!-- 11&#45;&gt;3 -->
<g id="edge28" class="edge"><title>11&#45;&gt;3</title>
<path fill="none" stroke="black" d="M257.496,-334.207C256.184,-322.448 255.908,-306.485 256.668,-292.958"/>
<polygon fill="black" stroke="black" points="260.176,-293.01 257.5,-282.758 253.199,-292.441 260.176,-293.01"/>
</g>
<!-- 11&#45;&gt;17 -->
<g id="edge59" class="edge"><title>11&#45;&gt;17</title>
<path fill="none" stroke="black" d="M255.119,-369.339C249.226,-381.555 241.057,-398.491 234.307,-412.486"/>
<polygon fill="black" stroke="black" points="231.097,-411.084 229.905,-421.611 237.402,-414.125 231.097,-411.084"/>
<text text-anchor="middle" x="246" y="-391.8" font-family="Times New Roman,serif" font-size="14.00">l</text>
</g>
<!-- 12&#45;&gt;8 -->
<g id="edge89" class="edge"><title>12&#45;&gt;8</title>
<path fill="none" stroke="black" d="M35.5953,-507.799C35.3215,-496.163 34.9541,-480.548 34.6409,-467.237"/>
<polygon fill="black" stroke="black" points="38.1385,-467.09 34.4041,-457.175 31.1404,-467.255 38.1385,-467.09"/>
</g>
<!-- 30 -->
<g id="node31" class="node"><title>30</title>
<ellipse fill="none" stroke="black" cx="38" cy="-613" rx="27" ry="18"/>
<text text-anchor="middle" x="38" y="-609.3" font-family="Times New Roman,serif" font-size="14.00">p</text>
</g>
<!-- 12&#45;&gt;30 -->
<g id="edge88" class="edge"><title>12&#45;&gt;30</title>
<path fill="none" stroke="black" d="M37.7575,-544.071C38.2653,-549.766 38.7498,-556.151 39,-562 39.3141,-569.343 39.3112,-577.298 39.1664,-584.656"/>
<polygon fill="black" stroke="black" points="35.6617,-584.773 38.8734,-594.87 42.6589,-584.974 35.6617,-584.773"/>
<text text-anchor="middle" x="42" y="-565.8" font-family="Times New Roman,serif" font-size="14.00">l</text>
</g>
<!-- 13&#45;&gt;9 -->
<g id="edge62" class="edge"><title>13&#45;&gt;9</title>
<path fill="none" stroke="black" d="M116.942,-945.712C111.802,-939.845 106.679,-932.637 104,-925 101.459,-917.756 101.256,-909.584 102.083,-901.978"/>
<polygon fill="black" stroke="black" points="105.538,-902.536 103.728,-892.097 98.6333,-901.387 105.538,-902.536"/>
<text text-anchor="middle" x="108" y="-913.8" font-family="Times New Roman,serif" font-size="14.00">b</text>
</g>
<!-- 16 -->
<g id="node17" class="node"><title>16</title>
<ellipse fill="none" stroke="black" cx="175" cy="-1048" rx="27" ry="18"/>
</g>
<!-- 13&#45;&gt;16 -->
<g id="edge61" class="edge"><title>13&#45;&gt;16</title>
<path fill="none" stroke="black" d="M140.265,-978.339C146.445,-990.555 155.013,-1007.49 162.093,-1021.49"/>
<polygon fill="black" stroke="black" points="159.072,-1023.27 166.709,-1030.61 165.318,-1020.11 159.072,-1023.27"/>
<text text-anchor="middle" x="159.5" y="-1000.8" font-family="Times New Roman,serif" font-size="14.00">k</text>
</g>
<!-- 14 -->
<g id="node15" class="node"><title>14</title>
<ellipse fill="none" stroke="black" cx="127" cy="-1368" rx="27" ry="18"/>
<text text-anchor="middle" x="127" y="-1364.3" font-family="Times New Roman,serif" font-size="14.00">I,i,p</text>
</g>
<!-- 32 -->
<g id="node33" class="node"><title>32</title>
<ellipse fill="none" stroke="black" cx="135" cy="-1455" rx="27" ry="18"/>
<text text-anchor="middle" x="135" y="-1451.3" font-family="Times New Roman,serif" font-size="14.00">e</text>
</g>
<!-- 14&#45;&gt;32 -->
<g id="edge42" class="edge"><title>14&#45;&gt;32</title>
<path fill="none" stroke="black" d="M128.617,-1386.18C129.711,-1397.81 131.181,-1413.42 132.434,-1426.73"/>
<polygon fill="black" stroke="black" points="128.959,-1427.17 133.381,-1436.8 135.929,-1426.51 128.959,-1427.17"/>
<text text-anchor="middle" x="134" y="-1407.8" font-family="Times New Roman,serif" font-size="14.00">l</text>
</g>
<!-- 15 -->
<g id="node16" class="node"><title>15</title>
<ellipse fill="none" stroke="black" cx="207" cy="-1455" rx="27" ry="18"/>
<text text-anchor="middle" x="207" y="-1451.3" font-family="Times New Roman,serif" font-size="14.00">p</text>
</g>
<!-- 24 -->
<g id="node25" class="node"><title>24</title>
<ellipse fill="none" stroke="black" cx="207" cy="-1368" rx="27" ry="18"/>
<text text-anchor="middle" x="207" y="-1364.3" font-family="Times New Roman,serif" font-size="14.00">e</text>
</g>
<!-- 15&#45;&gt;24 -->
<g id="edge6" class="edge"><title>15&#45;&gt;24</title>
<path fill="none" stroke="black" d="M201.496,-1437.21C200.184,-1425.45 199.908,-1409.48 200.668,-1395.96"/>
<polygon fill="black" stroke="black" points="204.176,-1396.01 201.5,-1385.76 197.199,-1395.44 204.176,-1396.01"/>
</g>
<!-- 33 -->
<g id="node34" class="node"><title>33</title>
<ellipse fill="none" stroke="black" cx="207" cy="-1528" rx="27" ry="18"/>
<text text-anchor="middle" x="207" y="-1524.3" font-family="Times New Roman,serif" font-size="14.00">e,p</text>
</g>
<!-- 15&#45;&gt;33 -->
<g id="edge7" class="edge"><title>15&#45;&gt;33</title>
<path fill="none" stroke="black" d="M212.827,-1472.71C213.708,-1480.82 213.959,-1490.78 213.577,-1499.94"/>
<polygon fill="black" stroke="black" points="210.068,-1499.95 212.84,-1510.17 217.05,-1500.45 210.068,-1499.95"/>
</g>
<!-- 16&#45;&gt;13 -->
<g id="edge60" class="edge"><title>16&#45;&gt;13</title>
<path fill="none" stroke="black" d="M156.153,-1034.9C148.55,-1028.97 140.52,-1021.13 136,-1012 132.547,-1005.02 131.018,-996.826 130.49,-989.107"/>
<polygon fill="black" stroke="black" points="133.988,-988.974 130.303,-979.041 126.989,-989.104 133.988,-988.974"/>
<text text-anchor="middle" x="139.5" y="-1000.8" font-family="Times New Roman,serif" font-size="14.00">k</text>
</g>
<!-- 16&#45;&gt;17 -->
<g id="edge56" class="edge"><title>16&#45;&gt;17</title>
<path fill="none" stroke="black" d="M178.797,-1030.17C182.313,-1013.09 187,-985.845 187,-962 187,-962 187,-962 187,-525 187,-503.521 196.674,-481.134 205.849,-464.729"/>
<polygon fill="black" stroke="black" points="209.043,-466.203 211.118,-455.814 203.017,-462.642 209.043,-466.203"/>
</g>
<!-- 22 -->
<g id="node23" class="node"><title>22</title>
<ellipse fill="none" stroke="black" cx="175" cy="-1121" rx="27" ry="18"/>
<text text-anchor="middle" x="175" y="-1117.3" font-family="Times New Roman,serif" font-size="14.00">p</text>
</g>
<!-- 16&#45;&gt;22 -->
<g id="edge24" class="edge"><title>16&#45;&gt;22</title>
<path fill="none" stroke="black" d="M180.827,-1065.71C181.708,-1073.82 181.959,-1083.78 181.577,-1092.94"/>
<polygon fill="black" stroke="black" points="178.068,-1092.95 180.84,-1103.17 185.05,-1093.45 178.068,-1092.95"/>
</g>
<!-- 17&#45;&gt;10 -->
<g id="edge95" class="edge"><title>17&#45;&gt;10</title>
<path fill="none" stroke="black" d="M208.392,-423.4C203.665,-417.494 198.842,-410.342 196,-403 193.26,-395.922 191.805,-387.88 191.078,-380.347"/>
<polygon fill="black" stroke="black" points="194.562,-379.965 190.477,-370.19 187.574,-380.379 194.562,-379.965"/>
<text text-anchor="middle" x="198" y="-391.8" font-family="Times New Roman,serif" font-size="14.00">l</text>
</g>
<!-- 17&#45;&gt;11 -->
<g id="edge58" class="edge"><title>17&#45;&gt;11</title>
<path fill="none" stroke="black" d="M235.467,-423.181C240.294,-417.248 245.421,-410.134 249,-403 252.557,-395.91 255.324,-387.786 257.422,-380.177"/>
<polygon fill="black" stroke="black" points="260.87,-380.814 259.881,-370.265 254.076,-379.128 260.87,-380.814"/>
</g>
<!-- 17&#45;&gt;16 -->
<g id="edge57" class="edge"><title>17&#45;&gt;16</title>
<path fill="none" stroke="black" d="M222.966,-457.25C223.843,-474.419 225,-501.522 225,-525 225,-962 225,-962 225,-962 225,-985.91 210.12,-1009.03 196.595,-1025.1"/>
<polygon fill="black" stroke="black" points="193.753,-1023.03 189.731,-1032.84 198.988,-1027.68 193.753,-1023.03"/>
<text text-anchor="middle" x="227" y="-739.8" font-family="Times New Roman,serif" font-size="14.00">l</text>
</g>
<!-- 18 -->
<g id="node19" class="node"><title>18</title>
<ellipse fill="none" stroke="black" cx="117" cy="-178" rx="27" ry="18"/>
<text text-anchor="middle" x="117" y="-174.3" font-family="Times New Roman,serif" font-size="14.00">e,p,i</text>
</g>
<!-- 19 -->
<g id="node20" class="node"><title>19</title>
<ellipse fill="none" stroke="black" cx="101" cy="-265" rx="27" ry="18"/>
<text text-anchor="middle" x="101" y="-261.3" font-family="Times New Roman,serif" font-size="14.00">p</text>
</g>
<!-- 18&#45;&gt;19 -->
<g id="edge78" class="edge"><title>18&#45;&gt;19</title>
<path fill="none" stroke="black" d="M113.822,-195.885C111.631,-207.525 108.67,-223.253 106.146,-236.664"/>
<polygon fill="black" stroke="black" points="102.648,-236.324 104.238,-246.799 109.527,-237.619 102.648,-236.324"/>
</g>
<!-- 19&#45;&gt;18 -->
<g id="edge79" class="edge"><title>19&#45;&gt;18</title>
<path fill="none" stroke="black" d="M107.081,-247.094C108.919,-241.41 110.773,-234.99 112,-229 113.5,-221.681 114.555,-213.663 115.297,-206.233"/>
<polygon fill="black" stroke="black" points="118.785,-206.517 116.148,-196.255 111.81,-205.921 118.785,-206.517"/>
<text text-anchor="middle" x="117" y="-217.8" font-family="Times New Roman,serif" font-size="14.00">l</text>
</g>
<!-- 38 -->
<g id="node39" class="node"><title>38</title>
<ellipse fill="none" stroke="black" cx="119" cy="-352" rx="27" ry="18"/>
<text text-anchor="middle" x="119" y="-348.3" font-family="Times New Roman,serif" font-size="14.00">e</text>
</g>
<!-- 19&#45;&gt;38 -->
<g id="edge77" class="edge"><title>19&#45;&gt;38</title>
<path fill="none" stroke="black" d="M104.576,-282.885C107.041,-294.525 110.371,-310.253 113.211,-323.664"/>
<polygon fill="black" stroke="black" points="109.862,-324.741 115.357,-333.799 116.71,-323.291 109.862,-324.741"/>
<text text-anchor="middle" x="114" y="-304.8" font-family="Times New Roman,serif" font-size="14.00">l</text>
</g>
<!-- 20 -->
<g id="node21" class="node"><title>20</title>
<ellipse fill="none" stroke="black" cx="226" cy="-1281" rx="27" ry="18"/>
<text text-anchor="middle" x="226" y="-1277.3" font-family="Times New Roman,serif" font-size="14.00">i</text>
</g>
<!-- 20&#45;&gt;24 -->
<g id="edge52" class="edge"><title>20&#45;&gt;24</title>
<path fill="none" stroke="black" d="M218.965,-1298.48C216.75,-1304.25 214.495,-1310.83 213,-1317 211.238,-1324.28 209.984,-1332.28 209.094,-1339.71"/>
<polygon fill="black" stroke="black" points="205.609,-1339.39 208.065,-1349.7 212.572,-1340.11 205.609,-1339.39"/>
<text text-anchor="middle" x="215" y="-1320.8" font-family="Times New Roman,serif" font-size="14.00">l</text>
</g>
<!-- 31 -->
<g id="node32" class="node"><title>31</title>
<ellipse fill="none" stroke="black" cx="254" cy="-1194" rx="27" ry="18"/>
<text text-anchor="middle" x="254" y="-1190.3" font-family="Times New Roman,serif" font-size="14.00">i</text>
</g>
<!-- 20&#45;&gt;31 -->
<g id="edge53" class="edge"><title>20&#45;&gt;31</title>
<path fill="none" stroke="black" d="M231.532,-1263.21C235.444,-1251.33 240.768,-1235.17 245.252,-1221.56"/>
<polygon fill="black" stroke="black" points="248.675,-1222.35 248.48,-1211.76 242.027,-1220.16 248.675,-1222.35"/>
<text text-anchor="middle" x="243.5" y="-1233.8" font-family="Times New Roman,serif" font-size="14.00">I</text>
</g>
<!-- 21 -->
<g id="node22" class="node"><title>21</title>
<ellipse fill="none" stroke="black" cx="175" cy="-1194" rx="27" ry="18"/>
<text text-anchor="middle" x="175" y="-1190.3" font-family="Times New Roman,serif" font-size="14.00">p</text>
</g>
<!-- 21&#45;&gt;22 -->
<g id="edge21" class="edge"><title>21&#45;&gt;22</title>
<path fill="none" stroke="black" d="M169.16,-1176.17C168.285,-1168.04 168.041,-1158.08 168.428,-1148.92"/>
<polygon fill="black" stroke="black" points="171.937,-1148.93 169.173,-1138.71 164.955,-1148.42 171.937,-1148.93"/>
</g>
<!-- 25 -->
<g id="node26" class="node"><title>25</title>
<ellipse fill="none" stroke="black" cx="154" cy="-1281" rx="27" ry="18"/>
</g>
<!-- 21&#45;&gt;25 -->
<g id="edge20" class="edge"><title>21&#45;&gt;25</title>
<path fill="none" stroke="black" d="M176.315,-1212.08C174.655,-1224.16 170.845,-1240.56 166.632,-1254.22"/>
<polygon fill="black" stroke="black" points="163.209,-1253.42 163.361,-1264.01 169.849,-1255.64 163.209,-1253.42"/>
</g>
<!-- 22&#45;&gt;16 -->
<g id="edge23" class="edge"><title>22&#45;&gt;16</title>
<path fill="none" stroke="black" d="M169.16,-1103.17C168.285,-1095.04 168.041,-1085.08 168.428,-1075.92"/>
<polygon fill="black" stroke="black" points="171.937,-1075.93 169.173,-1065.71 164.955,-1075.42 171.937,-1075.93"/>
</g>
<!-- 22&#45;&gt;21 -->
<g id="edge22" class="edge"><title>22&#45;&gt;21</title>
<path fill="none" stroke="black" d="M180.827,-1138.71C181.708,-1146.82 181.959,-1156.78 181.577,-1165.94"/>
<polygon fill="black" stroke="black" points="178.068,-1165.95 180.84,-1176.17 185.05,-1166.45 178.068,-1165.95"/>
</g>
<!-- 23 -->
<g id="node24" class="node"><title>23</title>
<ellipse fill="none" stroke="black" cx="103" cy="-1194" rx="27" ry="18"/>
<text text-anchor="middle" x="103" y="-1190.3" font-family="Times New Roman,serif" font-size="14.00">s</text>
</g>
<!-- 23&#45;&gt;25 -->
<g id="edge1" class="edge"><title>23&#45;&gt;25</title>
<path fill="none" stroke="black" d="M116.923,-1209.49C125.837,-1221.71 136.847,-1239.48 144.743,-1254.12"/>
<polygon fill="black" stroke="black" points="141.733,-1255.92 149.428,-1263.21 147.954,-1252.71 141.733,-1255.92"/>
</g>
<!-- 24&#45;&gt;15 -->
<g id="edge5" class="edge"><title>24&#45;&gt;15</title>
<path fill="none" stroke="black" d="M212.5,-1385.76C213.814,-1397.51 214.092,-1413.47 213.334,-1427"/>
<polygon fill="black" stroke="black" points="209.826,-1426.96 212.504,-1437.21 216.803,-1427.52 209.826,-1426.96"/>
</g>
<!-- 24&#45;&gt;20 -->
<g id="edge51" class="edge"><title>24&#45;&gt;20</title>
<path fill="none" stroke="black" d="M210.845,-1349.8C213.463,-1338.09 216.982,-1322.34 219.97,-1308.97"/>
<polygon fill="black" stroke="black" points="223.46,-1309.41 222.226,-1298.89 216.628,-1307.88 223.46,-1309.41"/>
</g>
<!-- 24&#45;&gt;25 -->
<g id="edge4" class="edge"><title>24&#45;&gt;25</title>
<path fill="none" stroke="black" d="M192.792,-1352.58C183.592,-1340.38 172.149,-1322.59 163.894,-1307.93"/>
<polygon fill="black" stroke="black" points="166.815,-1305.97 158.986,-1298.83 160.655,-1309.29 166.815,-1305.97"/>
</g>
<!-- 25&#45;&gt;21 -->
<g id="edge19" class="edge"><title>25&#45;&gt;21</title>
<path fill="none" stroke="black" d="M152.701,-1262.8C154.37,-1250.74 158.167,-1234.4 162.365,-1220.79"/>
<polygon fill="black" stroke="black" points="165.778,-1221.62 165.625,-1211.03 159.139,-1219.4 165.778,-1221.62"/>
</g>
<!-- 25&#45;&gt;23 -->
<g id="edge2" class="edge"><title>25&#45;&gt;23</title>
<path fill="none" stroke="black" d="M139.85,-1265.19C130.997,-1253.02 120.135,-1235.48 112.311,-1220.98"/>
<polygon fill="black" stroke="black" points="115.359,-1219.25 107.659,-1211.97 109.14,-1222.46 115.359,-1219.25"/>
</g>
<!-- 25&#45;&gt;24 -->
<g id="edge3" class="edge"><title>25&#45;&gt;24</title>
<path fill="none" stroke="black" d="M168.264,-1296.49C177.465,-1308.71 188.894,-1326.48 197.134,-1341.12"/>
<polygon fill="black" stroke="black" points="194.205,-1343.07 202.033,-1350.21 200.366,-1339.74 194.205,-1343.07"/>
</g>
<!-- 26&#45;&gt;4 -->
<g id="edge73" class="edge"><title>26&#45;&gt;4</title>
<path fill="none" stroke="black" d="M117.788,-457.175C116.967,-468.806 115.865,-484.419 114.925,-497.734"/>
<polygon fill="black" stroke="black" points="111.427,-497.577 114.214,-507.799 118.41,-498.07 111.427,-497.577"/>
<text text-anchor="middle" x="119" y="-478.8" font-family="Times New Roman,serif" font-size="14.00">l</text>
</g>
<!-- 26&#45;&gt;38 -->
<g id="edge38" class="edge"><title>26&#45;&gt;38</title>
<path fill="none" stroke="black" d="M113.496,-421.207C112.184,-409.448 111.908,-393.485 112.668,-379.958"/>
<polygon fill="black" stroke="black" points="116.176,-380.01 113.5,-369.758 109.199,-379.441 116.176,-380.01"/>
</g>
<!-- 27&#45;&gt;5 -->
<g id="edge11" class="edge"><title>27&#45;&gt;5</title>
<path fill="none" stroke="black" d="M85.246,-1758.59C80.917,-1750.18 76.4168,-1739.52 72.9982,-1729.79"/>
<polygon fill="black" stroke="black" points="76.2801,-1728.56 69.8797,-1720.12 69.618,-1730.71 76.2801,-1728.56"/>
</g>
<!-- 35 -->
<g id="node36" class="node"><title>35</title>
<ellipse fill="none" stroke="black" cx="141" cy="-1702" rx="27" ry="18"/>
<text text-anchor="middle" x="141" y="-1698.3" font-family="Times New Roman,serif" font-size="14.00">e,p,i</text>
</g>
<!-- 27&#45;&gt;35 -->
<g id="edge14" class="edge"><title>27&#45;&gt;35</title>
<path fill="none" stroke="black" d="M101.587,-1757.17C106.444,-1747.69 113.698,-1735.72 120.761,-1725.45"/>
<polygon fill="black" stroke="black" points="123.614,-1727.48 126.591,-1717.31 117.923,-1723.4 123.614,-1727.48"/>
</g>
<!-- 27&#45;&gt;44 -->
<g id="edge45" class="edge"><title>27&#45;&gt;44</title>
<path fill="none" stroke="black" d="M103.112,-1792.76C107.482,-1804.74 113.45,-1821.1 118.446,-1834.8"/>
<polygon fill="black" stroke="black" points="115.161,-1836.01 121.875,-1844.21 121.737,-1833.61 115.161,-1836.01"/>
</g>
<!-- 28&#45;&gt;7 -->
<g id="edge68" class="edge"><title>28&#45;&gt;7</title>
<path fill="none" stroke="black" d="M87.8652,-681.95C88.2369,-672.1 89.4869,-659.6 93,-649 94.1844,-645.427 95.7815,-641.829 97.5691,-638.371"/>
<polygon fill="black" stroke="black" points="100.63,-640.069 102.593,-629.657 94.5662,-636.572 100.63,-640.069"/>
<text text-anchor="middle" x="96.5" y="-652.8" font-family="Times New Roman,serif" font-size="14.00">k</text>
</g>
<!-- 28&#45;&gt;30 -->
<g id="edge66" class="edge"><title>28&#45;&gt;30</title>
<path fill="none" stroke="black" d="M67.8669,-687.917C59.0704,-682 49.5189,-673.887 44,-664 40.1914,-657.177 38.3108,-649.024 37.4762,-641.301"/>
<polygon fill="black" stroke="black" points="40.9641,-640.988 36.9036,-631.202 33.9753,-641.384 40.9641,-640.988"/>
<text text-anchor="middle" x="46" y="-652.8" font-family="Times New Roman,serif" font-size="14.00">l</text>
</g>
<!-- 28&#45;&gt;43 -->
<g id="edge40" class="edge"><title>28&#45;&gt;43</title>
<path fill="none" stroke="black" d="M93.4998,-717.758C94.8141,-729.508 95.0921,-745.47 94.3339,-759.002"/>
<polygon fill="black" stroke="black" points="90.8262,-758.956 93.5037,-769.207 97.8032,-759.524 90.8262,-758.956"/>
</g>
<!-- 29 -->
<g id="node30" class="node"><title>29</title>
<ellipse fill="none" stroke="black" cx="135" cy="-1528" rx="27" ry="18"/>
<text text-anchor="middle" x="135" y="-1524.3" font-family="Times New Roman,serif" font-size="14.00">p</text>
</g>
<!-- 29&#45;&gt;32 -->
<g id="edge36" class="edge"><title>29&#45;&gt;32</title>
<path fill="none" stroke="black" d="M129.16,-1510.17C128.285,-1502.04 128.041,-1492.08 128.428,-1482.92"/>
<polygon fill="black" stroke="black" points="131.937,-1482.93 129.173,-1472.71 124.955,-1482.42 131.937,-1482.93"/>
</g>
<!-- 29&#45;&gt;34 -->
<g id="edge50" class="edge"><title>29&#45;&gt;34</title>
<path fill="none" stroke="black" d="M136.212,-1546.18C137.033,-1557.81 138.135,-1573.42 139.075,-1586.73"/>
<polygon fill="black" stroke="black" points="135.59,-1587.07 139.786,-1596.8 142.573,-1586.58 135.59,-1587.07"/>
<text text-anchor="middle" x="143" y="-1567.8" font-family="Times New Roman,serif" font-size="14.00">b</text>
</g>
<!-- 30&#45;&gt;12 -->
<g id="edge87" class="edge"><title>30&#45;&gt;12</title>
<path fill="none" stroke="black" d="M37.5953,-594.799C37.3215,-583.163 36.9541,-567.548 36.6409,-554.237"/>
<polygon fill="black" stroke="black" points="40.1385,-554.09 36.4041,-544.175 33.1404,-554.255 40.1385,-554.09"/>
<text text-anchor="middle" x="40" y="-565.8" font-family="Times New Roman,serif" font-size="14.00">l</text>
</g>
<!-- 30&#45;&gt;28 -->
<g id="edge67" class="edge"><title>30&#45;&gt;28</title>
<path fill="none" stroke="black" d="M47.3624,-629.916C54.6839,-642.363 64.9953,-659.892 73.399,-674.178"/>
<polygon fill="black" stroke="black" points="70.5084,-676.167 78.5954,-683.012 76.5419,-672.618 70.5084,-676.167"/>
</g>
<!-- 31&#45;&gt;20 -->
<g id="edge54" class="edge"><title>31&#45;&gt;20</title>
<path fill="none" stroke="black" d="M241.733,-1210.17C237.631,-1216.03 233.477,-1223.01 231,-1230 228.465,-1237.15 227.076,-1245.22 226.346,-1252.75"/>
<polygon fill="black" stroke="black" points="222.843,-1252.69 225.703,-1262.89 229.829,-1253.14 222.843,-1252.69"/>
<text text-anchor="middle" x="233.5" y="-1233.8" font-family="Times New Roman,serif" font-size="14.00">I</text>
</g>
<!-- 32&#45;&gt;14 -->
<g id="edge41" class="edge"><title>32&#45;&gt;14</title>
<path fill="none" stroke="black" d="M129.15,-1437.11C127.458,-1431.43 125.841,-1425.01 125,-1419 123.98,-1411.72 123.853,-1403.78 124.141,-1396.42"/>
<polygon fill="black" stroke="black" points="127.649,-1396.4 124.802,-1386.2 120.664,-1395.95 127.649,-1396.4"/>
</g>
<!-- 32&#45;&gt;29 -->
<g id="edge35" class="edge"><title>32&#45;&gt;29</title>
<path fill="none" stroke="black" d="M140.827,-1472.71C141.708,-1480.82 141.959,-1490.78 141.577,-1499.94"/>
<polygon fill="black" stroke="black" points="138.068,-1499.95 140.84,-1510.17 145.05,-1500.45 138.068,-1499.95"/>
</g>
<!-- 33&#45;&gt;15 -->
<g id="edge8" class="edge"><title>33&#45;&gt;15</title>
<path fill="none" stroke="black" d="M201.16,-1510.17C200.285,-1502.04 200.041,-1492.08 200.428,-1482.92"/>
<polygon fill="black" stroke="black" points="203.937,-1482.93 201.173,-1472.71 196.955,-1482.42 203.937,-1482.93"/>
</g>
<!-- 33&#45;&gt;31 -->
<g id="edge55" class="edge"><title>33&#45;&gt;31</title>
<path fill="none" stroke="black" d="M229.202,-1517.19C251,-1505.87 281,-1485.02 281,-1456 281,-1456 281,-1456 281,-1280 281,-1259.36 273.676,-1237.16 266.658,-1220.63"/>
<polygon fill="black" stroke="black" points="269.683,-1218.82 262.395,-1211.13 263.297,-1221.69 269.683,-1218.82"/>
</g>
<!-- 33&#45;&gt;34 -->
<g id="edge9" class="edge"><title>33&#45;&gt;34</title>
<path fill="none" stroke="black" d="M199.633,-1545.54C190.697,-1559.02 176,-1578.14 163.432,-1592.75"/>
<polygon fill="black" stroke="black" points="160.723,-1590.53 156.719,-1600.34 165.966,-1595.17 160.723,-1590.53"/>
</g>
<!-- 34&#45;&gt;2 -->
<g id="edge15" class="edge"><title>34&#45;&gt;2</title>
<path fill="none" stroke="black" d="M123.75,-1600.72C110.318,-1588.03 92.1347,-1568.62 79.0331,-1553.18"/>
<polygon fill="black" stroke="black" points="81.4092,-1550.56 72.3397,-1545.09 76.0143,-1555.02 81.4092,-1550.56"/>
</g>
<!-- 34&#45;&gt;29 -->
<g id="edge49" class="edge"><title>34&#45;&gt;29</title>
<path fill="none" stroke="black" d="M133.541,-1597.61C131.292,-1591.85 129.124,-1585.25 128,-1579 126.651,-1571.49 127.028,-1563.32 128.112,-1555.79"/>
<polygon fill="black" stroke="black" points="131.598,-1556.19 130.012,-1545.72 124.719,-1554.9 131.598,-1556.19"/>
<text text-anchor="middle" x="132" y="-1567.8" font-family="Times New Roman,serif" font-size="14.00">b</text>
</g>
<!-- 34&#45;&gt;33 -->
<g id="edge10" class="edge"><title>34&#45;&gt;33</title>
<path fill="none" stroke="black" d="M148.267,-1597.61C157.158,-1584.18 171.836,-1565.06 184.417,-1550.42"/>
<polygon fill="black" stroke="black" points="187.143,-1552.62 191.141,-1542.81 181.897,-1547.99 187.143,-1552.62"/>
</g>
<!-- 34&#45;&gt;35 -->
<g id="edge43" class="edge"><title>34&#45;&gt;35</title>
<path fill="none" stroke="black" d="M141,-1633.18C141,-1644.81 141,-1660.42 141,-1673.73"/>
<polygon fill="black" stroke="black" points="137.5,-1673.8 141,-1683.8 144.5,-1673.8 137.5,-1673.8"/>
</g>
<!-- 35&#45;&gt;27 -->
<g id="edge13" class="edge"><title>35&#45;&gt;27</title>
<path fill="none" stroke="black" d="M136.404,-1719.84C131.604,-1729.21 124.465,-1741.01 117.484,-1751.19"/>
<polygon fill="black" stroke="black" points="114.42,-1749.46 111.453,-1759.63 120.115,-1753.53 114.42,-1749.46"/>
</g>
<!-- 35&#45;&gt;34 -->
<g id="edge44" class="edge"><title>35&#45;&gt;34</title>
<path fill="none" stroke="black" d="M139.242,-1683.93C138.735,-1678.23 138.25,-1671.85 138,-1666 137.685,-1658.64 137.907,-1650.69 138.344,-1643.33"/>
<polygon fill="black" stroke="black" points="141.852,-1643.35 139.103,-1633.12 134.872,-1642.83 141.852,-1643.35"/>
<text text-anchor="middle" x="140" y="-1654.8" font-family="Times New Roman,serif" font-size="14.00">l</text>
</g>
<!-- 36 -->
<g id="node37" class="node"><title>36</title>
<ellipse fill="none" stroke="black" cx="171" cy="-1775" rx="27" ry="18"/>
<text text-anchor="middle" x="171" y="-1771.3" font-family="Times New Roman,serif" font-size="14.00">e,p,i</text>
</g>
<!-- 36&#45;&gt;44 -->
<g id="edge48" class="edge"><title>36&#45;&gt;44</title>
<path fill="none" stroke="black" d="M165.152,-1793.04C161.536,-1802.89 156.536,-1815.39 151,-1826 149.124,-1829.6 146.973,-1833.29 144.757,-1836.86"/>
<polygon fill="black" stroke="black" points="141.736,-1835.08 139.231,-1845.38 147.609,-1838.89 141.736,-1835.08"/>
<text text-anchor="middle" x="159" y="-1814.8" font-family="Times New Roman,serif" font-size="14.00">l</text>
</g>
<!-- 37 -->
<g id="node38" class="node"><title>37</title>
<ellipse fill="none" stroke="black" cx="173" cy="-265" rx="27" ry="18"/>
<text text-anchor="middle" x="173" y="-261.3" font-family="Times New Roman,serif" font-size="14.00">m</text>
</g>
<!-- 37&#45;&gt;38 -->
<g id="edge75" class="edge"><title>37&#45;&gt;38</title>
<path fill="none" stroke="black" d="M162.889,-281.916C154.981,-294.363 143.845,-311.892 134.769,-326.178"/>
<polygon fill="black" stroke="black" points="131.565,-324.695 129.157,-335.012 137.474,-328.448 131.565,-324.695"/>
<text text-anchor="middle" x="151" y="-304.8" font-family="Times New Roman,serif" font-size="14.00">l</text>
</g>
<!-- 37&#45;&gt;42 -->
<g id="edge80" class="edge"><title>37&#45;&gt;42</title>
<path fill="none" stroke="black" d="M179.322,-247.207C183.836,-235.216 189.997,-218.851 195.153,-205.157"/>
<polygon fill="black" stroke="black" points="198.443,-206.35 198.691,-195.758 191.892,-203.884 198.443,-206.35"/>
</g>
<!-- 38&#45;&gt;19 -->
<g id="edge76" class="edge"><title>38&#45;&gt;19</title>
<path fill="none" stroke="black" d="M108.328,-335.315C104.973,-329.508 101.702,-322.701 100,-316 98.1409,-308.679 97.6609,-300.559 97.8374,-293.029"/>
<polygon fill="black" stroke="black" points="101.339,-293.114 98.4486,-282.921 94.3513,-292.692 101.339,-293.114"/>
</g>
<!-- 38&#45;&gt;26 -->
<g id="edge37" class="edge"><title>38&#45;&gt;26</title>
<path fill="none" stroke="black" d="M124.5,-369.758C125.814,-381.508 126.092,-397.47 125.334,-411.002"/>
<polygon fill="black" stroke="black" points="121.826,-410.956 124.504,-421.207 128.803,-411.524 121.826,-410.956"/>
</g>
<!-- 38&#45;&gt;37 -->
<g id="edge74" class="edge"><title>38&#45;&gt;37</title>
<path fill="none" stroke="black" d="M133.851,-336.901C139.691,-330.843 146.145,-323.45 151,-316 155.733,-308.737 159.891,-300.287 163.281,-292.422"/>
<polygon fill="black" stroke="black" points="166.625,-293.489 167.15,-282.908 160.141,-290.853 166.625,-293.489"/>
<text text-anchor="middle" x="161" y="-304.8" font-family="Times New Roman,serif" font-size="14.00">l</text>
</g>
<!-- 40 -->
<g id="node41" class="node"><title>40</title>
<ellipse fill="none" stroke="black" cx="205" cy="-18" rx="27" ry="18"/>
<text text-anchor="middle" x="205" y="-14.3" font-family="Times New Roman,serif" font-size="14.00">K,p</text>
</g>
<!-- 39&#45;&gt;40 -->
<g id="edge83" class="edge"><title>39&#45;&gt;40</title>
<path fill="none" stroke="black" d="M198.112,-87.5563C196.036,-81.7939 194.035,-75.2095 193,-69 191.709,-61.2511 192.723,-52.9213 194.61,-45.3257"/>
<polygon fill="black" stroke="black" points="198.023,-46.1326 197.591,-35.5466 191.328,-44.0917 198.023,-46.1326"/>
<text text-anchor="middle" x="196.5" y="-57.8" font-family="Times New Roman,serif" font-size="14.00">k</text>
</g>
<!-- 39&#45;&gt;42 -->
<g id="edge30" class="edge"><title>39&#45;&gt;42</title>
<path fill="none" stroke="black" d="M210.827,-122.705C211.708,-130.822 211.959,-140.78 211.577,-149.942"/>
<polygon fill="black" stroke="black" points="208.068,-149.948 210.84,-160.174 215.05,-150.452 208.068,-149.948"/>
</g>
<!-- 40&#45;&gt;39 -->
<g id="edge84" class="edge"><title>40&#45;&gt;39</title>
<path fill="none" stroke="black" d="M205,-36.1754C205,-47.806 205,-63.4194 205,-76.7339"/>
<polygon fill="black" stroke="black" points="201.5,-76.7989 205,-86.799 208.5,-76.799 201.5,-76.7989"/>
<text text-anchor="middle" x="208.5" y="-57.8" font-family="Times New Roman,serif" font-size="14.00">k</text>
</g>
<!-- 41&#45;&gt;3 -->
<g id="edge26" class="edge"><title>41&#45;&gt;3</title>
<path fill="none" stroke="black" d="M310.212,-195.83C303.705,-208.833 292.796,-226.962 282.969,-241.256"/>
<polygon fill="black" stroke="black" points="279.99,-239.406 277.038,-249.581 285.691,-243.467 279.99,-239.406"/>
</g>
<!-- 42&#45;&gt;37 -->
<g id="edge81" class="edge"><title>42&#45;&gt;37</title>
<path fill="none" stroke="black" d="M191.468,-193.63C186.751,-199.539 181.914,-206.687 179,-214 176.185,-221.066 174.59,-229.104 173.711,-236.637"/>
<polygon fill="black" stroke="black" points="170.207,-236.548 172.893,-246.797 177.184,-237.11 170.207,-236.548"/>
<text text-anchor="middle" x="181" y="-217.8" font-family="Times New Roman,serif" font-size="14.00">l</text>
</g>
<!-- 42&#45;&gt;39 -->
<g id="edge29" class="edge"><title>42&#45;&gt;39</title>
<path fill="none" stroke="black" d="M199.16,-160.174C198.285,-152.039 198.041,-142.076 198.428,-132.921"/>
<polygon fill="black" stroke="black" points="201.937,-132.933 199.173,-122.705 194.955,-132.424 201.937,-132.933"/>
</g>
<!-- 43&#45;&gt;9 -->
<g id="edge65" class="edge"><title>43&#45;&gt;9</title>
<path fill="none" stroke="black" d="M92.2122,-805.049C95.1419,-816.908 99.1055,-832.951 102.446,-846.471"/>
<polygon fill="black" stroke="black" points="99.0547,-847.338 104.851,-856.207 105.85,-845.659 99.0547,-847.338"/>
<text text-anchor="middle" x="102" y="-826.8" font-family="Times New Roman,serif" font-size="14.00">l</text>
</g>
<!-- 43&#45;&gt;28 -->
<g id="edge39" class="edge"><title>43&#45;&gt;28</title>
<path fill="none" stroke="black" d="M82.4963,-769.207C81.1841,-757.448 80.9081,-741.485 81.6683,-727.958"/>
<polygon fill="black" stroke="black" points="85.1756,-728.01 82.5002,-717.758 78.1988,-727.441 85.1756,-728.01"/>
</g>
<!-- 44&#45;&gt;0 -->
<g id="edge34" class="edge"><title>44&#45;&gt;0</title>
<path fill="none" stroke="black" d="M125.707,-1880.03C122.357,-1889.01 117.195,-1900.18 111.904,-1910.03"/>
<polygon fill="black" stroke="black" points="108.736,-1908.52 106.847,-1918.94 114.824,-1911.97 108.736,-1908.52"/>
</g>
<!-- 44&#45;&gt;27 -->
<g id="edge46" class="edge"><title>44&#45;&gt;27</title>
<path fill="none" stroke="black" d="M114.733,-1845.95C110.281,-1840.1 105.753,-1833.1 103,-1826 100.251,-1818.91 98.677,-1810.86 97.7975,-1803.33"/>
<polygon fill="black" stroke="black" points="101.271,-1802.86 96.9662,-1793.17 94.2939,-1803.43 101.271,-1802.86"/>
<text text-anchor="middle" x="105" y="-1814.8" font-family="Times New Roman,serif" font-size="14.00">l</text>
</g>
<!-- 44&#45;&gt;36 -->
<g id="edge47" class="edge"><title>44&#45;&gt;36</title>
<path fill="none" stroke="black" d="M136.291,-1844.61C142.477,-1832.38 151.047,-1815.44 158.122,-1801.46"/>
<polygon fill="black" stroke="black" points="161.344,-1802.84 162.735,-1792.34 155.097,-1799.68 161.344,-1802.84"/>
</g>
<!-- 45 -->
<g id="node46" class="node"><title>45</title>
<ellipse fill="none" stroke="black" cx="27" cy="-265" rx="27" ry="18"/>
<text text-anchor="middle" x="27" y="-261.3" font-family="Times New Roman,serif" font-size="14.00">t</text>
</g>
<!-- 45&#45;&gt;46 -->
<g id="edge94" class="edge"><title>45&#45;&gt;46</title>
<path fill="none" stroke="black" d="M27.4041,-283.175C27.6778,-294.806 28.0452,-310.419 28.3584,-323.734"/>
<polygon fill="black" stroke="black" points="24.8609,-323.884 28.5953,-333.799 31.859,-323.719 24.8609,-323.884"/>
<text text-anchor="middle" x="31" y="-304.8" font-family="Times New Roman,serif" font-size="14.00">l</text>
</g>
<!-- 46&#45;&gt;8 -->
<g id="edge92" class="edge"><title>46&#45;&gt;8</title>
<path fill="none" stroke="black" d="M34.8498,-369.885C36.5419,-375.568 38.1585,-381.992 39,-388 40.0363,-395.399 39.8196,-403.443 39.0724,-410.873"/>
<polygon fill="black" stroke="black" points="35.5966,-410.459 37.7381,-420.836 42.5346,-411.389 35.5966,-410.459"/>
<text text-anchor="middle" x="45" y="-391.8" font-family="Times New Roman,serif" font-size="14.00">K</text>
</g>
<!-- 46&#45;&gt;45 -->
<g id="edge93" class="edge"><title>46&#45;&gt;45</title>
<path fill="none" stroke="black" d="M28.6938,-333.875C28.512,-324.22 28.2656,-311.936 28,-301 27.938,-298.448 27.8695,-295.791 27.7981,-293.132"/>
<polygon fill="black" stroke="black" points="31.2956,-292.987 27.5176,-283.089 24.2983,-293.183 31.2956,-292.987"/>
<text text-anchor="middle" x="31" y="-304.8" font-family="Times New Roman,serif" font-size="14.00">l</text>
</g>
</g>
</svg>
