<?xml version="1.0" encoding="UTF-8" standalone="no"?>
<!DOCTYPE svg PUBLIC "-//W3C//DTD SVG 1.1//EN"
 "http://www.w3.org/Graphics/SVG/1.1/DTD/svg11.dtd">
<!-- Generated by graphviz version 2.38.0 (20140413.2041)
 -->
<!-- Title: %3 Pages: 1 -->
<svg width="680pt" height="1832pt"
 viewBox="0.00 0.00 680.00 1832.00" xmlns="http://www.w3.org/2000/svg" xmlns:xlink="http://www.w3.org/1999/xlink">
<g id="graph0" class="graph" transform="scale(1 1) rotate(0) translate(4 1828)">
<title>%3</title>
<polygon fill="white" stroke="none" points="-4,4 -4,-1828 676,-1828 676,4 -4,4"/>
<!-- 0 -->
<g id="node1" class="node"><title>0</title>
<ellipse fill="none" stroke="black" cx="635" cy="-1806" rx="27" ry="18"/>
<text text-anchor="middle" x="635" y="-1802.3" font-family="Times New Roman,serif" font-size="14.00">p</text>
</g>
<!-- 17 -->
<g id="node18" class="node"><title>17</title>
<ellipse fill="none" stroke="black" cx="594" cy="-1733" rx="27" ry="18"/>
<text text-anchor="middle" x="594" y="-1729.3" font-family="Times New Roman,serif" font-size="14.00">e,p</text>
</g>
<!-- 0&#45;&gt;17 -->
<g id="edge21" class="edge"><title>0&#45;&gt;17</title>
<path fill="none" stroke="black" d="M620.912,-1790.29C614.737,-1781.52 607.853,-1770.14 602.432,-1759.9"/>
<polygon fill="black" stroke="black" points="605.545,-1758.3 597.929,-1750.94 599.29,-1761.44 605.545,-1758.3"/>
</g>
<!-- 18 -->
<g id="node19" class="node"><title>18</title>
<ellipse fill="none" stroke="black" cx="637" cy="-1225" rx="27" ry="18"/>
<text text-anchor="middle" x="637" y="-1221.3" font-family="Times New Roman,serif" font-size="14.00">e,k</text>
</g>
<!-- 0&#45;&gt;18 -->
<g id="edge20" class="edge"><title>0&#45;&gt;18</title>
<path fill="none" stroke="black" d="M638.61,-1787.94C644.768,-1774 654,-1753.48 654,-1734 654,-1734 654,-1734 654,-1297 654,-1281.77 648.662,-1265.77 643.661,-1252.82"/>
<polygon fill="black" stroke="black" points="646.771,-1251.16 639.831,-1243.16 640.264,-1253.74 646.771,-1251.16"/>
</g>
<!-- 1 -->
<g id="node2" class="node"><title>1</title>
<ellipse fill="none" stroke="black" cx="27" cy="-1385" rx="27" ry="18"/>
<text text-anchor="middle" x="27" y="-1381.3" font-family="Times New Roman,serif" font-size="14.00">b</text>
</g>
<!-- 2 -->
<g id="node3" class="node"><title>2</title>
<ellipse fill="none" stroke="black" cx="99" cy="-1298" rx="27" ry="18"/>
<text text-anchor="middle" x="99" y="-1294.3" font-family="Times New Roman,serif" font-size="14.00">e,i,p</text>
</g>
<!-- 1&#45;&gt;2 -->
<g id="edge27" class="edge"><title>1&#45;&gt;2</title>
<path fill="none" stroke="black" d="M39.8722,-1368.8C50.9298,-1355.75 67.0359,-1336.74 79.647,-1321.85"/>
<polygon fill="black" stroke="black" points="82.4465,-1323.96 86.2393,-1314.06 77.1051,-1319.43 82.4465,-1323.96"/>
</g>
<!-- 19 -->
<g id="node20" class="node"><title>19</title>
<ellipse fill="none" stroke="black" cx="27" cy="-1298" rx="27" ry="18"/>
<text text-anchor="middle" x="27" y="-1294.3" font-family="Times New Roman,serif" font-size="14.00">t</text>
</g>
<!-- 1&#45;&gt;19 -->
<g id="edge70" class="edge"><title>1&#45;&gt;19</title>
<path fill="none" stroke="black" d="M21.4963,-1367.21C20.1841,-1355.45 19.9081,-1339.48 20.6683,-1325.96"/>
<polygon fill="black" stroke="black" points="24.1756,-1326.01 21.5002,-1315.76 17.1988,-1325.44 24.1756,-1326.01"/>
</g>
<!-- 13 -->
<g id="node14" class="node"><title>13</title>
<ellipse fill="none" stroke="black" cx="177" cy="-1385" rx="27" ry="18"/>
<text text-anchor="middle" x="177" y="-1381.3" font-family="Times New Roman,serif" font-size="14.00">e,p</text>
</g>
<!-- 2&#45;&gt;13 -->
<g id="edge2" class="edge"><title>2&#45;&gt;13</title>
<path fill="none" stroke="black" d="M112.431,-1313.64C124.572,-1326.87 142.624,-1346.54 156.556,-1361.72"/>
<polygon fill="black" stroke="black" points="154.073,-1364.19 163.413,-1369.19 159.231,-1359.46 154.073,-1364.19"/>
<text text-anchor="middle" x="151" y="-1337.8" font-family="Times New Roman,serif" font-size="14.00">S2</text>
</g>
<!-- 3 -->
<g id="node4" class="node"><title>3</title>
<ellipse fill="none" stroke="black" cx="420" cy="-818" rx="27" ry="18"/>
<text text-anchor="middle" x="420" y="-814.3" font-family="Times New Roman,serif" font-size="14.00">e,p</text>
</g>
<!-- 10 -->
<g id="node11" class="node"><title>10</title>
<ellipse fill="none" stroke="black" cx="426" cy="-905" rx="40.8928" ry="18"/>
<text text-anchor="middle" x="426" y="-901.3" font-family="Times New Roman,serif" font-size="14.00">e,p,k,S1</text>
</g>
<!-- 3&#45;&gt;10 -->
<g id="edge77" class="edge"><title>3&#45;&gt;10</title>
<path fill="none" stroke="black" d="M418.027,-836.171C417.238,-845.84 416.773,-858.123 418,-869 418.304,-871.694 418.736,-874.484 419.243,-877.258"/>
<polygon fill="black" stroke="black" points="415.819,-877.986 421.317,-887.042 422.667,-876.534 415.819,-877.986"/>
<text text-anchor="middle" x="420" y="-857.8" font-family="Times New Roman,serif" font-size="14.00">l</text>
</g>
<!-- 29 -->
<g id="node30" class="node"><title>29</title>
<ellipse fill="none" stroke="black" cx="420" cy="-745" rx="27" ry="18"/>
<text text-anchor="middle" x="420" y="-741.3" font-family="Times New Roman,serif" font-size="14.00">e,p</text>
</g>
<!-- 3&#45;&gt;29 -->
<g id="edge30" class="edge"><title>3&#45;&gt;29</title>
<path fill="none" stroke="black" d="M420,-799.813C420,-791.789 420,-782.047 420,-773.069"/>
<polygon fill="black" stroke="black" points="423.5,-773.029 420,-763.029 416.5,-773.029 423.5,-773.029"/>
</g>
<!-- 4 -->
<g id="node5" class="node"><title>4</title>
<ellipse fill="none" stroke="black" cx="473" cy="-237" rx="33.2948" ry="18"/>
<text text-anchor="middle" x="473" y="-233.3" font-family="Times New Roman,serif" font-size="14.00">e,i,p,k</text>
</g>
<!-- 5 -->
<g id="node6" class="node"><title>5</title>
<ellipse fill="none" stroke="black" cx="477" cy="-324" rx="27" ry="18"/>
<text text-anchor="middle" x="477" y="-320.3" font-family="Times New Roman,serif" font-size="14.00">p</text>
</g>
<!-- 4&#45;&gt;5 -->
<g id="edge67" class="edge"><title>4&#45;&gt;5</title>
<path fill="none" stroke="black" d="M473.808,-255.175C474.356,-266.806 475.09,-282.419 475.717,-295.734"/>
<polygon fill="black" stroke="black" points="472.224,-295.975 476.191,-305.799 479.217,-295.645 472.224,-295.975"/>
<text text-anchor="middle" x="478" y="-276.8" font-family="Times New Roman,serif" font-size="14.00">l</text>
</g>
<!-- 32 -->
<g id="node33" class="node"><title>32</title>
<ellipse fill="none" stroke="black" cx="473" cy="-164" rx="28.6953" ry="18"/>
<text text-anchor="middle" x="473" y="-160.3" font-family="Times New Roman,serif" font-size="14.00">k,p,e</text>
</g>
<!-- 4&#45;&gt;32 -->
<g id="edge9" class="edge"><title>4&#45;&gt;32</title>
<path fill="none" stroke="black" d="M467.16,-219.174C466.285,-211.039 466.041,-201.076 466.428,-191.921"/>
<polygon fill="black" stroke="black" points="469.937,-191.933 467.173,-181.705 462.955,-191.424 469.937,-191.933"/>
</g>
<!-- 5&#45;&gt;4 -->
<g id="edge66" class="edge"><title>5&#45;&gt;4</title>
<path fill="none" stroke="black" d="M472.317,-306.042C470.964,-300.354 469.671,-293.946 469,-288 468.164,-280.589 468.335,-272.541 468.933,-265.111"/>
<polygon fill="black" stroke="black" points="472.414,-265.467 470.001,-255.151 465.454,-264.72 472.414,-265.467"/>
<text text-anchor="middle" x="471" y="-276.8" font-family="Times New Roman,serif" font-size="14.00">l</text>
</g>
<!-- 30 -->
<g id="node31" class="node"><title>30</title>
<ellipse fill="none" stroke="black" cx="477" cy="-397" rx="27" ry="18"/>
<text text-anchor="middle" x="477" y="-393.3" font-family="Times New Roman,serif" font-size="14.00">K</text>
</g>
<!-- 5&#45;&gt;30 -->
<g id="edge7" class="edge"><title>5&#45;&gt;30</title>
<path fill="none" stroke="black" d="M482.827,-341.705C483.708,-349.822 483.959,-359.78 483.577,-368.942"/>
<polygon fill="black" stroke="black" points="480.068,-368.948 482.84,-379.174 487.05,-369.452 480.068,-368.948"/>
</g>
<!-- 6 -->
<g id="node7" class="node"><title>6</title>
<ellipse fill="none" stroke="black" cx="489" cy="-1152" rx="27" ry="18"/>
<text text-anchor="middle" x="489" y="-1148.3" font-family="Times New Roman,serif" font-size="14.00">p</text>
</g>
<!-- 7 -->
<g id="node8" class="node"><title>7</title>
<ellipse fill="none" stroke="black" cx="489" cy="-1225" rx="27" ry="18"/>
<text text-anchor="middle" x="489" y="-1221.3" font-family="Times New Roman,serif" font-size="14.00">p</text>
</g>
<!-- 6&#45;&gt;7 -->
<g id="edge65" class="edge"><title>6&#45;&gt;7</title>
<path fill="none" stroke="black" d="M494.827,-1169.71C495.708,-1177.82 495.959,-1187.78 495.577,-1196.94"/>
<polygon fill="black" stroke="black" points="492.068,-1196.95 494.84,-1207.17 499.05,-1197.45 492.068,-1196.95"/>
</g>
<!-- 7&#45;&gt;6 -->
<g id="edge64" class="edge"><title>7&#45;&gt;6</title>
<path fill="none" stroke="black" d="M483.16,-1207.17C482.285,-1199.04 482.041,-1189.08 482.428,-1179.92"/>
<polygon fill="black" stroke="black" points="485.937,-1179.93 483.173,-1169.71 478.955,-1179.42 485.937,-1179.93"/>
</g>
<!-- 15 -->
<g id="node16" class="node"><title>15</title>
<ellipse fill="none" stroke="black" cx="417" cy="-1152" rx="27" ry="18"/>
<text text-anchor="middle" x="417" y="-1148.3" font-family="Times New Roman,serif" font-size="14.00">e</text>
</g>
<!-- 7&#45;&gt;15 -->
<g id="edge62" class="edge"><title>7&#45;&gt;15</title>
<path fill="none" stroke="black" d="M470.812,-1211.31C459.585,-1201.65 445.472,-1188.09 434.409,-1176.47"/>
<polygon fill="black" stroke="black" points="436.675,-1173.77 427.31,-1168.81 431.542,-1178.53 436.675,-1173.77"/>
</g>
<!-- 16 -->
<g id="node17" class="node"><title>16</title>
<ellipse fill="none" stroke="black" cx="489" cy="-1298" rx="27" ry="18"/>
<text text-anchor="middle" x="489" y="-1294.3" font-family="Times New Roman,serif" font-size="14.00">p</text>
</g>
<!-- 7&#45;&gt;16 -->
<g id="edge60" class="edge"><title>7&#45;&gt;16</title>
<path fill="none" stroke="black" d="M494.827,-1242.71C495.708,-1250.82 495.959,-1260.78 495.577,-1269.94"/>
<polygon fill="black" stroke="black" points="492.068,-1269.95 494.84,-1280.17 499.05,-1270.45 492.068,-1269.95"/>
</g>
<!-- 7&#45;&gt;32 -->
<g id="edge58" class="edge"><title>7&#45;&gt;32</title>
<path fill="none" stroke="black" d="M462.222,-1221.16C403.176,-1214.14 267,-1193.57 267,-1153 267,-1153 267,-1153 267,-236 267,-200.849 375.561,-179.317 435.065,-170.155"/>
<polygon fill="black" stroke="black" points="435.845,-173.577 445.218,-168.638 434.811,-166.654 435.845,-173.577"/>
<text text-anchor="middle" x="270.5" y="-697.8" font-family="Times New Roman,serif" font-size="14.00">k</text>
</g>
<!-- 8 -->
<g id="node9" class="node"><title>8</title>
<ellipse fill="none" stroke="black" cx="419" cy="-992" rx="27" ry="18"/>
<text text-anchor="middle" x="419" y="-988.3" font-family="Times New Roman,serif" font-size="14.00">p</text>
</g>
<!-- 9 -->
<g id="node10" class="node"><title>9</title>
<ellipse fill="none" stroke="black" cx="417" cy="-1079" rx="27" ry="18"/>
<text text-anchor="middle" x="417" y="-1075.3" font-family="Times New Roman,serif" font-size="14.00">e,p</text>
</g>
<!-- 8&#45;&gt;9 -->
<g id="edge42" class="edge"><title>8&#45;&gt;9</title>
<path fill="none" stroke="black" d="M414.317,-1009.96C412.964,-1015.65 411.671,-1022.05 411,-1028 410.161,-1035.44 410.554,-1043.5 411.45,-1050.93"/>
<polygon fill="black" stroke="black" points="408.001,-1051.53 412.974,-1060.88 414.92,-1050.47 408.001,-1051.53"/>
<text text-anchor="middle" x="413" y="-1031.8" font-family="Times New Roman,serif" font-size="14.00">l</text>
</g>
<!-- 8&#45;&gt;10 -->
<g id="edge74" class="edge"><title>8&#45;&gt;10</title>
<path fill="none" stroke="black" d="M420.417,-973.799C421.375,-962.163 422.661,-946.548 423.757,-933.237"/>
<polygon fill="black" stroke="black" points="427.253,-933.429 424.586,-923.175 420.277,-932.854 427.253,-933.429"/>
<text text-anchor="middle" x="426.5" y="-944.8" font-family="Times New Roman,serif" font-size="14.00">k</text>
</g>
<!-- 9&#45;&gt;8 -->
<g id="edge43" class="edge"><title>9&#45;&gt;8</title>
<path fill="none" stroke="black" d="M417.405,-1060.8C417.679,-1049.16 418.046,-1033.55 418.359,-1020.24"/>
<polygon fill="black" stroke="black" points="421.86,-1020.26 418.596,-1010.18 414.862,-1020.09 421.86,-1020.26"/>
<text text-anchor="middle" x="421" y="-1031.8" font-family="Times New Roman,serif" font-size="14.00">l</text>
</g>
<!-- 9&#45;&gt;15 -->
<g id="edge11" class="edge"><title>9&#45;&gt;15</title>
<path fill="none" stroke="black" d="M422.827,-1096.71C423.708,-1104.82 423.959,-1114.78 423.577,-1123.94"/>
<polygon fill="black" stroke="black" points="420.068,-1123.95 422.84,-1134.17 427.05,-1124.45 420.068,-1123.95"/>
</g>
<!-- 10&#45;&gt;3 -->
<g id="edge76" class="edge"><title>10&#45;&gt;3</title>
<path fill="none" stroke="black" d="M424.786,-886.799C423.964,-875.163 422.862,-859.548 421.923,-846.237"/>
<polygon fill="black" stroke="black" points="425.408,-845.904 421.212,-836.175 418.425,-846.397 425.408,-845.904"/>
<text text-anchor="middle" x="426" y="-857.8" font-family="Times New Roman,serif" font-size="14.00">l</text>
</g>
<!-- 10&#45;&gt;8 -->
<g id="edge75" class="edge"><title>10&#45;&gt;8</title>
<path fill="none" stroke="black" d="M417.822,-922.696C415.454,-928.366 413.188,-934.831 412,-941 410.558,-948.488 410.904,-956.661 411.99,-964.189"/>
<polygon fill="black" stroke="black" points="408.6,-965.094 413.909,-974.263 415.476,-963.785 408.6,-965.094"/>
<text text-anchor="middle" x="415.5" y="-944.8" font-family="Times New Roman,serif" font-size="14.00">k</text>
</g>
<!-- 11 -->
<g id="node12" class="node"><title>11</title>
<ellipse fill="none" stroke="black" cx="478" cy="-1559" rx="27" ry="18"/>
<text text-anchor="middle" x="478" y="-1555.3" font-family="Times New Roman,serif" font-size="14.00">S2</text>
</g>
<!-- 21 -->
<g id="node22" class="node"><title>21</title>
<ellipse fill="none" stroke="black" cx="516" cy="-1646" rx="27" ry="18"/>
<text text-anchor="middle" x="516" y="-1642.3" font-family="Times New Roman,serif" font-size="14.00">e</text>
</g>
<!-- 11&#45;&gt;21 -->
<g id="edge49" class="edge"><title>11&#45;&gt;21</title>
<path fill="none" stroke="black" d="M473.095,-1576.95C471.113,-1587 470.266,-1599.73 475,-1610 478.002,-1616.51 482.878,-1622.26 488.237,-1627.12"/>
<polygon fill="black" stroke="black" points="486.289,-1630.04 496.274,-1633.58 490.678,-1624.59 486.289,-1630.04"/>
<text text-anchor="middle" x="483" y="-1598.8" font-family="Times New Roman,serif" font-size="14.00">S1</text>
</g>
<!-- 12 -->
<g id="node13" class="node"><title>12</title>
<ellipse fill="none" stroke="black" cx="173" cy="-1298" rx="27.8951" ry="18"/>
<text text-anchor="middle" x="173" y="-1294.3" font-family="Times New Roman,serif" font-size="14.00">S1,p</text>
</g>
<!-- 12&#45;&gt;13 -->
<g id="edge55" class="edge"><title>12&#45;&gt;13</title>
<path fill="none" stroke="black" d="M179.433,-1315.84C181.294,-1321.52 183.073,-1327.96 184,-1334 185.139,-1341.42 184.732,-1349.47 183.687,-1356.9"/>
<polygon fill="black" stroke="black" points="180.221,-1356.39 181.878,-1366.86 187.109,-1357.65 180.221,-1356.39"/>
<text text-anchor="middle" x="188.5" y="-1337.8" font-family="Times New Roman,serif" font-size="14.00">k</text>
</g>
<!-- 13&#45;&gt;2 -->
<g id="edge1" class="edge"><title>13&#45;&gt;2</title>
<path fill="none" stroke="black" d="M150.806,-1379.79C132.88,-1375.4 110.373,-1366.57 99,-1349 94.6705,-1342.31 93.4454,-1333.99 93.6553,-1326.07"/>
<polygon fill="black" stroke="black" points="97.1448,-1326.35 94.6173,-1316.06 90.1769,-1325.68 97.1448,-1326.35"/>
<text text-anchor="middle" x="107" y="-1337.8" font-family="Times New Roman,serif" font-size="14.00">S2</text>
</g>
<!-- 13&#45;&gt;12 -->
<g id="edge54" class="edge"><title>13&#45;&gt;12</title>
<path fill="none" stroke="black" d="M176.191,-1366.8C175.643,-1355.16 174.908,-1339.55 174.282,-1326.24"/>
<polygon fill="black" stroke="black" points="177.775,-1326 173.808,-1316.18 170.782,-1326.33 177.775,-1326"/>
<text text-anchor="middle" x="179.5" y="-1337.8" font-family="Times New Roman,serif" font-size="14.00">k</text>
</g>
<!-- 14 -->
<g id="node15" class="node"><title>14</title>
<ellipse fill="none" stroke="black" cx="180" cy="-1472" rx="27" ry="18"/>
<text text-anchor="middle" x="180" y="-1468.3" font-family="Times New Roman,serif" font-size="14.00">e</text>
</g>
<!-- 13&#45;&gt;14 -->
<g id="edge25" class="edge"><title>13&#45;&gt;14</title>
<path fill="none" stroke="black" d="M183.091,-1402.76C184.82,-1414.51 185.662,-1430.47 185.381,-1444"/>
<polygon fill="black" stroke="black" points="181.875,-1444.06 184.911,-1454.21 188.868,-1444.38 181.875,-1444.06"/>
</g>
<!-- 14&#45;&gt;13 -->
<g id="edge26" class="edge"><title>14&#45;&gt;13</title>
<path fill="none" stroke="black" d="M173.904,-1454.21C172.176,-1442.45 171.337,-1426.48 171.62,-1412.96"/>
<polygon fill="black" stroke="black" points="175.126,-1412.91 172.092,-1402.76 168.133,-1412.59 175.126,-1412.91"/>
</g>
<!-- 20 -->
<g id="node21" class="node"><title>20</title>
<ellipse fill="none" stroke="black" cx="224" cy="-1559" rx="27" ry="18"/>
<text text-anchor="middle" x="224" y="-1555.3" font-family="Times New Roman,serif" font-size="14.00">e</text>
</g>
<!-- 14&#45;&gt;20 -->
<g id="edge69" class="edge"><title>14&#45;&gt;20</title>
<path fill="none" stroke="black" d="M189.992,-1488.82C193.606,-1494.75 197.625,-1501.61 201,-1508 205.123,-1515.81 209.267,-1524.5 212.879,-1532.41"/>
<polygon fill="black" stroke="black" points="209.7,-1533.88 216.984,-1541.57 216.088,-1531.01 209.7,-1533.88"/>
<text text-anchor="middle" x="212.5" y="-1511.8" font-family="Times New Roman,serif" font-size="14.00">k</text>
</g>
<!-- 15&#45;&gt;7 -->
<g id="edge63" class="edge"><title>15&#45;&gt;7</title>
<path fill="none" stroke="black" d="M435.126,-1165.64C446.483,-1175.4 460.811,-1189.18 471.947,-1200.9"/>
<polygon fill="black" stroke="black" points="469.38,-1203.28 478.741,-1208.24 474.517,-1198.53 469.38,-1203.28"/>
</g>
<!-- 15&#45;&gt;9 -->
<g id="edge12" class="edge"><title>15&#45;&gt;9</title>
<path fill="none" stroke="black" d="M411.16,-1134.17C410.285,-1126.04 410.041,-1116.08 410.428,-1106.92"/>
<polygon fill="black" stroke="black" points="413.937,-1106.93 411.173,-1096.71 406.955,-1106.42 413.937,-1106.93"/>
</g>
<!-- 16&#45;&gt;7 -->
<g id="edge61" class="edge"><title>16&#45;&gt;7</title>
<path fill="none" stroke="black" d="M483.16,-1280.17C482.285,-1272.04 482.041,-1262.08 482.428,-1252.92"/>
<polygon fill="black" stroke="black" points="485.937,-1252.93 483.173,-1242.71 478.955,-1252.42 485.937,-1252.93"/>
</g>
<!-- 17&#45;&gt;0 -->
<g id="edge22" class="edge"><title>17&#45;&gt;0</title>
<path fill="none" stroke="black" d="M608.135,-1748.78C614.321,-1757.57 621.212,-1768.97 626.628,-1779.21"/>
<polygon fill="black" stroke="black" points="623.512,-1780.8 631.123,-1788.17 629.769,-1777.67 623.512,-1780.8"/>
</g>
<!-- 17&#45;&gt;21 -->
<g id="edge53" class="edge"><title>17&#45;&gt;21</title>
<path fill="none" stroke="black" d="M576.308,-1719.38C568.146,-1713.13 558.604,-1705.18 551,-1697 543.823,-1689.28 536.94,-1680.02 531.206,-1671.57"/>
<polygon fill="black" stroke="black" points="534.098,-1669.6 525.682,-1663.16 528.248,-1673.44 534.098,-1669.6"/>
</g>
<!-- 18&#45;&gt;0 -->
<g id="edge19" class="edge"><title>18&#45;&gt;0</title>
<path fill="none" stroke="black" d="M652.397,-1240.13C662.096,-1254.08 672,-1276.26 672,-1297 672,-1734 672,-1734 672,-1734 672,-1751.12 664.87,-1769.04 656.649,-1782.6"/>
<polygon fill="black" stroke="black" points="653.527,-1780.97 650.857,-1791.22 659.338,-1784.87 653.527,-1780.97"/>
</g>
<!-- 36 -->
<g id="node37" class="node"><title>36</title>
<ellipse fill="none" stroke="black" cx="599" cy="-1298" rx="27" ry="18"/>
<text text-anchor="middle" x="599" y="-1294.3" font-family="Times New Roman,serif" font-size="14.00">e</text>
</g>
<!-- 18&#45;&gt;36 -->
<g id="edge23" class="edge"><title>18&#45;&gt;36</title>
<path fill="none" stroke="black" d="M633.787,-1242.94C629.855,-1252.11 623.89,-1263.59 617.908,-1273.61"/>
<polygon fill="black" stroke="black" points="614.812,-1271.96 612.466,-1282.29 620.743,-1275.67 614.812,-1271.96"/>
</g>
<!-- 19&#45;&gt;1 -->
<g id="edge71" class="edge"><title>19&#45;&gt;1</title>
<path fill="none" stroke="black" d="M32.4998,-1315.76C33.8141,-1327.51 34.0921,-1343.47 33.3339,-1357"/>
<polygon fill="black" stroke="black" points="29.8262,-1356.96 32.5037,-1367.21 36.8032,-1357.52 29.8262,-1356.96"/>
</g>
<!-- 20&#45;&gt;14 -->
<g id="edge68" class="edge"><title>20&#45;&gt;14</title>
<path fill="none" stroke="black" d="M209.289,-1543.74C203.829,-1537.77 197.999,-1530.48 194,-1523 190.159,-1515.81 187.286,-1507.47 185.175,-1499.68"/>
<polygon fill="black" stroke="black" points="188.565,-1498.81 182.822,-1489.9 181.759,-1500.44 188.565,-1498.81"/>
<text text-anchor="middle" x="197.5" y="-1511.8" font-family="Times New Roman,serif" font-size="14.00">k</text>
</g>
<!-- 20&#45;&gt;21 -->
<g id="edge51" class="edge"><title>20&#45;&gt;21</title>
<path fill="none" stroke="black" d="M249.3,-1565.59C277.826,-1572.04 325.513,-1583.28 366,-1595 406.747,-1606.79 452.958,-1622.57 483.189,-1633.22"/>
<polygon fill="black" stroke="black" points="482.203,-1636.58 492.798,-1636.62 484.54,-1629.98 482.203,-1636.58"/>
<text text-anchor="middle" x="417" y="-1598.8" font-family="Times New Roman,serif" font-size="14.00">K</text>
</g>
<!-- 21&#45;&gt;11 -->
<g id="edge48" class="edge"><title>21&#45;&gt;11</title>
<path fill="none" stroke="black" d="M508.673,-1628.61C503.259,-1616.5 495.779,-1599.77 489.561,-1585.86"/>
<polygon fill="black" stroke="black" points="492.581,-1584.04 485.304,-1576.34 486.19,-1586.9 492.581,-1584.04"/>
<text text-anchor="middle" x="508" y="-1598.8" font-family="Times New Roman,serif" font-size="14.00">S1</text>
</g>
<!-- 21&#45;&gt;17 -->
<g id="edge52" class="edge"><title>21&#45;&gt;17</title>
<path fill="none" stroke="black" d="M530.895,-1661.4C537.206,-1667.63 544.572,-1675.07 551,-1682 559.024,-1690.65 567.557,-1700.44 574.888,-1709.05"/>
<polygon fill="black" stroke="black" points="572.365,-1711.49 581.493,-1716.87 577.712,-1706.97 572.365,-1711.49"/>
<text text-anchor="middle" x="567" y="-1685.8" font-family="Times New Roman,serif" font-size="14.00">l</text>
</g>
<!-- 21&#45;&gt;20 -->
<g id="edge50" class="edge"><title>21&#45;&gt;20</title>
<path fill="none" stroke="black" d="M490.212,-1640.57C458.342,-1634.81 402.611,-1623.84 356,-1610 321.005,-1599.61 282.04,-1584.38 255.576,-1573.46"/>
<polygon fill="black" stroke="black" points="256.657,-1570.12 246.079,-1569.51 253.966,-1576.58 256.657,-1570.12"/>
<text text-anchor="middle" x="361" y="-1598.8" font-family="Times New Roman,serif" font-size="14.00">K</text>
</g>
<!-- 33 -->
<g id="node34" class="node"><title>33</title>
<ellipse fill="none" stroke="black" cx="553" cy="-1559" rx="27" ry="18"/>
<text text-anchor="middle" x="553" y="-1555.3" font-family="Times New Roman,serif" font-size="14.00">p,I</text>
</g>
<!-- 21&#45;&gt;33 -->
<g id="edge18" class="edge"><title>21&#45;&gt;33</title>
<path fill="none" stroke="black" d="M517.939,-1627.8C522.033,-1615.27 529.294,-1598.12 536.305,-1584.2"/>
<polygon fill="black" stroke="black" points="539.495,-1585.66 541.078,-1575.18 533.307,-1582.38 539.495,-1585.66"/>
</g>
<!-- 22 -->
<g id="node23" class="node"><title>22</title>
<ellipse fill="none" stroke="black" cx="328" cy="-397" rx="27" ry="18"/>
<text text-anchor="middle" x="328" y="-393.3" font-family="Times New Roman,serif" font-size="14.00">e</text>
</g>
<!-- 23 -->
<g id="node24" class="node"><title>23</title>
<ellipse fill="none" stroke="black" cx="328" cy="-324" rx="27" ry="18"/>
<text text-anchor="middle" x="328" y="-320.3" font-family="Times New Roman,serif" font-size="14.00">s</text>
</g>
<!-- 22&#45;&gt;23 -->
<g id="edge4" class="edge"><title>22&#45;&gt;23</title>
<path fill="none" stroke="black" d="M322.16,-379.174C321.285,-371.039 321.041,-361.076 321.428,-351.921"/>
<polygon fill="black" stroke="black" points="324.937,-351.933 322.173,-341.705 317.955,-351.424 324.937,-351.933"/>
</g>
<!-- 25 -->
<g id="node26" class="node"><title>25</title>
<ellipse fill="none" stroke="black" cx="333" cy="-484" rx="27" ry="18"/>
<text text-anchor="middle" x="333" y="-480.3" font-family="Times New Roman,serif" font-size="14.00">e,k</text>
</g>
<!-- 22&#45;&gt;25 -->
<g id="edge40" class="edge"><title>22&#45;&gt;25</title>
<path fill="none" stroke="black" d="M329.01,-415.175C329.694,-426.806 330.613,-442.419 331.396,-455.734"/>
<polygon fill="black" stroke="black" points="327.907,-456.022 331.988,-465.799 334.895,-455.611 327.907,-456.022"/>
<text text-anchor="middle" x="333" y="-436.8" font-family="Times New Roman,serif" font-size="14.00">l</text>
</g>
<!-- 23&#45;&gt;22 -->
<g id="edge3" class="edge"><title>23&#45;&gt;22</title>
<path fill="none" stroke="black" d="M333.827,-341.705C334.708,-349.822 334.959,-359.78 334.577,-368.942"/>
<polygon fill="black" stroke="black" points="331.068,-368.948 333.84,-379.174 338.05,-369.452 331.068,-368.948"/>
</g>
<!-- 24 -->
<g id="node25" class="node"><title>24</title>
<ellipse fill="none" stroke="black" cx="322" cy="-571" rx="27" ry="18"/>
<text text-anchor="middle" x="322" y="-567.3" font-family="Times New Roman,serif" font-size="14.00">e,p</text>
</g>
<!-- 24&#45;&gt;25 -->
<g id="edge73" class="edge"><title>24&#45;&gt;25</title>
<path fill="none" stroke="black" d="M324.226,-552.799C325.732,-541.163 327.753,-525.548 329.475,-512.237"/>
<polygon fill="black" stroke="black" points="332.965,-512.542 330.777,-502.175 326.023,-511.644 332.965,-512.542"/>
<text text-anchor="middle" x="332.5" y="-523.8" font-family="Times New Roman,serif" font-size="14.00">k</text>
</g>
<!-- 27 -->
<g id="node28" class="node"><title>27</title>
<ellipse fill="none" stroke="black" cx="396" cy="-658" rx="27" ry="18"/>
<text text-anchor="middle" x="396" y="-654.3" font-family="Times New Roman,serif" font-size="14.00">p</text>
</g>
<!-- 24&#45;&gt;27 -->
<g id="edge38" class="edge"><title>24&#45;&gt;27</title>
<path fill="none" stroke="black" d="M335.115,-587.065C346.445,-600.079 362.993,-619.087 375.978,-634.002"/>
<polygon fill="black" stroke="black" points="373.564,-636.56 382.77,-641.804 378.844,-631.963 373.564,-636.56"/>
<text text-anchor="middle" x="366" y="-610.8" font-family="Times New Roman,serif" font-size="14.00">l</text>
</g>
<!-- 25&#45;&gt;22 -->
<g id="edge41" class="edge"><title>25&#45;&gt;22</title>
<path fill="none" stroke="black" d="M327.15,-466.115C325.458,-460.432 323.841,-454.008 323,-448 321.964,-440.601 322.18,-432.557 322.928,-425.127"/>
<polygon fill="black" stroke="black" points="326.403,-425.541 324.262,-415.164 319.465,-424.611 326.403,-425.541"/>
<text text-anchor="middle" x="325" y="-436.8" font-family="Times New Roman,serif" font-size="14.00">l</text>
</g>
<!-- 25&#45;&gt;24 -->
<g id="edge72" class="edge"><title>25&#45;&gt;24</title>
<path fill="none" stroke="black" d="M322.328,-500.685C318.973,-506.492 315.702,-513.299 314,-520 312.096,-527.498 312.446,-535.749 313.726,-543.35"/>
<polygon fill="black" stroke="black" points="310.326,-544.184 315.923,-553.18 317.157,-542.657 310.326,-544.184"/>
<text text-anchor="middle" x="317.5" y="-523.8" font-family="Times New Roman,serif" font-size="14.00">k</text>
</g>
<!-- 26 -->
<g id="node27" class="node"><title>26</title>
<ellipse fill="none" stroke="black" cx="398" cy="-571" rx="31.3957" ry="18"/>
<text text-anchor="middle" x="398" y="-567.3" font-family="Times New Roman,serif" font-size="14.00">e,i,S3</text>
</g>
<!-- 26&#45;&gt;27 -->
<g id="edge6" class="edge"><title>26&#45;&gt;27</title>
<path fill="none" stroke="black" d="M403.106,-588.758C404.143,-600.508 404.046,-616.47 402.969,-630.002"/>
<polygon fill="black" stroke="black" points="399.461,-629.896 401.899,-640.207 406.423,-630.626 399.461,-629.896"/>
</g>
<!-- 27&#45;&gt;24 -->
<g id="edge39" class="edge"><title>27&#45;&gt;24</title>
<path fill="none" stroke="black" d="M375.621,-645.629C366.051,-639.547 355.014,-631.378 347,-622 341.018,-615 336.037,-606.321 332.135,-598.169"/>
<polygon fill="black" stroke="black" points="335.311,-596.695 328.057,-588.973 328.912,-599.534 335.311,-596.695"/>
<text text-anchor="middle" x="349" y="-610.8" font-family="Times New Roman,serif" font-size="14.00">l</text>
</g>
<!-- 27&#45;&gt;26 -->
<g id="edge5" class="edge"><title>27&#45;&gt;26</title>
<path fill="none" stroke="black" d="M390.891,-640.207C389.856,-628.448 389.955,-612.485 391.034,-598.958"/>
<polygon fill="black" stroke="black" points="394.541,-599.069 392.106,-588.758 387.58,-598.338 394.541,-599.069"/>
</g>
<!-- 28 -->
<g id="node29" class="node"><title>28</title>
<ellipse fill="none" stroke="black" cx="482" cy="-571" rx="34.394" ry="18"/>
<text text-anchor="middle" x="482" y="-567.3" font-family="Times New Roman,serif" font-size="14.00">e,p,S4</text>
</g>
<!-- 27&#45;&gt;28 -->
<g id="edge32" class="edge"><title>27&#45;&gt;28</title>
<path fill="none" stroke="black" d="M419.598,-648.875C433.212,-643.168 449.799,-634.335 461,-622 467.03,-615.36 471.48,-606.738 474.691,-598.528"/>
<polygon fill="black" stroke="black" points="478.067,-599.474 478.016,-588.88 471.449,-597.193 478.067,-599.474"/>
<text text-anchor="middle" x="482" y="-610.8" font-family="Times New Roman,serif" font-size="14.00">l,S3</text>
</g>
<!-- 27&#45;&gt;29 -->
<g id="edge34" class="edge"><title>27&#45;&gt;29</title>
<path fill="none" stroke="black" d="M390.205,-675.667C387.666,-685.613 386.057,-698.34 390,-709 391.748,-713.724 394.449,-718.241 397.53,-722.367"/>
<polygon fill="black" stroke="black" points="395.063,-724.869 404.202,-730.227 400.399,-720.339 395.063,-724.869"/>
<text text-anchor="middle" x="398" y="-697.8" font-family="Times New Roman,serif" font-size="14.00">S4</text>
</g>
<!-- 28&#45;&gt;27 -->
<g id="edge33" class="edge"><title>28&#45;&gt;27</title>
<path fill="none" stroke="black" d="M461.383,-585.532C452.804,-591.613 443.001,-599.176 435,-607 426.972,-614.851 419.15,-624.383 412.644,-633.011"/>
<polygon fill="black" stroke="black" points="409.702,-631.105 406.618,-641.241 415.35,-635.24 409.702,-631.105"/>
<text text-anchor="middle" x="446" y="-610.8" font-family="Times New Roman,serif" font-size="14.00">l,S3</text>
</g>
<!-- 31 -->
<g id="node32" class="node"><title>31</title>
<ellipse fill="none" stroke="black" cx="477" cy="-484" rx="27" ry="18"/>
</g>
<!-- 28&#45;&gt;31 -->
<g id="edge36" class="edge"><title>28&#45;&gt;31</title>
<path fill="none" stroke="black" d="M477.902,-553.012C476.717,-547.322 475.586,-540.92 475,-535 474.275,-527.681 474.249,-519.735 474.538,-512.377"/>
<polygon fill="black" stroke="black" points="478.045,-512.348 475.142,-502.159 471.058,-511.935 478.045,-512.348"/>
</g>
<!-- 29&#45;&gt;27 -->
<g id="edge35" class="edge"><title>29&#45;&gt;27</title>
<path fill="none" stroke="black" d="M415.228,-726.869C412.531,-717.213 409.091,-704.929 406,-694 405.21,-691.207 404.381,-688.289 403.554,-685.381"/>
<polygon fill="black" stroke="black" points="406.909,-684.385 400.799,-675.73 400.178,-686.306 406.909,-684.385"/>
<text text-anchor="middle" x="421" y="-697.8" font-family="Times New Roman,serif" font-size="14.00">l,S4</text>
</g>
<!-- 30&#45;&gt;5 -->
<g id="edge8" class="edge"><title>30&#45;&gt;5</title>
<path fill="none" stroke="black" d="M471.16,-379.174C470.285,-371.039 470.041,-361.076 470.428,-351.921"/>
<polygon fill="black" stroke="black" points="473.937,-351.933 471.173,-341.705 466.955,-351.424 473.937,-351.933"/>
</g>
<!-- 31&#45;&gt;28 -->
<g id="edge37" class="edge"><title>31&#45;&gt;28</title>
<path fill="none" stroke="black" d="M478.01,-502.175C478.694,-513.806 479.613,-529.419 480.396,-542.734"/>
<polygon fill="black" stroke="black" points="476.907,-543.022 480.988,-552.799 483.895,-542.611 476.907,-543.022"/>
<text text-anchor="middle" x="482" y="-523.8" font-family="Times New Roman,serif" font-size="14.00">l</text>
</g>
<!-- 31&#45;&gt;30 -->
<g id="edge31" class="edge"><title>31&#45;&gt;30</title>
<path fill="none" stroke="black" d="M477,-465.799C477,-454.163 477,-438.548 477,-425.237"/>
<polygon fill="black" stroke="black" points="480.5,-425.175 477,-415.175 473.5,-425.175 480.5,-425.175"/>
</g>
<!-- 32&#45;&gt;4 -->
<g id="edge10" class="edge"><title>32&#45;&gt;4</title>
<path fill="none" stroke="black" d="M478.827,-181.705C479.708,-189.822 479.959,-199.78 479.577,-208.942"/>
<polygon fill="black" stroke="black" points="476.068,-208.948 478.84,-219.174 483.05,-209.452 476.068,-208.948"/>
</g>
<!-- 32&#45;&gt;7 -->
<g id="edge59" class="edge"><title>32&#45;&gt;7</title>
<path fill="none" stroke="black" d="M495.076,-175.481C515.918,-187.088 544,-207.934 544,-236 544,-1153 544,-1153 544,-1153 544,-1173.79 529.085,-1192.18 514.789,-1205.03"/>
<polygon fill="black" stroke="black" points="512.404,-1202.46 507.009,-1211.58 516.913,-1207.82 512.404,-1202.46"/>
<text text-anchor="middle" x="547.5" y="-697.8" font-family="Times New Roman,serif" font-size="14.00">k</text>
</g>
<!-- 35 -->
<g id="node36" class="node"><title>35</title>
<ellipse fill="none" stroke="black" cx="473" cy="-91" rx="27" ry="18"/>
<text text-anchor="middle" x="473" y="-87.3" font-family="Times New Roman,serif" font-size="14.00">p</text>
</g>
<!-- 32&#45;&gt;35 -->
<g id="edge13" class="edge"><title>32&#45;&gt;35</title>
<path fill="none" stroke="black" d="M467.16,-146.174C466.285,-138.039 466.041,-128.076 466.428,-118.921"/>
<polygon fill="black" stroke="black" points="469.937,-118.933 467.173,-108.705 462.955,-118.424 469.937,-118.933"/>
</g>
<!-- 33&#45;&gt;21 -->
<g id="edge17" class="edge"><title>33&#45;&gt;21</title>
<path fill="none" stroke="black" d="M551.091,-1577.11C547.006,-1589.64 539.735,-1606.82 532.711,-1620.77"/>
<polygon fill="black" stroke="black" points="529.513,-1619.33 527.931,-1629.8 535.7,-1622.6 529.513,-1619.33"/>
</g>
<!-- 38 -->
<g id="node39" class="node"><title>38</title>
<ellipse fill="none" stroke="black" cx="553" cy="-1472" rx="27" ry="18"/>
<text text-anchor="middle" x="553" y="-1468.3" font-family="Times New Roman,serif" font-size="14.00">e,p</text>
</g>
<!-- 33&#45;&gt;38 -->
<g id="edge28" class="edge"><title>33&#45;&gt;38</title>
<path fill="none" stroke="black" d="M553,-1540.8C553,-1529.16 553,-1513.55 553,-1500.24"/>
<polygon fill="black" stroke="black" points="556.5,-1500.18 553,-1490.18 549.5,-1500.18 556.5,-1500.18"/>
</g>
<!-- 34 -->
<g id="node35" class="node"><title>34</title>
<ellipse fill="none" stroke="black" cx="473" cy="-18" rx="27" ry="18"/>
<text text-anchor="middle" x="473" y="-14.3" font-family="Times New Roman,serif" font-size="14.00">e,p</text>
</g>
<!-- 34&#45;&gt;35 -->
<g id="edge16" class="edge"><title>34&#45;&gt;35</title>
<path fill="none" stroke="black" d="M478.827,-35.7052C479.708,-43.8218 479.959,-53.7804 479.577,-62.9424"/>
<polygon fill="black" stroke="black" points="476.068,-62.9482 478.84,-73.174 483.05,-63.4515 476.068,-62.9482"/>
</g>
<!-- 37 -->
<g id="node38" class="node"><title>37</title>
<ellipse fill="none" stroke="black" cx="544" cy="-1385" rx="27" ry="18"/>
<text text-anchor="middle" x="544" y="-1381.3" font-family="Times New Roman,serif" font-size="14.00">e,p</text>
</g>
<!-- 34&#45;&gt;37 -->
<g id="edge47" class="edge"><title>34&#45;&gt;37</title>
<path fill="none" stroke="black" d="M445.955,-21.1115C382.427,-26.8136 229,-45.2202 229,-90 229,-1299 229,-1299 229,-1299 229,-1356.04 423.936,-1375.94 507.109,-1381.83"/>
<polygon fill="black" stroke="black" points="506.929,-1385.33 517.143,-1382.51 507.403,-1378.34 506.929,-1385.33"/>
</g>
<!-- 35&#45;&gt;32 -->
<g id="edge14" class="edge"><title>35&#45;&gt;32</title>
<path fill="none" stroke="black" d="M478.827,-108.705C479.708,-116.822 479.959,-126.78 479.577,-135.942"/>
<polygon fill="black" stroke="black" points="476.068,-135.948 478.84,-146.174 483.05,-136.452 476.068,-135.948"/>
</g>
<!-- 35&#45;&gt;34 -->
<g id="edge15" class="edge"><title>35&#45;&gt;34</title>
<path fill="none" stroke="black" d="M467.16,-73.174C466.285,-65.0392 466.041,-55.0756 466.428,-45.9214"/>
<polygon fill="black" stroke="black" points="469.937,-45.9333 467.173,-35.7052 462.955,-45.4242 469.937,-45.9333"/>
</g>
<!-- 36&#45;&gt;18 -->
<g id="edge24" class="edge"><title>36&#45;&gt;18</title>
<path fill="none" stroke="black" d="M602.321,-1279.81C606.271,-1270.64 612.217,-1259.22 618.173,-1249.26"/>
<polygon fill="black" stroke="black" points="621.236,-1250.96 623.587,-1240.63 615.307,-1247.24 621.236,-1250.96"/>
</g>
<!-- 36&#45;&gt;37 -->
<g id="edge56" class="edge"><title>36&#45;&gt;37</title>
<path fill="none" stroke="black" d="M596.75,-1316.24C594.822,-1326.39 591.31,-1339.13 585,-1349 581.208,-1354.93 576.103,-1360.4 570.784,-1365.17"/>
<polygon fill="black" stroke="black" points="568.452,-1362.56 562.966,-1371.62 572.907,-1367.96 568.452,-1362.56"/>
<text text-anchor="middle" x="595.5" y="-1337.8" font-family="Times New Roman,serif" font-size="14.00">k</text>
</g>
<!-- 37&#45;&gt;16 -->
<g id="edge29" class="edge"><title>37&#45;&gt;16</title>
<path fill="none" stroke="black" d="M533.655,-1368.01C525.512,-1355.43 514.027,-1337.68 504.745,-1323.33"/>
<polygon fill="black" stroke="black" points="507.67,-1321.41 499.299,-1314.92 501.793,-1325.21 507.67,-1321.41"/>
</g>
<!-- 37&#45;&gt;34 -->
<g id="edge46" class="edge"><title>37&#45;&gt;34</title>
<path fill="none" stroke="black" d="M547.045,-1367.03C556.063,-1316.2 582,-1165.7 582,-1116 582,-1116 582,-1116 582,-90 582,-54.2355 540.29,-35.5496 508.473,-26.4984"/>
<polygon fill="black" stroke="black" points="509.117,-23.0489 498.556,-23.8889 507.336,-29.8185 509.117,-23.0489"/>
<text text-anchor="middle" x="584" y="-697.8" font-family="Times New Roman,serif" font-size="14.00">l</text>
</g>
<!-- 37&#45;&gt;36 -->
<g id="edge57" class="edge"><title>37&#45;&gt;36</title>
<path fill="none" stroke="black" d="M554.345,-1368.01C562.488,-1355.43 573.973,-1337.68 583.255,-1323.33"/>
<polygon fill="black" stroke="black" points="586.207,-1325.21 588.701,-1314.92 580.33,-1321.41 586.207,-1325.21"/>
<text text-anchor="middle" x="578.5" y="-1337.8" font-family="Times New Roman,serif" font-size="14.00">k</text>
</g>
<!-- 37&#45;&gt;38 -->
<g id="edge45" class="edge"><title>37&#45;&gt;38</title>
<path fill="none" stroke="black" d="M545.819,-1403.18C547.05,-1414.81 548.703,-1430.42 550.113,-1443.73"/>
<polygon fill="black" stroke="black" points="546.645,-1444.22 551.179,-1453.8 553.606,-1443.49 546.645,-1444.22"/>
</g>
<!-- 38&#45;&gt;37 -->
<g id="edge44" class="edge"><title>38&#45;&gt;37</title>
<path fill="none" stroke="black" d="M546.112,-1454.56C544.036,-1448.79 542.035,-1442.21 541,-1436 539.776,-1428.65 539.706,-1420.63 540.156,-1413.2"/>
<polygon fill="black" stroke="black" points="543.643,-1413.5 541.071,-1403.22 536.672,-1412.86 543.643,-1413.5"/>
<text text-anchor="middle" x="543" y="-1424.8" font-family="Times New Roman,serif" font-size="14.00">l</text>
</g>
</g>
</svg>
