<?xml version="1.0" encoding="UTF-8" standalone="no"?>
<!DOCTYPE svg PUBLIC "-//W3C//DTD SVG 1.1//EN"
 "http://www.w3.org/Graphics/SVG/1.1/DTD/svg11.dtd">
<!-- Generated by graphviz version 2.38.0 (20140413.2041)
 -->
<!-- Title: %3 Pages: 1 -->
<svg width="600pt" height="1832pt"
 viewBox="0.00 0.00 600.00 1832.00" xmlns="http://www.w3.org/2000/svg" xmlns:xlink="http://www.w3.org/1999/xlink">
<g id="graph0" class="graph" transform="scale(1 1) rotate(0) translate(4 1828)">
<title>%3</title>
<polygon fill="white" stroke="none" points="-4,4 -4,-1828 596,-1828 596,4 -4,4"/>
<!-- 0 -->
<g id="node1" class="node"><title>0</title>
<ellipse fill="none" stroke="black" cx="322" cy="-1806" rx="27" ry="18"/>
<text text-anchor="middle" x="322" y="-1802.3" font-family="Times New Roman,serif" font-size="14.00">t</text>
</g>
<!-- 37 -->
<g id="node38" class="node"><title>37</title>
<ellipse fill="none" stroke="black" cx="322" cy="-1733" rx="27" ry="18"/>
<text text-anchor="middle" x="322" y="-1729.3" font-family="Times New Roman,serif" font-size="14.00">b</text>
</g>
<!-- 0&#45;&gt;37 -->
<g id="edge50" class="edge"><title>0&#45;&gt;37</title>
<path fill="none" stroke="black" d="M316.16,-1788.17C315.285,-1780.04 315.041,-1770.08 315.428,-1760.92"/>
<polygon fill="black" stroke="black" points="318.937,-1760.93 316.173,-1750.71 311.955,-1760.42 318.937,-1760.93"/>
</g>
<!-- 1 -->
<g id="node2" class="node"><title>1</title>
<ellipse fill="none" stroke="black" cx="219" cy="-773" rx="27" ry="18"/>
<text text-anchor="middle" x="219" y="-769.3" font-family="Times New Roman,serif" font-size="14.00">S3</text>
</g>
<!-- 2 -->
<g id="node3" class="node"><title>2</title>
<ellipse fill="none" stroke="black" cx="286" cy="-1180" rx="27" ry="18"/>
</g>
<!-- 1&#45;&gt;2 -->
<g id="edge72" class="edge"><title>1&#45;&gt;2</title>
<path fill="none" stroke="black" d="M203.092,-787.592C186.848,-803.071 164,-829.998 164,-859 164,-1108 164,-1108 164,-1108 164,-1148.04 213.687,-1165.89 249.642,-1173.57"/>
<polygon fill="black" stroke="black" points="249.343,-1177.07 259.828,-1175.55 250.683,-1170.2 249.343,-1177.07"/>
</g>
<!-- 7 -->
<g id="node8" class="node"><title>7</title>
<ellipse fill="none" stroke="black" cx="219" cy="-860" rx="27" ry="18"/>
<text text-anchor="middle" x="219" y="-856.3" font-family="Times New Roman,serif" font-size="14.00">e</text>
</g>
<!-- 1&#45;&gt;7 -->
<g id="edge71" class="edge"><title>1&#45;&gt;7</title>
<path fill="none" stroke="black" d="M224.5,-790.758C225.814,-802.508 226.092,-818.47 225.334,-832.002"/>
<polygon fill="black" stroke="black" points="221.826,-831.956 224.504,-842.207 228.803,-832.524 221.826,-831.956"/>
</g>
<!-- 13 -->
<g id="node14" class="node"><title>13</title>
<ellipse fill="none" stroke="black" cx="286" cy="-1107" rx="27" ry="18"/>
</g>
<!-- 2&#45;&gt;13 -->
<g id="edge68" class="edge"><title>2&#45;&gt;13</title>
<path fill="none" stroke="black" d="M280.16,-1162.17C279.285,-1154.04 279.041,-1144.08 279.428,-1134.92"/>
<polygon fill="black" stroke="black" points="282.937,-1134.93 280.173,-1124.71 275.955,-1134.42 282.937,-1134.93"/>
</g>
<!-- 24 -->
<g id="node25" class="node"><title>24</title>
<ellipse fill="none" stroke="black" cx="345" cy="-1267" rx="27" ry="18"/>
<text text-anchor="middle" x="345" y="-1263.3" font-family="Times New Roman,serif" font-size="14.00">e</text>
</g>
<!-- 2&#45;&gt;24 -->
<g id="edge64" class="edge"><title>2&#45;&gt;24</title>
<path fill="none" stroke="black" d="M282.441,-1197.84C281.18,-1208.09 281.266,-1221.08 287,-1231 290.352,-1236.8 302.212,-1244.37 314.342,-1250.99"/>
<polygon fill="black" stroke="black" points="313.053,-1254.27 323.533,-1255.82 316.308,-1248.07 313.053,-1254.27"/>
<text text-anchor="middle" x="295" y="-1219.8" font-family="Times New Roman,serif" font-size="14.00">S3</text>
</g>
<!-- 3 -->
<g id="node4" class="node"><title>3</title>
<ellipse fill="none" stroke="black" cx="364" cy="-860" rx="27" ry="18"/>
<text text-anchor="middle" x="364" y="-856.3" font-family="Times New Roman,serif" font-size="14.00">e,i</text>
</g>
<!-- 6 -->
<g id="node7" class="node"><title>6</title>
<ellipse fill="none" stroke="black" cx="275" cy="-947" rx="27" ry="18"/>
<text text-anchor="middle" x="275" y="-943.3" font-family="Times New Roman,serif" font-size="14.00">e</text>
</g>
<!-- 3&#45;&gt;6 -->
<g id="edge80" class="edge"><title>3&#45;&gt;6</title>
<path fill="none" stroke="black" d="M352.865,-876.779C339.816,-890.843 318.343,-911.475 301.136,-926.555"/>
<polygon fill="black" stroke="black" points="298.399,-924.291 293.088,-933.458 302.957,-929.604 298.399,-924.291"/>
</g>
<!-- 3&#45;&gt;24 -->
<g id="edge56" class="edge"><title>3&#45;&gt;24</title>
<path fill="none" stroke="black" d="M371.072,-877.612C373.604,-894.746 374,-922.24 374,-946 374,-1181 374,-1181 374,-1181 374,-1201.71 368.302,-1224.53 361.62,-1241.31"/>
<polygon fill="black" stroke="black" points="358.222,-1240.34 357.375,-1250.9 364.623,-1243.17 358.222,-1240.34"/>
</g>
<!-- 4 -->
<g id="node5" class="node"><title>4</title>
<ellipse fill="none" stroke="black" cx="149" cy="-512" rx="27" ry="18"/>
<text text-anchor="middle" x="149" y="-508.3" font-family="Times New Roman,serif" font-size="14.00">i</text>
</g>
<!-- 11 -->
<g id="node12" class="node"><title>11</title>
<ellipse fill="none" stroke="black" cx="187" cy="-425" rx="27" ry="18"/>
<text text-anchor="middle" x="187" y="-421.3" font-family="Times New Roman,serif" font-size="14.00">K</text>
</g>
<!-- 4&#45;&gt;11 -->
<g id="edge75" class="edge"><title>4&#45;&gt;11</title>
<path fill="none" stroke="black" d="M149.932,-493.679C150.992,-483.738 153.242,-471.238 158,-461 160.093,-456.496 162.91,-452.091 165.968,-448.009"/>
<polygon fill="black" stroke="black" points="168.779,-450.101 172.429,-440.154 163.373,-445.653 168.779,-450.101"/>
<text text-anchor="middle" x="161.5" y="-464.8" font-family="Times New Roman,serif" font-size="14.00">s</text>
</g>
<!-- 19 -->
<g id="node20" class="node"><title>19</title>
<ellipse fill="none" stroke="black" cx="112" cy="-338" rx="27" ry="18"/>
<text text-anchor="middle" x="112" y="-334.3" font-family="Times New Roman,serif" font-size="14.00">e,i,p</text>
</g>
<!-- 4&#45;&gt;19 -->
<g id="edge77" class="edge"><title>4&#45;&gt;19</title>
<path fill="none" stroke="black" d="M145.317,-493.879C138.89,-464.001 125.577,-402.113 117.867,-366.274"/>
<polygon fill="black" stroke="black" points="121.193,-365.092 115.668,-356.052 114.349,-366.564 121.193,-365.092"/>
</g>
<!-- 5 -->
<g id="node6" class="node"><title>5</title>
<ellipse fill="none" stroke="black" cx="147" cy="-599" rx="27" ry="18"/>
</g>
<!-- 5&#45;&gt;4 -->
<g id="edge74" class="edge"><title>5&#45;&gt;4</title>
<path fill="none" stroke="black" d="M147.405,-580.799C147.679,-569.163 148.046,-553.548 148.359,-540.237"/>
<polygon fill="black" stroke="black" points="151.86,-540.255 148.596,-530.175 144.862,-540.09 151.86,-540.255"/>
</g>
<!-- 9 -->
<g id="node10" class="node"><title>9</title>
<ellipse fill="none" stroke="black" cx="182" cy="-686" rx="27" ry="18"/>
<text text-anchor="middle" x="182" y="-682.3" font-family="Times New Roman,serif" font-size="14.00">e</text>
</g>
<!-- 5&#45;&gt;9 -->
<g id="edge34" class="edge"><title>5&#45;&gt;9</title>
<path fill="none" stroke="black" d="M153.781,-616.469C158.718,-628.458 165.505,-644.942 171.186,-658.738"/>
<polygon fill="black" stroke="black" points="168.041,-660.293 175.085,-668.207 174.514,-657.627 168.041,-660.293"/>
<text text-anchor="middle" x="175" y="-638.8" font-family="Times New Roman,serif" font-size="14.00">S1</text>
</g>
<!-- 5&#45;&gt;11 -->
<g id="edge88" class="edge"><title>5&#45;&gt;11</title>
<path fill="none" stroke="black" d="M158.606,-582.486C167.725,-569.295 179.734,-549.45 185,-530 191.864,-504.65 191.574,-474.539 190.044,-453.257"/>
<polygon fill="black" stroke="black" points="193.531,-452.957 189.191,-443.292 186.557,-453.554 193.531,-452.957"/>
</g>
<!-- 5&#45;&gt;19 -->
<g id="edge36" class="edge"><title>5&#45;&gt;19</title>
<path fill="none" stroke="black" d="M130.914,-584.4C120.511,-571.165 108.814,-550.156 104,-530 90.2934,-472.61 95.1576,-402.725 102.421,-365.441"/>
<polygon fill="black" stroke="black" points="105.9,-365.913 104.626,-355.396 99.0631,-364.412 105.9,-365.913"/>
</g>
<!-- 6&#45;&gt;3 -->
<g id="edge81" class="edge"><title>6&#45;&gt;3</title>
<path fill="none" stroke="black" d="M285.96,-930.41C299.127,-916.196 321.031,-895.159 338.403,-879.974"/>
<polygon fill="black" stroke="black" points="340.698,-882.616 346.018,-873.454 336.146,-877.299 340.698,-882.616"/>
</g>
<!-- 6&#45;&gt;7 -->
<g id="edge38" class="edge"><title>6&#45;&gt;7</title>
<path fill="none" stroke="black" d="M264.467,-930.012C256.176,-917.427 244.483,-899.679 235.031,-885.333"/>
<polygon fill="black" stroke="black" points="237.91,-883.341 229.486,-876.916 232.065,-887.192 237.91,-883.341"/>
</g>
<!-- 14 -->
<g id="node15" class="node"><title>14</title>
<ellipse fill="none" stroke="black" cx="286" cy="-1034" rx="27" ry="18"/>
<text text-anchor="middle" x="286" y="-1030.3" font-family="Times New Roman,serif" font-size="14.00">e,p</text>
</g>
<!-- 6&#45;&gt;14 -->
<g id="edge40" class="edge"><title>6&#45;&gt;14</title>
<path fill="none" stroke="black" d="M277.223,-965.175C278.728,-976.806 280.748,-992.419 282.471,-1005.73"/>
<polygon fill="black" stroke="black" points="279.019,-1006.33 283.774,-1015.8 285.962,-1005.43 279.019,-1006.33"/>
</g>
<!-- 25 -->
<g id="node26" class="node"><title>25</title>
<ellipse fill="none" stroke="black" cx="291" cy="-860" rx="27" ry="18"/>
</g>
<!-- 6&#45;&gt;25 -->
<g id="edge85" class="edge"><title>6&#45;&gt;25</title>
<path fill="none" stroke="black" d="M278.238,-928.799C280.443,-917.086 283.406,-901.342 285.922,-887.974"/>
<polygon fill="black" stroke="black" points="289.411,-888.36 287.822,-877.885 282.532,-887.065 289.411,-888.36"/>
<text text-anchor="middle" x="287.5" y="-899.8" font-family="Times New Roman,serif" font-size="14.00">k</text>
</g>
<!-- 7&#45;&gt;1 -->
<g id="edge70" class="edge"><title>7&#45;&gt;1</title>
<path fill="none" stroke="black" d="M213.496,-842.207C212.184,-830.448 211.908,-814.485 212.668,-800.958"/>
<polygon fill="black" stroke="black" points="216.176,-801.01 213.5,-790.758 209.199,-800.441 216.176,-801.01"/>
</g>
<!-- 7&#45;&gt;6 -->
<g id="edge39" class="edge"><title>7&#45;&gt;6</title>
<path fill="none" stroke="black" d="M222.528,-878.186C225.151,-888.315 229.432,-901.053 236,-911 239.684,-916.58 244.468,-921.841 249.416,-926.506"/>
<polygon fill="black" stroke="black" points="247.361,-929.358 257.192,-933.307 251.969,-924.089 247.361,-929.358"/>
<text text-anchor="middle" x="238" y="-899.8" font-family="Times New Roman,serif" font-size="14.00">l</text>
</g>
<!-- 8 -->
<g id="node9" class="node"><title>8</title>
<ellipse fill="none" stroke="black" cx="298" cy="-773" rx="27.0966" ry="18"/>
<text text-anchor="middle" x="298" y="-769.3" font-family="Times New Roman,serif" font-size="14.00">I,e,p</text>
</g>
<!-- 8&#45;&gt;9 -->
<g id="edge27" class="edge"><title>8&#45;&gt;9</title>
<path fill="none" stroke="black" d="M277.836,-760.713C257.249,-747.237 225.749,-724.432 204.423,-707.749"/>
<polygon fill="black" stroke="black" points="206.524,-704.948 196.517,-701.465 202.168,-710.427 206.524,-704.948"/>
</g>
<!-- 10 -->
<g id="node11" class="node"><title>10</title>
<ellipse fill="none" stroke="black" cx="190" cy="-251" rx="34.394" ry="18"/>
<text text-anchor="middle" x="190" y="-247.3" font-family="Times New Roman,serif" font-size="14.00">e,p,S1</text>
</g>
<!-- 8&#45;&gt;10 -->
<g id="edge12" class="edge"><title>8&#45;&gt;10</title>
<path fill="none" stroke="black" d="M275.418,-762.504C268.886,-759.913 261.709,-757.212 255,-755 143.607,-718.265 0,-804.294 0,-687 0,-687 0,-687 0,-337 0,-273.554 89.3687,-257.154 145.523,-253.111"/>
<polygon fill="black" stroke="black" points="145.826,-256.599 155.592,-252.491 145.396,-249.612 145.826,-256.599"/>
<text text-anchor="middle" x="3.5" y="-508.3" font-family="Times New Roman,serif" font-size="14.00">k</text>
</g>
<!-- 16 -->
<g id="node17" class="node"><title>16</title>
<ellipse fill="none" stroke="black" cx="254" cy="-686" rx="27" ry="18"/>
<text text-anchor="middle" x="254" y="-682.3" font-family="Times New Roman,serif" font-size="14.00">k</text>
</g>
<!-- 8&#45;&gt;16 -->
<g id="edge78" class="edge"><title>8&#45;&gt;16</title>
<path fill="none" stroke="black" d="M279.973,-759.268C272.916,-753.322 265.458,-745.645 261,-737 257.409,-730.037 255.473,-721.842 254.473,-714.124"/>
<polygon fill="black" stroke="black" points="257.952,-713.724 253.622,-704.054 250.976,-714.313 257.952,-713.724"/>
<text text-anchor="middle" x="263.5" y="-725.8" font-family="Times New Roman,serif" font-size="14.00">I</text>
</g>
<!-- 8&#45;&gt;25 -->
<g id="edge86" class="edge"><title>8&#45;&gt;25</title>
<path fill="none" stroke="black" d="M288.831,-790.229C286.064,-795.974 283.393,-802.602 282,-809 280.349,-816.584 280.896,-824.862 282.326,-832.461"/>
<polygon fill="black" stroke="black" points="278.946,-833.376 284.699,-842.273 285.75,-831.731 278.946,-833.376"/>
<text text-anchor="middle" x="284.5" y="-812.8" font-family="Times New Roman,serif" font-size="14.00">I</text>
</g>
<!-- 29 -->
<g id="node30" class="node"><title>29</title>
<ellipse fill="none" stroke="black" cx="391" cy="-686" rx="27" ry="18"/>
</g>
<!-- 8&#45;&gt;29 -->
<g id="edge26" class="edge"><title>8&#45;&gt;29</title>
<path fill="none" stroke="black" d="M312.061,-757.159C321.878,-746.994 335.425,-733.352 348,-722 353.698,-716.856 360.019,-711.521 366.022,-706.612"/>
<polygon fill="black" stroke="black" points="368.335,-709.243 373.922,-700.241 363.941,-703.794 368.335,-709.243"/>
<text text-anchor="middle" x="356" y="-725.8" font-family="Times New Roman,serif" font-size="14.00">S2</text>
</g>
<!-- 32 -->
<g id="node33" class="node"><title>32</title>
<ellipse fill="none" stroke="black" cx="503" cy="-686" rx="27" ry="18"/>
<text text-anchor="middle" x="503" y="-682.3" font-family="Times New Roman,serif" font-size="14.00">e,i</text>
</g>
<!-- 8&#45;&gt;32 -->
<g id="edge22" class="edge"><title>8&#45;&gt;32</title>
<path fill="none" stroke="black" d="M320.324,-762.622C339.221,-756.029 366.493,-746.686 390,-737 417.553,-725.646 448.199,-710.606 470.807,-699.996"/>
<polygon fill="black" stroke="black" points="472.374,-703.128 479.972,-695.744 469.427,-696.778 472.374,-703.128"/>
</g>
<!-- 9&#45;&gt;5 -->
<g id="edge35" class="edge"><title>9&#45;&gt;5</title>
<path fill="none" stroke="black" d="M162.804,-673.068C155.136,-667.167 147.152,-659.305 143,-650 139.829,-642.892 139.359,-634.653 140.091,-626.939"/>
<polygon fill="black" stroke="black" points="143.574,-627.328 141.694,-616.901 136.661,-626.224 143.574,-627.328"/>
<text text-anchor="middle" x="151" y="-638.8" font-family="Times New Roman,serif" font-size="14.00">S1</text>
</g>
<!-- 9&#45;&gt;8 -->
<g id="edge28" class="edge"><title>9&#45;&gt;8</title>
<path fill="none" stroke="black" d="M202.07,-698.226C222.67,-711.703 254.264,-734.576 275.624,-751.288"/>
<polygon fill="black" stroke="black" points="273.533,-754.097 283.539,-757.581 277.89,-748.618 273.533,-754.097"/>
</g>
<!-- 9&#45;&gt;10 -->
<g id="edge29" class="edge"><title>9&#45;&gt;10</title>
<path fill="none" stroke="black" d="M155.588,-681.521C114.017,-674.4 38,-653.997 38,-600 38,-600 38,-600 38,-337 38,-286.931 101.604,-266.071 146.525,-257.582"/>
<polygon fill="black" stroke="black" points="147.394,-260.983 156.643,-255.815 146.19,-254.087 147.394,-260.983"/>
</g>
<!-- 12 -->
<g id="node13" class="node"><title>12</title>
<ellipse fill="none" stroke="black" cx="220" cy="-338" rx="27" ry="18"/>
<text text-anchor="middle" x="220" y="-334.3" font-family="Times New Roman,serif" font-size="14.00">k</text>
</g>
<!-- 9&#45;&gt;12 -->
<g id="edge83" class="edge"><title>9&#45;&gt;12</title>
<path fill="none" stroke="black" d="M197.029,-670.935C215.047,-656.012 242,-630.411 242,-600 242,-600 242,-600 242,-424 242,-403.447 233.902,-381.699 227.185,-365.347"/>
<polygon fill="black" stroke="black" points="230.337,-363.811 223.266,-355.921 223.874,-366.499 230.337,-363.811"/>
</g>
<!-- 10&#45;&gt;8 -->
<g id="edge11" class="edge"><title>10&#45;&gt;8</title>
<path fill="none" stroke="black" d="M220.175,-259.866C254.545,-270.862 306,-294.432 306,-337 306,-556.5 306,-556.5 306,-556.5 306,-624.232 302.005,-703.856 299.661,-744.738"/>
<polygon fill="black" stroke="black" points="296.153,-744.779 299.062,-754.967 303.141,-745.188 296.153,-744.779"/>
<text text-anchor="middle" x="309.5" y="-508.3" font-family="Times New Roman,serif" font-size="14.00">k</text>
</g>
<!-- 10&#45;&gt;12 -->
<g id="edge31" class="edge"><title>10&#45;&gt;12</title>
<path fill="none" stroke="black" d="M188.571,-269.182C188.344,-279.077 189.094,-291.577 193,-302 194.619,-306.321 196.967,-310.543 199.612,-314.474"/>
<polygon fill="black" stroke="black" points="196.887,-316.673 205.709,-322.54 202.471,-312.452 196.887,-316.673"/>
<text text-anchor="middle" x="196.5" y="-290.8" font-family="Times New Roman,serif" font-size="14.00">s</text>
</g>
<!-- 11&#45;&gt;4 -->
<g id="edge76" class="edge"><title>11&#45;&gt;4</title>
<path fill="none" stroke="black" d="M179.696,-442.339C174.287,-454.438 166.808,-471.166 160.587,-485.082"/>
<polygon fill="black" stroke="black" points="157.213,-484.053 156.327,-494.611 163.603,-486.91 157.213,-484.053"/>
<text text-anchor="middle" x="174.5" y="-464.8" font-family="Times New Roman,serif" font-size="14.00">s</text>
</g>
<!-- 11&#45;&gt;12 -->
<g id="edge33" class="edge"><title>11&#45;&gt;12</title>
<path fill="none" stroke="black" d="M186.823,-406.768C187.263,-396.858 188.763,-384.358 193,-374 194.747,-369.729 197.162,-365.534 199.836,-361.614"/>
<polygon fill="black" stroke="black" points="202.696,-363.636 205.943,-353.551 197.115,-359.41 202.696,-363.636"/>
<text text-anchor="middle" x="196.5" y="-377.8" font-family="Times New Roman,serif" font-size="14.00">s</text>
</g>
<!-- 11&#45;&gt;19 -->
<g id="edge73" class="edge"><title>11&#45;&gt;19</title>
<path fill="none" stroke="black" d="M173.92,-409.112C165.175,-399.163 153.408,-385.789 143,-374 139.464,-369.995 135.698,-365.736 132.053,-361.619"/>
<polygon fill="black" stroke="black" points="134.536,-359.144 125.286,-353.979 129.296,-363.785 134.536,-359.144"/>
</g>
<!-- 12&#45;&gt;9 -->
<g id="edge82" class="edge"><title>12&#45;&gt;9</title>
<path fill="none" stroke="black" d="M235.137,-353.166C246.808,-369.589 260,-397.768 260,-424 260,-600 260,-600 260,-600 260,-629.532 234.583,-654.528 212.589,-669.614"/>
<polygon fill="black" stroke="black" points="210.597,-666.734 204.079,-675.086 214.383,-672.622 210.597,-666.734"/>
</g>
<!-- 12&#45;&gt;10 -->
<g id="edge30" class="edge"><title>12&#45;&gt;10</title>
<path fill="none" stroke="black" d="M214.073,-320.207C209.882,-308.332 204.177,-292.168 199.373,-278.557"/>
<polygon fill="black" stroke="black" points="202.543,-277.023 195.915,-268.758 195.943,-279.353 202.543,-277.023"/>
<text text-anchor="middle" x="210.5" y="-290.8" font-family="Times New Roman,serif" font-size="14.00">s</text>
</g>
<!-- 12&#45;&gt;11 -->
<g id="edge32" class="edge"><title>12&#45;&gt;11</title>
<path fill="none" stroke="black" d="M213.494,-355.758C208.842,-367.741 202.489,-384.104 197.171,-397.803"/>
<polygon fill="black" stroke="black" points="193.876,-396.618 193.52,-407.207 200.402,-399.151 193.876,-396.618"/>
<text text-anchor="middle" x="209.5" y="-377.8" font-family="Times New Roman,serif" font-size="14.00">s</text>
</g>
<!-- 13&#45;&gt;2 -->
<g id="edge69" class="edge"><title>13&#45;&gt;2</title>
<path fill="none" stroke="black" d="M291.827,-1124.71C292.708,-1132.82 292.959,-1142.78 292.577,-1151.94"/>
<polygon fill="black" stroke="black" points="289.068,-1151.95 291.84,-1162.17 296.05,-1152.45 289.068,-1151.95"/>
</g>
<!-- 13&#45;&gt;14 -->
<g id="edge43" class="edge"><title>13&#45;&gt;14</title>
<path fill="none" stroke="black" d="M280.16,-1089.17C279.285,-1081.04 279.041,-1071.08 279.428,-1061.92"/>
<polygon fill="black" stroke="black" points="282.937,-1061.93 280.173,-1051.71 275.955,-1061.42 282.937,-1061.93"/>
</g>
<!-- 14&#45;&gt;6 -->
<g id="edge41" class="edge"><title>14&#45;&gt;6</title>
<path fill="none" stroke="black" d="M285.126,-1015.82C284.509,-1006.15 283.516,-993.867 282,-983 281.64,-980.422 281.21,-977.748 280.743,-975.079"/>
<polygon fill="black" stroke="black" points="284.136,-974.187 278.822,-965.021 277.26,-975.5 284.136,-974.187"/>
<text text-anchor="middle" x="286" y="-986.8" font-family="Times New Roman,serif" font-size="14.00">l</text>
</g>
<!-- 14&#45;&gt;13 -->
<g id="edge42" class="edge"><title>14&#45;&gt;13</title>
<path fill="none" stroke="black" d="M291.827,-1051.71C292.708,-1059.82 292.959,-1069.78 292.577,-1078.94"/>
<polygon fill="black" stroke="black" points="289.068,-1078.95 291.84,-1089.17 296.05,-1079.45 289.068,-1078.95"/>
</g>
<!-- 15 -->
<g id="node16" class="node"><title>15</title>
<ellipse fill="none" stroke="black" cx="403" cy="-91" rx="27" ry="18"/>
<text text-anchor="middle" x="403" y="-87.3" font-family="Times New Roman,serif" font-size="14.00">s</text>
</g>
<!-- 17 -->
<g id="node18" class="node"><title>17</title>
<ellipse fill="none" stroke="black" cx="403" cy="-18" rx="27" ry="18"/>
<text text-anchor="middle" x="403" y="-14.3" font-family="Times New Roman,serif" font-size="14.00">p,k</text>
</g>
<!-- 15&#45;&gt;17 -->
<g id="edge1" class="edge"><title>15&#45;&gt;17</title>
<path fill="none" stroke="black" d="M397.16,-73.174C396.285,-65.0392 396.041,-55.0756 396.428,-45.9214"/>
<polygon fill="black" stroke="black" points="399.937,-45.9333 397.173,-35.7052 392.955,-45.4242 399.937,-45.9333"/>
</g>
<!-- 20 -->
<g id="node21" class="node"><title>20</title>
<ellipse fill="none" stroke="black" cx="403" cy="-164" rx="27" ry="18"/>
</g>
<!-- 15&#45;&gt;20 -->
<g id="edge6" class="edge"><title>15&#45;&gt;20</title>
<path fill="none" stroke="black" d="M408.827,-108.705C409.708,-116.822 409.959,-126.78 409.577,-135.942"/>
<polygon fill="black" stroke="black" points="406.068,-135.948 408.84,-146.174 413.05,-136.452 406.068,-135.948"/>
</g>
<!-- 16&#45;&gt;8 -->
<g id="edge79" class="edge"><title>16&#45;&gt;8</title>
<path fill="none" stroke="black" d="M262.458,-703.339C268.781,-715.555 277.548,-732.491 284.793,-746.486"/>
<polygon fill="black" stroke="black" points="281.811,-748.339 289.516,-755.611 288.027,-745.121 281.811,-748.339"/>
<text text-anchor="middle" x="281.5" y="-725.8" font-family="Times New Roman,serif" font-size="14.00">I</text>
</g>
<!-- 17&#45;&gt;15 -->
<g id="edge2" class="edge"><title>17&#45;&gt;15</title>
<path fill="none" stroke="black" d="M408.827,-35.7052C409.708,-43.8218 409.959,-53.7804 409.577,-62.9424"/>
<polygon fill="black" stroke="black" points="406.068,-62.9482 408.84,-73.174 413.05,-63.4515 406.068,-62.9482"/>
</g>
<!-- 18 -->
<g id="node19" class="node"><title>18</title>
<ellipse fill="none" stroke="black" cx="403" cy="-251" rx="27" ry="18"/>
<text text-anchor="middle" x="403" y="-247.3" font-family="Times New Roman,serif" font-size="14.00">e,k</text>
</g>
<!-- 18&#45;&gt;20 -->
<g id="edge4" class="edge"><title>18&#45;&gt;20</title>
<path fill="none" stroke="black" d="M396.567,-233.157C394.706,-227.477 392.927,-221.044 392,-215 390.814,-207.269 391.743,-198.945 393.473,-191.349"/>
<polygon fill="black" stroke="black" points="396.886,-192.139 396.206,-181.566 390.144,-190.256 396.886,-192.139"/>
<text text-anchor="middle" x="395.5" y="-203.8" font-family="Times New Roman,serif" font-size="14.00">k</text>
</g>
<!-- 26 -->
<g id="node27" class="node"><title>26</title>
<ellipse fill="none" stroke="black" cx="403" cy="-338" rx="28.6953" ry="18"/>
<text text-anchor="middle" x="403" y="-334.3" font-family="Times New Roman,serif" font-size="14.00">e,p,k</text>
</g>
<!-- 18&#45;&gt;26 -->
<g id="edge7" class="edge"><title>18&#45;&gt;26</title>
<path fill="none" stroke="black" d="M403,-269.175C403,-280.806 403,-296.419 403,-309.734"/>
<polygon fill="black" stroke="black" points="399.5,-309.799 403,-319.799 406.5,-309.799 399.5,-309.799"/>
<text text-anchor="middle" x="406.5" y="-290.8" font-family="Times New Roman,serif" font-size="14.00">k</text>
</g>
<!-- 19&#45;&gt;5 -->
<g id="edge37" class="edge"><title>19&#45;&gt;5</title>
<path fill="none" stroke="black" d="M114.601,-356.172C114.187,-390.005 107.056,-467.429 122,-530 125.484,-544.587 132.573,-559.621 138.594,-571.832"/>
<polygon fill="black" stroke="black" points="135.536,-573.543 143.104,-580.957 141.811,-570.442 135.536,-573.543"/>
</g>
<!-- 20&#45;&gt;15 -->
<g id="edge5" class="edge"><title>20&#45;&gt;15</title>
<path fill="none" stroke="black" d="M397.16,-146.174C396.285,-138.039 396.041,-128.076 396.428,-118.921"/>
<polygon fill="black" stroke="black" points="399.937,-118.933 397.173,-108.705 392.955,-118.424 399.937,-118.933"/>
</g>
<!-- 20&#45;&gt;18 -->
<g id="edge3" class="edge"><title>20&#45;&gt;18</title>
<path fill="none" stroke="black" d="M403,-182.175C403,-193.806 403,-209.419 403,-222.734"/>
<polygon fill="black" stroke="black" points="399.5,-222.799 403,-232.799 406.5,-222.799 399.5,-222.799"/>
<text text-anchor="middle" x="406.5" y="-203.8" font-family="Times New Roman,serif" font-size="14.00">k</text>
</g>
<!-- 21 -->
<g id="node22" class="node"><title>21</title>
<ellipse fill="none" stroke="black" cx="301" cy="-1413" rx="27" ry="18"/>
<text text-anchor="middle" x="301" y="-1409.3" font-family="Times New Roman,serif" font-size="14.00">e,i</text>
</g>
<!-- 23 -->
<g id="node24" class="node"><title>23</title>
<ellipse fill="none" stroke="black" cx="301" cy="-1340" rx="27" ry="18"/>
<text text-anchor="middle" x="301" y="-1336.3" font-family="Times New Roman,serif" font-size="14.00">e,i</text>
</g>
<!-- 21&#45;&gt;23 -->
<g id="edge63" class="edge"><title>21&#45;&gt;23</title>
<path fill="none" stroke="black" d="M295.16,-1395.17C294.285,-1387.04 294.041,-1377.08 294.428,-1367.92"/>
<polygon fill="black" stroke="black" points="297.937,-1367.93 295.173,-1357.71 290.955,-1367.42 297.937,-1367.93"/>
</g>
<!-- 35 -->
<g id="node36" class="node"><title>35</title>
<ellipse fill="none" stroke="black" cx="301" cy="-1486" rx="27" ry="18"/>
<text text-anchor="middle" x="301" y="-1482.3" font-family="Times New Roman,serif" font-size="14.00">e</text>
</g>
<!-- 21&#45;&gt;35 -->
<g id="edge66" class="edge"><title>21&#45;&gt;35</title>
<path fill="none" stroke="black" d="M306.827,-1430.71C307.708,-1438.82 307.959,-1448.78 307.577,-1457.94"/>
<polygon fill="black" stroke="black" points="304.068,-1457.95 306.84,-1468.17 311.05,-1458.45 304.068,-1457.95"/>
</g>
<!-- 22 -->
<g id="node23" class="node"><title>22</title>
<ellipse fill="none" stroke="black" cx="273" cy="-1267" rx="27" ry="18"/>
</g>
<!-- 22&#45;&gt;23 -->
<g id="edge61" class="edge"><title>22&#45;&gt;23</title>
<path fill="none" stroke="black" d="M284.841,-1283.58C289.142,-1291.96 293.604,-1302.54 296.999,-1312.21"/>
<polygon fill="black" stroke="black" points="293.698,-1313.37 300.1,-1321.81 300.359,-1311.22 293.698,-1313.37"/>
</g>
<!-- 23&#45;&gt;21 -->
<g id="edge62" class="edge"><title>23&#45;&gt;21</title>
<path fill="none" stroke="black" d="M306.827,-1357.71C307.708,-1365.82 307.959,-1375.78 307.577,-1384.94"/>
<polygon fill="black" stroke="black" points="304.068,-1384.95 306.84,-1395.17 311.05,-1385.45 304.068,-1384.95"/>
</g>
<!-- 23&#45;&gt;22 -->
<g id="edge60" class="edge"><title>23&#45;&gt;22</title>
<path fill="none" stroke="black" d="M289.246,-1323.59C284.917,-1315.18 280.417,-1304.52 276.998,-1294.79"/>
<polygon fill="black" stroke="black" points="280.28,-1293.56 273.88,-1285.12 273.618,-1295.71 280.28,-1293.56"/>
</g>
<!-- 23&#45;&gt;24 -->
<g id="edge59" class="edge"><title>23&#45;&gt;24</title>
<path fill="none" stroke="black" d="M305.587,-1322.17C310.444,-1312.69 317.698,-1300.72 324.761,-1290.45"/>
<polygon fill="black" stroke="black" points="327.614,-1292.48 330.591,-1282.31 321.923,-1288.4 327.614,-1292.48"/>
</g>
<!-- 24&#45;&gt;2 -->
<g id="edge65" class="edge"><title>24&#45;&gt;2</title>
<path fill="none" stroke="black" d="M334.178,-1250.41C325.418,-1237.79 312.924,-1219.79 302.854,-1205.28"/>
<polygon fill="black" stroke="black" points="305.53,-1203 296.953,-1196.78 299.78,-1206.99 305.53,-1203"/>
<text text-anchor="middle" x="328" y="-1219.8" font-family="Times New Roman,serif" font-size="14.00">S3</text>
</g>
<!-- 24&#45;&gt;3 -->
<g id="edge57" class="edge"><title>24&#45;&gt;3</title>
<path fill="none" stroke="black" d="M344.665,-1248.7C348.382,-1231.72 356,-1204.95 356,-1181 356,-1181 356,-1181 356,-946 356,-926.509 355.734,-904.506 356.712,-887.77"/>
<polygon fill="black" stroke="black" points="360.216,-887.866 357.55,-877.612 353.239,-887.291 360.216,-887.866"/>
</g>
<!-- 24&#45;&gt;23 -->
<g id="edge58" class="edge"><title>24&#45;&gt;23</title>
<path fill="none" stroke="black" d="M340.404,-1284.84C335.604,-1294.21 328.465,-1306.01 321.484,-1316.19"/>
<polygon fill="black" stroke="black" points="318.42,-1314.46 315.453,-1324.63 324.115,-1318.53 318.42,-1314.46"/>
</g>
<!-- 25&#45;&gt;6 -->
<g id="edge84" class="edge"><title>25&#45;&gt;6</title>
<path fill="none" stroke="black" d="M276.471,-875.375C271.514,-881.253 266.575,-888.446 264,-896 261.408,-903.604 262.017,-912.072 263.891,-919.846"/>
<polygon fill="black" stroke="black" points="260.595,-921.034 266.919,-929.534 267.277,-918.945 260.595,-921.034"/>
<text text-anchor="middle" x="267.5" y="-899.8" font-family="Times New Roman,serif" font-size="14.00">k</text>
</g>
<!-- 25&#45;&gt;8 -->
<g id="edge87" class="edge"><title>25&#45;&gt;8</title>
<path fill="none" stroke="black" d="M292.417,-841.799C293.375,-830.163 294.661,-814.548 295.757,-801.237"/>
<polygon fill="black" stroke="black" points="299.253,-801.429 296.586,-791.175 292.277,-800.854 299.253,-801.429"/>
<text text-anchor="middle" x="297.5" y="-812.8" font-family="Times New Roman,serif" font-size="14.00">I</text>
</g>
<!-- 26&#45;&gt;18 -->
<g id="edge8" class="edge"><title>26&#45;&gt;18</title>
<path fill="none" stroke="black" d="M396.567,-320.157C394.706,-314.477 392.927,-308.044 392,-302 390.814,-294.269 391.743,-285.945 393.473,-278.349"/>
<polygon fill="black" stroke="black" points="396.886,-279.139 396.206,-268.566 390.144,-277.256 396.886,-279.139"/>
<text text-anchor="middle" x="395.5" y="-290.8" font-family="Times New Roman,serif" font-size="14.00">k</text>
</g>
<!-- 28 -->
<g id="node29" class="node"><title>28</title>
<ellipse fill="none" stroke="black" cx="411" cy="-425" rx="27" ry="18"/>
<text text-anchor="middle" x="411" y="-421.3" font-family="Times New Roman,serif" font-size="14.00">e,i</text>
</g>
<!-- 26&#45;&gt;28 -->
<g id="edge15" class="edge"><title>26&#45;&gt;28</title>
<path fill="none" stroke="black" d="M404.617,-356.175C405.711,-367.806 407.181,-383.419 408.434,-396.734"/>
<polygon fill="black" stroke="black" points="404.959,-397.171 409.381,-406.799 411.929,-396.515 404.959,-397.171"/>
<text text-anchor="middle" x="411.5" y="-377.8" font-family="Times New Roman,serif" font-size="14.00">k</text>
</g>
<!-- 26&#45;&gt;29 -->
<g id="edge9" class="edge"><title>26&#45;&gt;29</title>
<path fill="none" stroke="black" d="M428.358,-346.674C459.999,-358.006 510,-382.482 510,-424 510,-600 510,-600 510,-600 510,-641.594 461.265,-664.762 426.171,-676.054"/>
<polygon fill="black" stroke="black" points="424.796,-672.813 416.237,-679.057 426.822,-679.514 424.796,-672.813"/>
<text text-anchor="middle" x="513.5" y="-508.3" font-family="Times New Roman,serif" font-size="14.00">k</text>
</g>
<!-- 27 -->
<g id="node28" class="node"><title>27</title>
<ellipse fill="none" stroke="black" cx="420" cy="-512" rx="27" ry="18"/>
<text text-anchor="middle" x="420" y="-508.3" font-family="Times New Roman,serif" font-size="14.00">k</text>
</g>
<!-- 27&#45;&gt;28 -->
<g id="edge18" class="edge"><title>27&#45;&gt;28</title>
<path fill="none" stroke="black" d="M410.831,-494.771C408.064,-489.026 405.393,-482.398 404,-476 402.359,-468.463 402.673,-460.2 403.793,-452.6"/>
<polygon fill="black" stroke="black" points="407.229,-453.263 405.71,-442.778 400.359,-451.922 407.229,-453.263"/>
<text text-anchor="middle" x="407.5" y="-464.8" font-family="Times New Roman,serif" font-size="14.00">s</text>
</g>
<!-- 27&#45;&gt;29 -->
<g id="edge19" class="edge"><title>27&#45;&gt;29</title>
<path fill="none" stroke="black" d="M421.351,-530.205C419.311,-560.418 408.983,-623.177 400.431,-658.807"/>
<polygon fill="black" stroke="black" points="397.036,-657.953 397.959,-668.508 403.82,-659.681 397.036,-657.953"/>
</g>
<!-- 30 -->
<g id="node31" class="node"><title>30</title>
<ellipse fill="none" stroke="black" cx="455" cy="-599" rx="27" ry="18"/>
<text text-anchor="middle" x="455" y="-595.3" font-family="Times New Roman,serif" font-size="14.00">e,S2</text>
</g>
<!-- 27&#45;&gt;30 -->
<g id="edge52" class="edge"><title>27&#45;&gt;30</title>
<path fill="none" stroke="black" d="M430.767,-528.9C434.379,-534.728 438.197,-541.492 441,-548 444.138,-555.286 446.773,-563.471 448.88,-571.076"/>
<polygon fill="black" stroke="black" points="445.539,-572.137 451.423,-580.948 452.318,-570.391 445.539,-572.137"/>
<text text-anchor="middle" x="450.5" y="-551.8" font-family="Times New Roman,serif" font-size="14.00">s</text>
</g>
<!-- 28&#45;&gt;26 -->
<g id="edge16" class="edge"><title>28&#45;&gt;26</title>
<path fill="none" stroke="black" d="M402.4,-407.713C399.806,-401.963 397.303,-395.346 396,-389 394.467,-381.53 394.784,-373.363 395.871,-365.834"/>
<polygon fill="black" stroke="black" points="399.358,-366.238 397.808,-355.757 392.483,-364.917 399.358,-366.238"/>
<text text-anchor="middle" x="399.5" y="-377.8" font-family="Times New Roman,serif" font-size="14.00">k</text>
</g>
<!-- 28&#45;&gt;27 -->
<g id="edge17" class="edge"><title>28&#45;&gt;27</title>
<path fill="none" stroke="black" d="M412.819,-443.175C414.05,-454.806 415.703,-470.419 417.113,-483.734"/>
<polygon fill="black" stroke="black" points="413.645,-484.223 418.179,-493.799 420.606,-483.486 413.645,-484.223"/>
<text text-anchor="middle" x="420.5" y="-464.8" font-family="Times New Roman,serif" font-size="14.00">s</text>
</g>
<!-- 29&#45;&gt;8 -->
<g id="edge25" class="edge"><title>29&#45;&gt;8</title>
<path fill="none" stroke="black" d="M386.375,-703.976C382.789,-714.532 376.905,-727.801 368,-737 357.984,-747.347 344.264,-755.125 331.623,-760.689"/>
<polygon fill="black" stroke="black" points="330.181,-757.497 322.246,-764.517 332.827,-763.977 330.181,-757.497"/>
<text text-anchor="middle" x="387" y="-725.8" font-family="Times New Roman,serif" font-size="14.00">S2</text>
</g>
<!-- 29&#45;&gt;26 -->
<g id="edge10" class="edge"><title>29&#45;&gt;26</title>
<path fill="none" stroke="black" d="M387.058,-667.872C377.597,-624.004 355.767,-504.221 375,-407 377.893,-392.374 383.974,-376.941 389.731,-364.482"/>
<polygon fill="black" stroke="black" points="393.017,-365.726 394.212,-355.199 386.713,-362.683 393.017,-365.726"/>
<text text-anchor="middle" x="372.5" y="-508.3" font-family="Times New Roman,serif" font-size="14.00">k</text>
</g>
<!-- 29&#45;&gt;27 -->
<g id="edge20" class="edge"><title>29&#45;&gt;27</title>
<path fill="none" stroke="black" d="M389.643,-667.879C391.669,-637.718 401.996,-574.936 410.553,-539.261"/>
<polygon fill="black" stroke="black" points="413.951,-540.1 413.026,-529.546 407.167,-538.373 413.951,-540.1"/>
</g>
<!-- 29&#45;&gt;30 -->
<g id="edge55" class="edge"><title>29&#45;&gt;30</title>
<path fill="none" stroke="black" d="M402.739,-669.41C412.392,-656.589 426.224,-638.219 437.233,-623.597"/>
<polygon fill="black" stroke="black" points="440.117,-625.585 443.336,-615.491 434.525,-621.375 440.117,-625.585"/>
<text text-anchor="middle" x="430.5" y="-638.8" font-family="Times New Roman,serif" font-size="14.00">k</text>
</g>
<!-- 30&#45;&gt;27 -->
<g id="edge53" class="edge"><title>30&#45;&gt;27</title>
<path fill="none" stroke="black" d="M445.457,-581.933C442.208,-576.09 438.715,-569.359 436,-563 432.815,-555.54 429.911,-547.224 427.477,-539.548"/>
<polygon fill="black" stroke="black" points="430.818,-538.505 424.564,-529.953 424.12,-540.539 430.818,-538.505"/>
<text text-anchor="middle" x="439.5" y="-551.8" font-family="Times New Roman,serif" font-size="14.00">s</text>
</g>
<!-- 30&#45;&gt;29 -->
<g id="edge54" class="edge"><title>30&#45;&gt;29</title>
<path fill="none" stroke="black" d="M453.171,-616.995C451.387,-627.302 447.88,-640.292 441,-650 435.716,-657.456 428.317,-663.861 420.827,-669.077"/>
<polygon fill="black" stroke="black" points="418.657,-666.31 412.116,-674.645 422.427,-672.209 418.657,-666.31"/>
<text text-anchor="middle" x="452.5" y="-638.8" font-family="Times New Roman,serif" font-size="14.00">k</text>
</g>
<!-- 31 -->
<g id="node32" class="node"><title>31</title>
<ellipse fill="none" stroke="black" cx="565" cy="-599" rx="27" ry="18"/>
<text text-anchor="middle" x="565" y="-595.3" font-family="Times New Roman,serif" font-size="14.00">e</text>
</g>
<!-- 31&#45;&gt;32 -->
<g id="edge24" class="edge"><title>31&#45;&gt;32</title>
<path fill="none" stroke="black" d="M558.321,-616.686C550.151,-629.926 536.737,-648.547 525.04,-663.005"/>
<polygon fill="black" stroke="black" points="522.12,-661.042 518.404,-670.964 527.496,-665.525 522.12,-661.042"/>
</g>
<!-- 32&#45;&gt;8 -->
<g id="edge21" class="edge"><title>32&#45;&gt;8</title>
<path fill="none" stroke="black" d="M485.372,-699.943C466.302,-710.555 435.599,-725.627 408,-737 383.598,-747.055 355.137,-756.74 333.116,-763.363"/>
<polygon fill="black" stroke="black" points="332.102,-760.013 323.488,-766.181 334.069,-766.731 332.102,-760.013"/>
</g>
<!-- 32&#45;&gt;31 -->
<g id="edge23" class="edge"><title>32&#45;&gt;31</title>
<path fill="none" stroke="black" d="M509.745,-668.207C517.941,-654.941 531.36,-636.323 543.045,-621.889"/>
<polygon fill="black" stroke="black" points="545.953,-623.867 549.673,-613.947 540.579,-619.383 545.953,-623.867"/>
</g>
<!-- 33 -->
<g id="node34" class="node"><title>33</title>
<ellipse fill="none" stroke="black" cx="322" cy="-1660" rx="27" ry="18"/>
</g>
<!-- 34 -->
<g id="node35" class="node"><title>34</title>
<ellipse fill="none" stroke="black" cx="322" cy="-1573" rx="27" ry="18"/>
<text text-anchor="middle" x="322" y="-1569.3" font-family="Times New Roman,serif" font-size="14.00">k</text>
</g>
<!-- 33&#45;&gt;34 -->
<g id="edge14" class="edge"><title>33&#45;&gt;34</title>
<path fill="none" stroke="black" d="M315.206,-1642.43C312.025,-1632.75 309.275,-1620.25 311,-1609 311.42,-1606.26 312.015,-1603.44 312.714,-1600.65"/>
<polygon fill="black" stroke="black" points="316.134,-1601.42 315.567,-1590.84 309.413,-1599.47 316.134,-1601.42"/>
<text text-anchor="middle" x="314.5" y="-1612.8" font-family="Times New Roman,serif" font-size="14.00">k</text>
</g>
<!-- 33&#45;&gt;37 -->
<g id="edge49" class="edge"><title>33&#45;&gt;37</title>
<path fill="none" stroke="black" d="M327.827,-1677.71C328.708,-1685.82 328.959,-1695.78 328.577,-1704.94"/>
<polygon fill="black" stroke="black" points="325.068,-1704.95 327.84,-1715.17 332.05,-1705.45 325.068,-1704.95"/>
</g>
<!-- 34&#45;&gt;33 -->
<g id="edge13" class="edge"><title>34&#45;&gt;33</title>
<path fill="none" stroke="black" d="M322,-1591.18C322,-1602.81 322,-1618.42 322,-1631.73"/>
<polygon fill="black" stroke="black" points="318.5,-1631.8 322,-1641.8 325.5,-1631.8 318.5,-1631.8"/>
<text text-anchor="middle" x="325.5" y="-1612.8" font-family="Times New Roman,serif" font-size="14.00">k</text>
</g>
<!-- 34&#45;&gt;35 -->
<g id="edge46" class="edge"><title>34&#45;&gt;35</title>
<path fill="none" stroke="black" d="M312.639,-1556.01C308.334,-1544.21 303.987,-1527.86 301.345,-1514.04"/>
<polygon fill="black" stroke="black" points="304.781,-1513.37 299.685,-1504.08 297.876,-1514.52 304.781,-1513.37"/>
</g>
<!-- 36 -->
<g id="node37" class="node"><title>36</title>
<ellipse fill="none" stroke="black" cx="373" cy="-1486" rx="27" ry="18"/>
<text text-anchor="middle" x="373" y="-1482.3" font-family="Times New Roman,serif" font-size="14.00">e,i</text>
</g>
<!-- 34&#45;&gt;36 -->
<g id="edge44" class="edge"><title>34&#45;&gt;36</title>
<path fill="none" stroke="black" d="M336.239,-1557.47C341.634,-1551.46 347.543,-1544.22 352,-1537 356.521,-1529.68 360.491,-1521.21 363.727,-1513.35"/>
<polygon fill="black" stroke="black" points="367.059,-1514.43 367.419,-1503.85 360.535,-1511.9 367.059,-1514.43"/>
<text text-anchor="middle" x="364" y="-1525.8" font-family="Times New Roman,serif" font-size="14.00">b</text>
</g>
<!-- 35&#45;&gt;21 -->
<g id="edge67" class="edge"><title>35&#45;&gt;21</title>
<path fill="none" stroke="black" d="M295.16,-1468.17C294.285,-1460.04 294.041,-1450.08 294.428,-1440.92"/>
<polygon fill="black" stroke="black" points="297.937,-1440.93 295.173,-1430.71 290.955,-1440.42 297.937,-1440.93"/>
</g>
<!-- 35&#45;&gt;34 -->
<g id="edge47" class="edge"><title>35&#45;&gt;34</title>
<path fill="none" stroke="black" d="M310.375,-1503.03C314.665,-1514.8 318.995,-1531.07 321.636,-1544.86"/>
<polygon fill="black" stroke="black" points="318.197,-1545.51 323.299,-1554.8 325.101,-1544.36 318.197,-1545.51"/>
</g>
<!-- 36&#45;&gt;34 -->
<g id="edge45" class="edge"><title>36&#45;&gt;34</title>
<path fill="none" stroke="black" d="M359.888,-1501.74C354.877,-1507.77 349.332,-1514.98 345,-1522 340.362,-1529.51 336.075,-1538.12 332.49,-1546.05"/>
<polygon fill="black" stroke="black" points="329.26,-1544.7 328.489,-1555.27 335.682,-1547.49 329.26,-1544.7"/>
<text text-anchor="middle" x="349" y="-1525.8" font-family="Times New Roman,serif" font-size="14.00">b</text>
</g>
<!-- 37&#45;&gt;0 -->
<g id="edge51" class="edge"><title>37&#45;&gt;0</title>
<path fill="none" stroke="black" d="M327.827,-1750.71C328.708,-1758.82 328.959,-1768.78 328.577,-1777.94"/>
<polygon fill="black" stroke="black" points="325.068,-1777.95 327.84,-1788.17 332.05,-1778.45 325.068,-1777.95"/>
</g>
<!-- 37&#45;&gt;33 -->
<g id="edge48" class="edge"><title>37&#45;&gt;33</title>
<path fill="none" stroke="black" d="M316.16,-1715.17C315.285,-1707.04 315.041,-1697.08 315.428,-1687.92"/>
<polygon fill="black" stroke="black" points="318.937,-1687.93 316.173,-1677.71 311.955,-1687.42 318.937,-1687.93"/>
</g>
</g>
</svg>
