<?xml version="1.0" encoding="UTF-8" standalone="no"?>
<!DOCTYPE svg PUBLIC "-//W3C//DTD SVG 1.1//EN"
 "http://www.w3.org/Graphics/SVG/1.1/DTD/svg11.dtd">
<!-- Generated by graphviz version 2.38.0 (20140413.2041)
 -->
<!-- Title: %3 Pages: 1 -->
<svg width="512pt" height="1279pt"
 viewBox="0.00 0.00 512.00 1279.00" xmlns="http://www.w3.org/2000/svg" xmlns:xlink="http://www.w3.org/1999/xlink">
<g id="graph0" class="graph" transform="scale(1 1) rotate(0) translate(4 1275)">
<title>%3</title>
<polygon fill="white" stroke="none" points="-4,4 -4,-1275 508,-1275 508,4 -4,4"/>
<!-- 0 -->
<g id="node1" class="node"><title>0</title>
<ellipse fill="none" stroke="black" cx="228" cy="-1253" rx="27" ry="18"/>
<text text-anchor="middle" x="228" y="-1249.3" font-family="Times New Roman,serif" font-size="14.00">p,k</text>
</g>
<!-- 17 -->
<g id="node18" class="node"><title>17</title>
<ellipse fill="none" stroke="black" cx="179" cy="-1166" rx="27" ry="18"/>
</g>
<!-- 0&#45;&gt;17 -->
<g id="edge62" class="edge"><title>0&#45;&gt;17</title>
<path fill="none" stroke="black" d="M209.815,-1239.18C202.622,-1233.22 194.915,-1225.55 190,-1217 186.042,-1210.11 183.508,-1201.94 181.884,-1194.22"/>
<polygon fill="black" stroke="black" points="185.298,-1193.41 180.188,-1184.13 178.395,-1194.58 185.298,-1193.41"/>
<text text-anchor="middle" x="193.5" y="-1205.8" font-family="Times New Roman,serif" font-size="14.00">k</text>
</g>
<!-- 29 -->
<g id="node30" class="node"><title>29</title>
<ellipse fill="none" stroke="black" cx="268" cy="-1166" rx="27" ry="18"/>
<text text-anchor="middle" x="268" y="-1162.3" font-family="Times New Roman,serif" font-size="14.00">p</text>
</g>
<!-- 0&#45;&gt;29 -->
<g id="edge50" class="edge"><title>0&#45;&gt;29</title>
<path fill="none" stroke="black" d="M235.083,-1235.22C239.277,-1225.46 244.777,-1212.96 250,-1202 251.516,-1198.82 253.151,-1195.5 254.797,-1192.23"/>
<polygon fill="black" stroke="black" points="257.935,-1193.78 259.369,-1183.28 251.702,-1190.59 257.935,-1193.78"/>
<text text-anchor="middle" x="252" y="-1205.8" font-family="Times New Roman,serif" font-size="14.00">l</text>
</g>
<!-- 1 -->
<g id="node2" class="node"><title>1</title>
<ellipse fill="none" stroke="black" cx="125" cy="-992" rx="33.2948" ry="18"/>
<text text-anchor="middle" x="125" y="-988.3" font-family="Times New Roman,serif" font-size="14.00">e,p,k,i</text>
</g>
<!-- 2 -->
<g id="node3" class="node"><title>2</title>
<ellipse fill="none" stroke="black" cx="95" cy="-905" rx="27" ry="18"/>
<text text-anchor="middle" x="95" y="-901.3" font-family="Times New Roman,serif" font-size="14.00">p,k</text>
</g>
<!-- 1&#45;&gt;2 -->
<g id="edge60" class="edge"><title>1&#45;&gt;2</title>
<path fill="none" stroke="black" d="M110.141,-975.855C105.402,-970.099 100.693,-963.186 98,-956 95.3454,-948.915 94.1486,-940.871 93.7254,-933.338"/>
<polygon fill="black" stroke="black" points="97.2227,-933.128 93.5708,-923.182 90.2235,-933.235 97.2227,-933.128"/>
<text text-anchor="middle" x="101.5" y="-944.8" font-family="Times New Roman,serif" font-size="14.00">k</text>
</g>
<!-- 16 -->
<g id="node17" class="node"><title>16</title>
<ellipse fill="none" stroke="black" cx="152" cy="-1079" rx="27" ry="18"/>
<text text-anchor="middle" x="152" y="-1075.3" font-family="Times New Roman,serif" font-size="14.00">e,p</text>
</g>
<!-- 1&#45;&gt;16 -->
<g id="edge54" class="edge"><title>1&#45;&gt;16</title>
<path fill="none" stroke="black" d="M130.416,-1010.05C134.182,-1021.91 139.279,-1037.95 143.573,-1051.47"/>
<polygon fill="black" stroke="black" points="140.302,-1052.74 146.666,-1061.21 146.974,-1050.62 140.302,-1052.74"/>
<text text-anchor="middle" x="143" y="-1031.8" font-family="Times New Roman,serif" font-size="14.00">l</text>
</g>
<!-- 2&#45;&gt;1 -->
<g id="edge59" class="edge"><title>2&#45;&gt;1</title>
<path fill="none" stroke="black" d="M100.915,-922.758C105.103,-934.625 110.807,-950.787 115.613,-964.403"/>
<polygon fill="black" stroke="black" points="112.444,-965.942 119.073,-974.207 119.045,-963.612 112.444,-965.942"/>
<text text-anchor="middle" x="115.5" y="-944.8" font-family="Times New Roman,serif" font-size="14.00">k</text>
</g>
<!-- 3 -->
<g id="node4" class="node"><title>3</title>
<ellipse fill="none" stroke="black" cx="65" cy="-818" rx="27" ry="18"/>
<text text-anchor="middle" x="65" y="-814.3" font-family="Times New Roman,serif" font-size="14.00">e</text>
</g>
<!-- 2&#45;&gt;3 -->
<g id="edge57" class="edge"><title>2&#45;&gt;3</title>
<path fill="none" stroke="black" d="M80.7094,-889.54C75.7815,-883.652 70.8004,-876.474 68,-869 65.3454,-861.915 64.1486,-853.871 63.7254,-846.338"/>
<polygon fill="black" stroke="black" points="67.2227,-846.128 63.5708,-836.182 60.2235,-846.235 67.2227,-846.128"/>
<text text-anchor="middle" x="71.5" y="-857.8" font-family="Times New Roman,serif" font-size="14.00">k</text>
</g>
<!-- 3&#45;&gt;2 -->
<g id="edge58" class="edge"><title>3&#45;&gt;2</title>
<path fill="none" stroke="black" d="M70.9147,-835.758C75.1028,-847.625 80.807,-863.787 85.6129,-877.403"/>
<polygon fill="black" stroke="black" points="82.4442,-878.942 89.073,-887.207 89.0452,-876.612 82.4442,-878.942"/>
<text text-anchor="middle" x="85.5" y="-857.8" font-family="Times New Roman,serif" font-size="14.00">k</text>
</g>
<!-- 4 -->
<g id="node5" class="node"><title>4</title>
<ellipse fill="none" stroke="black" cx="32" cy="-731" rx="27" ry="18"/>
<text text-anchor="middle" x="32" y="-727.3" font-family="Times New Roman,serif" font-size="14.00">b</text>
</g>
<!-- 3&#45;&gt;4 -->
<g id="edge56" class="edge"><title>3&#45;&gt;4</title>
<path fill="none" stroke="black" d="M48.2525,-803.379C42.2829,-797.497 36.2398,-790.104 33,-782 30.1959,-774.986 29.1823,-766.965 29.0659,-759.431"/>
<polygon fill="black" stroke="black" points="32.5698,-759.372 29.4059,-749.261 25.5737,-759.138 32.5698,-759.372"/>
<text text-anchor="middle" x="38" y="-770.8" font-family="Times New Roman,serif" font-size="14.00">K</text>
</g>
<!-- 4&#45;&gt;3 -->
<g id="edge55" class="edge"><title>4&#45;&gt;3</title>
<path fill="none" stroke="black" d="M38.5062,-748.758C43.1583,-760.741 49.5109,-777.104 54.8294,-790.803"/>
<polygon fill="black" stroke="black" points="51.5983,-792.151 58.4803,-800.207 58.1238,-789.618 51.5983,-792.151"/>
<text text-anchor="middle" x="56" y="-770.8" font-family="Times New Roman,serif" font-size="14.00">K</text>
</g>
<!-- 5 -->
<g id="node6" class="node"><title>5</title>
<ellipse fill="none" stroke="black" cx="32" cy="-644" rx="27" ry="18"/>
<text text-anchor="middle" x="32" y="-640.3" font-family="Times New Roman,serif" font-size="14.00">t</text>
</g>
<!-- 4&#45;&gt;5 -->
<g id="edge63" class="edge"><title>4&#45;&gt;5</title>
<path fill="none" stroke="black" d="M26.4963,-713.207C25.1841,-701.448 24.9081,-685.485 25.6683,-671.958"/>
<polygon fill="black" stroke="black" points="29.1756,-672.01 26.5002,-661.758 22.1988,-671.441 29.1756,-672.01"/>
</g>
<!-- 5&#45;&gt;4 -->
<g id="edge64" class="edge"><title>5&#45;&gt;4</title>
<path fill="none" stroke="black" d="M37.4998,-661.758C38.8141,-673.508 39.0921,-689.47 38.3339,-703.002"/>
<polygon fill="black" stroke="black" points="34.8262,-702.956 37.5037,-713.207 41.8032,-703.524 34.8262,-702.956"/>
</g>
<!-- 6 -->
<g id="node7" class="node"><title>6</title>
<ellipse fill="none" stroke="black" cx="255" cy="-905" rx="27" ry="18"/>
<text text-anchor="middle" x="255" y="-901.3" font-family="Times New Roman,serif" font-size="14.00">i</text>
</g>
<!-- 8 -->
<g id="node9" class="node"><title>8</title>
<ellipse fill="none" stroke="black" cx="288" cy="-992" rx="27" ry="18"/>
<text text-anchor="middle" x="288" y="-988.3" font-family="Times New Roman,serif" font-size="14.00">p</text>
</g>
<!-- 6&#45;&gt;8 -->
<g id="edge36" class="edge"><title>6&#45;&gt;8</title>
<path fill="none" stroke="black" d="M261.506,-922.758C266.158,-934.741 272.511,-951.104 277.829,-964.803"/>
<polygon fill="black" stroke="black" points="274.598,-966.151 281.48,-974.207 281.124,-963.618 274.598,-966.151"/>
<text text-anchor="middle" x="275" y="-944.8" font-family="Times New Roman,serif" font-size="14.00">l</text>
</g>
<!-- 7 -->
<g id="node8" class="node"><title>7</title>
<ellipse fill="none" stroke="black" cx="327" cy="-905" rx="27" ry="18"/>
<text text-anchor="middle" x="327" y="-901.3" font-family="Times New Roman,serif" font-size="14.00">e</text>
</g>
<!-- 7&#45;&gt;8 -->
<g id="edge27" class="edge"><title>7&#45;&gt;8</title>
<path fill="none" stroke="black" d="M324.688,-923.11C320.308,-935.642 312.633,-952.823 305.282,-966.766"/>
<polygon fill="black" stroke="black" points="302.061,-965.358 300.288,-975.804 308.188,-968.743 302.061,-965.358"/>
</g>
<!-- 24 -->
<g id="node25" class="node"><title>24</title>
<ellipse fill="none" stroke="black" cx="327" cy="-818" rx="27" ry="18"/>
<text text-anchor="middle" x="327" y="-814.3" font-family="Times New Roman,serif" font-size="14.00">e</text>
</g>
<!-- 7&#45;&gt;24 -->
<g id="edge29" class="edge"><title>7&#45;&gt;24</title>
<path fill="none" stroke="black" d="M321.496,-887.207C320.184,-875.448 319.908,-859.485 320.668,-845.958"/>
<polygon fill="black" stroke="black" points="324.176,-846.01 321.5,-835.758 317.199,-845.441 324.176,-846.01"/>
</g>
<!-- 8&#45;&gt;6 -->
<g id="edge35" class="edge"><title>8&#45;&gt;6</title>
<path fill="none" stroke="black" d="M278.326,-974.987C275.065,-969.15 271.598,-962.407 269,-956 266.02,-948.649 263.434,-940.443 261.324,-932.839"/>
<polygon fill="black" stroke="black" points="264.662,-931.771 258.749,-922.98 257.889,-933.54 264.662,-931.771"/>
</g>
<!-- 8&#45;&gt;7 -->
<g id="edge28" class="edge"><title>8&#45;&gt;7</title>
<path fill="none" stroke="black" d="M290.344,-973.799C294.732,-961.265 302.397,-944.116 309.736,-930.201"/>
<polygon fill="black" stroke="black" points="312.947,-931.626 314.721,-921.181 306.82,-928.241 312.947,-931.626"/>
</g>
<!-- 28 -->
<g id="node29" class="node"><title>28</title>
<ellipse fill="none" stroke="black" cx="288" cy="-1079" rx="27" ry="18"/>
</g>
<!-- 8&#45;&gt;28 -->
<g id="edge45" class="edge"><title>8&#45;&gt;28</title>
<path fill="none" stroke="black" d="M293.5,-1009.76C294.814,-1021.51 295.092,-1037.47 294.334,-1051"/>
<polygon fill="black" stroke="black" points="290.826,-1050.96 293.504,-1061.21 297.803,-1051.52 290.826,-1050.96"/>
</g>
<!-- 9 -->
<g id="node10" class="node"><title>9</title>
<ellipse fill="none" stroke="black" cx="255" cy="-731" rx="27" ry="18"/>
</g>
<!-- 12 -->
<g id="node13" class="node"><title>12</title>
<ellipse fill="none" stroke="black" cx="106" cy="-644" rx="27" ry="18"/>
<text text-anchor="middle" x="106" y="-640.3" font-family="Times New Roman,serif" font-size="14.00">e,i</text>
</g>
<!-- 9&#45;&gt;12 -->
<g id="edge16" class="edge"><title>9&#45;&gt;12</title>
<path fill="none" stroke="black" d="M228.072,-728.648C183.733,-725.797 98.4156,-717.463 80,-695 73.0914,-686.573 77.1153,-676.015 83.8668,-666.774"/>
<polygon fill="black" stroke="black" points="86.5695,-668.998 90.2957,-659.08 81.1979,-664.51 86.5695,-668.998"/>
</g>
<!-- 9&#45;&gt;12 -->
<g id="edge42" class="edge"><title>9&#45;&gt;12</title>
<path fill="none" stroke="black" d="M228.399,-727.091C191.397,-722.468 127.214,-712.169 112,-695 106.537,-688.835 104.282,-680.435 103.615,-672.281"/>
<polygon fill="black" stroke="black" points="107.114,-672.227 103.495,-662.269 100.115,-672.31 107.114,-672.227"/>
<text text-anchor="middle" x="115.5" y="-683.8" font-family="Times New Roman,serif" font-size="14.00">s</text>
</g>
<!-- 15 -->
<g id="node16" class="node"><title>15</title>
<ellipse fill="none" stroke="black" cx="139" cy="-105" rx="27" ry="18"/>
<text text-anchor="middle" x="139" y="-101.3" font-family="Times New Roman,serif" font-size="14.00">e,i</text>
</g>
<!-- 9&#45;&gt;15 -->
<g id="edge17" class="edge"><title>9&#45;&gt;15</title>
<path fill="none" stroke="black" d="M231.184,-722.461C217.318,-716.925 200.544,-708.066 190,-695 162.837,-661.34 163,-644.753 163,-601.5 163,-601.5 163,-601.5 163,-191 163,-170.683 156.571,-148.626 150.367,-132.074"/>
<polygon fill="black" stroke="black" points="153.53,-130.553 146.594,-122.544 147.021,-133.13 153.53,-130.553"/>
</g>
<!-- 9&#45;&gt;15 -->
<g id="edge44" class="edge"><title>9&#45;&gt;15</title>
<path fill="none" stroke="black" d="M244.402,-714.32C236.057,-701.031 225.025,-681.135 220,-662 187.576,-538.538 209,-502.649 209,-375 209,-375 209,-375 209,-191 209,-162.898 185.919,-139.043 166.264,-123.823"/>
<polygon fill="black" stroke="black" points="168.258,-120.945 158.128,-117.842 164.112,-126.585 168.258,-120.945"/>
<text text-anchor="middle" x="212.5" y="-407.3" font-family="Times New Roman,serif" font-size="14.00">s</text>
</g>
<!-- 20 -->
<g id="node21" class="node"><title>20</title>
<ellipse fill="none" stroke="black" cx="256" cy="-644" rx="27" ry="18"/>
<text text-anchor="middle" x="256" y="-640.3" font-family="Times New Roman,serif" font-size="14.00">e,i</text>
</g>
<!-- 9&#45;&gt;20 -->
<g id="edge21" class="edge"><title>9&#45;&gt;20</title>
<path fill="none" stroke="black" d="M249.694,-713.207C248.52,-701.448 248.432,-685.485 249.351,-671.958"/>
<polygon fill="black" stroke="black" points="252.859,-672.04 250.303,-661.758 245.889,-671.39 252.859,-672.04"/>
</g>
<!-- 22 -->
<g id="node23" class="node"><title>22</title>
<ellipse fill="none" stroke="black" cx="328" cy="-644" rx="27" ry="18"/>
<text text-anchor="middle" x="328" y="-640.3" font-family="Times New Roman,serif" font-size="14.00">e,i</text>
</g>
<!-- 9&#45;&gt;22 -->
<g id="edge19" class="edge"><title>9&#45;&gt;22</title>
<path fill="none" stroke="black" d="M263.617,-713.611C273.768,-699.972 290.367,-680.476 304.287,-665.749"/>
<polygon fill="black" stroke="black" points="306.828,-668.156 311.274,-658.539 301.801,-663.285 306.828,-668.156"/>
</g>
<!-- 9&#45;&gt;24 -->
<g id="edge23" class="edge"><title>9&#45;&gt;24</title>
<path fill="none" stroke="black" d="M271.567,-745.539C284.011,-758.163 300.57,-777.288 312.488,-792.577"/>
<polygon fill="black" stroke="black" points="309.746,-794.755 318.576,-800.611 315.325,-790.527 309.746,-794.755"/>
</g>
<!-- 10 -->
<g id="node11" class="node"><title>10</title>
<ellipse fill="none" stroke="black" cx="52" cy="-484" rx="27" ry="18"/>
<text text-anchor="middle" x="52" y="-480.3" font-family="Times New Roman,serif" font-size="14.00">e,i</text>
</g>
<!-- 11 -->
<g id="node12" class="node"><title>11</title>
<ellipse fill="none" stroke="black" cx="52" cy="-411" rx="27" ry="18"/>
<text text-anchor="middle" x="52" y="-407.3" font-family="Times New Roman,serif" font-size="14.00">s</text>
</g>
<!-- 10&#45;&gt;11 -->
<g id="edge2" class="edge"><title>10&#45;&gt;11</title>
<path fill="none" stroke="black" d="M46.1601,-466.174C45.2848,-458.039 45.0409,-448.076 45.4283,-438.921"/>
<polygon fill="black" stroke="black" points="48.9366,-438.933 46.1731,-428.705 41.9552,-438.424 48.9366,-438.933"/>
</g>
<!-- 13 -->
<g id="node14" class="node"><title>13</title>
<ellipse fill="none" stroke="black" cx="106" cy="-557" rx="27" ry="18"/>
<text text-anchor="middle" x="106" y="-553.3" font-family="Times New Roman,serif" font-size="14.00">e,p</text>
</g>
<!-- 10&#45;&gt;13 -->
<g id="edge3" class="edge"><title>10&#45;&gt;13</title>
<path fill="none" stroke="black" d="M68.1345,-498.985C76.2756,-508.085 85.8286,-520.214 93.4271,-530.945"/>
<polygon fill="black" stroke="black" points="90.7543,-533.238 99.2764,-539.533 96.5399,-529.297 90.7543,-533.238"/>
</g>
<!-- 11&#45;&gt;10 -->
<g id="edge1" class="edge"><title>11&#45;&gt;10</title>
<path fill="none" stroke="black" d="M57.8269,-428.705C58.7084,-436.822 58.9586,-446.78 58.5774,-455.942"/>
<polygon fill="black" stroke="black" points="55.068,-455.948 57.8399,-466.174 62.0499,-456.452 55.068,-455.948"/>
</g>
<!-- 30 -->
<g id="node31" class="node"><title>30</title>
<ellipse fill="none" stroke="black" cx="52" cy="-338" rx="27" ry="18"/>
</g>
<!-- 11&#45;&gt;30 -->
<g id="edge14" class="edge"><title>11&#45;&gt;30</title>
<path fill="none" stroke="black" d="M52,-392.813C52,-384.789 52,-375.047 52,-366.069"/>
<polygon fill="black" stroke="black" points="55.5001,-366.029 52,-356.029 48.5001,-366.029 55.5001,-366.029"/>
</g>
<!-- 12&#45;&gt;9 -->
<g id="edge15" class="edge"><title>12&#45;&gt;9</title>
<path fill="none" stroke="black" d="M111.856,-661.633C116.523,-672.598 124.098,-686.46 135,-695 158.874,-713.702 192.442,-722.415 218.006,-726.472"/>
<polygon fill="black" stroke="black" points="217.678,-729.961 228.07,-727.898 218.66,-723.03 217.678,-729.961"/>
</g>
<!-- 12&#45;&gt;9 -->
<g id="edge41" class="edge"><title>12&#45;&gt;9</title>
<path fill="none" stroke="black" d="M118.454,-660.357C128.016,-671.296 142.075,-685.658 157,-695 176.431,-707.162 200.675,-715.866 220.187,-721.552"/>
<polygon fill="black" stroke="black" points="219.337,-724.949 229.909,-724.253 221.211,-718.204 219.337,-724.949"/>
<text text-anchor="middle" x="160.5" y="-683.8" font-family="Times New Roman,serif" font-size="14.00">s</text>
</g>
<!-- 12&#45;&gt;13 -->
<g id="edge6" class="edge"><title>12&#45;&gt;13</title>
<path fill="none" stroke="black" d="M100.496,-626.207C99.1841,-614.448 98.9081,-598.485 99.6683,-584.958"/>
<polygon fill="black" stroke="black" points="103.176,-585.01 100.5,-574.758 96.1988,-584.441 103.176,-585.01"/>
</g>
<!-- 13&#45;&gt;10 -->
<g id="edge4" class="edge"><title>13&#45;&gt;10</title>
<path fill="none" stroke="black" d="M90.1302,-542.31C81.9094,-533.153 72.2001,-520.834 64.5088,-509.965"/>
<polygon fill="black" stroke="black" points="67.3638,-507.939 58.8401,-501.646 61.5792,-511.881 67.3638,-507.939"/>
</g>
<!-- 13&#45;&gt;12 -->
<g id="edge5" class="edge"><title>13&#45;&gt;12</title>
<path fill="none" stroke="black" d="M111.5,-574.758C112.814,-586.508 113.092,-602.47 112.334,-616.002"/>
<polygon fill="black" stroke="black" points="108.826,-615.956 111.504,-626.207 115.803,-616.524 108.826,-615.956"/>
</g>
<!-- 13&#45;&gt;15 -->
<g id="edge7" class="edge"><title>13&#45;&gt;15</title>
<path fill="none" stroke="black" d="M102.555,-538.879C103.612,-524.557 107,-503.548 107,-485 107,-485 107,-485 107,-191 107,-169.914 113.677,-146.875 121.243,-130.108"/>
<polygon fill="black" stroke="black" points="124.442,-131.536 125.757,-121.024 118.173,-128.422 124.442,-131.536"/>
</g>
<!-- 14 -->
<g id="node15" class="node"><title>14</title>
<ellipse fill="none" stroke="black" cx="52" cy="-192" rx="27" ry="18"/>
<text text-anchor="middle" x="52" y="-188.3" font-family="Times New Roman,serif" font-size="14.00">e,i</text>
</g>
<!-- 14&#45;&gt;15 -->
<g id="edge10" class="edge"><title>14&#45;&gt;15</title>
<path fill="none" stroke="black" d="M57.7911,-174.161C64.9911,-164.154 76.1683,-151.423 87,-141 93.8254,-134.432 101.757,-127.742 109.448,-121.994"/>
<polygon fill="black" stroke="black" points="111.51,-124.822 117.634,-116.177 107.455,-119.116 111.51,-124.822"/>
</g>
<!-- 18 -->
<g id="node19" class="node"><title>18</title>
<ellipse fill="none" stroke="black" cx="27" cy="-105" rx="27" ry="18"/>
<text text-anchor="middle" x="27" y="-101.3" font-family="Times New Roman,serif" font-size="14.00">e,p,i</text>
</g>
<!-- 14&#45;&gt;18 -->
<g id="edge66" class="edge"><title>14&#45;&gt;18</title>
<path fill="none" stroke="black" d="M38.8871,-176.01C34.5729,-170.165 30.2964,-163.156 28,-156 25.6919,-148.808 24.837,-140.729 24.7143,-133.198"/>
<polygon fill="black" stroke="black" points="28.2165,-133.143 24.9531,-123.064 21.2184,-132.978 28.2165,-133.143"/>
<text text-anchor="middle" x="31.5" y="-144.8" font-family="Times New Roman,serif" font-size="14.00">k</text>
</g>
<!-- 19 -->
<g id="node20" class="node"><title>19</title>
<ellipse fill="none" stroke="black" cx="52" cy="-265" rx="27" ry="18"/>
<text text-anchor="middle" x="52" y="-261.3" font-family="Times New Roman,serif" font-size="14.00">p</text>
</g>
<!-- 14&#45;&gt;19 -->
<g id="edge11" class="edge"><title>14&#45;&gt;19</title>
<path fill="none" stroke="black" d="M57.8269,-209.705C58.7084,-217.822 58.9586,-227.78 58.5774,-236.942"/>
<polygon fill="black" stroke="black" points="55.068,-236.948 57.8399,-247.174 62.0499,-237.452 55.068,-236.948"/>
</g>
<!-- 15&#45;&gt;9 -->
<g id="edge18" class="edge"><title>15&#45;&gt;9</title>
<path fill="none" stroke="black" d="M165.158,-109.738C226.603,-119.25 375,-146.798 375,-191 375,-375 375,-375 375,-375 375,-502.649 426.634,-550.774 364,-662 355.211,-677.608 314.543,-700.398 285.459,-715.215"/>
<polygon fill="black" stroke="black" points="283.843,-712.11 276.478,-719.726 286.985,-718.365 283.843,-712.11"/>
</g>
<!-- 15&#45;&gt;9 -->
<g id="edge43" class="edge"><title>15&#45;&gt;9</title>
<path fill="none" stroke="black" d="M165.784,-108.309C236.176,-115.11 421,-138.012 421,-191 421,-645 421,-645 421,-645 421,-710.205 351.709,-689.207 291,-713 289.166,-713.719 287.294,-714.488 285.416,-715.288"/>
<polygon fill="black" stroke="black" points="283.812,-712.171 276.112,-719.448 286.669,-718.562 283.812,-712.171"/>
<text text-anchor="middle" x="424.5" y="-407.3" font-family="Times New Roman,serif" font-size="14.00">s</text>
</g>
<!-- 15&#45;&gt;13 -->
<g id="edge8" class="edge"><title>15&#45;&gt;13</title>
<path fill="none" stroke="black" d="M138.353,-123.213C133.761,-140.128 125,-166.846 125,-191 125,-485 125,-485 125,-485 125,-500.126 122.747,-516.89 119.417,-530.328"/>
<polygon fill="black" stroke="black" points="115.95,-529.719 116.538,-540.297 122.675,-531.661 115.95,-529.719"/>
</g>
<!-- 15&#45;&gt;14 -->
<g id="edge9" class="edge"><title>15&#45;&gt;14</title>
<path fill="none" stroke="black" d="M127.151,-121.368C120.338,-127.253 112.075,-134.192 105,-141 95.3661,-150.27 85.4588,-161.366 76.6612,-170.748"/>
<polygon fill="black" stroke="black" points="73.9597,-168.508 69.5625,-178.147 79.0111,-173.354 73.9597,-168.508"/>
</g>
<!-- 16&#45;&gt;1 -->
<g id="edge53" class="edge"><title>16&#45;&gt;1</title>
<path fill="none" stroke="black" d="M140.667,-1062.32C137.002,-1056.51 133.296,-1049.7 131,-1043 128.536,-1035.8 127.054,-1027.72 126.17,-1020.19"/>
<polygon fill="black" stroke="black" points="129.642,-1019.72 125.281,-1010.06 122.669,-1020.33 129.642,-1019.72"/>
<text text-anchor="middle" x="133" y="-1031.8" font-family="Times New Roman,serif" font-size="14.00">l</text>
</g>
<!-- 16&#45;&gt;17 -->
<g id="edge52" class="edge"><title>16&#45;&gt;17</title>
<path fill="none" stroke="black" d="M157.323,-1096.76C161.093,-1108.62 166.226,-1124.79 170.552,-1138.4"/>
<polygon fill="black" stroke="black" points="167.302,-1139.74 173.666,-1148.21 173.974,-1137.62 167.302,-1139.74"/>
<text text-anchor="middle" x="170" y="-1118.8" font-family="Times New Roman,serif" font-size="14.00">l</text>
</g>
<!-- 17&#45;&gt;0 -->
<g id="edge61" class="edge"><title>17&#45;&gt;0</title>
<path fill="none" stroke="black" d="M188.342,-1183.21C195.516,-1195.65 205.547,-1213.05 213.725,-1227.24"/>
<polygon fill="black" stroke="black" points="210.757,-1229.1 218.783,-1236.01 216.821,-1225.6 210.757,-1229.1"/>
<text text-anchor="middle" x="210.5" y="-1205.8" font-family="Times New Roman,serif" font-size="14.00">k</text>
</g>
<!-- 17&#45;&gt;16 -->
<g id="edge51" class="edge"><title>17&#45;&gt;16</title>
<path fill="none" stroke="black" d="M167.667,-1149.32C164.002,-1143.51 160.296,-1136.7 158,-1130 155.536,-1122.8 154.054,-1114.72 153.17,-1107.19"/>
<polygon fill="black" stroke="black" points="156.642,-1106.72 152.281,-1097.06 149.669,-1107.33 156.642,-1106.72"/>
<text text-anchor="middle" x="160" y="-1118.8" font-family="Times New Roman,serif" font-size="14.00">l</text>
</g>
<!-- 18&#45;&gt;14 -->
<g id="edge65" class="edge"><title>18&#45;&gt;14</title>
<path fill="none" stroke="black" d="M31.9289,-122.758C35.419,-134.625 40.1725,-150.787 44.1775,-164.403"/>
<polygon fill="black" stroke="black" points="40.8813,-165.601 47.0608,-174.207 47.5969,-163.625 40.8813,-165.601"/>
<text text-anchor="middle" x="44.5" y="-144.8" font-family="Times New Roman,serif" font-size="14.00">k</text>
</g>
<!-- 21 -->
<g id="node22" class="node"><title>21</title>
<ellipse fill="none" stroke="black" cx="27" cy="-18" rx="27" ry="18"/>
<text text-anchor="middle" x="27" y="-14.3" font-family="Times New Roman,serif" font-size="14.00">K,p</text>
</g>
<!-- 18&#45;&gt;21 -->
<g id="edge37" class="edge"><title>18&#45;&gt;21</title>
<path fill="none" stroke="black" d="M25.8282,-86.9185C25.4897,-81.2225 25.1667,-74.8405 25,-69 24.7901,-61.6485 24.9378,-53.6914 25.2294,-46.3331"/>
<polygon fill="black" stroke="black" points="28.7361,-46.2819 25.7349,-36.1211 21.7447,-45.9358 28.7361,-46.2819"/>
</g>
<!-- 19&#45;&gt;14 -->
<g id="edge12" class="edge"><title>19&#45;&gt;14</title>
<path fill="none" stroke="black" d="M46.1601,-247.174C45.2848,-239.039 45.0409,-229.076 45.4283,-219.921"/>
<polygon fill="black" stroke="black" points="48.9366,-219.933 46.1731,-209.705 41.9552,-219.424 48.9366,-219.933"/>
</g>
<!-- 20&#45;&gt;9 -->
<g id="edge22" class="edge"><title>20&#45;&gt;9</title>
<path fill="none" stroke="black" d="M261.303,-661.758C262.479,-673.508 262.569,-689.47 261.652,-703.002"/>
<polygon fill="black" stroke="black" points="258.144,-702.925 260.701,-713.207 265.114,-703.574 258.144,-702.925"/>
</g>
<!-- 23 -->
<g id="node24" class="node"><title>23</title>
<ellipse fill="none" stroke="black" cx="263" cy="-557" rx="27" ry="18"/>
<text text-anchor="middle" x="263" y="-553.3" font-family="Times New Roman,serif" font-size="14.00">e</text>
</g>
<!-- 20&#45;&gt;23 -->
<g id="edge40" class="edge"><title>20&#45;&gt;23</title>
<path fill="none" stroke="black" d="M256.8,-625.859C257.308,-616.199 258.049,-603.916 259,-593 259.223,-590.441 259.48,-587.78 259.755,-585.118"/>
<polygon fill="black" stroke="black" points="263.245,-585.395 260.863,-575.071 256.288,-584.627 263.245,-585.395"/>
<text text-anchor="middle" x="261" y="-596.8" font-family="Times New Roman,serif" font-size="14.00">l</text>
</g>
<!-- 21&#45;&gt;18 -->
<g id="edge38" class="edge"><title>21&#45;&gt;18</title>
<path fill="none" stroke="black" d="M27,-36.1754C27,-47.806 27,-63.4194 27,-76.7339"/>
<polygon fill="black" stroke="black" points="23.5001,-76.7989 27,-86.799 30.5001,-76.799 23.5001,-76.7989"/>
<text text-anchor="middle" x="29" y="-57.8" font-family="Times New Roman,serif" font-size="14.00">l</text>
</g>
<!-- 22&#45;&gt;9 -->
<g id="edge20" class="edge"><title>22&#45;&gt;9</title>
<path fill="none" stroke="black" d="M319.383,-661.389C309.174,-675.106 292.442,-694.749 278.473,-709.505"/>
<polygon fill="black" stroke="black" points="275.924,-707.106 271.469,-716.719 280.946,-711.982 275.924,-707.106"/>
</g>
<!-- 23&#45;&gt;20 -->
<g id="edge39" class="edge"><title>23&#45;&gt;20</title>
<path fill="none" stroke="black" d="M261.586,-575.175C260.628,-586.806 259.342,-602.419 258.245,-615.734"/>
<polygon fill="black" stroke="black" points="254.749,-615.545 257.417,-625.799 261.726,-616.12 254.749,-615.545"/>
</g>
<!-- 24&#45;&gt;7 -->
<g id="edge30" class="edge"><title>24&#45;&gt;7</title>
<path fill="none" stroke="black" d="M332.5,-835.758C333.814,-847.508 334.092,-863.47 333.334,-877.002"/>
<polygon fill="black" stroke="black" points="329.826,-876.956 332.504,-887.207 336.803,-877.524 329.826,-876.956"/>
</g>
<!-- 24&#45;&gt;9 -->
<g id="edge24" class="edge"><title>24&#45;&gt;9</title>
<path fill="none" stroke="black" d="M310.317,-803.343C297.841,-790.673 281.273,-771.525 269.383,-756.256"/>
<polygon fill="black" stroke="black" points="272.14,-754.099 263.314,-748.238 266.558,-758.324 272.14,-754.099"/>
</g>
<!-- 25 -->
<g id="node26" class="node"><title>25</title>
<ellipse fill="none" stroke="black" cx="327" cy="-731" rx="27" ry="18"/>
<text text-anchor="middle" x="327" y="-727.3" font-family="Times New Roman,serif" font-size="14.00">p,k</text>
</g>
<!-- 24&#45;&gt;25 -->
<g id="edge25" class="edge"><title>24&#45;&gt;25</title>
<path fill="none" stroke="black" d="M321.496,-800.207C320.184,-788.448 319.908,-772.485 320.668,-758.958"/>
<polygon fill="black" stroke="black" points="324.176,-759.01 321.5,-748.758 317.199,-758.441 324.176,-759.01"/>
</g>
<!-- 27 -->
<g id="node28" class="node"><title>27</title>
<ellipse fill="none" stroke="black" cx="422" cy="-731" rx="27" ry="18"/>
<text text-anchor="middle" x="422" y="-727.3" font-family="Times New Roman,serif" font-size="14.00">p,i</text>
</g>
<!-- 24&#45;&gt;27 -->
<g id="edge31" class="edge"><title>24&#45;&gt;27</title>
<path fill="none" stroke="black" d="M340.981,-802.07C350.762,-791.865 364.3,-778.212 377,-767 383.156,-761.565 390.049,-755.977 396.554,-750.906"/>
<polygon fill="black" stroke="black" points="398.697,-753.672 404.501,-744.809 394.437,-748.118 398.697,-753.672"/>
</g>
<!-- 25&#45;&gt;24 -->
<g id="edge26" class="edge"><title>25&#45;&gt;24</title>
<path fill="none" stroke="black" d="M332.5,-748.758C333.814,-760.508 334.092,-776.47 333.334,-790.002"/>
<polygon fill="black" stroke="black" points="329.826,-789.956 332.504,-800.207 336.803,-790.524 329.826,-789.956"/>
</g>
<!-- 26 -->
<g id="node27" class="node"><title>26</title>
<ellipse fill="none" stroke="black" cx="477" cy="-644" rx="27" ry="18"/>
<text text-anchor="middle" x="477" y="-640.3" font-family="Times New Roman,serif" font-size="14.00">I</text>
</g>
<!-- 26&#45;&gt;27 -->
<g id="edge34" class="edge"><title>26&#45;&gt;27</title>
<path fill="none" stroke="black" d="M472.097,-662.04C468.744,-672.118 463.691,-684.853 457,-695 453.666,-700.055 449.516,-704.98 445.251,-709.462"/>
<polygon fill="black" stroke="black" points="442.746,-707.017 438.09,-716.533 447.665,-711.998 442.746,-707.017"/>
<text text-anchor="middle" x="466" y="-683.8" font-family="Times New Roman,serif" font-size="14.00">l</text>
</g>
<!-- 27&#45;&gt;24 -->
<g id="edge32" class="edge"><title>27&#45;&gt;24</title>
<path fill="none" stroke="black" d="M409.105,-747.141C400.02,-757.441 387.326,-771.12 375,-782 368.476,-787.759 361.038,-793.523 353.998,-798.665"/>
<polygon fill="black" stroke="black" points="351.505,-796.143 345.391,-804.796 355.567,-801.844 351.505,-796.143"/>
<text text-anchor="middle" x="392" y="-770.8" font-family="Times New Roman,serif" font-size="14.00">l</text>
</g>
<!-- 27&#45;&gt;26 -->
<g id="edge33" class="edge"><title>27&#45;&gt;26</title>
<path fill="none" stroke="black" d="M432.345,-714.012C440.488,-701.427 451.973,-683.679 461.255,-669.333"/>
<polygon fill="black" stroke="black" points="464.207,-671.213 466.701,-660.916 458.33,-667.41 464.207,-671.213"/>
</g>
<!-- 28&#45;&gt;8 -->
<g id="edge46" class="edge"><title>28&#45;&gt;8</title>
<path fill="none" stroke="black" d="M282.496,-1061.21C281.184,-1049.45 280.908,-1033.48 281.668,-1019.96"/>
<polygon fill="black" stroke="black" points="285.176,-1020.01 282.5,-1009.76 278.199,-1019.44 285.176,-1020.01"/>
</g>
<!-- 28&#45;&gt;29 -->
<g id="edge47" class="edge"><title>28&#45;&gt;29</title>
<path fill="none" stroke="black" d="M284.027,-1096.89C281.261,-1108.64 277.514,-1124.57 274.339,-1138.06"/>
<polygon fill="black" stroke="black" points="270.931,-1137.26 272.047,-1147.8 277.745,-1138.87 270.931,-1137.26"/>
</g>
<!-- 29&#45;&gt;0 -->
<g id="edge49" class="edge"><title>29&#45;&gt;0</title>
<path fill="none" stroke="black" d="M262.392,-1183.98C258.939,-1193.81 254.189,-1206.31 249,-1217 247.324,-1220.45 245.416,-1224.01 243.45,-1227.48"/>
<polygon fill="black" stroke="black" points="240.312,-1225.91 238.229,-1236.3 246.335,-1229.48 240.312,-1225.91"/>
</g>
<!-- 29&#45;&gt;28 -->
<g id="edge48" class="edge"><title>29&#45;&gt;28</title>
<path fill="none" stroke="black" d="M268.436,-1147.65C269.002,-1137.92 270.256,-1125.64 273,-1115 273.783,-1111.96 274.792,-1108.85 275.915,-1105.79"/>
<polygon fill="black" stroke="black" points="279.22,-1106.95 279.76,-1096.37 272.739,-1104.31 279.22,-1106.95"/>
<text text-anchor="middle" x="275.5" y="-1118.8" font-family="Times New Roman,serif" font-size="14.00">I</text>
</g>
<!-- 30&#45;&gt;19 -->
<g id="edge13" class="edge"><title>30&#45;&gt;19</title>
<path fill="none" stroke="black" d="M52,-319.813C52,-311.789 52,-302.047 52,-293.069"/>
<polygon fill="black" stroke="black" points="55.5001,-293.029 52,-283.029 48.5001,-293.029 55.5001,-293.029"/>
</g>
</g>
</svg>
