<?xml version="1.0" encoding="UTF-8" standalone="no"?>
<!DOCTYPE svg PUBLIC "-//W3C//DTD SVG 1.1//EN"
 "http://www.w3.org/Graphics/SVG/1.1/DTD/svg11.dtd">
<!-- Generated by graphviz version 2.38.0 (20140413.2041)
 -->
<!-- Title: %3 Pages: 1 -->
<svg width="339pt" height="1119pt"
 viewBox="0.00 0.00 339.00 1119.00" xmlns="http://www.w3.org/2000/svg" xmlns:xlink="http://www.w3.org/1999/xlink">
<g id="graph0" class="graph" transform="scale(1 1) rotate(0) translate(4 1115)">
<title>%3</title>
<polygon fill="white" stroke="none" points="-4,4 -4,-1115 335,-1115 335,4 -4,4"/>
<!-- 0 -->
<g id="node1" class="node"><title>0</title>
<ellipse fill="none" stroke="black" cx="217" cy="-1093" rx="27.0966" ry="18"/>
<text text-anchor="middle" x="217" y="-1089.3" font-family="Times New Roman,serif" font-size="14.00">e,p,I</text>
</g>
<!-- 1 -->
<g id="node2" class="node"><title>1</title>
<ellipse fill="none" stroke="black" cx="217" cy="-1006" rx="27" ry="18"/>
<text text-anchor="middle" x="217" y="-1002.3" font-family="Times New Roman,serif" font-size="14.00">e,p</text>
</g>
<!-- 0&#45;&gt;1 -->
<g id="edge41" class="edge"><title>0&#45;&gt;1</title>
<path fill="none" stroke="black" d="M209.591,-1075.45C206.121,-1065.77 203.121,-1053.27 205,-1042 205.485,-1039.09 206.183,-1036.1 207,-1033.14"/>
<polygon fill="black" stroke="black" points="210.39,-1034.03 210.112,-1023.44 203.725,-1031.9 210.39,-1034.03"/>
<text text-anchor="middle" x="208.5" y="-1045.8" font-family="Times New Roman,serif" font-size="14.00">k</text>
</g>
<!-- 1&#45;&gt;0 -->
<g id="edge42" class="edge"><title>1&#45;&gt;0</title>
<path fill="none" stroke="black" d="M217,-1024.18C217,-1035.81 217,-1051.42 217,-1064.73"/>
<polygon fill="black" stroke="black" points="213.5,-1064.8 217,-1074.8 220.5,-1064.8 213.5,-1064.8"/>
<text text-anchor="middle" x="220.5" y="-1045.8" font-family="Times New Roman,serif" font-size="14.00">k</text>
</g>
<!-- 3 -->
<g id="node4" class="node"><title>3</title>
<ellipse fill="none" stroke="black" cx="134" cy="-919" rx="27" ry="18"/>
<text text-anchor="middle" x="134" y="-915.3" font-family="Times New Roman,serif" font-size="14.00">e</text>
</g>
<!-- 1&#45;&gt;3 -->
<g id="edge62" class="edge"><title>1&#45;&gt;3</title>
<path fill="none" stroke="black" d="M196.09,-994.535C185.309,-988.423 172.473,-979.954 163,-970 156.265,-962.923 150.458,-953.997 145.848,-945.652"/>
<polygon fill="black" stroke="black" points="148.871,-943.878 141.165,-936.607 142.654,-947.096 148.871,-943.878"/>
<text text-anchor="middle" x="165" y="-958.8" font-family="Times New Roman,serif" font-size="14.00">l</text>
</g>
<!-- 6 -->
<g id="node7" class="node"><title>6</title>
<ellipse fill="none" stroke="black" cx="208" cy="-919" rx="27" ry="18"/>
<text text-anchor="middle" x="208" y="-915.3" font-family="Times New Roman,serif" font-size="14.00">e,p</text>
</g>
<!-- 1&#45;&gt;6 -->
<g id="edge57" class="edge"><title>1&#45;&gt;6</title>
<path fill="none" stroke="black" d="M211.734,-988.077C210.211,-982.391 208.756,-975.975 208,-970 207.078,-962.709 206.765,-954.773 206.76,-947.415"/>
<polygon fill="black" stroke="black" points="210.264,-947.251 206.938,-937.191 203.265,-947.129 210.264,-947.251"/>
<text text-anchor="middle" x="210.5" y="-958.8" font-family="Times New Roman,serif" font-size="14.00">I</text>
</g>
<!-- 7 -->
<g id="node8" class="node"><title>7</title>
<ellipse fill="none" stroke="black" cx="281" cy="-919" rx="27" ry="18"/>
<text text-anchor="middle" x="281" y="-915.3" font-family="Times New Roman,serif" font-size="14.00">e</text>
</g>
<!-- 1&#45;&gt;7 -->
<g id="edge26" class="edge"><title>1&#45;&gt;7</title>
<path fill="none" stroke="black" d="M224.141,-988.207C232.649,-974.941 246.505,-956.323 258.53,-941.889"/>
<polygon fill="black" stroke="black" points="261.49,-943.815 265.345,-933.947 256.177,-939.257 261.49,-943.815"/>
</g>
<!-- 2 -->
<g id="node3" class="node"><title>2</title>
<ellipse fill="none" stroke="black" cx="62" cy="-832" rx="27" ry="18"/>
</g>
<!-- 2&#45;&gt;3 -->
<g id="edge59" class="edge"><title>2&#45;&gt;3</title>
<path fill="none" stroke="black" d="M74.7607,-848.065C85.7843,-861.079 101.885,-880.087 114.52,-895.002"/>
<polygon fill="black" stroke="black" points="111.994,-897.435 121.128,-902.804 117.335,-892.911 111.994,-897.435"/>
<text text-anchor="middle" x="105.5" y="-871.8" font-family="Times New Roman,serif" font-size="14.00">I</text>
</g>
<!-- 3&#45;&gt;1 -->
<g id="edge61" class="edge"><title>3&#45;&gt;1</title>
<path fill="none" stroke="black" d="M148.149,-934.49C161.169,-947.824 180.664,-967.789 195.59,-983.074"/>
<polygon fill="black" stroke="black" points="193.43,-985.871 202.92,-990.581 198.438,-980.981 193.43,-985.871"/>
</g>
<!-- 3&#45;&gt;2 -->
<g id="edge60" class="edge"><title>3&#45;&gt;2</title>
<path fill="none" stroke="black" d="M113.487,-906.742C103.885,-900.686 92.8603,-892.507 85,-883 79.2865,-876.089 74.6712,-867.526 71.1167,-859.451"/>
<polygon fill="black" stroke="black" points="74.2874,-857.955 67.3045,-849.987 67.7943,-860.57 74.2874,-857.955"/>
<text text-anchor="middle" x="87.5" y="-871.8" font-family="Times New Roman,serif" font-size="14.00">I</text>
</g>
<!-- 19 -->
<g id="node20" class="node"><title>19</title>
<ellipse fill="none" stroke="black" cx="134" cy="-832" rx="27" ry="18"/>
<text text-anchor="middle" x="134" y="-828.3" font-family="Times New Roman,serif" font-size="14.00">e,p</text>
</g>
<!-- 3&#45;&gt;19 -->
<g id="edge66" class="edge"><title>3&#45;&gt;19</title>
<path fill="none" stroke="black" d="M128.496,-901.207C127.184,-889.448 126.908,-873.485 127.668,-859.958"/>
<polygon fill="black" stroke="black" points="131.176,-860.01 128.5,-849.758 124.199,-859.441 131.176,-860.01"/>
</g>
<!-- 4 -->
<g id="node5" class="node"><title>4</title>
<ellipse fill="none" stroke="black" cx="290" cy="-91" rx="27" ry="18"/>
<text text-anchor="middle" x="290" y="-87.3" font-family="Times New Roman,serif" font-size="14.00">b</text>
</g>
<!-- 5 -->
<g id="node6" class="node"><title>5</title>
<ellipse fill="none" stroke="black" cx="290" cy="-18" rx="27" ry="18"/>
<text text-anchor="middle" x="290" y="-14.3" font-family="Times New Roman,serif" font-size="14.00">t</text>
</g>
<!-- 4&#45;&gt;5 -->
<g id="edge23" class="edge"><title>4&#45;&gt;5</title>
<path fill="none" stroke="black" d="M284.16,-73.174C283.285,-65.0392 283.041,-55.0756 283.428,-45.9214"/>
<polygon fill="black" stroke="black" points="286.937,-45.9333 284.173,-35.7052 279.955,-45.4242 286.937,-45.9333"/>
</g>
<!-- 20 -->
<g id="node21" class="node"><title>20</title>
<ellipse fill="none" stroke="black" cx="274" cy="-178" rx="27" ry="18"/>
<text text-anchor="middle" x="274" y="-174.3" font-family="Times New Roman,serif" font-size="14.00">e,k</text>
</g>
<!-- 4&#45;&gt;20 -->
<g id="edge46" class="edge"><title>4&#45;&gt;20</title>
<path fill="none" stroke="black" d="M293.555,-108.908C294.99,-118.711 295.74,-131.211 293,-142 292.123,-145.455 290.828,-148.939 289.319,-152.299"/>
<polygon fill="black" stroke="black" points="286.143,-150.823 284.672,-161.315 292.365,-154.03 286.143,-150.823"/>
<text text-anchor="middle" x="312" y="-130.8" font-family="Times New Roman,serif" font-size="14.00">S2,S3</text>
</g>
<!-- 5&#45;&gt;4 -->
<g id="edge24" class="edge"><title>5&#45;&gt;4</title>
<path fill="none" stroke="black" d="M295.827,-35.7052C296.708,-43.8218 296.959,-53.7804 296.577,-62.9424"/>
<polygon fill="black" stroke="black" points="293.068,-62.9482 295.84,-73.174 300.05,-63.4515 293.068,-62.9482"/>
</g>
<!-- 6&#45;&gt;1 -->
<g id="edge58" class="edge"><title>6&#45;&gt;1</title>
<path fill="none" stroke="black" d="M209.819,-937.175C211.05,-948.806 212.703,-964.419 214.113,-977.734"/>
<polygon fill="black" stroke="black" points="210.645,-978.223 215.179,-987.799 217.606,-977.486 210.645,-978.223"/>
<text text-anchor="middle" x="216.5" y="-958.8" font-family="Times New Roman,serif" font-size="14.00">I</text>
</g>
<!-- 7&#45;&gt;1 -->
<g id="edge25" class="edge"><title>7&#45;&gt;1</title>
<path fill="none" stroke="black" d="M273.928,-936.686C265.447,-949.926 251.595,-968.547 239.558,-983.005"/>
<polygon fill="black" stroke="black" points="236.586,-981.094 232.735,-990.964 241.9,-985.65 236.586,-981.094"/>
</g>
<!-- 8 -->
<g id="node9" class="node"><title>8</title>
<ellipse fill="none" stroke="black" cx="282" cy="-832" rx="27" ry="18"/>
<text text-anchor="middle" x="282" y="-828.3" font-family="Times New Roman,serif" font-size="14.00">e</text>
</g>
<!-- 7&#45;&gt;8 -->
<g id="edge27" class="edge"><title>7&#45;&gt;8</title>
<path fill="none" stroke="black" d="M275.694,-901.207C274.52,-889.448 274.432,-873.485 275.351,-859.958"/>
<polygon fill="black" stroke="black" points="278.859,-860.04 276.303,-849.758 271.889,-859.39 278.859,-860.04"/>
</g>
<!-- 8&#45;&gt;7 -->
<g id="edge28" class="edge"><title>8&#45;&gt;7</title>
<path fill="none" stroke="black" d="M287.303,-849.758C288.479,-861.508 288.569,-877.47 287.652,-891.002"/>
<polygon fill="black" stroke="black" points="284.144,-890.925 286.701,-901.207 291.114,-891.574 284.144,-890.925"/>
</g>
<!-- 26 -->
<g id="node27" class="node"><title>26</title>
<ellipse fill="none" stroke="black" cx="282" cy="-759" rx="27" ry="18"/>
<text text-anchor="middle" x="282" y="-755.3" font-family="Times New Roman,serif" font-size="14.00">e</text>
</g>
<!-- 8&#45;&gt;26 -->
<g id="edge35" class="edge"><title>8&#45;&gt;26</title>
<path fill="none" stroke="black" d="M276.16,-814.174C275.285,-806.039 275.041,-796.076 275.428,-786.921"/>
<polygon fill="black" stroke="black" points="278.937,-786.933 276.173,-776.705 271.955,-786.424 278.937,-786.933"/>
</g>
<!-- 9 -->
<g id="node10" class="node"><title>9</title>
<ellipse fill="none" stroke="black" cx="135" cy="-265" rx="27" ry="18"/>
<text text-anchor="middle" x="135" y="-261.3" font-family="Times New Roman,serif" font-size="14.00">e,p,i</text>
</g>
<!-- 12 -->
<g id="node13" class="node"><title>12</title>
<ellipse fill="none" stroke="black" cx="207" cy="-338" rx="27" ry="18"/>
<text text-anchor="middle" x="207" y="-334.3" font-family="Times New Roman,serif" font-size="14.00">e,p,i</text>
</g>
<!-- 9&#45;&gt;12 -->
<g id="edge3" class="edge"><title>9&#45;&gt;12</title>
<path fill="none" stroke="black" d="M153.126,-278.64C164.483,-288.405 178.811,-302.185 189.947,-313.903"/>
<polygon fill="black" stroke="black" points="187.38,-316.281 196.741,-321.243 192.517,-311.526 187.38,-316.281"/>
</g>
<!-- 16 -->
<g id="node17" class="node"><title>16</title>
<ellipse fill="none" stroke="black" cx="122" cy="-178" rx="27" ry="18"/>
<text text-anchor="middle" x="122" y="-174.3" font-family="Times New Roman,serif" font-size="14.00">s</text>
</g>
<!-- 9&#45;&gt;16 -->
<g id="edge2" class="edge"><title>9&#45;&gt;16</title>
<path fill="none" stroke="black" d="M127.035,-247.611C123.899,-235.887 121.148,-219.834 119.815,-206.203"/>
<polygon fill="black" stroke="black" points="123.284,-205.641 119.07,-195.92 116.302,-206.147 123.284,-205.641"/>
</g>
<!-- 10 -->
<g id="node11" class="node"><title>10</title>
<ellipse fill="none" stroke="black" cx="194" cy="-91" rx="27" ry="18"/>
<text text-anchor="middle" x="194" y="-87.3" font-family="Times New Roman,serif" font-size="14.00">K</text>
</g>
<!-- 13 -->
<g id="node14" class="node"><title>13</title>
<ellipse fill="none" stroke="black" cx="194" cy="-178" rx="27" ry="18"/>
<text text-anchor="middle" x="194" y="-174.3" font-family="Times New Roman,serif" font-size="14.00">e,p,i</text>
</g>
<!-- 10&#45;&gt;13 -->
<g id="edge14" class="edge"><title>10&#45;&gt;13</title>
<path fill="none" stroke="black" d="M199.5,-108.758C200.814,-120.508 201.092,-136.47 200.334,-150.002"/>
<polygon fill="black" stroke="black" points="196.826,-149.956 199.504,-160.207 203.803,-150.524 196.826,-149.956"/>
</g>
<!-- 11 -->
<g id="node12" class="node"><title>11</title>
<ellipse fill="none" stroke="black" cx="207" cy="-425" rx="27" ry="18"/>
</g>
<!-- 11&#45;&gt;12 -->
<g id="edge6" class="edge"><title>11&#45;&gt;12</title>
<path fill="none" stroke="black" d="M201.496,-407.207C200.184,-395.448 199.908,-379.485 200.668,-365.958"/>
<polygon fill="black" stroke="black" points="204.176,-366.01 201.5,-355.758 197.199,-365.441 204.176,-366.01"/>
</g>
<!-- 15 -->
<g id="node16" class="node"><title>15</title>
<ellipse fill="none" stroke="black" cx="209" cy="-512" rx="27" ry="18"/>
</g>
<!-- 11&#45;&gt;15 -->
<g id="edge7" class="edge"><title>11&#45;&gt;15</title>
<path fill="none" stroke="black" d="M212.894,-442.758C214.485,-454.508 215.138,-470.47 214.699,-484.002"/>
<polygon fill="black" stroke="black" points="211.192,-484.021 214.109,-494.207 218.18,-484.425 211.192,-484.021"/>
</g>
<!-- 12&#45;&gt;9 -->
<g id="edge4" class="edge"><title>12&#45;&gt;9</title>
<path fill="none" stroke="black" d="M188.812,-324.307C177.585,-314.649 163.472,-301.086 152.409,-289.471"/>
<polygon fill="black" stroke="black" points="154.675,-286.768 145.31,-281.814 149.542,-291.527 154.675,-286.768"/>
</g>
<!-- 12&#45;&gt;11 -->
<g id="edge5" class="edge"><title>12&#45;&gt;11</title>
<path fill="none" stroke="black" d="M212.5,-355.758C213.814,-367.508 214.092,-383.47 213.334,-397.002"/>
<polygon fill="black" stroke="black" points="209.826,-396.956 212.504,-407.207 216.803,-397.524 209.826,-396.956"/>
</g>
<!-- 14 -->
<g id="node15" class="node"><title>14</title>
<ellipse fill="none" stroke="black" cx="207" cy="-265" rx="27" ry="18"/>
<text text-anchor="middle" x="207" y="-261.3" font-family="Times New Roman,serif" font-size="14.00">e,p</text>
</g>
<!-- 12&#45;&gt;14 -->
<g id="edge9" class="edge"><title>12&#45;&gt;14</title>
<path fill="none" stroke="black" d="M201.16,-320.174C200.285,-312.039 200.041,-302.076 200.428,-292.921"/>
<polygon fill="black" stroke="black" points="203.937,-292.933 201.173,-282.705 196.955,-292.424 203.937,-292.933"/>
</g>
<!-- 13&#45;&gt;10 -->
<g id="edge13" class="edge"><title>13&#45;&gt;10</title>
<path fill="none" stroke="black" d="M188.496,-160.207C187.184,-148.448 186.908,-132.485 187.668,-118.958"/>
<polygon fill="black" stroke="black" points="191.176,-119.01 188.5,-108.758 184.199,-118.441 191.176,-119.01"/>
</g>
<!-- 13&#45;&gt;14 -->
<g id="edge12" class="edge"><title>13&#45;&gt;14</title>
<path fill="none" stroke="black" d="M201.943,-195.31C205.068,-206.963 207.812,-222.921 209.158,-236.523"/>
<polygon fill="black" stroke="black" points="205.69,-237.084 209.918,-246.799 212.671,-236.568 205.69,-237.084"/>
</g>
<!-- 14&#45;&gt;12 -->
<g id="edge10" class="edge"><title>14&#45;&gt;12</title>
<path fill="none" stroke="black" d="M212.827,-282.705C213.708,-290.822 213.959,-300.78 213.577,-309.942"/>
<polygon fill="black" stroke="black" points="210.068,-309.948 212.84,-320.174 217.05,-310.452 210.068,-309.948"/>
</g>
<!-- 14&#45;&gt;13 -->
<g id="edge11" class="edge"><title>14&#45;&gt;13</title>
<path fill="none" stroke="black" d="M199.035,-247.611C195.899,-235.887 193.148,-219.834 191.815,-206.203"/>
<polygon fill="black" stroke="black" points="195.284,-205.641 191.07,-195.92 188.302,-206.147 195.284,-205.641"/>
</g>
<!-- 14&#45;&gt;20 -->
<g id="edge29" class="edge"><title>14&#45;&gt;20</title>
<path fill="none" stroke="black" d="M212.067,-247.121C215.695,-236.858 221.304,-223.873 229,-214 233.853,-207.775 240.049,-202.032 246.281,-197.074"/>
<polygon fill="black" stroke="black" points="248.742,-199.605 254.678,-190.83 244.565,-193.988 248.742,-199.605"/>
<text text-anchor="middle" x="234" y="-217.8" font-family="Times New Roman,serif" font-size="14.00">K</text>
</g>
<!-- 15&#45;&gt;11 -->
<g id="edge8" class="edge"><title>15&#45;&gt;11</title>
<path fill="none" stroke="black" d="M203.101,-494.207C201.512,-482.448 200.861,-466.485 201.303,-452.958"/>
<polygon fill="black" stroke="black" points="204.809,-452.944 201.894,-442.758 197.821,-452.539 204.809,-452.944"/>
</g>
<!-- 18 -->
<g id="node19" class="node"><title>18</title>
<ellipse fill="none" stroke="black" cx="211" cy="-599" rx="27" ry="18"/>
<text text-anchor="middle" x="211" y="-595.3" font-family="Times New Roman,serif" font-size="14.00">e,p</text>
</g>
<!-- 15&#45;&gt;18 -->
<g id="edge51" class="edge"><title>15&#45;&gt;18</title>
<path fill="none" stroke="black" d="M215.888,-529.444C217.964,-535.206 219.965,-541.791 221,-548 222.281,-555.684 221.499,-563.994 219.922,-571.591"/>
<polygon fill="black" stroke="black" points="216.505,-570.826 217.397,-581.383 223.283,-572.573 216.505,-570.826"/>
<text text-anchor="middle" x="225.5" y="-551.8" font-family="Times New Roman,serif" font-size="14.00">s</text>
</g>
<!-- 16&#45;&gt;9 -->
<g id="edge1" class="edge"><title>16&#45;&gt;9</title>
<path fill="none" stroke="black" d="M129.943,-195.31C133.068,-206.963 135.812,-222.921 137.158,-236.523"/>
<polygon fill="black" stroke="black" points="133.69,-237.084 137.918,-246.799 140.671,-236.568 133.69,-237.084"/>
</g>
<!-- 17 -->
<g id="node18" class="node"><title>17</title>
<ellipse fill="none" stroke="black" cx="27" cy="-512" rx="27" ry="18"/>
</g>
<!-- 17&#45;&gt;18 -->
<g id="edge49" class="edge"><title>17&#45;&gt;18</title>
<path fill="none" stroke="black" d="M47.5672,-523.831C52.5214,-526.125 57.8681,-528.348 63,-530 105.154,-543.569 121.792,-527.412 161,-548 173.227,-554.421 184.364,-564.854 193.007,-574.533"/>
<polygon fill="black" stroke="black" points="190.518,-577.01 199.65,-582.382 195.861,-572.488 190.518,-577.01"/>
<text text-anchor="middle" x="185.5" y="-551.8" font-family="Times New Roman,serif" font-size="14.00">s</text>
</g>
<!-- 17&#45;&gt;19 -->
<g id="edge48" class="edge"><title>17&#45;&gt;19</title>
<path fill="none" stroke="black" d="M33.7613,-529.613C36,-546.747 36,-574.241 36,-598 36,-760 36,-760 36,-760 36,-768.991 78.4854,-794.842 107.662,-812.736"/>
<polygon fill="black" stroke="black" points="105.877,-815.747 116.228,-818.006 109.545,-809.785 105.877,-815.747"/>
</g>
<!-- 18&#45;&gt;15 -->
<g id="edge52" class="edge"><title>18&#45;&gt;15</title>
<path fill="none" stroke="black" d="M210.595,-580.799C210.321,-569.163 209.954,-553.548 209.641,-540.237"/>
<polygon fill="black" stroke="black" points="213.138,-540.09 209.404,-530.175 206.14,-540.255 213.138,-540.09"/>
<text text-anchor="middle" x="214.5" y="-551.8" font-family="Times New Roman,serif" font-size="14.00">s</text>
</g>
<!-- 18&#45;&gt;17 -->
<g id="edge50" class="edge"><title>18&#45;&gt;17</title>
<path fill="none" stroke="black" d="M189.398,-588.161C160.546,-574.999 107.856,-550.895 63,-530 61.2144,-529.168 59.3801,-528.311 57.5302,-527.444"/>
<polygon fill="black" stroke="black" points="58.8418,-524.193 48.303,-523.105 55.8629,-530.528 58.8418,-524.193"/>
<text text-anchor="middle" x="135.5" y="-551.8" font-family="Times New Roman,serif" font-size="14.00">s</text>
</g>
<!-- 18&#45;&gt;20 -->
<g id="edge32" class="edge"><title>18&#45;&gt;20</title>
<path fill="none" stroke="black" d="M231.099,-586.745C253.315,-572.65 286,-546.26 286,-513 286,-513 286,-513 286,-264 286,-244.439 282.846,-222.593 279.772,-205.947"/>
<polygon fill="black" stroke="black" points="283.149,-204.979 277.797,-195.835 276.278,-206.32 283.149,-204.979"/>
<text text-anchor="middle" x="289.5" y="-377.8" font-family="Times New Roman,serif" font-size="14.00">k</text>
</g>
<!-- 22 -->
<g id="node23" class="node"><title>22</title>
<ellipse fill="none" stroke="black" cx="196" cy="-672" rx="27" ry="18"/>
<text text-anchor="middle" x="196" y="-668.3" font-family="Times New Roman,serif" font-size="14.00">e,p</text>
</g>
<!-- 18&#45;&gt;22 -->
<g id="edge15" class="edge"><title>18&#45;&gt;22</title>
<path fill="none" stroke="black" d="M213.263,-617.037C212.373,-625.476 210.402,-635.844 207.964,-645.229"/>
<polygon fill="black" stroke="black" points="204.586,-644.31 205.165,-654.889 211.31,-646.258 204.586,-644.31"/>
</g>
<!-- 19&#45;&gt;3 -->
<g id="edge65" class="edge"><title>19&#45;&gt;3</title>
<path fill="none" stroke="black" d="M139.5,-849.758C140.814,-861.508 141.092,-877.47 140.334,-891.002"/>
<polygon fill="black" stroke="black" points="136.826,-890.956 139.504,-901.207 143.803,-891.524 136.826,-890.956"/>
</g>
<!-- 19&#45;&gt;17 -->
<g id="edge47" class="edge"><title>19&#45;&gt;17</title>
<path fill="none" stroke="black" d="M111.546,-821.651C77.5622,-804.928 18,-770.645 18,-760 18,-760 18,-760 18,-598 18,-578.51 18,-556.507 19.2358,-539.771"/>
<polygon fill="black" stroke="black" points="22.7391,-539.909 20.2387,-529.613 15.773,-539.221 22.7391,-539.909"/>
</g>
<!-- 23 -->
<g id="node24" class="node"><title>23</title>
<ellipse fill="none" stroke="black" cx="134" cy="-759" rx="27" ry="18"/>
<text text-anchor="middle" x="134" y="-755.3" font-family="Times New Roman,serif" font-size="14.00">e</text>
</g>
<!-- 19&#45;&gt;23 -->
<g id="edge56" class="edge"><title>19&#45;&gt;23</title>
<path fill="none" stroke="black" d="M128.16,-814.174C127.285,-806.039 127.041,-796.076 127.428,-786.921"/>
<polygon fill="black" stroke="black" points="130.937,-786.933 128.173,-776.705 123.955,-786.424 130.937,-786.933"/>
</g>
<!-- 20&#45;&gt;4 -->
<g id="edge45" class="edge"><title>20&#45;&gt;4</title>
<path fill="none" stroke="black" d="M260.616,-162.127C253.353,-152.185 246.821,-138.812 252,-127 254.647,-120.963 258.907,-115.507 263.635,-110.796"/>
<polygon fill="black" stroke="black" points="266.112,-113.278 271.285,-104.031 261.475,-108.034 266.112,-113.278"/>
<text text-anchor="middle" x="272.5" y="-130.8" font-family="Times New Roman,serif" font-size="14.00">l,S2,S3</text>
</g>
<!-- 20&#45;&gt;14 -->
<g id="edge30" class="edge"><title>20&#45;&gt;14</title>
<path fill="none" stroke="black" d="M263.78,-194.695C257.054,-204.741 247.88,-217.921 239,-229 235.611,-233.228 231.85,-237.595 228.131,-241.751"/>
<polygon fill="black" stroke="black" points="225.311,-239.648 221.143,-249.389 230.476,-244.373 225.311,-239.648"/>
<text text-anchor="middle" x="256" y="-217.8" font-family="Times New Roman,serif" font-size="14.00">K</text>
</g>
<!-- 20&#45;&gt;18 -->
<g id="edge31" class="edge"><title>20&#45;&gt;18</title>
<path fill="none" stroke="black" d="M288.731,-193.164C303.48,-208.935 324,-235.922 324,-264 324,-513 324,-513 324,-513 324,-537.65 318.445,-546.648 300,-563 281.385,-579.503 270.063,-571.674 247,-581 245.174,-581.739 243.308,-582.523 241.434,-583.335"/>
<polygon fill="black" stroke="black" points="239.819,-580.224 232.143,-587.526 242.697,-586.605 239.819,-580.224"/>
<text text-anchor="middle" x="327.5" y="-377.8" font-family="Times New Roman,serif" font-size="14.00">k</text>
</g>
<!-- 21 -->
<g id="node22" class="node"><title>21</title>
<ellipse fill="none" stroke="black" cx="121" cy="-599" rx="27" ry="18"/>
<text text-anchor="middle" x="121" y="-595.3" font-family="Times New Roman,serif" font-size="14.00">e,p</text>
</g>
<!-- 21&#45;&gt;22 -->
<g id="edge18" class="edge"><title>21&#45;&gt;22</title>
<path fill="none" stroke="black" d="M139.386,-612.413C151.182,-622.177 166.208,-636.055 177.923,-647.854"/>
<polygon fill="black" stroke="black" points="175.605,-650.492 185.075,-655.243 180.635,-645.623 175.605,-650.492"/>
</g>
<!-- 21&#45;&gt;23 -->
<g id="edge43" class="edge"><title>21&#45;&gt;23</title>
<path fill="none" stroke="black" d="M122.414,-617.188C124.66,-644.481 129.061,-697.97 131.745,-730.594"/>
<polygon fill="black" stroke="black" points="128.276,-731.111 132.584,-740.79 135.252,-730.537 128.276,-731.111"/>
<text text-anchor="middle" x="137" y="-668.3" font-family="Times New Roman,serif" font-size="14.00">S1</text>
</g>
<!-- 24 -->
<g id="node25" class="node"><title>24</title>
<ellipse fill="none" stroke="black" cx="113" cy="-512" rx="40.8928" ry="18"/>
<text text-anchor="middle" x="113" y="-508.3" font-family="Times New Roman,serif" font-size="14.00">S1,e,p,k</text>
</g>
<!-- 21&#45;&gt;24 -->
<g id="edge19" class="edge"><title>21&#45;&gt;24</title>
<path fill="none" stroke="black" d="M114,-581.611C111.553,-569.887 109.746,-553.834 109.215,-540.203"/>
<polygon fill="black" stroke="black" points="112.711,-539.872 109.075,-529.92 105.712,-539.967 112.711,-539.872"/>
</g>
<!-- 22&#45;&gt;18 -->
<g id="edge16" class="edge"><title>22&#45;&gt;18</title>
<path fill="none" stroke="black" d="M193.753,-653.813C194.653,-645.374 196.625,-635.034 199.059,-625.681"/>
<polygon fill="black" stroke="black" points="202.427,-626.635 201.853,-616.056 195.704,-624.683 202.427,-626.635"/>
</g>
<!-- 22&#45;&gt;21 -->
<g id="edge17" class="edge"><title>22&#45;&gt;21</title>
<path fill="none" stroke="black" d="M177.669,-658.633C165.852,-648.855 150.775,-634.931 139.037,-623.106"/>
<polygon fill="black" stroke="black" points="141.342,-620.455 131.873,-615.702 136.312,-625.322 141.342,-620.455"/>
</g>
<!-- 22&#45;&gt;23 -->
<g id="edge53" class="edge"><title>22&#45;&gt;23</title>
<path fill="none" stroke="black" d="M191.152,-689.765C187.685,-699.985 182.331,-712.965 175,-723 170.772,-728.788 165.403,-734.246 159.955,-739.053"/>
<polygon fill="black" stroke="black" points="157.52,-736.525 152.041,-745.593 161.979,-741.921 157.52,-736.525"/>
<text text-anchor="middle" x="187.5" y="-711.8" font-family="Times New Roman,serif" font-size="14.00">s</text>
</g>
<!-- 23&#45;&gt;19 -->
<g id="edge55" class="edge"><title>23&#45;&gt;19</title>
<path fill="none" stroke="black" d="M139.827,-776.705C140.708,-784.822 140.959,-794.78 140.577,-803.942"/>
<polygon fill="black" stroke="black" points="137.068,-803.948 139.84,-814.174 144.05,-804.452 137.068,-803.948"/>
</g>
<!-- 23&#45;&gt;21 -->
<g id="edge44" class="edge"><title>23&#45;&gt;21</title>
<path fill="none" stroke="black" d="M125.212,-741.801C118.452,-728.367 109.667,-708.536 106,-690 101.786,-668.696 106.387,-644.399 111.57,-626.425"/>
<polygon fill="black" stroke="black" points="114.985,-627.231 114.627,-616.642 108.304,-625.143 114.985,-627.231"/>
<text text-anchor="middle" x="114" y="-668.3" font-family="Times New Roman,serif" font-size="14.00">S1</text>
</g>
<!-- 23&#45;&gt;22 -->
<g id="edge54" class="edge"><title>23&#45;&gt;22</title>
<path fill="none" stroke="black" d="M145.29,-742.193C152.354,-732.334 161.665,-719.397 170,-708 172.614,-704.426 175.391,-700.657 178.12,-696.97"/>
<polygon fill="black" stroke="black" points="181.151,-698.759 184.302,-688.644 175.531,-694.587 181.151,-698.759"/>
<text text-anchor="middle" x="173.5" y="-711.8" font-family="Times New Roman,serif" font-size="14.00">s</text>
</g>
<!-- 24&#45;&gt;21 -->
<g id="edge20" class="edge"><title>24&#45;&gt;21</title>
<path fill="none" stroke="black" d="M120.103,-529.885C122.49,-541.525 124.25,-557.253 124.78,-570.664"/>
<polygon fill="black" stroke="black" points="121.282,-570.852 124.93,-580.799 128.281,-570.748 121.282,-570.852"/>
</g>
<!-- 27 -->
<g id="node28" class="node"><title>27</title>
<ellipse fill="none" stroke="black" cx="85" cy="-425" rx="27" ry="18"/>
<text text-anchor="middle" x="85" y="-421.3" font-family="Times New Roman,serif" font-size="14.00">e,p</text>
</g>
<!-- 24&#45;&gt;27 -->
<g id="edge33" class="edge"><title>24&#45;&gt;27</title>
<path fill="none" stroke="black" d="M98.062,-495.104C93.6807,-489.487 89.4196,-482.852 87,-476 84.4834,-468.873 83.4463,-460.816 83.1738,-453.283"/>
<polygon fill="black" stroke="black" points="86.6744,-453.153 83.2231,-443.136 79.6745,-453.119 86.6744,-453.153"/>
<text text-anchor="middle" x="90.5" y="-464.8" font-family="Times New Roman,serif" font-size="14.00">k</text>
</g>
<!-- 25 -->
<g id="node26" class="node"><title>25</title>
<ellipse fill="none" stroke="black" cx="282" cy="-672" rx="27" ry="18"/>
<text text-anchor="middle" x="282" y="-668.3" font-family="Times New Roman,serif" font-size="14.00">e,p</text>
</g>
<!-- 25&#45;&gt;26 -->
<g id="edge38" class="edge"><title>25&#45;&gt;26</title>
<path fill="none" stroke="black" d="M287.5,-689.758C288.814,-701.508 289.092,-717.47 288.334,-731.002"/>
<polygon fill="black" stroke="black" points="284.826,-730.956 287.504,-741.207 291.803,-731.524 284.826,-730.956"/>
</g>
<!-- 30 -->
<g id="node31" class="node"><title>30</title>
<ellipse fill="none" stroke="black" cx="283" cy="-599" rx="27.0966" ry="18"/>
<text text-anchor="middle" x="283" y="-595.3" font-family="Times New Roman,serif" font-size="14.00">S2,k</text>
</g>
<!-- 25&#45;&gt;30 -->
<g id="edge39" class="edge"><title>25&#45;&gt;30</title>
<path fill="none" stroke="black" d="M276.397,-654.174C275.636,-646.039 275.533,-636.076 276.049,-626.921"/>
<polygon fill="black" stroke="black" points="279.558,-626.971 276.938,-616.705 272.584,-626.364 279.558,-626.971"/>
</g>
<!-- 26&#45;&gt;8 -->
<g id="edge36" class="edge"><title>26&#45;&gt;8</title>
<path fill="none" stroke="black" d="M287.827,-776.705C288.708,-784.822 288.959,-794.78 288.577,-803.942"/>
<polygon fill="black" stroke="black" points="285.068,-803.948 287.84,-814.174 292.05,-804.452 285.068,-803.948"/>
</g>
<!-- 26&#45;&gt;25 -->
<g id="edge37" class="edge"><title>26&#45;&gt;25</title>
<path fill="none" stroke="black" d="M276.496,-741.207C275.184,-729.448 274.908,-713.485 275.668,-699.958"/>
<polygon fill="black" stroke="black" points="279.176,-700.01 276.5,-689.758 272.199,-699.441 279.176,-700.01"/>
</g>
<!-- 27&#45;&gt;24 -->
<g id="edge34" class="edge"><title>27&#45;&gt;24</title>
<path fill="none" stroke="black" d="M90.5622,-442.885C94.4345,-454.64 99.6803,-470.565 104.126,-484.061"/>
<polygon fill="black" stroke="black" points="100.881,-485.396 107.334,-493.799 107.529,-483.206 100.881,-485.396"/>
<text text-anchor="middle" x="104.5" y="-464.8" font-family="Times New Roman,serif" font-size="14.00">k</text>
</g>
<!-- 28 -->
<g id="node29" class="node"><title>28</title>
<ellipse fill="none" stroke="black" cx="52" cy="-338" rx="27" ry="18"/>
<text text-anchor="middle" x="52" y="-334.3" font-family="Times New Roman,serif" font-size="14.00">e,p</text>
</g>
<!-- 27&#45;&gt;28 -->
<g id="edge63" class="edge"><title>27&#45;&gt;28</title>
<path fill="none" stroke="black" d="M75.3265,-407.987C72.0652,-402.15 68.5977,-395.407 66,-389 63.0195,-381.649 60.4338,-373.443 58.3237,-365.839"/>
<polygon fill="black" stroke="black" points="61.6622,-364.771 55.7486,-355.98 54.8894,-366.54 61.6622,-364.771"/>
</g>
<!-- 28&#45;&gt;27 -->
<g id="edge64" class="edge"><title>28&#45;&gt;27</title>
<path fill="none" stroke="black" d="M58.5062,-355.758C63.1583,-367.741 69.5109,-384.104 74.8294,-397.803"/>
<polygon fill="black" stroke="black" points="71.5983,-399.151 78.4803,-407.207 78.1238,-396.618 71.5983,-399.151"/>
<text text-anchor="middle" x="73" y="-377.8" font-family="Times New Roman,serif" font-size="14.00">l</text>
</g>
<!-- 29 -->
<g id="node30" class="node"><title>29</title>
<ellipse fill="none" stroke="black" cx="52" cy="-265" rx="38.1938" ry="18"/>
<text text-anchor="middle" x="52" y="-261.3" font-family="Times New Roman,serif" font-size="14.00">S3,e,i,p</text>
</g>
<!-- 28&#45;&gt;29 -->
<g id="edge22" class="edge"><title>28&#45;&gt;29</title>
<path fill="none" stroke="black" d="M46.1601,-320.174C45.2975,-312.157 45.0481,-302.364 45.4119,-293.32"/>
<polygon fill="black" stroke="black" points="48.9134,-293.419 46.1206,-283.198 41.9305,-292.93 48.9134,-293.419"/>
</g>
<!-- 29&#45;&gt;28 -->
<g id="edge21" class="edge"><title>29&#45;&gt;28</title>
<path fill="none" stroke="black" d="M57.8794,-283.198C58.7231,-291.27 58.9536,-301.078 58.5709,-310.098"/>
<polygon fill="black" stroke="black" points="55.0727,-309.947 57.8399,-320.174 62.0544,-310.453 55.0727,-309.947"/>
</g>
<!-- 30&#45;&gt;25 -->
<g id="edge40" class="edge"><title>30&#45;&gt;25</title>
<path fill="none" stroke="black" d="M288.592,-616.705C289.359,-624.822 289.469,-634.78 288.958,-643.942"/>
<polygon fill="black" stroke="black" points="285.448,-643.91 288.077,-654.174 292.423,-644.511 285.448,-643.91"/>
</g>
</g>
</svg>
