<?xml version="1.0" encoding="UTF-8" standalone="no"?>
<!DOCTYPE svg PUBLIC "-//W3C//DTD SVG 1.1//EN"
 "http://www.w3.org/Graphics/SVG/1.1/DTD/svg11.dtd">
<!-- Generated by graphviz version 2.38.0 (20140413.2041)
 -->
<!-- Title: %3 Pages: 1 -->
<svg width="545pt" height="2170pt"
 viewBox="0.00 0.00 545.00 2170.00" xmlns="http://www.w3.org/2000/svg" xmlns:xlink="http://www.w3.org/1999/xlink">
<g id="graph0" class="graph" transform="scale(1 1) rotate(0) translate(4 2166)">
<title>%3</title>
<polygon fill="white" stroke="none" points="-4,4 -4,-2166 541,-2166 541,4 -4,4"/>
<!-- 0 -->
<g id="node1" class="node"><title>0</title>
<ellipse fill="none" stroke="black" cx="48" cy="-2144" rx="27" ry="18"/>
<text text-anchor="middle" x="48" y="-2140.3" font-family="Times New Roman,serif" font-size="14.00">b</text>
</g>
<!-- 1 -->
<g id="node2" class="node"><title>1</title>
<ellipse fill="none" stroke="black" cx="27" cy="-2057" rx="27" ry="18"/>
<text text-anchor="middle" x="27" y="-2053.3" font-family="Times New Roman,serif" font-size="14.00">t</text>
</g>
<!-- 0&#45;&gt;1 -->
<g id="edge76" class="edge"><title>0&#45;&gt;1</title>
<path fill="none" stroke="black" d="M38.6386,-2127.01C34.3341,-2115.21 29.9874,-2098.86 27.3446,-2085.04"/>
<polygon fill="black" stroke="black" points="30.7812,-2084.37 25.6847,-2075.08 23.8764,-2085.52 30.7812,-2084.37"/>
</g>
<!-- 3 -->
<g id="node4" class="node"><title>3</title>
<ellipse fill="none" stroke="black" cx="100" cy="-2057" rx="27" ry="18"/>
<text text-anchor="middle" x="100" y="-2053.3" font-family="Times New Roman,serif" font-size="14.00">e</text>
</g>
<!-- 0&#45;&gt;3 -->
<g id="edge75" class="edge"><title>0&#45;&gt;3</title>
<path fill="none" stroke="black" d="M62.9792,-2128.98C68.8384,-2122.94 75.2724,-2115.53 80,-2108 84.5436,-2100.76 88.3923,-2092.32 91.4632,-2084.45"/>
<polygon fill="black" stroke="black" points="94.7968,-2085.53 94.9306,-2074.93 88.2195,-2083.13 94.7968,-2085.53"/>
<text text-anchor="middle" x="93" y="-2096.8" font-family="Times New Roman,serif" font-size="14.00">K</text>
</g>
<!-- 1&#45;&gt;0 -->
<g id="edge77" class="edge"><title>1&#45;&gt;0</title>
<path fill="none" stroke="black" d="M36.375,-2074.03C40.6648,-2085.8 44.9946,-2102.07 47.6364,-2115.86"/>
<polygon fill="black" stroke="black" points="44.1972,-2116.51 49.299,-2125.8 51.1013,-2115.36 44.1972,-2116.51"/>
</g>
<!-- 2 -->
<g id="node3" class="node"><title>2</title>
<ellipse fill="none" stroke="black" cx="121" cy="-18" rx="27" ry="18"/>
<text text-anchor="middle" x="121" y="-14.3" font-family="Times New Roman,serif" font-size="14.00">p,i,k</text>
</g>
<!-- 2&#45;&gt;3 -->
<g id="edge72" class="edge"><title>2&#45;&gt;3</title>
<path fill="none" stroke="black" d="M102.831,-31.7604C83.9102,-46.6994 57,-73.3361 57,-104 57,-1985 57,-1985 57,-1985 57,-2003.38 67.6714,-2021.07 78.3819,-2034.19"/>
<polygon fill="black" stroke="black" points="75.7514,-2036.5 84.9607,-2041.74 81.0281,-2031.9 75.7514,-2036.5"/>
<text text-anchor="middle" x="60.5" y="-1002.3" font-family="Times New Roman,serif" font-size="14.00">s</text>
</g>
<!-- 28 -->
<g id="node29" class="node"><title>28</title>
<ellipse fill="none" stroke="black" cx="208" cy="-105" rx="27" ry="18"/>
<text text-anchor="middle" x="208" y="-101.3" font-family="Times New Roman,serif" font-size="14.00">e,i</text>
</g>
<!-- 2&#45;&gt;28 -->
<g id="edge78" class="edge"><title>2&#45;&gt;28</title>
<path fill="none" stroke="black" d="M139.001,-31.7196C154.222,-44.7249 175.552,-65.2099 190.586,-81.0563"/>
<polygon fill="black" stroke="black" points="188.04,-83.4582 197.407,-88.4097 193.173,-78.6978 188.04,-83.4582"/>
</g>
<!-- 3&#45;&gt;0 -->
<g id="edge74" class="edge"><title>3&#45;&gt;0</title>
<path fill="none" stroke="black" d="M85.8237,-2072.57C80.4373,-2078.58 74.5174,-2085.82 70,-2093 65.3838,-2100.34 61.2594,-2108.81 57.864,-2116.67"/>
<polygon fill="black" stroke="black" points="54.5246,-2115.59 53.971,-2126.17 61.0018,-2118.24 54.5246,-2115.59"/>
<text text-anchor="middle" x="75" y="-2096.8" font-family="Times New Roman,serif" font-size="14.00">K</text>
</g>
<!-- 3&#45;&gt;2 -->
<g id="edge73" class="edge"><title>3&#45;&gt;2</title>
<path fill="none" stroke="black" d="M100,-2038.78C100,-2024.41 100,-2003.37 100,-1985 100,-1985 100,-1985 100,-104 100,-83.8591 105.626,-61.7968 111.053,-45.1975"/>
<polygon fill="black" stroke="black" points="114.4,-46.2288 114.355,-35.6341 107.783,-43.9442 114.4,-46.2288"/>
<text text-anchor="middle" x="103.5" y="-1002.3" font-family="Times New Roman,serif" font-size="14.00">s</text>
</g>
<!-- 4 -->
<g id="node5" class="node"><title>4</title>
<ellipse fill="none" stroke="black" cx="155" cy="-1984" rx="27" ry="18"/>
<text text-anchor="middle" x="155" y="-1980.3" font-family="Times New Roman,serif" font-size="14.00">p</text>
</g>
<!-- 3&#45;&gt;4 -->
<g id="edge71" class="edge"><title>3&#45;&gt;4</title>
<path fill="none" stroke="black" d="M111.934,-2040.59C119.214,-2031.2 128.663,-2019 136.854,-2008.42"/>
<polygon fill="black" stroke="black" points="139.732,-2010.42 143.089,-2000.38 134.198,-2006.14 139.732,-2010.42"/>
</g>
<!-- 6 -->
<g id="node7" class="node"><title>6</title>
<ellipse fill="none" stroke="black" cx="165" cy="-1897" rx="27" ry="18"/>
<text text-anchor="middle" x="165" y="-1893.3" font-family="Times New Roman,serif" font-size="14.00">e</text>
</g>
<!-- 4&#45;&gt;6 -->
<g id="edge70" class="edge"><title>4&#45;&gt;6</title>
<path fill="none" stroke="black" d="M155.448,-1965.82C155.845,-1956.15 156.594,-1943.87 158,-1933 158.334,-1930.42 158.747,-1927.74 159.203,-1925.07"/>
<polygon fill="black" stroke="black" points="162.687,-1925.49 161.109,-1915.01 155.809,-1924.19 162.687,-1925.49"/>
</g>
<!-- 5 -->
<g id="node6" class="node"><title>5</title>
<ellipse fill="none" stroke="black" cx="164" cy="-1723" rx="27" ry="18"/>
<text text-anchor="middle" x="164" y="-1719.3" font-family="Times New Roman,serif" font-size="14.00">p,i,e</text>
</g>
<!-- 7 -->
<g id="node8" class="node"><title>7</title>
<ellipse fill="none" stroke="black" cx="161" cy="-1810" rx="27" ry="18"/>
<text text-anchor="middle" x="161" y="-1806.3" font-family="Times New Roman,serif" font-size="14.00">e</text>
</g>
<!-- 5&#45;&gt;7 -->
<g id="edge65" class="edge"><title>5&#45;&gt;7</title>
<path fill="none" stroke="black" d="M163.394,-1741.18C162.983,-1752.81 162.432,-1768.42 161.962,-1781.73"/>
<polygon fill="black" stroke="black" points="158.462,-1781.68 161.607,-1791.8 165.458,-1781.93 158.462,-1781.68"/>
<text text-anchor="middle" x="165.5" y="-1762.8" font-family="Times New Roman,serif" font-size="14.00">k</text>
</g>
<!-- 27 -->
<g id="node28" class="node"><title>27</title>
<ellipse fill="none" stroke="black" cx="162" cy="-1636" rx="27" ry="18"/>
<text text-anchor="middle" x="162" y="-1632.3" font-family="Times New Roman,serif" font-size="14.00">p</text>
</g>
<!-- 5&#45;&gt;27 -->
<g id="edge63" class="edge"><title>5&#45;&gt;27</title>
<path fill="none" stroke="black" d="M156.541,-1705.61C154.292,-1699.85 152.124,-1693.25 151,-1687 149.617,-1679.3 150.484,-1670.99 152.218,-1663.39"/>
<polygon fill="black" stroke="black" points="155.633,-1664.18 154.991,-1653.6 148.898,-1662.27 155.633,-1664.18"/>
<text text-anchor="middle" x="153.5" y="-1675.8" font-family="Times New Roman,serif" font-size="14.00">I</text>
</g>
<!-- 6&#45;&gt;4 -->
<g id="edge69" class="edge"><title>6&#45;&gt;4</title>
<path fill="none" stroke="black" d="M162.979,-1915.18C161.611,-1926.81 159.774,-1942.42 158.208,-1955.73"/>
<polygon fill="black" stroke="black" points="154.716,-1955.46 157.024,-1965.8 161.668,-1956.28 154.716,-1955.46"/>
<text text-anchor="middle" x="162" y="-1936.8" font-family="Times New Roman,serif" font-size="14.00">l</text>
</g>
<!-- 6&#45;&gt;7 -->
<g id="edge68" class="edge"><title>6&#45;&gt;7</title>
<path fill="none" stroke="black" d="M160.902,-1879.01C159.717,-1873.32 158.586,-1866.92 158,-1861 157.275,-1853.67 157.357,-1845.73 157.792,-1838.37"/>
<polygon fill="black" stroke="black" points="161.301,-1838.4 158.63,-1828.15 154.324,-1837.83 161.301,-1838.4"/>
</g>
<!-- 7&#45;&gt;5 -->
<g id="edge66" class="edge"><title>7&#45;&gt;5</title>
<path fill="none" stroke="black" d="M154.497,-1792.36C151.496,-1782.65 148.996,-1770.15 151,-1759 151.527,-1756.07 152.283,-1753.06 153.169,-1750.1"/>
<polygon fill="black" stroke="black" points="156.567,-1750.99 156.541,-1740.39 149.954,-1748.69 156.567,-1750.99"/>
<text text-anchor="middle" x="154.5" y="-1762.8" font-family="Times New Roman,serif" font-size="14.00">k</text>
</g>
<!-- 7&#45;&gt;6 -->
<g id="edge67" class="edge"><title>7&#45;&gt;6</title>
<path fill="none" stroke="black" d="M161.808,-1828.18C162.356,-1839.81 163.09,-1855.42 163.717,-1868.73"/>
<polygon fill="black" stroke="black" points="160.224,-1868.97 164.191,-1878.8 167.217,-1868.65 160.224,-1868.97"/>
<text text-anchor="middle" x="165" y="-1849.8" font-family="Times New Roman,serif" font-size="14.00">l</text>
</g>
<!-- 8 -->
<g id="node9" class="node"><title>8</title>
<ellipse fill="none" stroke="black" cx="306" cy="-352" rx="27" ry="18"/>
</g>
<!-- 18 -->
<g id="node19" class="node"><title>18</title>
<ellipse fill="none" stroke="black" cx="346" cy="-599" rx="27" ry="18"/>
<text text-anchor="middle" x="346" y="-595.3" font-family="Times New Roman,serif" font-size="14.00">e</text>
</g>
<!-- 8&#45;&gt;18 -->
<g id="edge16" class="edge"><title>8&#45;&gt;18</title>
<path fill="none" stroke="black" d="M306.736,-370.007C308.349,-401.746 313.054,-472.034 325,-530 327.864,-543.898 332.385,-559.011 336.499,-571.453"/>
<polygon fill="black" stroke="black" points="333.278,-572.851 339.815,-581.19 339.904,-570.595 333.278,-572.851"/>
<text text-anchor="middle" x="318.5" y="-464.8" font-family="Times New Roman,serif" font-size="14.00">s</text>
</g>
<!-- 20 -->
<g id="node21" class="node"><title>20</title>
<ellipse fill="none" stroke="black" cx="281" cy="-279" rx="27" ry="18"/>
<text text-anchor="middle" x="281" y="-275.3" font-family="Times New Roman,serif" font-size="14.00">e,p,i</text>
</g>
<!-- 8&#45;&gt;20 -->
<g id="edge36" class="edge"><title>8&#45;&gt;20</title>
<path fill="none" stroke="black" d="M294.732,-335.243C290.848,-326.962 286.907,-316.58 283.95,-307.059"/>
<polygon fill="black" stroke="black" points="287.255,-305.882 281.178,-297.204 280.517,-307.778 287.255,-305.882"/>
</g>
<!-- 9 -->
<g id="node10" class="node"><title>9</title>
<ellipse fill="none" stroke="black" cx="492" cy="-1234" rx="27" ry="18"/>
<text text-anchor="middle" x="492" y="-1230.3" font-family="Times New Roman,serif" font-size="14.00">k</text>
</g>
<!-- 11 -->
<g id="node12" class="node"><title>11</title>
<ellipse fill="none" stroke="black" cx="492" cy="-192" rx="27" ry="18"/>
<text text-anchor="middle" x="492" y="-188.3" font-family="Times New Roman,serif" font-size="14.00">k</text>
</g>
<!-- 9&#45;&gt;11 -->
<g id="edge18" class="edge"><title>9&#45;&gt;11</title>
<path fill="none" stroke="black" d="M502.585,-1217.2C513.829,-1198.86 530,-1167.3 530,-1137.5 530,-1137.5 530,-1137.5 530,-278 530,-255.905 519.167,-233.172 509.069,-216.782"/>
<polygon fill="black" stroke="black" points="511.99,-214.853 503.608,-208.373 506.119,-218.666 511.99,-214.853"/>
<text text-anchor="middle" x="533.5" y="-725.8" font-family="Times New Roman,serif" font-size="14.00">s</text>
</g>
<!-- 19 -->
<g id="node20" class="node"><title>19</title>
<ellipse fill="none" stroke="black" cx="382" cy="-1375" rx="27" ry="18"/>
<text text-anchor="middle" x="382" y="-1371.3" font-family="Times New Roman,serif" font-size="14.00">e,i,p</text>
</g>
<!-- 9&#45;&gt;19 -->
<g id="edge28" class="edge"><title>9&#45;&gt;19</title>
<path fill="none" stroke="black" d="M465.614,-1238.13C444.905,-1242.03 416.988,-1250.71 401,-1270 383.303,-1291.35 379.877,-1323.72 380.04,-1346.67"/>
<polygon fill="black" stroke="black" points="376.546,-1346.89 380.346,-1356.78 383.542,-1346.68 376.546,-1346.89"/>
<text text-anchor="middle" x="385" y="-1327.8" font-family="Times New Roman,serif" font-size="14.00">b</text>
</g>
<!-- 10 -->
<g id="node11" class="node"><title>10</title>
<ellipse fill="none" stroke="black" cx="323" cy="-105" rx="27" ry="18"/>
<text text-anchor="middle" x="323" y="-101.3" font-family="Times New Roman,serif" font-size="14.00">I</text>
</g>
<!-- 25 -->
<g id="node26" class="node"><title>25</title>
<ellipse fill="none" stroke="black" cx="328" cy="-18" rx="28.6953" ry="18"/>
<text text-anchor="middle" x="328" y="-14.3" font-family="Times New Roman,serif" font-size="14.00">e,p,k</text>
</g>
<!-- 10&#45;&gt;25 -->
<g id="edge29" class="edge"><title>10&#45;&gt;25</title>
<path fill="none" stroke="black" d="M324.012,-86.799C324.696,-75.1626 325.615,-59.5479 326.398,-46.2368"/>
<polygon fill="black" stroke="black" points="329.896,-46.3637 326.99,-36.1754 322.908,-45.9526 329.896,-46.3637"/>
<text text-anchor="middle" x="329" y="-57.8" font-family="Times New Roman,serif" font-size="14.00">b</text>
</g>
<!-- 26 -->
<g id="node27" class="node"><title>26</title>
<ellipse fill="none" stroke="black" cx="288" cy="-192" rx="27" ry="18"/>
<text text-anchor="middle" x="288" y="-188.3" font-family="Times New Roman,serif" font-size="14.00">e,p</text>
</g>
<!-- 10&#45;&gt;26 -->
<g id="edge20" class="edge"><title>10&#45;&gt;26</title>
<path fill="none" stroke="black" d="M315.288,-122.284C312.582,-128.147 309.577,-134.836 307,-141 303.812,-148.625 300.545,-156.992 297.638,-164.663"/>
<polygon fill="black" stroke="black" points="294.286,-163.632 294.062,-174.225 300.843,-166.085 294.286,-163.632"/>
<text text-anchor="middle" x="310.5" y="-144.8" font-family="Times New Roman,serif" font-size="14.00">s</text>
</g>
<!-- 11&#45;&gt;9 -->
<g id="edge17" class="edge"><title>11&#45;&gt;9</title>
<path fill="none" stroke="black" d="M492,-210.256C492,-227.43 492,-254.536 492,-278 492,-1137.5 492,-1137.5 492,-1137.5 492,-1160.48 492,-1186.56 492,-1205.66"/>
<polygon fill="black" stroke="black" points="488.5,-1205.75 492,-1215.75 495.5,-1205.75 488.5,-1205.75"/>
<text text-anchor="middle" x="495.5" y="-725.8" font-family="Times New Roman,serif" font-size="14.00">s</text>
</g>
<!-- 12 -->
<g id="node13" class="node"><title>12</title>
<ellipse fill="none" stroke="black" cx="289" cy="-686" rx="27" ry="18"/>
<text text-anchor="middle" x="289" y="-682.3" font-family="Times New Roman,serif" font-size="14.00">s</text>
</g>
<!-- 14 -->
<g id="node15" class="node"><title>14</title>
<ellipse fill="none" stroke="black" cx="289" cy="-773" rx="27" ry="18"/>
<text text-anchor="middle" x="289" y="-769.3" font-family="Times New Roman,serif" font-size="14.00">p</text>
</g>
<!-- 12&#45;&gt;14 -->
<g id="edge1" class="edge"><title>12&#45;&gt;14</title>
<path fill="none" stroke="black" d="M294.5,-703.758C295.814,-715.508 296.092,-731.47 295.334,-745.002"/>
<polygon fill="black" stroke="black" points="291.826,-744.956 294.504,-755.207 298.803,-745.524 291.826,-744.956"/>
</g>
<!-- 13 -->
<g id="node14" class="node"><title>13</title>
<ellipse fill="none" stroke="black" cx="217" cy="-686" rx="27" ry="18"/>
<text text-anchor="middle" x="217" y="-682.3" font-family="Times New Roman,serif" font-size="14.00">e,p,i</text>
</g>
<!-- 13&#45;&gt;14 -->
<g id="edge8" class="edge"><title>13&#45;&gt;14</title>
<path fill="none" stroke="black" d="M229.761,-702.065C240.784,-715.079 256.885,-734.087 269.52,-749.002"/>
<polygon fill="black" stroke="black" points="266.994,-751.435 276.128,-756.804 272.335,-746.911 266.994,-751.435"/>
<text text-anchor="middle" x="259" y="-725.8" font-family="Times New Roman,serif" font-size="14.00">l</text>
</g>
<!-- 31 -->
<g id="node32" class="node"><title>31</title>
<ellipse fill="none" stroke="black" cx="217" cy="-599" rx="27" ry="18"/>
<text text-anchor="middle" x="217" y="-595.3" font-family="Times New Roman,serif" font-size="14.00">k,p</text>
</g>
<!-- 13&#45;&gt;31 -->
<g id="edge44" class="edge"><title>13&#45;&gt;31</title>
<path fill="none" stroke="black" d="M211.496,-668.207C210.184,-656.448 209.908,-640.485 210.668,-626.958"/>
<polygon fill="black" stroke="black" points="214.176,-627.01 211.5,-616.758 207.199,-626.441 214.176,-627.01"/>
</g>
<!-- 14&#45;&gt;12 -->
<g id="edge2" class="edge"><title>14&#45;&gt;12</title>
<path fill="none" stroke="black" d="M283.496,-755.207C282.184,-743.448 281.908,-727.485 282.668,-713.958"/>
<polygon fill="black" stroke="black" points="286.176,-714.01 283.5,-703.758 279.199,-713.441 286.176,-714.01"/>
</g>
<!-- 14&#45;&gt;13 -->
<g id="edge7" class="edge"><title>14&#45;&gt;13</title>
<path fill="none" stroke="black" d="M265.272,-764.238C252.027,-758.697 236.357,-749.911 227,-737 222.232,-730.421 219.598,-722.133 218.18,-714.206"/>
<polygon fill="black" stroke="black" points="221.639,-713.664 216.939,-704.169 214.692,-714.523 221.639,-713.664"/>
<text text-anchor="middle" x="229" y="-725.8" font-family="Times New Roman,serif" font-size="14.00">l</text>
</g>
<!-- 15 -->
<g id="node16" class="node"><title>15</title>
<ellipse fill="none" stroke="black" cx="361" cy="-686" rx="27" ry="18"/>
<text text-anchor="middle" x="361" y="-682.3" font-family="Times New Roman,serif" font-size="14.00">i</text>
</g>
<!-- 14&#45;&gt;15 -->
<g id="edge3" class="edge"><title>14&#45;&gt;15</title>
<path fill="none" stroke="black" d="M297.424,-755.611C307.323,-742.097 323.484,-722.833 337.152,-708.155"/>
<polygon fill="black" stroke="black" points="340.053,-710.186 344.433,-700.539 334.993,-705.349 340.053,-710.186"/>
</g>
<!-- 16 -->
<g id="node17" class="node"><title>16</title>
<ellipse fill="none" stroke="black" cx="316" cy="-860" rx="27" ry="18"/>
<text text-anchor="middle" x="316" y="-856.3" font-family="Times New Roman,serif" font-size="14.00">e,i</text>
</g>
<!-- 14&#45;&gt;16 -->
<g id="edge9" class="edge"><title>14&#45;&gt;16</title>
<path fill="none" stroke="black" d="M294.323,-790.758C298.093,-802.625 303.226,-818.787 307.552,-832.403"/>
<polygon fill="black" stroke="black" points="304.302,-833.736 310.666,-842.207 310.974,-831.616 304.302,-833.736"/>
<text text-anchor="middle" x="306" y="-812.8" font-family="Times New Roman,serif" font-size="14.00">l</text>
</g>
<!-- 15&#45;&gt;14 -->
<g id="edge4" class="edge"><title>15&#45;&gt;14</title>
<path fill="none" stroke="black" d="M352.686,-703.238C342.738,-716.841 326.37,-736.347 312.6,-751.111"/>
<polygon fill="black" stroke="black" points="310.065,-748.697 305.683,-758.343 315.124,-753.535 310.065,-748.697"/>
</g>
<!-- 15&#45;&gt;18 -->
<g id="edge11" class="edge"><title>15&#45;&gt;18</title>
<path fill="none" stroke="black" d="M343.497,-671.932C337.029,-666.032 330.44,-658.478 327,-650 323.637,-641.712 325.494,-632.584 329.119,-624.42"/>
<polygon fill="black" stroke="black" points="332.323,-625.852 333.98,-615.387 326.159,-622.535 332.323,-625.852"/>
<text text-anchor="middle" x="330.5" y="-638.8" font-family="Times New Roman,serif" font-size="14.00">k</text>
</g>
<!-- 16&#45;&gt;14 -->
<g id="edge10" class="edge"><title>16&#45;&gt;14</title>
<path fill="none" stroke="black" d="M304.667,-843.318C301.002,-837.511 297.296,-830.704 295,-824 292.536,-816.804 291.054,-808.724 290.17,-801.193"/>
<polygon fill="black" stroke="black" points="293.642,-800.715 289.281,-791.06 286.669,-801.327 293.642,-800.715"/>
<text text-anchor="middle" x="297" y="-812.8" font-family="Times New Roman,serif" font-size="14.00">l</text>
</g>
<!-- 35 -->
<g id="node36" class="node"><title>35</title>
<ellipse fill="none" stroke="black" cx="316" cy="-933" rx="27" ry="18"/>
<text text-anchor="middle" x="316" y="-929.3" font-family="Times New Roman,serif" font-size="14.00">e</text>
</g>
<!-- 16&#45;&gt;35 -->
<g id="edge46" class="edge"><title>16&#45;&gt;35</title>
<path fill="none" stroke="black" d="M321.827,-877.705C322.708,-885.822 322.959,-895.78 322.577,-904.942"/>
<polygon fill="black" stroke="black" points="319.068,-904.948 321.84,-915.174 326.05,-905.452 319.068,-904.948"/>
</g>
<!-- 17 -->
<g id="node18" class="node"><title>17</title>
<ellipse fill="none" stroke="black" cx="361" cy="-512" rx="27" ry="18"/>
<text text-anchor="middle" x="361" y="-508.3" font-family="Times New Roman,serif" font-size="14.00">K</text>
</g>
<!-- 17&#45;&gt;18 -->
<g id="edge14" class="edge"><title>17&#45;&gt;18</title>
<path fill="none" stroke="black" d="M350.328,-528.685C346.973,-534.492 343.702,-541.299 342,-548 340.135,-555.343 340,-563.47 340.634,-571"/>
<polygon fill="black" stroke="black" points="337.187,-571.635 341.942,-581.103 344.129,-570.736 337.187,-571.635"/>
<text text-anchor="middle" x="345.5" y="-551.8" font-family="Times New Roman,serif" font-size="14.00">s</text>
</g>
<!-- 32 -->
<g id="node33" class="node"><title>32</title>
<ellipse fill="none" stroke="black" cx="361" cy="-425" rx="27" ry="18"/>
<text text-anchor="middle" x="361" y="-421.3" font-family="Times New Roman,serif" font-size="14.00">i</text>
</g>
<!-- 17&#45;&gt;32 -->
<g id="edge58" class="edge"><title>17&#45;&gt;32</title>
<path fill="none" stroke="black" d="M354.206,-494.434C351.025,-484.745 348.275,-472.245 350,-461 350.42,-458.261 351.015,-455.443 351.714,-452.651"/>
<polygon fill="black" stroke="black" points="355.134,-453.423 354.567,-442.843 348.413,-451.467 355.134,-453.423"/>
<text text-anchor="middle" x="353.5" y="-464.8" font-family="Times New Roman,serif" font-size="14.00">k</text>
</g>
<!-- 18&#45;&gt;8 -->
<g id="edge15" class="edge"><title>18&#45;&gt;8</title>
<path fill="none" stroke="black" d="M360.9,-583.986C373.257,-571.262 389.907,-551.279 397,-530 414.287,-478.139 424.05,-454.505 397,-407 384.758,-385.501 360.213,-371.677 339.697,-363.404"/>
<polygon fill="black" stroke="black" points="340.909,-360.12 330.317,-359.882 338.449,-366.674 340.909,-360.12"/>
<text text-anchor="middle" x="416.5" y="-464.8" font-family="Times New Roman,serif" font-size="14.00">s</text>
</g>
<!-- 18&#45;&gt;15 -->
<g id="edge12" class="edge"><title>18&#45;&gt;15</title>
<path fill="none" stroke="black" d="M349.031,-617.175C351.083,-628.806 353.839,-644.419 356.188,-657.734"/>
<polygon fill="black" stroke="black" points="352.78,-658.559 357.965,-667.799 359.673,-657.343 352.78,-658.559"/>
<text text-anchor="middle" x="357.5" y="-638.8" font-family="Times New Roman,serif" font-size="14.00">k</text>
</g>
<!-- 18&#45;&gt;17 -->
<g id="edge13" class="edge"><title>18&#45;&gt;17</title>
<path fill="none" stroke="black" d="M349.035,-580.799C351.089,-569.163 353.844,-553.548 356.194,-540.237"/>
<polygon fill="black" stroke="black" points="359.678,-540.632 357.969,-530.175 352.784,-539.415 359.678,-540.632"/>
<text text-anchor="middle" x="357.5" y="-551.8" font-family="Times New Roman,serif" font-size="14.00">s</text>
</g>
<!-- 19&#45;&gt;9 -->
<g id="edge27" class="edge"><title>19&#45;&gt;9</title>
<path fill="none" stroke="black" d="M403.737,-1364.22C425.227,-1353.31 457.128,-1333.5 473,-1306 480.777,-1292.53 485.455,-1275.78 488.223,-1261.94"/>
<polygon fill="black" stroke="black" points="491.682,-1262.48 489.987,-1252.02 484.79,-1261.25 491.682,-1262.48"/>
<text text-anchor="middle" x="462" y="-1327.8" font-family="Times New Roman,serif" font-size="14.00">b</text>
</g>
<!-- 21 -->
<g id="node22" class="node"><title>21</title>
<ellipse fill="none" stroke="black" cx="437" cy="-1288" rx="27" ry="18"/>
<text text-anchor="middle" x="437" y="-1284.3" font-family="Times New Roman,serif" font-size="14.00">i</text>
</g>
<!-- 19&#45;&gt;21 -->
<g id="edge25" class="edge"><title>19&#45;&gt;21</title>
<path fill="none" stroke="black" d="M392.345,-1358.01C400.488,-1345.43 411.973,-1327.68 421.255,-1313.33"/>
<polygon fill="black" stroke="black" points="424.207,-1315.21 426.701,-1304.92 418.33,-1311.41 424.207,-1315.21"/>
<text text-anchor="middle" x="416" y="-1327.8" font-family="Times New Roman,serif" font-size="14.00">b</text>
</g>
<!-- 34 -->
<g id="node35" class="node"><title>34</title>
<ellipse fill="none" stroke="black" cx="327" cy="-1288" rx="27" ry="18"/>
<text text-anchor="middle" x="327" y="-1284.3" font-family="Times New Roman,serif" font-size="14.00">e,p</text>
</g>
<!-- 19&#45;&gt;34 -->
<g id="edge61" class="edge"><title>19&#45;&gt;34</title>
<path fill="none" stroke="black" d="M367.453,-1359.58C357.966,-1347.38 346.104,-1329.59 337.505,-1314.93"/>
<polygon fill="black" stroke="black" points="340.338,-1312.83 332.382,-1305.83 334.239,-1316.26 340.338,-1312.83"/>
</g>
<!-- 20&#45;&gt;8 -->
<g id="edge37" class="edge"><title>20&#45;&gt;8</title>
<path fill="none" stroke="black" d="M292.183,-295.576C296.088,-303.874 300.06,-314.32 303.037,-323.9"/>
<polygon fill="black" stroke="black" points="299.748,-325.135 305.826,-333.813 306.487,-323.239 299.748,-325.135"/>
</g>
<!-- 20&#45;&gt;11 -->
<g id="edge42" class="edge"><title>20&#45;&gt;11</title>
<path fill="none" stroke="black" d="M303.581,-268.904C341.159,-253.765 416.653,-223.353 459.802,-205.971"/>
<polygon fill="black" stroke="black" points="461.295,-209.143 469.263,-202.16 458.679,-202.65 461.295,-209.143"/>
</g>
<!-- 22 -->
<g id="node23" class="node"><title>22</title>
<ellipse fill="none" stroke="black" cx="160" cy="-1462" rx="32.4942" ry="18"/>
<text text-anchor="middle" x="160" y="-1458.3" font-family="Times New Roman,serif" font-size="14.00">i,p,S1</text>
</g>
<!-- 20&#45;&gt;22 -->
<g id="edge38" class="edge"><title>20&#45;&gt;22</title>
<path fill="none" stroke="black" d="M254.971,-283.799C219.781,-290.266 162,-307.291 162,-351 162,-1376 162,-1376 162,-1376 162,-1395.43 163.84,-1417.28 164.42,-1433.96"/>
<polygon fill="black" stroke="black" points="160.923,-1434.16 164.588,-1444.1 167.922,-1434.04 160.923,-1434.16"/>
</g>
<!-- 20&#45;&gt;26 -->
<g id="edge40" class="edge"><title>20&#45;&gt;26</title>
<path fill="none" stroke="black" d="M273.065,-261.76C269.283,-251.966 266.144,-239.248 269,-228 269.877,-224.545 271.172,-221.061 272.681,-217.701"/>
<polygon fill="black" stroke="black" points="275.857,-219.177 277.328,-208.685 269.635,-215.97 275.857,-219.177"/>
<text text-anchor="middle" x="272.5" y="-231.8" font-family="Times New Roman,serif" font-size="14.00">k</text>
</g>
<!-- 21&#45;&gt;19 -->
<g id="edge26" class="edge"><title>21&#45;&gt;19</title>
<path fill="none" stroke="black" d="M434.309,-1306.21C432.143,-1316.35 428.375,-1329.09 422,-1339 418.33,-1344.7 413.471,-1350.02 408.407,-1354.69"/>
<polygon fill="black" stroke="black" points="405.772,-1352.34 400.423,-1361.49 410.307,-1357.67 405.772,-1352.34"/>
<text text-anchor="middle" x="432" y="-1327.8" font-family="Times New Roman,serif" font-size="14.00">b</text>
</g>
<!-- 22&#45;&gt;19 -->
<g id="edge35" class="edge"><title>22&#45;&gt;19</title>
<path fill="none" stroke="black" d="M185.901,-1451.08C226.521,-1435.53 305.139,-1405.43 349.498,-1388.44"/>
<polygon fill="black" stroke="black" points="350.856,-1391.67 358.944,-1384.83 348.353,-1385.14 350.856,-1391.67"/>
<text text-anchor="middle" x="286.5" y="-1414.8" font-family="Times New Roman,serif" font-size="14.00">I</text>
</g>
<!-- 22&#45;&gt;20 -->
<g id="edge39" class="edge"><title>22&#45;&gt;20</title>
<path fill="none" stroke="black" d="M151.062,-1444.42C146.769,-1427.31 144,-1399.84 144,-1376 144,-1376 144,-1376 144,-351 144,-306.701 203.354,-289.81 244.069,-283.542"/>
<polygon fill="black" stroke="black" points="244.801,-286.974 254.226,-282.135 243.841,-280.04 244.801,-286.974"/>
</g>
<!-- 24 -->
<g id="node25" class="node"><title>24</title>
<ellipse fill="none" stroke="black" cx="161" cy="-1549" rx="27" ry="18"/>
<text text-anchor="middle" x="161" y="-1545.3" font-family="Times New Roman,serif" font-size="14.00">e,i</text>
</g>
<!-- 22&#45;&gt;24 -->
<g id="edge33" class="edge"><title>22&#45;&gt;24</title>
<path fill="none" stroke="black" d="M160.202,-1480.18C160.339,-1491.81 160.523,-1507.42 160.679,-1520.73"/>
<polygon fill="black" stroke="black" points="157.18,-1520.84 160.798,-1530.8 164.18,-1520.76 157.18,-1520.84"/>
</g>
<!-- 23 -->
<g id="node24" class="node"><title>23</title>
<ellipse fill="none" stroke="black" cx="214" cy="-18" rx="27" ry="18"/>
<text text-anchor="middle" x="214" y="-14.3" font-family="Times New Roman,serif" font-size="14.00">p,i</text>
</g>
<!-- 23&#45;&gt;20 -->
<g id="edge43" class="edge"><title>23&#45;&gt;20</title>
<path fill="none" stroke="black" d="M201.285,-34.0223C191.127,-47.073 177.685,-66.9776 172,-87 167.63,-102.392 167.173,-107.745 172,-123 189.054,-176.898 232.328,-228.279 258.936,-256.236"/>
<polygon fill="black" stroke="black" points="256.489,-258.74 265.963,-263.482 261.514,-253.867 256.489,-258.74"/>
</g>
<!-- 23&#45;&gt;28 -->
<g id="edge24" class="edge"><title>23&#45;&gt;28</title>
<path fill="none" stroke="black" d="M212.788,-36.1754C211.967,-47.806 210.865,-63.4194 209.925,-76.7339"/>
<polygon fill="black" stroke="black" points="206.427,-76.5773 209.214,-86.799 213.41,-77.0703 206.427,-76.5773"/>
<text text-anchor="middle" x="214.5" y="-57.8" font-family="Times New Roman,serif" font-size="14.00">k</text>
</g>
<!-- 24&#45;&gt;22 -->
<g id="edge34" class="edge"><title>24&#45;&gt;22</title>
<path fill="none" stroke="black" d="M155.734,-1531.08C154.211,-1525.39 152.756,-1518.98 152,-1513 151.055,-1505.53 151.638,-1497.46 152.831,-1490.03"/>
<polygon fill="black" stroke="black" points="156.292,-1490.58 154.831,-1480.08 149.429,-1489.2 156.292,-1490.58"/>
<text text-anchor="middle" x="154" y="-1501.8" font-family="Times New Roman,serif" font-size="14.00">l</text>
</g>
<!-- 24&#45;&gt;27 -->
<g id="edge31" class="edge"><title>24&#45;&gt;27</title>
<path fill="none" stroke="black" d="M161.202,-1567.18C161.339,-1578.81 161.523,-1594.42 161.679,-1607.73"/>
<polygon fill="black" stroke="black" points="158.18,-1607.84 161.798,-1617.8 165.18,-1607.76 158.18,-1607.84"/>
</g>
<!-- 25&#45;&gt;10 -->
<g id="edge30" class="edge"><title>25&#45;&gt;10</title>
<path fill="none" stroke="black" d="M320.541,-35.3949C318.292,-41.1534 316.124,-47.7478 315,-54 313.632,-61.6141 314.149,-69.9017 315.418,-77.5"/>
<polygon fill="black" stroke="black" points="312,-78.255 317.507,-87.3063 318.847,-76.7964 312,-78.255"/>
<text text-anchor="middle" x="319" y="-57.8" font-family="Times New Roman,serif" font-size="14.00">b</text>
</g>
<!-- 25&#45;&gt;26 -->
<g id="edge22" class="edge"><title>25&#45;&gt;26</title>
<path fill="none" stroke="black" d="M339.294,-34.8237C352.566,-55.4906 371.312,-92.6172 359,-123 350.563,-143.821 332.032,-161.208 316.018,-173.188"/>
<polygon fill="black" stroke="black" points="313.58,-170.626 307.46,-179.274 317.638,-176.331 313.58,-170.626"/>
<text text-anchor="middle" x="366.5" y="-101.3" font-family="Times New Roman,serif" font-size="14.00">k</text>
</g>
<!-- 26&#45;&gt;10 -->
<g id="edge19" class="edge"><title>26&#45;&gt;10</title>
<path fill="none" stroke="black" d="M300.363,-175.728C304.596,-169.853 309.013,-162.896 312,-156 315.109,-148.823 317.381,-140.672 319.023,-133.065"/>
<polygon fill="black" stroke="black" points="322.475,-133.646 320.892,-123.171 315.596,-132.347 322.475,-133.646"/>
<text text-anchor="middle" x="319.5" y="-144.8" font-family="Times New Roman,serif" font-size="14.00">s</text>
</g>
<!-- 26&#45;&gt;20 -->
<g id="edge41" class="edge"><title>26&#45;&gt;20</title>
<path fill="none" stroke="black" d="M286.586,-210.175C285.628,-221.806 284.342,-237.419 283.245,-250.734"/>
<polygon fill="black" stroke="black" points="279.749,-250.545 282.417,-260.799 286.726,-251.12 279.749,-250.545"/>
<text text-anchor="middle" x="287.5" y="-231.8" font-family="Times New Roman,serif" font-size="14.00">k</text>
</g>
<!-- 26&#45;&gt;25 -->
<g id="edge21" class="edge"><title>26&#45;&gt;25</title>
<path fill="none" stroke="black" d="M282.842,-173.979C277.349,-153.003 270.632,-116.515 280,-87 285.328,-70.2137 296.462,-53.9985 306.666,-41.6151"/>
<polygon fill="black" stroke="black" points="309.617,-43.5524 313.499,-33.6943 304.317,-38.9799 309.617,-43.5524"/>
<text text-anchor="middle" x="283.5" y="-101.3" font-family="Times New Roman,serif" font-size="14.00">k</text>
</g>
<!-- 26&#45;&gt;28 -->
<g id="edge6" class="edge"><title>26&#45;&gt;28</title>
<path fill="none" stroke="black" d="M270.84,-178.09C256.924,-165.277 237.787,-145.339 224.16,-129.676"/>
<polygon fill="black" stroke="black" points="226.731,-127.296 217.592,-121.935 221.393,-131.825 226.731,-127.296"/>
</g>
<!-- 27&#45;&gt;5 -->
<g id="edge64" class="edge"><title>27&#45;&gt;5</title>
<path fill="none" stroke="black" d="M162.404,-1654.18C162.678,-1665.81 163.045,-1681.42 163.358,-1694.73"/>
<polygon fill="black" stroke="black" points="159.861,-1694.88 163.595,-1704.8 166.859,-1694.72 159.861,-1694.88"/>
</g>
<!-- 27&#45;&gt;24 -->
<g id="edge32" class="edge"><title>27&#45;&gt;24</title>
<path fill="none" stroke="black" d="M156.734,-1618.08C155.211,-1612.39 153.756,-1605.98 153,-1600 152.055,-1592.53 152.638,-1584.46 153.831,-1577.03"/>
<polygon fill="black" stroke="black" points="157.292,-1577.58 155.831,-1567.08 150.429,-1576.2 157.292,-1577.58"/>
<text text-anchor="middle" x="155" y="-1588.8" font-family="Times New Roman,serif" font-size="14.00">l</text>
</g>
<!-- 28&#45;&gt;2 -->
<g id="edge79" class="edge"><title>28&#45;&gt;2</title>
<path fill="none" stroke="black" d="M190.207,-91.458C175.041,-78.5203 153.709,-58.0468 138.617,-42.1579"/>
<polygon fill="black" stroke="black" points="141.134,-39.7246 131.764,-34.7793 136.005,-44.4884 141.134,-39.7246"/>
</g>
<!-- 28&#45;&gt;23 -->
<g id="edge23" class="edge"><title>28&#45;&gt;23</title>
<path fill="none" stroke="black" d="M216.03,-87.6573C218.451,-81.903 220.787,-75.2979 222,-69 223.463,-61.4035 222.975,-53.1214 221.704,-45.5227"/>
<polygon fill="black" stroke="black" points="225.119,-44.7543 219.596,-35.7129 218.275,-46.2251 225.119,-44.7543"/>
<text text-anchor="middle" x="225.5" y="-57.8" font-family="Times New Roman,serif" font-size="14.00">k</text>
</g>
<!-- 28&#45;&gt;26 -->
<g id="edge5" class="edge"><title>28&#45;&gt;26</title>
<path fill="none" stroke="black" d="M225.398,-119.13C239.291,-131.948 258.281,-151.741 271.831,-167.313"/>
<polygon fill="black" stroke="black" points="269.225,-169.652 278.364,-175.012 274.562,-165.123 269.225,-169.652"/>
</g>
<!-- 29 -->
<g id="node30" class="node"><title>29</title>
<ellipse fill="none" stroke="black" cx="316" cy="-1093" rx="27" ry="18"/>
<text text-anchor="middle" x="316" y="-1089.3" font-family="Times New Roman,serif" font-size="14.00">e</text>
</g>
<!-- 30 -->
<g id="node31" class="node"><title>30</title>
<ellipse fill="none" stroke="black" cx="316" cy="-1006" rx="27" ry="18"/>
<text text-anchor="middle" x="316" y="-1002.3" font-family="Times New Roman,serif" font-size="14.00">e,p</text>
</g>
<!-- 29&#45;&gt;30 -->
<g id="edge50" class="edge"><title>29&#45;&gt;30</title>
<path fill="none" stroke="black" d="M308.591,-1075.45C305.121,-1065.77 302.121,-1053.27 304,-1042 304.485,-1039.09 305.183,-1036.1 306,-1033.14"/>
<polygon fill="black" stroke="black" points="309.39,-1034.03 309.112,-1023.44 302.725,-1031.9 309.39,-1034.03"/>
<text text-anchor="middle" x="308" y="-1045.8" font-family="Times New Roman,serif" font-size="14.00">b</text>
</g>
<!-- 36 -->
<g id="node37" class="node"><title>36</title>
<ellipse fill="none" stroke="black" cx="324" cy="-1180" rx="27" ry="18"/>
<text text-anchor="middle" x="324" y="-1176.3" font-family="Times New Roman,serif" font-size="14.00">e</text>
</g>
<!-- 29&#45;&gt;36 -->
<g id="edge51" class="edge"><title>29&#45;&gt;36</title>
<path fill="none" stroke="black" d="M318.069,-1111.08C318.728,-1116.77 319.432,-1123.16 320,-1129 320.713,-1136.34 321.391,-1144.29 321.981,-1151.65"/>
<polygon fill="black" stroke="black" points="318.51,-1152.16 322.774,-1161.86 325.489,-1151.62 318.51,-1152.16"/>
<text text-anchor="middle" x="325" y="-1132.8" font-family="Times New Roman,serif" font-size="14.00">b</text>
</g>
<!-- 30&#45;&gt;29 -->
<g id="edge49" class="edge"><title>30&#45;&gt;29</title>
<path fill="none" stroke="black" d="M316,-1024.18C316,-1035.81 316,-1051.42 316,-1064.73"/>
<polygon fill="black" stroke="black" points="312.5,-1064.8 316,-1074.8 319.5,-1064.8 312.5,-1064.8"/>
<text text-anchor="middle" x="320" y="-1045.8" font-family="Times New Roman,serif" font-size="14.00">b</text>
</g>
<!-- 30&#45;&gt;35 -->
<g id="edge48" class="edge"><title>30&#45;&gt;35</title>
<path fill="none" stroke="black" d="M316,-987.813C316,-979.789 316,-970.047 316,-961.069"/>
<polygon fill="black" stroke="black" points="319.5,-961.029 316,-951.029 312.5,-961.029 319.5,-961.029"/>
</g>
<!-- 31&#45;&gt;13 -->
<g id="edge45" class="edge"><title>31&#45;&gt;13</title>
<path fill="none" stroke="black" d="M222.5,-616.758C223.814,-628.508 224.092,-644.47 223.334,-658.002"/>
<polygon fill="black" stroke="black" points="219.826,-657.956 222.504,-668.207 226.803,-658.524 219.826,-657.956"/>
</g>
<!-- 32&#45;&gt;8 -->
<g id="edge80" class="edge"><title>32&#45;&gt;8</title>
<path fill="none" stroke="black" d="M349.066,-408.594C341.786,-399.197 332.337,-386.999 324.146,-376.424"/>
<polygon fill="black" stroke="black" points="326.802,-374.138 317.911,-368.376 321.268,-378.425 326.802,-374.138"/>
</g>
<!-- 32&#45;&gt;17 -->
<g id="edge57" class="edge"><title>32&#45;&gt;17</title>
<path fill="none" stroke="black" d="M361,-443.175C361,-454.806 361,-470.419 361,-483.734"/>
<polygon fill="black" stroke="black" points="357.5,-483.799 361,-493.799 364.5,-483.799 357.5,-483.799"/>
<text text-anchor="middle" x="364.5" y="-464.8" font-family="Times New Roman,serif" font-size="14.00">k</text>
</g>
<!-- 33 -->
<g id="node34" class="node"><title>33</title>
<ellipse fill="none" stroke="black" cx="435" cy="-686" rx="28.6953" ry="18"/>
<text text-anchor="middle" x="435" y="-682.3" font-family="Times New Roman,serif" font-size="14.00">e,p,k</text>
</g>
<!-- 33&#45;&gt;17 -->
<g id="edge59" class="edge"><title>33&#45;&gt;17</title>
<path fill="none" stroke="black" d="M427.905,-668.508C414.976,-638.457 387.496,-574.586 372.08,-538.754"/>
<polygon fill="black" stroke="black" points="375.241,-537.245 368.074,-529.442 368.811,-540.011 375.241,-537.245"/>
</g>
<!-- 33&#45;&gt;18 -->
<g id="edge60" class="edge"><title>33&#45;&gt;18</title>
<path fill="none" stroke="black" d="M416.407,-671.778C408.039,-665.519 398.216,-657.733 390,-650 381.322,-641.832 372.5,-632.137 365.056,-623.468"/>
<polygon fill="black" stroke="black" points="367.51,-620.949 358.391,-615.555 362.156,-625.458 367.51,-620.949"/>
</g>
<!-- 33&#45;&gt;32 -->
<g id="edge56" class="edge"><title>33&#45;&gt;32</title>
<path fill="none" stroke="black" d="M439.35,-667.924C448.457,-628.144 465.434,-527.622 424,-461 417.289,-450.209 405.987,-442.472 394.793,-437.063"/>
<polygon fill="black" stroke="black" points="396.087,-433.809 385.519,-433.052 393.308,-440.234 396.087,-433.809"/>
</g>
<!-- 34&#45;&gt;19 -->
<g id="edge62" class="edge"><title>34&#45;&gt;19</title>
<path fill="none" stroke="black" d="M341.605,-1303.49C351.094,-1315.71 362.941,-1333.48 371.525,-1348.12"/>
<polygon fill="black" stroke="black" points="368.682,-1350.21 376.638,-1357.21 374.782,-1346.78 368.682,-1350.21"/>
</g>
<!-- 34&#45;&gt;36 -->
<g id="edge54" class="edge"><title>34&#45;&gt;36</title>
<path fill="none" stroke="black" d="M326.517,-1269.78C326.113,-1255.4 325.521,-1234.37 325,-1216 324.928,-1213.45 324.852,-1210.79 324.776,-1208.13"/>
<polygon fill="black" stroke="black" points="328.274,-1207.99 324.49,-1198.09 321.276,-1208.19 328.274,-1207.99"/>
<text text-anchor="middle" x="327" y="-1230.3" font-family="Times New Roman,serif" font-size="14.00">l</text>
</g>
<!-- 35&#45;&gt;16 -->
<g id="edge47" class="edge"><title>35&#45;&gt;16</title>
<path fill="none" stroke="black" d="M310.16,-915.174C309.285,-907.039 309.041,-897.076 309.428,-887.921"/>
<polygon fill="black" stroke="black" points="312.937,-887.933 310.173,-877.705 305.955,-887.424 312.937,-887.933"/>
</g>
<!-- 35&#45;&gt;33 -->
<g id="edge55" class="edge"><title>35&#45;&gt;33</title>
<path fill="none" stroke="black" d="M327.481,-916.397C334.965,-905.855 344.667,-891.455 352,-878 382.838,-821.413 410.97,-751.032 425.215,-713.498"/>
<polygon fill="black" stroke="black" points="428.61,-714.413 428.855,-703.821 422.058,-711.948 428.61,-714.413"/>
</g>
<!-- 36&#45;&gt;29 -->
<g id="edge52" class="edge"><title>36&#45;&gt;29</title>
<path fill="none" stroke="black" d="M317.567,-1162.16C315.706,-1156.48 313.927,-1150.04 313,-1144 311.87,-1136.64 311.832,-1128.61 312.282,-1121.18"/>
<polygon fill="black" stroke="black" points="315.769,-1121.48 313.179,-1111.21 308.797,-1120.85 315.769,-1121.48"/>
<text text-anchor="middle" x="317" y="-1132.8" font-family="Times New Roman,serif" font-size="14.00">b</text>
</g>
<!-- 36&#45;&gt;34 -->
<g id="edge53" class="edge"><title>36&#45;&gt;34</title>
<path fill="none" stroke="black" d="M324.491,-1198.34C324.963,-1215.04 325.685,-1240.55 326.234,-1259.93"/>
<polygon fill="black" stroke="black" points="322.736,-1260.07 326.518,-1269.97 329.734,-1259.87 322.736,-1260.07"/>
</g>
</g>
</svg>
