<?xml version="1.0" encoding="UTF-8" standalone="no"?>
<!DOCTYPE svg PUBLIC "-//W3C//DTD SVG 1.1//EN"
 "http://www.w3.org/Graphics/SVG/1.1/DTD/svg11.dtd">
<!-- Generated by graphviz version 2.38.0 (20140413.2041)
 -->
<!-- Title: %3 Pages: 1 -->
<svg width="575pt" height="987pt"
 viewBox="0.00 0.00 575.00 987.00" xmlns="http://www.w3.org/2000/svg" xmlns:xlink="http://www.w3.org/1999/xlink">
<g id="graph0" class="graph" transform="scale(1 1) rotate(0) translate(4 983)">
<title>%3</title>
<polygon fill="white" stroke="none" points="-4,4 -4,-983 571,-983 571,4 -4,4"/>
<!-- 0 -->
<g id="node1" class="node"><title>0</title>
<ellipse fill="none" stroke="black" cx="410" cy="-961" rx="27" ry="18"/>
<text text-anchor="middle" x="410" y="-957.3" font-family="Times New Roman,serif" font-size="14.00">i</text>
</g>
<!-- 12 -->
<g id="node13" class="node"><title>12</title>
<ellipse fill="none" stroke="black" cx="410" cy="-888" rx="27" ry="18"/>
<text text-anchor="middle" x="410" y="-884.3" font-family="Times New Roman,serif" font-size="14.00">e,I</text>
</g>
<!-- 0&#45;&gt;12 -->
<g id="edge51" class="edge"><title>0&#45;&gt;12</title>
<path fill="none" stroke="black" d="M404.16,-943.174C403.285,-935.039 403.041,-925.076 403.428,-915.921"/>
<polygon fill="black" stroke="black" points="406.937,-915.933 404.173,-905.705 399.955,-915.424 406.937,-915.933"/>
</g>
<!-- 1 -->
<g id="node2" class="node"><title>1</title>
<ellipse fill="none" stroke="black" cx="59" cy="-714" rx="27" ry="18"/>
<text text-anchor="middle" x="59" y="-710.3" font-family="Times New Roman,serif" font-size="14.00">e,p,i</text>
</g>
<!-- 2 -->
<g id="node3" class="node"><title>2</title>
<ellipse fill="none" stroke="black" cx="79" cy="-627" rx="27" ry="18"/>
<text text-anchor="middle" x="79" y="-623.3" font-family="Times New Roman,serif" font-size="14.00">e,p,i</text>
</g>
<!-- 1&#45;&gt;2 -->
<g id="edge54" class="edge"><title>1&#45;&gt;2</title>
<path fill="none" stroke="black" d="M63.0473,-695.799C65.8033,-684.086 69.5077,-668.342 72.6531,-654.974"/>
<polygon fill="black" stroke="black" points="76.1435,-655.421 75.027,-644.885 69.3295,-653.818 76.1435,-655.421"/>
<text text-anchor="middle" x="73" y="-666.8" font-family="Times New Roman,serif" font-size="14.00">l</text>
</g>
<!-- 9 -->
<g id="node10" class="node"><title>9</title>
<ellipse fill="none" stroke="black" cx="131" cy="-801" rx="27" ry="18"/>
<text text-anchor="middle" x="131" y="-797.3" font-family="Times New Roman,serif" font-size="14.00">e,k</text>
</g>
<!-- 1&#45;&gt;9 -->
<g id="edge53" class="edge"><title>1&#45;&gt;9</title>
<path fill="none" stroke="black" d="M63.4839,-732.046C66.8138,-742.371 72.1518,-755.364 80,-765 85.9618,-772.32 93.8435,-778.74 101.623,-784.015"/>
<polygon fill="black" stroke="black" points="99.9328,-787.087 110.256,-789.471 103.673,-781.17 99.9328,-787.087"/>
<text text-anchor="middle" x="83.5" y="-753.8" font-family="Times New Roman,serif" font-size="14.00">k</text>
</g>
<!-- 2&#45;&gt;1 -->
<g id="edge55" class="edge"><title>2&#45;&gt;1</title>
<path fill="none" stroke="black" d="M69.4823,-644.221C66.5608,-649.966 63.6766,-656.596 62,-663 60.1139,-670.205 59.154,-678.185 58.7117,-685.615"/>
<polygon fill="black" stroke="black" points="55.2134,-685.507 58.3884,-695.614 62.2098,-685.733 55.2134,-685.507"/>
<text text-anchor="middle" x="64" y="-666.8" font-family="Times New Roman,serif" font-size="14.00">l</text>
</g>
<!-- 3 -->
<g id="node4" class="node"><title>3</title>
<ellipse fill="none" stroke="black" cx="87" cy="-540" rx="27" ry="18"/>
<text text-anchor="middle" x="87" y="-536.3" font-family="Times New Roman,serif" font-size="14.00">p</text>
</g>
<!-- 2&#45;&gt;3 -->
<g id="edge56" class="edge"><title>2&#45;&gt;3</title>
<path fill="none" stroke="black" d="M73.8081,-609.243C71.4941,-599.49 69.7441,-586.99 72,-576 72.631,-572.926 73.5437,-569.789 74.612,-566.717"/>
<polygon fill="black" stroke="black" points="77.9201,-567.871 78.4002,-557.287 71.4246,-565.262 77.9201,-567.871"/>
<text text-anchor="middle" x="74" y="-579.8" font-family="Times New Roman,serif" font-size="14.00">l</text>
</g>
<!-- 3&#45;&gt;2 -->
<g id="edge57" class="edge"><title>3&#45;&gt;2</title>
<path fill="none" stroke="black" d="M85.3835,-558.175C84.2888,-569.806 82.8193,-585.419 81.5662,-598.734"/>
<polygon fill="black" stroke="black" points="78.0714,-598.515 80.6189,-608.799 85.0406,-599.171 78.0714,-598.515"/>
<text text-anchor="middle" x="86" y="-579.8" font-family="Times New Roman,serif" font-size="14.00">l</text>
</g>
<!-- 4 -->
<g id="node5" class="node"><title>4</title>
<ellipse fill="none" stroke="black" cx="68" cy="-453" rx="27" ry="18"/>
<text text-anchor="middle" x="68" y="-449.3" font-family="Times New Roman,serif" font-size="14.00">e,i</text>
</g>
<!-- 3&#45;&gt;4 -->
<g id="edge58" class="edge"><title>3&#45;&gt;4</title>
<path fill="none" stroke="black" d="M83.1551,-521.799C80.5369,-510.086 77.0177,-494.342 74.0296,-480.974"/>
<polygon fill="black" stroke="black" points="77.3716,-479.881 71.7744,-470.885 70.5402,-481.408 77.3716,-479.881"/>
</g>
<!-- 4&#45;&gt;3 -->
<g id="edge59" class="edge"><title>4&#45;&gt;3</title>
<path fill="none" stroke="black" d="M69.065,-471.303C69.9139,-481.014 71.4079,-493.293 74,-504 74.7007,-506.894 75.5685,-509.876 76.5209,-512.822"/>
<polygon fill="black" stroke="black" points="73.3188,-514.265 79.9648,-522.516 79.9149,-511.921 73.3188,-514.265"/>
<text text-anchor="middle" x="76" y="-492.8" font-family="Times New Roman,serif" font-size="14.00">l</text>
</g>
<!-- 5 -->
<g id="node6" class="node"><title>5</title>
<ellipse fill="none" stroke="black" cx="52" cy="-366" rx="30.5947" ry="18"/>
<text text-anchor="middle" x="52" y="-362.3" font-family="Times New Roman,serif" font-size="14.00">e,i,27</text>
</g>
<!-- 4&#45;&gt;5 -->
<g id="edge60" class="edge"><title>4&#45;&gt;5</title>
<path fill="none" stroke="black" d="M64.7622,-434.799C62.5718,-423.163 59.6325,-407.548 57.1269,-394.237"/>
<polygon fill="black" stroke="black" points="60.5226,-393.355 55.233,-384.175 53.6434,-394.65 60.5226,-393.355"/>
</g>
<!-- 5&#45;&gt;4 -->
<g id="edge61" class="edge"><title>5&#45;&gt;4</title>
<path fill="none" stroke="black" d="M53.3867,-384.232C54.3362,-393.92 55.8237,-406.201 58,-417 58.5431,-419.695 59.1903,-422.484 59.8907,-425.259"/>
<polygon fill="black" stroke="black" points="56.5529,-426.322 62.5686,-435.044 63.3047,-424.474 56.5529,-426.322"/>
<text text-anchor="middle" x="60" y="-405.8" font-family="Times New Roman,serif" font-size="14.00">l</text>
</g>
<!-- 6 -->
<g id="node7" class="node"><title>6</title>
<ellipse fill="none" stroke="black" cx="27" cy="-279" rx="27" ry="18"/>
<text text-anchor="middle" x="27" y="-275.3" font-family="Times New Roman,serif" font-size="14.00">b,28</text>
</g>
<!-- 5&#45;&gt;6 -->
<g id="edge62" class="edge"><title>5&#45;&gt;6</title>
<path fill="none" stroke="black" d="M47.0608,-348.207C43.5682,-336.332 38.8142,-320.168 34.8108,-306.557"/>
<polygon fill="black" stroke="black" points="38.1084,-305.364 31.9289,-296.758 31.3929,-307.34 38.1084,-305.364"/>
<text text-anchor="middle" x="43" y="-318.8" font-family="Times New Roman,serif" font-size="14.00">l</text>
</g>
<!-- 6&#45;&gt;5 -->
<g id="edge63" class="edge"><title>6&#45;&gt;5</title>
<path fill="none" stroke="black" d="M26.9499,-297.023C27.3499,-306.864 28.5999,-319.364 32,-330 33.0768,-333.368 34.5078,-336.771 36.1111,-340.062"/>
<polygon fill="black" stroke="black" points="33.0805,-341.816 40.9353,-348.926 39.2288,-338.469 33.0805,-341.816"/>
<text text-anchor="middle" x="34" y="-318.8" font-family="Times New Roman,serif" font-size="14.00">l</text>
</g>
<!-- 7 -->
<g id="node8" class="node"><title>7</title>
<ellipse fill="none" stroke="black" cx="27" cy="-192" rx="27" ry="18"/>
<text text-anchor="middle" x="27" y="-188.3" font-family="Times New Roman,serif" font-size="14.00">t,29</text>
</g>
<!-- 6&#45;&gt;7 -->
<g id="edge64" class="edge"><title>6&#45;&gt;7</title>
<path fill="none" stroke="black" d="M21.4963,-261.207C20.1841,-249.448 19.9081,-233.485 20.6683,-219.958"/>
<polygon fill="black" stroke="black" points="24.1756,-220.01 21.5002,-209.758 17.1988,-219.441 24.1756,-220.01"/>
</g>
<!-- 7&#45;&gt;6 -->
<g id="edge65" class="edge"><title>7&#45;&gt;6</title>
<path fill="none" stroke="black" d="M32.4998,-209.758C33.8141,-221.508 34.0921,-237.47 33.3339,-251.002"/>
<polygon fill="black" stroke="black" points="29.8262,-250.956 32.5037,-261.207 36.8032,-251.524 29.8262,-250.956"/>
</g>
<!-- 8 -->
<g id="node9" class="node"><title>8</title>
<ellipse fill="none" stroke="black" cx="418" cy="-192" rx="27" ry="18"/>
<text text-anchor="middle" x="418" y="-188.3" font-family="Times New Roman,serif" font-size="14.00">i</text>
</g>
<!-- 13 -->
<g id="node14" class="node"><title>13</title>
<ellipse fill="none" stroke="black" cx="418" cy="-279" rx="27" ry="18"/>
<text text-anchor="middle" x="418" y="-275.3" font-family="Times New Roman,serif" font-size="14.00">e</text>
</g>
<!-- 8&#45;&gt;13 -->
<g id="edge70" class="edge"><title>8&#45;&gt;13</title>
<path fill="none" stroke="black" d="M423.5,-209.758C424.814,-221.508 425.092,-237.47 424.334,-251.002"/>
<polygon fill="black" stroke="black" points="420.826,-250.956 423.504,-261.207 427.803,-251.524 420.826,-250.956"/>
</g>
<!-- 15 -->
<g id="node16" class="node"><title>15</title>
<ellipse fill="none" stroke="black" cx="418" cy="-105" rx="27" ry="18"/>
<text text-anchor="middle" x="418" y="-101.3" font-family="Times New Roman,serif" font-size="14.00">e</text>
</g>
<!-- 8&#45;&gt;15 -->
<g id="edge22" class="edge"><title>8&#45;&gt;15</title>
<path fill="none" stroke="black" d="M418,-173.799C418,-162.163 418,-146.548 418,-133.237"/>
<polygon fill="black" stroke="black" points="421.5,-133.175 418,-123.175 414.5,-133.175 421.5,-133.175"/>
<text text-anchor="middle" x="420" y="-144.8" font-family="Times New Roman,serif" font-size="14.00">l</text>
</g>
<!-- 9&#45;&gt;1 -->
<g id="edge52" class="edge"><title>9&#45;&gt;1</title>
<path fill="none" stroke="black" d="M118.128,-784.804C107.07,-771.75 90.9641,-752.735 78.353,-737.847"/>
<polygon fill="black" stroke="black" points="80.8949,-735.433 71.7607,-730.065 75.5535,-739.957 80.8949,-735.433"/>
<text text-anchor="middle" x="103.5" y="-753.8" font-family="Times New Roman,serif" font-size="14.00">k</text>
</g>
<!-- 10 -->
<g id="node11" class="node"><title>10</title>
<ellipse fill="none" stroke="black" cx="131" cy="-714" rx="27" ry="18"/>
<text text-anchor="middle" x="131" y="-710.3" font-family="Times New Roman,serif" font-size="14.00">e,i</text>
</g>
<!-- 9&#45;&gt;10 -->
<g id="edge19" class="edge"><title>9&#45;&gt;10</title>
<path fill="none" stroke="black" d="M125.496,-783.207C124.184,-771.448 123.908,-755.485 124.668,-741.958"/>
<polygon fill="black" stroke="black" points="128.176,-742.01 125.5,-731.758 121.199,-741.441 128.176,-742.01"/>
</g>
<!-- 9&#45;&gt;12 -->
<g id="edge49" class="edge"><title>9&#45;&gt;12</title>
<path fill="none" stroke="black" d="M156.049,-807.854C183.28,-814.367 227.995,-825.496 266,-837 304.518,-848.66 348.087,-864.11 377.115,-874.734"/>
<polygon fill="black" stroke="black" points="376.151,-878.108 386.744,-878.276 378.567,-871.539 376.151,-878.108"/>
<text text-anchor="middle" x="315" y="-840.8" font-family="Times New Roman,serif" font-size="14.00">K</text>
</g>
<!-- 10&#45;&gt;9 -->
<g id="edge20" class="edge"><title>10&#45;&gt;9</title>
<path fill="none" stroke="black" d="M136.5,-731.758C137.814,-743.508 138.092,-759.47 137.334,-773.002"/>
<polygon fill="black" stroke="black" points="133.826,-772.956 136.504,-783.207 140.803,-773.524 133.826,-772.956"/>
</g>
<!-- 11 -->
<g id="node12" class="node"><title>11</title>
<ellipse fill="none" stroke="black" cx="163" cy="-18" rx="27" ry="18"/>
<text text-anchor="middle" x="163" y="-14.3" font-family="Times New Roman,serif" font-size="14.00">s</text>
</g>
<!-- 18 -->
<g id="node19" class="node"><title>18</title>
<ellipse fill="none" stroke="black" cx="166" cy="-105" rx="27" ry="18"/>
<text text-anchor="middle" x="166" y="-101.3" font-family="Times New Roman,serif" font-size="14.00">p</text>
</g>
<!-- 11&#45;&gt;18 -->
<g id="edge1" class="edge"><title>11&#45;&gt;18</title>
<path fill="none" stroke="black" d="M169.091,-35.7584C170.82,-47.5084 171.662,-63.4701 171.381,-77.0021"/>
<polygon fill="black" stroke="black" points="167.875,-77.0563 170.911,-87.2067 174.868,-77.3784 167.875,-77.0563"/>
</g>
<!-- 12&#45;&gt;0 -->
<g id="edge50" class="edge"><title>12&#45;&gt;0</title>
<path fill="none" stroke="black" d="M415.827,-905.705C416.708,-913.822 416.959,-923.78 416.577,-932.942"/>
<polygon fill="black" stroke="black" points="413.068,-932.948 415.84,-943.174 420.05,-933.452 413.068,-932.948"/>
</g>
<!-- 12&#45;&gt;9 -->
<g id="edge48" class="edge"><title>12&#45;&gt;9</title>
<path fill="none" stroke="black" d="M384.059,-882.396C353.183,-876.62 300.239,-865.781 256,-852 223.297,-841.813 187.074,-826.904 162.077,-816.018"/>
<polygon fill="black" stroke="black" points="163.313,-812.738 152.75,-811.915 160.495,-819.145 163.313,-812.738"/>
<text text-anchor="middle" x="261" y="-840.8" font-family="Times New Roman,serif" font-size="14.00">K</text>
</g>
<!-- 12&#45;&gt;13 -->
<g id="edge69" class="edge"><title>12&#45;&gt;13</title>
<path fill="none" stroke="black" d="M436.19,-882.951C476.642,-875.463 549,-855.039 549,-802 549,-802 549,-802 549,-365 549,-318.799 492.604,-297.004 453.7,-287.246"/>
<polygon fill="black" stroke="black" points="454.278,-283.786 443.743,-284.909 452.679,-290.601 454.278,-283.786"/>
</g>
<!-- 25 -->
<g id="node26" class="node"><title>25</title>
<ellipse fill="none" stroke="black" cx="413" cy="-627" rx="27" ry="18"/>
</g>
<!-- 12&#45;&gt;25 -->
<g id="edge15" class="edge"><title>12&#45;&gt;25</title>
<path fill="none" stroke="black" d="M406.637,-870.006C403.168,-826.102 404.271,-708.6 408.352,-655.147"/>
<polygon fill="black" stroke="black" points="411.85,-655.324 409.237,-645.056 404.876,-654.712 411.85,-655.324"/>
</g>
<!-- 29 -->
<g id="node30" class="node"><title>29</title>
<ellipse fill="none" stroke="black" cx="361" cy="-801" rx="27" ry="18"/>
<text text-anchor="middle" x="361" y="-797.3" font-family="Times New Roman,serif" font-size="14.00">p</text>
</g>
<!-- 12&#45;&gt;29 -->
<g id="edge34" class="edge"><title>12&#45;&gt;29</title>
<path fill="none" stroke="black" d="M391.815,-874.18C384.622,-868.22 376.915,-860.555 372,-852 368.042,-845.112 365.508,-836.939 363.884,-829.219"/>
<polygon fill="black" stroke="black" points="367.298,-828.414 362.188,-819.133 360.395,-829.575 367.298,-828.414"/>
<text text-anchor="middle" x="375.5" y="-840.8" font-family="Times New Roman,serif" font-size="14.00">s</text>
</g>
<!-- 13&#45;&gt;8 -->
<g id="edge71" class="edge"><title>13&#45;&gt;8</title>
<path fill="none" stroke="black" d="M412.496,-261.207C411.184,-249.448 410.908,-233.485 411.668,-219.958"/>
<polygon fill="black" stroke="black" points="415.176,-220.01 412.5,-209.758 408.199,-219.441 415.176,-220.01"/>
</g>
<!-- 13&#45;&gt;12 -->
<g id="edge68" class="edge"><title>13&#45;&gt;12</title>
<path fill="none" stroke="black" d="M444.406,-282.939C487.428,-289.677 567,-310.121 567,-365 567,-802 567,-802 567,-802 567,-855.579 493.159,-875.876 446.62,-883.176"/>
<polygon fill="black" stroke="black" points="445.975,-879.733 436.573,-884.618 446.969,-886.662 445.975,-879.733"/>
</g>
<!-- 14 -->
<g id="node15" class="node"><title>14</title>
<ellipse fill="none" stroke="black" cx="419" cy="-18" rx="27" ry="18"/>
</g>
<!-- 13&#45;&gt;14 -->
<g id="edge44" class="edge"><title>13&#45;&gt;14</title>
<path fill="none" stroke="black" d="M393.209,-271.595C378.096,-266.39 359.692,-257.479 349,-243 321.781,-206.139 330.093,-186.654 334,-141 337.346,-101.906 325.601,-85.4967 349,-54 357.717,-42.2666 371.469,-34.214 384.485,-28.8205"/>
<polygon fill="black" stroke="black" points="386.053,-31.9713 394.199,-25.1975 383.607,-25.4126 386.053,-31.9713"/>
<text text-anchor="middle" x="337.5" y="-144.8" font-family="Times New Roman,serif" font-size="14.00">s</text>
</g>
<!-- 24 -->
<g id="node25" class="node"><title>24</title>
<ellipse fill="none" stroke="black" cx="418" cy="-366" rx="27" ry="18"/>
<text text-anchor="middle" x="418" y="-362.3" font-family="Times New Roman,serif" font-size="14.00">e,K</text>
</g>
<!-- 13&#45;&gt;24 -->
<g id="edge67" class="edge"><title>13&#45;&gt;24</title>
<path fill="none" stroke="black" d="M409.363,-296.502C405.318,-306.17 401.818,-318.67 404,-330 404.587,-333.051 405.438,-336.173 406.435,-339.236"/>
<polygon fill="black" stroke="black" points="403.18,-340.524 409.97,-348.657 409.734,-338.065 403.18,-340.524"/>
<text text-anchor="middle" x="409" y="-318.8" font-family="Times New Roman,serif" font-size="14.00">K</text>
</g>
<!-- 14&#45;&gt;13 -->
<g id="edge45" class="edge"><title>14&#45;&gt;13</title>
<path fill="none" stroke="black" d="M407.6,-34.5367C398.662,-47.7411 386.938,-67.5928 382,-87 368.52,-139.979 368.822,-156.945 382,-210 385.861,-225.544 394.002,-241.444 401.567,-253.956"/>
<polygon fill="black" stroke="black" points="398.608,-255.826 406.904,-262.416 404.528,-252.091 398.608,-255.826"/>
<text text-anchor="middle" x="376.5" y="-144.8" font-family="Times New Roman,serif" font-size="14.00">s</text>
</g>
<!-- 14&#45;&gt;15 -->
<g id="edge72" class="edge"><title>14&#45;&gt;15</title>
<path fill="none" stroke="black" d="M418.798,-36.1754C418.661,-47.806 418.477,-63.4194 418.321,-76.7339"/>
<polygon fill="black" stroke="black" points="414.82,-76.7585 418.202,-86.799 421.82,-76.8409 414.82,-76.7585"/>
<text text-anchor="middle" x="421" y="-57.8" font-family="Times New Roman,serif" font-size="14.00">l</text>
</g>
<!-- 14&#45;&gt;29 -->
<g id="edge75" class="edge"><title>14&#45;&gt;29</title>
<path fill="none" stroke="black" d="M441.742,-28.1476C468.985,-40.7878 511,-66.3798 511,-104 511,-715 511,-715 511,-715 511,-767.067 441.743,-787.621 397.349,-795.448"/>
<polygon fill="black" stroke="black" points="396.78,-791.994 387.472,-797.054 397.904,-798.904 396.78,-791.994"/>
<text text-anchor="middle" x="513" y="-405.8" font-family="Times New Roman,serif" font-size="14.00">l</text>
</g>
<!-- 15&#45;&gt;8 -->
<g id="edge21" class="edge"><title>15&#45;&gt;8</title>
<path fill="none" stroke="black" d="M416.828,-123.081C416.49,-128.778 416.167,-135.16 416,-141 415.79,-148.352 415.938,-156.309 416.229,-163.667"/>
<polygon fill="black" stroke="black" points="412.745,-164.064 416.735,-173.879 419.736,-163.718 412.745,-164.064"/>
</g>
<!-- 15&#45;&gt;14 -->
<g id="edge73" class="edge"><title>15&#45;&gt;14</title>
<path fill="none" stroke="black" d="M417.247,-86.8738C416.925,-77.2185 416.688,-64.9352 417,-54 417.073,-51.4448 417.176,-48.7859 417.297,-46.1262"/>
<polygon fill="black" stroke="black" points="420.795,-46.2525 417.828,-36.0815 413.805,-45.8826 420.795,-46.2525"/>
</g>
<!-- 16 -->
<g id="node17" class="node"><title>16</title>
<ellipse fill="none" stroke="black" cx="259" cy="-540" rx="27" ry="18"/>
<text text-anchor="middle" x="259" y="-536.3" font-family="Times New Roman,serif" font-size="14.00">i</text>
</g>
<!-- 30 -->
<g id="node31" class="node"><title>30</title>
<ellipse fill="none" stroke="black" cx="274" cy="-453" rx="27" ry="18"/>
<text text-anchor="middle" x="274" y="-449.3" font-family="Times New Roman,serif" font-size="14.00">e,p</text>
</g>
<!-- 16&#45;&gt;30 -->
<g id="edge30" class="edge"><title>16&#45;&gt;30</title>
<path fill="none" stroke="black" d="M262.035,-521.799C264.089,-510.163 266.844,-494.548 269.194,-481.237"/>
<polygon fill="black" stroke="black" points="272.678,-481.632 270.969,-471.175 265.784,-480.415 272.678,-481.632"/>
<text text-anchor="middle" x="270" y="-492.8" font-family="Times New Roman,serif" font-size="14.00">l</text>
</g>
<!-- 17 -->
<g id="node18" class="node"><title>17</title>
<ellipse fill="none" stroke="black" cx="185" cy="-192" rx="27" ry="18"/>
</g>
<!-- 17&#45;&gt;18 -->
<g id="edge4" class="edge"><title>17&#45;&gt;18</title>
<path fill="none" stroke="black" d="M176.015,-175.012C171.988,-163.209 168.026,-146.863 165.708,-133.042"/>
<polygon fill="black" stroke="black" points="169.164,-132.486 164.283,-123.083 162.235,-133.478 169.164,-132.486"/>
</g>
<!-- 19 -->
<g id="node20" class="node"><title>19</title>
<ellipse fill="none" stroke="black" cx="196" cy="-279" rx="27" ry="18"/>
<text text-anchor="middle" x="196" y="-275.3" font-family="Times New Roman,serif" font-size="14.00">e,p</text>
</g>
<!-- 17&#45;&gt;19 -->
<g id="edge37" class="edge"><title>17&#45;&gt;19</title>
<path fill="none" stroke="black" d="M187.223,-210.175C188.728,-221.806 190.748,-237.419 192.471,-250.734"/>
<polygon fill="black" stroke="black" points="189.019,-251.331 193.774,-260.799 195.962,-250.432 189.019,-251.331"/>
<text text-anchor="middle" x="195.5" y="-231.8" font-family="Times New Roman,serif" font-size="14.00">s</text>
</g>
<!-- 18&#45;&gt;11 -->
<g id="edge2" class="edge"><title>18&#45;&gt;11</title>
<path fill="none" stroke="black" d="M159.904,-87.2067C158.176,-75.4484 157.337,-59.4849 157.62,-45.9577"/>
<polygon fill="black" stroke="black" points="161.126,-45.9095 158.092,-35.7584 154.133,-45.5859 161.126,-45.9095"/>
</g>
<!-- 18&#45;&gt;17 -->
<g id="edge3" class="edge"><title>18&#45;&gt;17</title>
<path fill="none" stroke="black" d="M174.998,-122.025C179.011,-133.798 182.958,-150.074 185.275,-163.859"/>
<polygon fill="black" stroke="black" points="181.817,-164.399 186.704,-173.799 188.745,-163.403 181.817,-164.399"/>
</g>
<!-- 18&#45;&gt;19 -->
<g id="edge17" class="edge"><title>18&#45;&gt;19</title>
<path fill="none" stroke="black" d="M157.631,-122.174C148.056,-142.902 134.923,-179.769 145,-210 150.819,-227.456 163.068,-244.039 174.103,-256.459"/>
<polygon fill="black" stroke="black" points="171.728,-259.044 181.1,-263.986 176.855,-254.279 171.728,-259.044"/>
<text text-anchor="middle" x="147" y="-188.3" font-family="Times New Roman,serif" font-size="14.00">l</text>
</g>
<!-- 20 -->
<g id="node21" class="node"><title>20</title>
<ellipse fill="none" stroke="black" cx="238" cy="-18" rx="27" ry="18"/>
</g>
<!-- 18&#45;&gt;20 -->
<g id="edge5" class="edge"><title>18&#45;&gt;20</title>
<path fill="none" stroke="black" d="M174.424,-87.6111C184.323,-74.0973 200.484,-54.8328 214.152,-40.1555"/>
<polygon fill="black" stroke="black" points="217.053,-42.186 221.433,-32.539 211.993,-37.349 217.053,-42.186"/>
</g>
<!-- 19&#45;&gt;17 -->
<g id="edge38" class="edge"><title>19&#45;&gt;17</title>
<path fill="none" stroke="black" d="M189.112,-261.556C187.036,-255.794 185.035,-249.209 184,-243 182.792,-235.75 182.492,-227.827 182.632,-220.469"/>
<polygon fill="black" stroke="black" points="186.139,-220.387 183.097,-210.238 179.146,-220.069 186.139,-220.387"/>
<text text-anchor="middle" x="187.5" y="-231.8" font-family="Times New Roman,serif" font-size="14.00">s</text>
</g>
<!-- 19&#45;&gt;18 -->
<g id="edge18" class="edge"><title>19&#45;&gt;18</title>
<path fill="none" stroke="black" d="M176.39,-266.128C167.509,-260.039 157.373,-252.008 150,-243 139.676,-230.387 137.648,-225.886 134,-210 127.09,-179.911 129.427,-169.196 142,-141 143.674,-137.246 145.758,-133.467 147.993,-129.851"/>
<polygon fill="black" stroke="black" points="151.059,-131.563 153.717,-121.307 145.243,-127.667 151.059,-131.563"/>
<text text-anchor="middle" x="136" y="-188.3" font-family="Times New Roman,serif" font-size="14.00">l</text>
</g>
<!-- 19&#45;&gt;20 -->
<g id="edge40" class="edge"><title>19&#45;&gt;20</title>
<path fill="none" stroke="black" d="M211.203,-264.119C217.096,-258.094 223.496,-250.667 228,-243 235.832,-229.67 235.569,-225.075 239,-210 252.965,-148.636 250.835,-131.922 252,-69 252.123,-62.3345 253.261,-60.5464 252,-54 251.413,-50.9495 250.562,-47.8269 249.565,-44.7638"/>
<polygon fill="black" stroke="black" points="252.82,-43.4757 246.03,-35.3427 246.266,-45.9349 252.82,-43.4757"/>
<text text-anchor="middle" x="254.5" y="-144.8" font-family="Times New Roman,serif" font-size="14.00">s</text>
</g>
<!-- 22 -->
<g id="node23" class="node"><title>22</title>
<ellipse fill="none" stroke="black" cx="201" cy="-366" rx="27" ry="18"/>
<text text-anchor="middle" x="201" y="-362.3" font-family="Times New Roman,serif" font-size="14.00">p,i</text>
</g>
<!-- 19&#45;&gt;22 -->
<g id="edge31" class="edge"><title>19&#45;&gt;22</title>
<path fill="none" stroke="black" d="M197.01,-297.175C197.694,-308.806 198.613,-324.419 199.396,-337.734"/>
<polygon fill="black" stroke="black" points="195.907,-338.022 199.988,-347.799 202.895,-337.611 195.907,-338.022"/>
</g>
<!-- 20&#45;&gt;18 -->
<g id="edge6" class="edge"><title>20&#45;&gt;18</title>
<path fill="none" stroke="black" d="M229.686,-35.2381C219.738,-48.8408 203.37,-68.3465 189.6,-83.111"/>
<polygon fill="black" stroke="black" points="187.065,-80.6972 182.683,-90.3433 192.124,-85.5353 187.065,-80.6972"/>
</g>
<!-- 20&#45;&gt;19 -->
<g id="edge39" class="edge"><title>20&#45;&gt;19</title>
<path fill="none" stroke="black" d="M237.978,-36.0935C237.606,-69.7873 235.128,-146.98 221,-210 217.787,-224.333 212.303,-239.74 207.288,-252.258"/>
<polygon fill="black" stroke="black" points="204.011,-251.024 203.42,-261.603 210.479,-253.702 204.011,-251.024"/>
<text text-anchor="middle" x="235.5" y="-144.8" font-family="Times New Roman,serif" font-size="14.00">s</text>
</g>
<!-- 21 -->
<g id="node22" class="node"><title>21</title>
<ellipse fill="none" stroke="black" cx="418" cy="-453" rx="27" ry="18"/>
</g>
<!-- 21&#45;&gt;22 -->
<g id="edge36" class="edge"><title>21&#45;&gt;22</title>
<path fill="none" stroke="black" d="M400.34,-439.304C384.06,-428.111 358.873,-412.061 335,-402 302.975,-388.504 264.398,-379.091 236.876,-373.452"/>
<polygon fill="black" stroke="black" points="237.395,-369.987 226.905,-371.475 236.034,-376.853 237.395,-369.987"/>
<text text-anchor="middle" x="367.5" y="-405.8" font-family="Times New Roman,serif" font-size="14.00">s</text>
</g>
<!-- 23 -->
<g id="node24" class="node"><title>23</title>
<ellipse fill="none" stroke="black" cx="410" cy="-540" rx="27" ry="18"/>
<text text-anchor="middle" x="410" y="-536.3" font-family="Times New Roman,serif" font-size="14.00">e,p</text>
</g>
<!-- 21&#45;&gt;23 -->
<g id="edge46" class="edge"><title>21&#45;&gt;23</title>
<path fill="none" stroke="black" d="M416.383,-471.175C415.289,-482.806 413.819,-498.419 412.566,-511.734"/>
<polygon fill="black" stroke="black" points="409.071,-511.515 411.619,-521.799 416.041,-512.171 409.071,-511.515"/>
<text text-anchor="middle" x="418.5" y="-492.8" font-family="Times New Roman,serif" font-size="14.00">k</text>
</g>
<!-- 21&#45;&gt;24 -->
<g id="edge7" class="edge"><title>21&#45;&gt;24</title>
<path fill="none" stroke="black" d="M412.496,-435.207C411.184,-423.448 410.908,-407.485 411.668,-393.958"/>
<polygon fill="black" stroke="black" points="415.176,-394.01 412.5,-383.758 408.199,-393.441 415.176,-394.01"/>
</g>
<!-- 22&#45;&gt;19 -->
<g id="edge32" class="edge"><title>22&#45;&gt;19</title>
<path fill="none" stroke="black" d="M196.317,-348.042C194.964,-342.354 193.671,-335.946 193,-330 192.175,-322.685 192.223,-314.74 192.658,-307.382"/>
<polygon fill="black" stroke="black" points="196.167,-307.42 193.514,-297.163 189.191,-306.835 196.167,-307.42"/>
<text text-anchor="middle" x="195" y="-318.8" font-family="Times New Roman,serif" font-size="14.00">l</text>
</g>
<!-- 22&#45;&gt;21 -->
<g id="edge35" class="edge"><title>22&#45;&gt;21</title>
<path fill="none" stroke="black" d="M223.345,-376.215C248.604,-386.534 291.028,-403.571 328,-417 351.778,-425.637 358.52,-425.582 382,-435 383.828,-435.733 385.696,-436.514 387.571,-437.323"/>
<polygon fill="black" stroke="black" points="386.31,-440.593 396.866,-441.506 389.183,-434.21 386.31,-440.593"/>
<text text-anchor="middle" x="331.5" y="-405.8" font-family="Times New Roman,serif" font-size="14.00">s</text>
</g>
<!-- 22&#45;&gt;29 -->
<g id="edge9" class="edge"><title>22&#45;&gt;29</title>
<path fill="none" stroke="black" d="M205.904,-383.909C206.344,-401.044 204,-428.33 204,-452 204,-715 204,-715 204,-715 204,-770.236 277.718,-789.601 324.24,-796.374"/>
<polygon fill="black" stroke="black" points="323.912,-799.861 334.285,-797.705 324.831,-792.922 323.912,-799.861"/>
</g>
<!-- 23&#45;&gt;21 -->
<g id="edge47" class="edge"><title>23&#45;&gt;21</title>
<path fill="none" stroke="black" d="M418.6,-522.713C421.194,-516.963 423.697,-510.346 425,-504 426.533,-496.53 426.216,-488.363 425.129,-480.834"/>
<polygon fill="black" stroke="black" points="428.517,-479.917 423.192,-470.757 421.642,-481.238 428.517,-479.917"/>
<text text-anchor="middle" x="430.5" y="-492.8" font-family="Times New Roman,serif" font-size="14.00">k</text>
</g>
<!-- 23&#45;&gt;25 -->
<g id="edge25" class="edge"><title>23&#45;&gt;25</title>
<path fill="none" stroke="black" d="M410.606,-558.175C411.017,-569.806 411.568,-585.419 412.038,-598.734"/>
<polygon fill="black" stroke="black" points="408.542,-598.929 412.393,-608.799 415.538,-598.682 408.542,-598.929"/>
</g>
<!-- 26 -->
<g id="node27" class="node"><title>26</title>
<ellipse fill="none" stroke="black" cx="346" cy="-453" rx="27" ry="18"/>
<text text-anchor="middle" x="346" y="-449.3" font-family="Times New Roman,serif" font-size="14.00">e,k</text>
</g>
<!-- 23&#45;&gt;26 -->
<g id="edge27" class="edge"><title>23&#45;&gt;26</title>
<path fill="none" stroke="black" d="M392.728,-525.927C385.416,-519.814 377.179,-512.102 371,-504 365.416,-496.678 360.538,-487.916 356.608,-479.787"/>
<polygon fill="black" stroke="black" points="359.78,-478.305 352.446,-470.659 353.41,-481.209 359.78,-478.305"/>
</g>
<!-- 24&#45;&gt;13 -->
<g id="edge66" class="edge"><title>24&#45;&gt;13</title>
<path fill="none" stroke="black" d="M418,-347.799C418,-336.163 418,-320.548 418,-307.237"/>
<polygon fill="black" stroke="black" points="421.5,-307.175 418,-297.175 414.5,-307.175 421.5,-307.175"/>
<text text-anchor="middle" x="423" y="-318.8" font-family="Times New Roman,serif" font-size="14.00">K</text>
</g>
<!-- 24&#45;&gt;21 -->
<g id="edge8" class="edge"><title>24&#45;&gt;21</title>
<path fill="none" stroke="black" d="M423.5,-383.758C424.814,-395.508 425.092,-411.47 424.334,-425.002"/>
<polygon fill="black" stroke="black" points="420.826,-424.956 423.504,-435.207 427.803,-425.524 420.826,-424.956"/>
</g>
<!-- 25&#45;&gt;12 -->
<g id="edge16" class="edge"><title>25&#45;&gt;12</title>
<path fill="none" stroke="black" d="M416.368,-645.056C419.833,-689.031 418.726,-806.537 414.642,-859.929"/>
<polygon fill="black" stroke="black" points="411.146,-859.738 413.756,-870.006 418.119,-860.351 411.146,-859.738"/>
</g>
<!-- 25&#45;&gt;23 -->
<g id="edge26" class="edge"><title>25&#45;&gt;23</title>
<path fill="none" stroke="black" d="M410.657,-608.944C409.98,-603.249 409.334,-596.862 409,-591 408.582,-583.662 408.55,-575.709 408.694,-568.351"/>
<polygon fill="black" stroke="black" points="412.199,-568.239 409.007,-558.136 405.202,-568.024 412.199,-568.239"/>
<text text-anchor="middle" x="411" y="-579.8" font-family="Times New Roman,serif" font-size="14.00">l</text>
</g>
<!-- 28 -->
<g id="node29" class="node"><title>28</title>
<ellipse fill="none" stroke="black" cx="326" cy="-714" rx="27" ry="18"/>
<text text-anchor="middle" x="326" y="-710.3" font-family="Times New Roman,serif" font-size="14.00">e</text>
</g>
<!-- 25&#45;&gt;28 -->
<g id="edge42" class="edge"><title>25&#45;&gt;28</title>
<path fill="none" stroke="black" d="M402.04,-643.736C394.483,-654.042 383.874,-667.496 373,-678 366.929,-683.864 359.856,-689.604 353.069,-694.683"/>
<polygon fill="black" stroke="black" points="350.77,-692.026 344.721,-700.724 354.874,-697.697 350.77,-692.026"/>
<text text-anchor="middle" x="390.5" y="-666.8" font-family="Times New Roman,serif" font-size="14.00">s</text>
</g>
<!-- 26&#45;&gt;23 -->
<g id="edge28" class="edge"><title>26&#45;&gt;23</title>
<path fill="none" stroke="black" d="M357.664,-469.491C367.296,-482.283 381.124,-500.649 392.148,-515.29"/>
<polygon fill="black" stroke="black" points="389.45,-517.526 398.261,-523.41 395.042,-513.316 389.45,-517.526"/>
<text text-anchor="middle" x="384" y="-492.8" font-family="Times New Roman,serif" font-size="14.00">l</text>
</g>
<!-- 27 -->
<g id="node28" class="node"><title>27</title>
<ellipse fill="none" stroke="black" cx="259" cy="-627" rx="27" ry="18"/>
</g>
<!-- 27&#45;&gt;16 -->
<g id="edge43" class="edge"><title>27&#45;&gt;16</title>
<path fill="none" stroke="black" d="M259,-608.799C259,-597.163 259,-581.548 259,-568.237"/>
<polygon fill="black" stroke="black" points="262.5,-568.175 259,-558.175 255.5,-568.175 262.5,-568.175"/>
</g>
<!-- 27&#45;&gt;28 -->
<g id="edge14" class="edge"><title>27&#45;&gt;28</title>
<path fill="none" stroke="black" d="M275.022,-641.81C286.597,-654.333 301.736,-673.089 312.656,-688.206"/>
<polygon fill="black" stroke="black" points="309.938,-690.426 318.54,-696.611 315.673,-686.412 309.938,-690.426"/>
</g>
<!-- 28&#45;&gt;25 -->
<g id="edge41" class="edge"><title>28&#45;&gt;25</title>
<path fill="none" stroke="black" d="M337.713,-697.391C345.735,-687.138 356.895,-673.695 368,-663 373.685,-657.525 380.195,-652.064 386.465,-647.14"/>
<polygon fill="black" stroke="black" points="388.937,-649.656 394.765,-640.808 384.691,-644.091 388.937,-649.656"/>
<text text-anchor="middle" x="371.5" y="-666.8" font-family="Times New Roman,serif" font-size="14.00">s</text>
</g>
<!-- 28&#45;&gt;27 -->
<g id="edge13" class="edge"><title>28&#45;&gt;27</title>
<path fill="none" stroke="black" d="M310.12,-699.343C298.571,-686.868 283.424,-668.116 272.469,-652.967"/>
<polygon fill="black" stroke="black" points="275.167,-650.719 266.561,-644.539 269.435,-654.736 275.167,-650.719"/>
</g>
<!-- 28&#45;&gt;29 -->
<g id="edge24" class="edge"><title>28&#45;&gt;29</title>
<path fill="none" stroke="black" d="M332.781,-731.469C337.718,-743.458 344.505,-759.942 350.186,-773.738"/>
<polygon fill="black" stroke="black" points="347.041,-775.293 354.085,-783.207 353.514,-772.627 347.041,-775.293"/>
<text text-anchor="middle" x="348" y="-753.8" font-family="Times New Roman,serif" font-size="14.00">l</text>
</g>
<!-- 28&#45;&gt;30 -->
<g id="edge11" class="edge"><title>28&#45;&gt;30</title>
<path fill="none" stroke="black" d="M319.082,-696.498C311.11,-663.216 300.948,-585.779 286,-522 282.784,-508.279 278.265,-493.285 275.038,-480.877"/>
<polygon fill="black" stroke="black" points="278.439,-480.046 272.689,-471.147 271.634,-481.689 278.439,-480.046"/>
</g>
<!-- 29&#45;&gt;12 -->
<g id="edge33" class="edge"><title>29&#45;&gt;12</title>
<path fill="none" stroke="black" d="M370.342,-818.205C377.516,-830.65 387.547,-848.051 395.725,-862.238"/>
<polygon fill="black" stroke="black" points="392.757,-864.097 400.783,-871.012 398.821,-860.601 392.757,-864.097"/>
<text text-anchor="middle" x="392.5" y="-840.8" font-family="Times New Roman,serif" font-size="14.00">s</text>
</g>
<!-- 29&#45;&gt;14 -->
<g id="edge74" class="edge"><title>29&#45;&gt;14</title>
<path fill="none" stroke="black" d="M385.579,-793.326C418.548,-782.707 473,-758.572 473,-715 473,-715 473,-715 473,-104 473,-79.3598 456.633,-56.0875 441.92,-40.1452"/>
<polygon fill="black" stroke="black" points="444.39,-37.6643 434.91,-32.934 439.371,-42.5438 444.39,-37.6643"/>
</g>
<!-- 29&#45;&gt;22 -->
<g id="edge10" class="edge"><title>29&#45;&gt;22</title>
<path fill="none" stroke="black" d="M334.089,-798.73C284.801,-794.816 186,-778.946 186,-715 186,-715 186,-715 186,-452 186,-432.341 187.617,-410.187 190.431,-393.426"/>
<polygon fill="black" stroke="black" points="193.933,-393.761 192.448,-383.271 187.067,-392.397 193.933,-393.761"/>
</g>
<!-- 29&#45;&gt;28 -->
<g id="edge23" class="edge"><title>29&#45;&gt;28</title>
<path fill="none" stroke="black" d="M350.845,-784.014C347.415,-778.179 343.759,-771.431 341,-765 337.855,-757.671 335.1,-749.472 332.838,-741.868"/>
<polygon fill="black" stroke="black" points="336.142,-740.686 330.07,-732.005 329.403,-742.578 336.142,-740.686"/>
</g>
<!-- 30&#45;&gt;16 -->
<g id="edge29" class="edge"><title>30&#45;&gt;16</title>
<path fill="none" stroke="black" d="M268.5,-470.943C266.831,-476.63 265.14,-483.041 264,-489 262.596,-496.338 261.572,-504.362 260.831,-511.792"/>
<polygon fill="black" stroke="black" points="257.343,-511.5 259.961,-521.766 264.317,-512.108 257.343,-511.5"/>
</g>
<!-- 30&#45;&gt;28 -->
<g id="edge12" class="edge"><title>30&#45;&gt;28</title>
<path fill="none" stroke="black" d="M286.447,-469.227C293.028,-482.9 299.686,-503.595 304,-522 317.535,-579.751 327.147,-648.701 328.855,-685.927"/>
<polygon fill="black" stroke="black" points="325.358,-686.081 329.126,-695.983 332.355,-685.892 325.358,-686.081"/>
</g>
</g>
</svg>
