<?xml version="1.0" encoding="UTF-8" standalone="no"?>
<!DOCTYPE svg PUBLIC "-//W3C//DTD SVG 1.1//EN"
 "http://www.w3.org/Graphics/SVG/1.1/DTD/svg11.dtd">
<!-- Generated by graphviz version 2.38.0 (20140413.2041)
 -->
<!-- Title: %3 Pages: 1 -->
<svg width="533pt" height="872pt"
 viewBox="0.00 0.00 533.00 872.00" xmlns="http://www.w3.org/2000/svg" xmlns:xlink="http://www.w3.org/1999/xlink">
<g id="graph0" class="graph" transform="scale(1 1) rotate(0) translate(4 868)">
<title>%3</title>
<polygon fill="white" stroke="none" points="-4,4 -4,-868 529,-868 529,4 -4,4"/>
<!-- 0 -->
<g id="node1" class="node"><title>0</title>
<ellipse fill="none" stroke="black" cx="206" cy="-846" rx="28.6953" ry="18"/>
<text text-anchor="middle" x="206" y="-842.3" font-family="Times New Roman,serif" font-size="14.00">e,k,p</text>
</g>
<!-- 1 -->
<g id="node2" class="node"><title>1</title>
<ellipse fill="none" stroke="black" cx="246" cy="-759" rx="27" ry="18"/>
<text text-anchor="middle" x="246" y="-755.3" font-family="Times New Roman,serif" font-size="14.00">e,p</text>
</g>
<!-- 0&#45;&gt;1 -->
<g id="edge49" class="edge"><title>0&#45;&gt;1</title>
<path fill="none" stroke="black" d="M210.635,-827.908C213.597,-818.044 217.847,-805.544 223,-795 224.781,-791.356 226.878,-787.638 229.068,-784.052"/>
<polygon fill="black" stroke="black" points="232.091,-785.823 234.579,-775.525 226.212,-782.023 232.091,-785.823"/>
<text text-anchor="middle" x="226.5" y="-798.8" font-family="Times New Roman,serif" font-size="14.00">k</text>
</g>
<!-- 7 -->
<g id="node8" class="node"><title>7</title>
<ellipse fill="none" stroke="black" cx="161" cy="-759" rx="27" ry="18"/>
<text text-anchor="middle" x="161" y="-755.3" font-family="Times New Roman,serif" font-size="14.00">e,p</text>
</g>
<!-- 0&#45;&gt;7 -->
<g id="edge38" class="edge"><title>0&#45;&gt;7</title>
<path fill="none" stroke="black" d="M191.637,-830.25C186.465,-824.325 180.94,-817.199 177,-810 173.044,-802.773 169.887,-794.416 167.458,-786.628"/>
<polygon fill="black" stroke="black" points="170.782,-785.521 164.678,-776.861 164.049,-787.437 170.782,-785.521"/>
</g>
<!-- 1&#45;&gt;0 -->
<g id="edge50" class="edge"><title>1&#45;&gt;0</title>
<path fill="none" stroke="black" d="M240.879,-777.038C237.672,-786.884 233.172,-799.384 228,-810 226.33,-813.428 224.406,-816.94 222.405,-820.354"/>
<polygon fill="black" stroke="black" points="219.32,-818.688 217.05,-829.037 225.278,-822.363 219.32,-818.688"/>
<text text-anchor="middle" x="238.5" y="-798.8" font-family="Times New Roman,serif" font-size="14.00">k</text>
</g>
<!-- 2 -->
<g id="node3" class="node"><title>2</title>
<ellipse fill="none" stroke="black" cx="318" cy="-846" rx="27" ry="18"/>
<text text-anchor="middle" x="318" y="-842.3" font-family="Times New Roman,serif" font-size="14.00">b</text>
</g>
<!-- 2&#45;&gt;1 -->
<g id="edge36" class="edge"><title>2&#45;&gt;1</title>
<path fill="none" stroke="black" d="M305.128,-829.804C294.07,-816.75 277.964,-797.735 265.353,-782.847"/>
<polygon fill="black" stroke="black" points="267.895,-780.433 258.761,-775.065 262.554,-784.957 267.895,-780.433"/>
</g>
<!-- 3 -->
<g id="node4" class="node"><title>3</title>
<ellipse fill="none" stroke="black" cx="318" cy="-759" rx="27" ry="18"/>
<text text-anchor="middle" x="318" y="-755.3" font-family="Times New Roman,serif" font-size="14.00">t</text>
</g>
<!-- 2&#45;&gt;3 -->
<g id="edge34" class="edge"><title>2&#45;&gt;3</title>
<path fill="none" stroke="black" d="M312.496,-828.207C311.184,-816.448 310.908,-800.485 311.668,-786.958"/>
<polygon fill="black" stroke="black" points="315.176,-787.01 312.5,-776.758 308.199,-786.441 315.176,-787.01"/>
</g>
<!-- 3&#45;&gt;2 -->
<g id="edge35" class="edge"><title>3&#45;&gt;2</title>
<path fill="none" stroke="black" d="M323.5,-776.758C324.814,-788.508 325.092,-804.47 324.334,-818.002"/>
<polygon fill="black" stroke="black" points="320.826,-817.956 323.504,-828.207 327.803,-818.524 320.826,-817.956"/>
</g>
<!-- 4 -->
<g id="node5" class="node"><title>4</title>
<ellipse fill="none" stroke="black" cx="161" cy="-512" rx="27" ry="18"/>
<text text-anchor="middle" x="161" y="-508.3" font-family="Times New Roman,serif" font-size="14.00">e</text>
</g>
<!-- 5 -->
<g id="node6" class="node"><title>5</title>
<ellipse fill="none" stroke="black" cx="161" cy="-599" rx="27" ry="18"/>
<text text-anchor="middle" x="161" y="-595.3" font-family="Times New Roman,serif" font-size="14.00">e,p,i</text>
</g>
<!-- 4&#45;&gt;5 -->
<g id="edge47" class="edge"><title>4&#45;&gt;5</title>
<path fill="none" stroke="black" d="M161,-530.175C161,-541.806 161,-557.419 161,-570.734"/>
<polygon fill="black" stroke="black" points="157.5,-570.799 161,-580.799 164.5,-570.799 157.5,-570.799"/>
<text text-anchor="middle" x="164.5" y="-551.8" font-family="Times New Roman,serif" font-size="14.00">k</text>
</g>
<!-- 8 -->
<g id="node9" class="node"><title>8</title>
<ellipse fill="none" stroke="black" cx="107" cy="-352" rx="27" ry="18"/>
<text text-anchor="middle" x="107" y="-348.3" font-family="Times New Roman,serif" font-size="14.00">k</text>
</g>
<!-- 4&#45;&gt;8 -->
<g id="edge57" class="edge"><title>4&#45;&gt;8</title>
<path fill="none" stroke="black" d="M137.487,-502.966C123.652,-497.25 106.642,-488.375 95,-476 83.9605,-464.266 83.4106,-458.746 80,-443 76.6128,-427.363 76.324,-422.572 80,-407 82.3698,-396.961 86.9073,-386.661 91.5958,-377.784"/>
<polygon fill="black" stroke="black" points="94.8022,-379.222 96.6472,-368.789 88.6988,-375.795 94.8022,-379.222"/>
<text text-anchor="middle" x="83.5" y="-421.3" font-family="Times New Roman,serif" font-size="14.00">s</text>
</g>
<!-- 9 -->
<g id="node10" class="node"><title>9</title>
<ellipse fill="none" stroke="black" cx="295" cy="-425" rx="27" ry="18"/>
<text text-anchor="middle" x="295" y="-421.3" font-family="Times New Roman,serif" font-size="14.00">s</text>
</g>
<!-- 4&#45;&gt;9 -->
<g id="edge27" class="edge"><title>4&#45;&gt;9</title>
<path fill="none" stroke="black" d="M175.954,-496.697C187.616,-486.015 204.543,-471.508 221,-461 234.109,-452.63 249.533,-445.02 262.898,-439.05"/>
<polygon fill="black" stroke="black" points="264.427,-442.201 272.202,-435.005 261.636,-435.782 264.427,-442.201"/>
<text text-anchor="middle" x="223.5" y="-464.8" font-family="Times New Roman,serif" font-size="14.00">I</text>
</g>
<!-- 23 -->
<g id="node24" class="node"><title>23</title>
<ellipse fill="none" stroke="black" cx="161" cy="-425" rx="27" ry="18"/>
<text text-anchor="middle" x="161" y="-421.3" font-family="Times New Roman,serif" font-size="14.00">e</text>
</g>
<!-- 4&#45;&gt;23 -->
<g id="edge28" class="edge"><title>4&#45;&gt;23</title>
<path fill="none" stroke="black" d="M155.496,-494.207C154.184,-482.448 153.908,-466.485 154.668,-452.958"/>
<polygon fill="black" stroke="black" points="158.176,-453.01 155.5,-442.758 151.199,-452.441 158.176,-453.01"/>
</g>
<!-- 5&#45;&gt;4 -->
<g id="edge48" class="edge"><title>5&#45;&gt;4</title>
<path fill="none" stroke="black" d="M154.567,-581.157C152.706,-575.477 150.927,-569.044 150,-563 148.814,-555.269 149.743,-546.945 151.473,-539.349"/>
<polygon fill="black" stroke="black" points="154.886,-540.139 154.206,-529.566 148.144,-538.256 154.886,-540.139"/>
<text text-anchor="middle" x="153.5" y="-551.8" font-family="Times New Roman,serif" font-size="14.00">k</text>
</g>
<!-- 6 -->
<g id="node7" class="node"><title>6</title>
<ellipse fill="none" stroke="black" cx="161" cy="-672" rx="27" ry="18"/>
<text text-anchor="middle" x="161" y="-668.3" font-family="Times New Roman,serif" font-size="14.00">e,p</text>
</g>
<!-- 5&#45;&gt;6 -->
<g id="edge32" class="edge"><title>5&#45;&gt;6</title>
<path fill="none" stroke="black" d="M166.827,-616.705C167.708,-624.822 167.959,-634.78 167.577,-643.942"/>
<polygon fill="black" stroke="black" points="164.068,-643.948 166.84,-654.174 171.05,-644.452 164.068,-643.948"/>
</g>
<!-- 6&#45;&gt;5 -->
<g id="edge33" class="edge"><title>6&#45;&gt;5</title>
<path fill="none" stroke="black" d="M155.16,-654.174C154.285,-646.039 154.041,-636.076 154.428,-626.921"/>
<polygon fill="black" stroke="black" points="157.937,-626.933 155.173,-616.705 150.955,-626.424 157.937,-626.933"/>
</g>
<!-- 6&#45;&gt;7 -->
<g id="edge40" class="edge"><title>6&#45;&gt;7</title>
<path fill="none" stroke="black" d="M161,-690.175C161,-701.806 161,-717.419 161,-730.734"/>
<polygon fill="black" stroke="black" points="157.5,-730.799 161,-740.799 164.5,-730.799 157.5,-730.799"/>
</g>
<!-- 7&#45;&gt;0 -->
<g id="edge37" class="edge"><title>7&#45;&gt;0</title>
<path fill="none" stroke="black" d="M169.65,-776.339C176.117,-788.555 185.084,-805.491 192.493,-819.486"/>
<polygon fill="black" stroke="black" points="189.551,-821.411 197.324,-828.611 195.738,-818.136 189.551,-821.411"/>
<text text-anchor="middle" x="189" y="-798.8" font-family="Times New Roman,serif" font-size="14.00">l</text>
</g>
<!-- 7&#45;&gt;6 -->
<g id="edge39" class="edge"><title>7&#45;&gt;6</title>
<path fill="none" stroke="black" d="M159.103,-740.883C158.251,-731.231 157.532,-718.947 158,-708 158.109,-705.441 158.264,-702.779 158.445,-700.118"/>
<polygon fill="black" stroke="black" points="161.94,-700.317 159.242,-690.071 154.962,-699.763 161.94,-700.317"/>
<text text-anchor="middle" x="160" y="-711.8" font-family="Times New Roman,serif" font-size="14.00">l</text>
</g>
<!-- 8&#45;&gt;4 -->
<g id="edge58" class="edge"><title>8&#45;&gt;4</title>
<path fill="none" stroke="black" d="M106.879,-370.096C107.25,-388.588 109.324,-418.686 118,-443 123.721,-459.033 133.741,-475.212 142.669,-487.765"/>
<polygon fill="black" stroke="black" points="139.861,-489.854 148.61,-495.829 145.497,-485.702 139.861,-489.854"/>
<text text-anchor="middle" x="121.5" y="-421.3" font-family="Times New Roman,serif" font-size="14.00">s</text>
</g>
<!-- 8&#45;&gt;23 -->
<g id="edge31" class="edge"><title>8&#45;&gt;23</title>
<path fill="none" stroke="black" d="M123.134,-366.985C131.276,-376.085 140.829,-388.214 148.427,-398.945"/>
<polygon fill="black" stroke="black" points="145.754,-401.238 154.276,-407.533 151.54,-397.297 145.754,-401.238"/>
</g>
<!-- 9&#45;&gt;4 -->
<g id="edge26" class="edge"><title>9&#45;&gt;4</title>
<path fill="none" stroke="black" d="M277.85,-439.129C263.917,-449.578 243.596,-464.332 225,-476 214.131,-482.82 201.84,-489.724 190.956,-495.577"/>
<polygon fill="black" stroke="black" points="189.017,-492.643 181.824,-500.422 192.298,-498.827 189.017,-492.643"/>
<text text-anchor="middle" x="249.5" y="-464.8" font-family="Times New Roman,serif" font-size="14.00">I</text>
</g>
<!-- 11 -->
<g id="node12" class="node"><title>11</title>
<ellipse fill="none" stroke="black" cx="179" cy="-352" rx="27" ry="18"/>
<text text-anchor="middle" x="179" y="-348.3" font-family="Times New Roman,serif" font-size="14.00">e</text>
</g>
<!-- 9&#45;&gt;11 -->
<g id="edge5" class="edge"><title>9&#45;&gt;11</title>
<path fill="none" stroke="black" d="M270.484,-417.306C253.114,-411.02 230.245,-400.829 212,-389 206.183,-385.229 200.307,-380.722 195.07,-376.194"/>
<polygon fill="black" stroke="black" points="197.184,-373.382 187.465,-369.164 192.432,-378.522 197.184,-373.382"/>
</g>
<!-- 14 -->
<g id="node15" class="node"><title>14</title>
<ellipse fill="none" stroke="black" cx="336" cy="-178" rx="27" ry="18"/>
<text text-anchor="middle" x="336" y="-174.3" font-family="Times New Roman,serif" font-size="14.00">e,p</text>
</g>
<!-- 9&#45;&gt;14 -->
<g id="edge3" class="edge"><title>9&#45;&gt;14</title>
<path fill="none" stroke="black" d="M294.216,-406.772C297.421,-364.572 315.384,-255.811 327.202,-205.39"/>
<polygon fill="black" stroke="black" points="330.63,-206.108 329.623,-195.561 323.833,-204.434 330.63,-206.108"/>
</g>
<!-- 17 -->
<g id="node18" class="node"><title>17</title>
<ellipse fill="none" stroke="black" cx="498" cy="-178" rx="27" ry="18"/>
<text text-anchor="middle" x="498" y="-174.3" font-family="Times New Roman,serif" font-size="14.00">e,p</text>
</g>
<!-- 9&#45;&gt;17 -->
<g id="edge24" class="edge"><title>9&#45;&gt;17</title>
<path fill="none" stroke="black" d="M318.68,-415.865C344.176,-407.531 384.505,-392.576 414,-370 452.971,-340.171 464.468,-328.838 482,-283 491.512,-258.13 492.402,-227.492 493.148,-205.932"/>
<polygon fill="black" stroke="black" points="496.649,-205.986 493.555,-195.853 489.655,-205.704 496.649,-205.986"/>
</g>
<!-- 19 -->
<g id="node20" class="node"><title>19</title>
<ellipse fill="none" stroke="black" cx="385" cy="-352" rx="28.6953" ry="18"/>
<text text-anchor="middle" x="385" y="-348.3" font-family="Times New Roman,serif" font-size="14.00">e,p,k</text>
</g>
<!-- 9&#45;&gt;19 -->
<g id="edge1" class="edge"><title>9&#45;&gt;19</title>
<path fill="none" stroke="black" d="M307.422,-408.918C315.025,-402.834 324.538,-395.685 333,-389 340.406,-383.15 348.369,-376.568 355.894,-370.648"/>
<polygon fill="black" stroke="black" points="358.038,-373.415 363.84,-364.549 353.776,-367.862 358.038,-373.415"/>
</g>
<!-- 10 -->
<g id="node11" class="node"><title>10</title>
<ellipse fill="none" stroke="black" cx="82" cy="-178" rx="27" ry="18"/>
<text text-anchor="middle" x="82" y="-174.3" font-family="Times New Roman,serif" font-size="14.00">p,I</text>
</g>
<!-- 10&#45;&gt;11 -->
<g id="edge56" class="edge"><title>10&#45;&gt;11</title>
<path fill="none" stroke="black" d="M80.9643,-196.097C80.1728,-224.098 82.487,-280.196 110,-316 111.385,-317.803 130.607,-327.489 148.41,-336.216"/>
<polygon fill="black" stroke="black" points="146.967,-339.406 157.489,-340.645 150.036,-333.115 146.967,-339.406"/>
<text text-anchor="middle" x="96.5" y="-261.3" font-family="Times New Roman,serif" font-size="14.00">s</text>
</g>
<!-- 18 -->
<g id="node19" class="node"><title>18</title>
<ellipse fill="none" stroke="black" cx="179" cy="-265" rx="27" ry="18"/>
<text text-anchor="middle" x="179" y="-261.3" font-family="Times New Roman,serif" font-size="14.00">e,i,p</text>
</g>
<!-- 10&#45;&gt;18 -->
<g id="edge21" class="edge"><title>10&#45;&gt;18</title>
<path fill="none" stroke="black" d="M100.625,-191.045C117.663,-204.198 142.407,-225.549 159.64,-241.763"/>
<polygon fill="black" stroke="black" points="157.336,-244.404 166.974,-248.804 162.184,-239.354 157.336,-244.404"/>
</g>
<!-- 11&#45;&gt;9 -->
<g id="edge6" class="edge"><title>11&#45;&gt;9</title>
<path fill="none" stroke="black" d="M198.46,-364.631C207.872,-372.179 219.041,-381.895 230,-389 241.179,-396.248 254.095,-402.881 265.534,-408.378"/>
<polygon fill="black" stroke="black" points="264.187,-411.613 274.725,-412.717 267.176,-405.283 264.187,-411.613"/>
</g>
<!-- 11&#45;&gt;10 -->
<g id="edge55" class="edge"><title>11&#45;&gt;10</title>
<path fill="none" stroke="black" d="M157.953,-340.277C153.112,-338.031 147.935,-335.801 143,-334 113.632,-323.281 98.8817,-336.175 75,-316 40.2041,-286.604 51.4839,-257.499 65,-214 65.9822,-210.839 67.2112,-207.606 68.5566,-204.444"/>
<polygon fill="black" stroke="black" points="71.7591,-205.858 72.8112,-195.315 65.4143,-202.9 71.7591,-205.858"/>
<text text-anchor="middle" x="59.5" y="-261.3" font-family="Times New Roman,serif" font-size="14.00">s</text>
</g>
<!-- 12 -->
<g id="node13" class="node"><title>12</title>
<ellipse fill="none" stroke="black" cx="149" cy="-18" rx="27" ry="18"/>
<text text-anchor="middle" x="149" y="-14.3" font-family="Times New Roman,serif" font-size="14.00">e,k</text>
</g>
<!-- 11&#45;&gt;12 -->
<g id="edge43" class="edge"><title>11&#45;&gt;12</title>
<path fill="none" stroke="black" d="M158.4,-340.269C153.447,-337.972 148.109,-335.721 143,-334 76.3072,-311.533 0,-336.375 0,-266 0,-266 0,-266 0,-90 0,-40.5252 67.7768,-25.4903 111.907,-20.9445"/>
<polygon fill="black" stroke="black" points="112.368,-24.4173 122.017,-20.0411 111.745,-17.4451 112.368,-24.4173"/>
<text text-anchor="middle" x="3.5" y="-174.3" font-family="Times New Roman,serif" font-size="14.00">k</text>
</g>
<!-- 11&#45;&gt;18 -->
<g id="edge14" class="edge"><title>11&#45;&gt;18</title>
<path fill="none" stroke="black" d="M173.496,-334.207C172.184,-322.448 171.908,-306.485 172.668,-292.958"/>
<polygon fill="black" stroke="black" points="176.176,-293.01 173.5,-282.758 169.199,-292.441 176.176,-293.01"/>
</g>
<!-- 12&#45;&gt;11 -->
<g id="edge44" class="edge"><title>12&#45;&gt;11</title>
<path fill="none" stroke="black" d="M145.567,-36.0176C137.651,-78.4836 120.456,-192.234 143,-283 146.861,-298.544 155.002,-314.444 162.567,-326.956"/>
<polygon fill="black" stroke="black" points="159.608,-328.826 167.904,-335.416 165.528,-325.091 159.608,-328.826"/>
<text text-anchor="middle" x="136.5" y="-174.3" font-family="Times New Roman,serif" font-size="14.00">k</text>
</g>
<!-- 21 -->
<g id="node22" class="node"><title>21</title>
<ellipse fill="none" stroke="black" cx="210" cy="-91" rx="27" ry="18"/>
<text text-anchor="middle" x="210" y="-87.3" font-family="Times New Roman,serif" font-size="14.00">e,p,i</text>
</g>
<!-- 12&#45;&gt;21 -->
<g id="edge12" class="edge"><title>12&#45;&gt;21</title>
<path fill="none" stroke="black" d="M166.052,-32.5217C175.333,-41.8194 186.51,-54.4333 195.385,-65.4757"/>
<polygon fill="black" stroke="black" points="192.75,-67.7892 201.653,-73.5327 198.275,-63.4908 192.75,-67.7892"/>
</g>
<!-- 13 -->
<g id="node14" class="node"><title>13</title>
<ellipse fill="none" stroke="black" cx="336" cy="-18" rx="27" ry="18"/>
<text text-anchor="middle" x="336" y="-14.3" font-family="Times New Roman,serif" font-size="14.00">e,i</text>
</g>
<!-- 15 -->
<g id="node16" class="node"><title>15</title>
<ellipse fill="none" stroke="black" cx="336" cy="-91" rx="27" ry="18"/>
<text text-anchor="middle" x="336" y="-87.3" font-family="Times New Roman,serif" font-size="14.00">e,K</text>
</g>
<!-- 13&#45;&gt;15 -->
<g id="edge22" class="edge"><title>13&#45;&gt;15</title>
<path fill="none" stroke="black" d="M341.827,-35.7052C342.708,-43.8218 342.959,-53.7804 342.577,-62.9424"/>
<polygon fill="black" stroke="black" points="339.068,-62.9482 341.84,-73.174 346.05,-63.4515 339.068,-62.9482"/>
</g>
<!-- 14&#45;&gt;9 -->
<g id="edge4" class="edge"><title>14&#45;&gt;9</title>
<path fill="none" stroke="black" d="M336.78,-196.284C333.569,-238.438 315.684,-346.765 303.871,-397.299"/>
<polygon fill="black" stroke="black" points="300.435,-396.614 301.45,-407.16 307.233,-398.283 300.435,-396.614"/>
</g>
<!-- 14&#45;&gt;15 -->
<g id="edge42" class="edge"><title>14&#45;&gt;15</title>
<path fill="none" stroke="black" d="M333.47,-159.889C332.335,-150.238 331.376,-137.955 332,-127 332.146,-124.435 332.352,-121.77 332.594,-119.107"/>
<polygon fill="black" stroke="black" points="336.086,-119.369 333.657,-109.056 329.124,-118.633 336.086,-119.369"/>
</g>
<!-- 16 -->
<g id="node17" class="node"><title>16</title>
<ellipse fill="none" stroke="black" cx="383" cy="-265" rx="27" ry="18"/>
<text text-anchor="middle" x="383" y="-261.3" font-family="Times New Roman,serif" font-size="14.00">e,p</text>
</g>
<!-- 14&#45;&gt;16 -->
<g id="edge16" class="edge"><title>14&#45;&gt;16</title>
<path fill="none" stroke="black" d="M349.52,-193.903C357.672,-205.903 367.51,-223.075 374.612,-237.419"/>
<polygon fill="black" stroke="black" points="371.605,-239.248 379.037,-246.799 377.936,-236.262 371.605,-239.248"/>
</g>
<!-- 15&#45;&gt;13 -->
<g id="edge23" class="edge"><title>15&#45;&gt;13</title>
<path fill="none" stroke="black" d="M330.16,-73.174C329.285,-65.0392 329.041,-55.0756 329.428,-45.9214"/>
<polygon fill="black" stroke="black" points="332.937,-45.9333 330.173,-35.7052 325.955,-45.4242 332.937,-45.9333"/>
</g>
<!-- 15&#45;&gt;14 -->
<g id="edge41" class="edge"><title>15&#45;&gt;14</title>
<path fill="none" stroke="black" d="M336,-109.175C336,-120.806 336,-136.419 336,-149.734"/>
<polygon fill="black" stroke="black" points="332.5,-149.799 336,-159.799 339.5,-149.799 332.5,-149.799"/>
<text text-anchor="middle" x="338" y="-130.8" font-family="Times New Roman,serif" font-size="14.00">l</text>
</g>
<!-- 16&#45;&gt;14 -->
<g id="edge17" class="edge"><title>16&#45;&gt;14</title>
<path fill="none" stroke="black" d="M369.546,-249.194C361.345,-237.137 351.421,-219.811 344.293,-205.39"/>
<polygon fill="black" stroke="black" points="347.286,-203.529 339.861,-195.971 340.952,-206.51 347.286,-203.529"/>
</g>
<!-- 16&#45;&gt;17 -->
<g id="edge53" class="edge"><title>16&#45;&gt;17</title>
<path fill="none" stroke="black" d="M404.639,-254.036C417.478,-247.677 433.775,-238.805 447,-229 457.894,-220.923 468.789,-210.621 477.695,-201.469"/>
<polygon fill="black" stroke="black" points="480.319,-203.789 484.665,-194.126 475.242,-198.97 480.319,-203.789"/>
<text text-anchor="middle" x="467.5" y="-217.8" font-family="Times New Roman,serif" font-size="14.00">s</text>
</g>
<!-- 16&#45;&gt;19 -->
<g id="edge19" class="edge"><title>16&#45;&gt;19</title>
<path fill="none" stroke="black" d="M388.894,-282.758C390.485,-294.508 391.138,-310.47 390.699,-324.002"/>
<polygon fill="black" stroke="black" points="387.192,-324.021 390.109,-334.207 394.18,-324.425 387.192,-324.021"/>
</g>
<!-- 17&#45;&gt;9 -->
<g id="edge25" class="edge"><title>17&#45;&gt;9</title>
<path fill="none" stroke="black" d="M506.019,-195.487C510.449,-216.544 511.184,-253.759 500,-283 482.468,-328.838 470.971,-340.171 432,-370 401.847,-393.08 360.37,-408.195 330.809,-416.413"/>
<polygon fill="black" stroke="black" points="329.662,-413.096 320.887,-419.034 331.45,-419.864 329.662,-413.096"/>
</g>
<!-- 17&#45;&gt;16 -->
<g id="edge54" class="edge"><title>17&#45;&gt;16</title>
<path fill="none" stroke="black" d="M477.45,-189.897C465.818,-196.379 451.203,-205.063 439,-214 427.218,-222.629 415.022,-233.283 405.031,-242.536"/>
<polygon fill="black" stroke="black" points="402.421,-240.186 397.542,-249.591 407.221,-245.282 402.421,-240.186"/>
<text text-anchor="middle" x="442.5" y="-217.8" font-family="Times New Roman,serif" font-size="14.00">s</text>
</g>
<!-- 18&#45;&gt;10 -->
<g id="edge20" class="edge"><title>18&#45;&gt;10</title>
<path fill="none" stroke="black" d="M160.202,-251.822C143.205,-238.685 118.636,-217.484 101.466,-201.337"/>
<polygon fill="black" stroke="black" points="103.792,-198.717 94.1523,-194.321 98.9461,-203.769 103.792,-198.717"/>
</g>
<!-- 18&#45;&gt;11 -->
<g id="edge15" class="edge"><title>18&#45;&gt;11</title>
<path fill="none" stroke="black" d="M184.5,-282.758C185.814,-294.508 186.092,-310.47 185.334,-324.002"/>
<polygon fill="black" stroke="black" points="181.826,-323.956 184.504,-334.207 188.803,-324.524 181.826,-323.956"/>
</g>
<!-- 22 -->
<g id="node23" class="node"><title>22</title>
<ellipse fill="none" stroke="black" cx="210" cy="-178" rx="33.2948" ry="18"/>
<text text-anchor="middle" x="210" y="-174.3" font-family="Times New Roman,serif" font-size="14.00">e,p,i,k</text>
</g>
<!-- 18&#45;&gt;22 -->
<g id="edge52" class="edge"><title>18&#45;&gt;22</title>
<path fill="none" stroke="black" d="M177.989,-246.799C177.985,-236.899 178.985,-224.399 183,-214 184.555,-209.973 186.73,-206.026 189.178,-202.318"/>
<polygon fill="black" stroke="black" points="192.072,-204.291 195.22,-194.175 186.45,-200.12 192.072,-204.291"/>
<text text-anchor="middle" x="186.5" y="-217.8" font-family="Times New Roman,serif" font-size="14.00">k</text>
</g>
<!-- 19&#45;&gt;9 -->
<g id="edge2" class="edge"><title>19&#45;&gt;9</title>
<path fill="none" stroke="black" d="M374.714,-369.006C367.863,-375.331 359.099,-382.603 351,-389 342.857,-395.432 333.741,-402.295 325.152,-408.224"/>
<polygon fill="black" stroke="black" points="323.176,-405.335 316.793,-413.792 327.056,-411.161 323.176,-405.335"/>
</g>
<!-- 19&#45;&gt;16 -->
<g id="edge18" class="edge"><title>19&#45;&gt;16</title>
<path fill="none" stroke="black" d="M379.101,-334.207C377.512,-322.448 376.861,-306.485 377.303,-292.958"/>
<polygon fill="black" stroke="black" points="380.809,-292.944 377.894,-282.758 373.821,-292.539 380.809,-292.944"/>
</g>
<!-- 20 -->
<g id="node21" class="node"><title>20</title>
<ellipse fill="none" stroke="black" cx="455" cy="-265" rx="27" ry="18"/>
<text text-anchor="middle" x="455" y="-261.3" font-family="Times New Roman,serif" font-size="14.00">p,i,e</text>
</g>
<!-- 19&#45;&gt;20 -->
<g id="edge45" class="edge"><title>19&#45;&gt;20</title>
<path fill="none" stroke="black" d="M397.515,-335.804C408.265,-322.75 423.924,-303.735 436.185,-288.847"/>
<polygon fill="black" stroke="black" points="438.938,-291.009 442.594,-281.065 433.535,-286.559 438.938,-291.009"/>
<text text-anchor="middle" x="428.5" y="-304.8" font-family="Times New Roman,serif" font-size="14.00">k</text>
</g>
<!-- 20&#45;&gt;19 -->
<g id="edge46" class="edge"><title>20&#45;&gt;19</title>
<path fill="none" stroke="black" d="M450.04,-282.964C446.452,-293.259 440.848,-306.247 433,-316 427.726,-322.553 420.94,-328.484 414.142,-333.523"/>
<polygon fill="black" stroke="black" points="411.867,-330.84 405.635,-339.409 415.85,-336.597 411.867,-330.84"/>
<text text-anchor="middle" x="445.5" y="-304.8" font-family="Times New Roman,serif" font-size="14.00">k</text>
</g>
<!-- 21&#45;&gt;12 -->
<g id="edge13" class="edge"><title>21&#45;&gt;12</title>
<path fill="none" stroke="black" d="M193.115,-76.6454C183.768,-67.2984 172.462,-54.5411 163.519,-43.4038"/>
<polygon fill="black" stroke="black" points="166.111,-41.0354 157.212,-35.2861 160.583,-45.3302 166.111,-41.0354"/>
</g>
<!-- 24 -->
<g id="node25" class="node"><title>24</title>
<ellipse fill="none" stroke="black" cx="224" cy="-18" rx="27" ry="18"/>
<text text-anchor="middle" x="224" y="-14.3" font-family="Times New Roman,serif" font-size="14.00">e,p</text>
</g>
<!-- 21&#45;&gt;24 -->
<g id="edge11" class="edge"><title>21&#45;&gt;24</title>
<path fill="none" stroke="black" d="M207.511,-72.8129C208.284,-64.4637 210.08,-54.2536 212.348,-44.9795"/>
<polygon fill="black" stroke="black" points="215.8,-45.6259 215.08,-35.0556 209.051,-43.768 215.8,-45.6259"/>
</g>
<!-- 22&#45;&gt;9 -->
<g id="edge8" class="edge"><title>22&#45;&gt;9</title>
<path fill="none" stroke="black" d="M210.605,-196.268C212.602,-233.784 221.182,-324.537 258,-389 261.09,-394.411 265.283,-399.495 269.737,-404.022"/>
<polygon fill="black" stroke="black" points="267.621,-406.834 277.33,-411.074 272.385,-401.704 267.621,-406.834"/>
</g>
<!-- 22&#45;&gt;18 -->
<g id="edge51" class="edge"><title>22&#45;&gt;18</title>
<path fill="none" stroke="black" d="M203.888,-195.758C199.518,-207.741 193.55,-224.104 188.554,-237.803"/>
<polygon fill="black" stroke="black" points="185.263,-236.613 185.125,-247.207 191.839,-239.011 185.263,-236.613"/>
<text text-anchor="middle" x="200.5" y="-217.8" font-family="Times New Roman,serif" font-size="14.00">k</text>
</g>
<!-- 22&#45;&gt;21 -->
<g id="edge9" class="edge"><title>22&#45;&gt;21</title>
<path fill="none" stroke="black" d="M210,-159.799C210,-148.163 210,-132.548 210,-119.237"/>
<polygon fill="black" stroke="black" points="213.5,-119.175 210,-109.175 206.5,-119.175 213.5,-119.175"/>
</g>
<!-- 23&#45;&gt;4 -->
<g id="edge29" class="edge"><title>23&#45;&gt;4</title>
<path fill="none" stroke="black" d="M166.5,-442.758C167.814,-454.508 168.092,-470.47 167.334,-484.002"/>
<polygon fill="black" stroke="black" points="163.826,-483.956 166.504,-494.207 170.803,-484.524 163.826,-483.956"/>
</g>
<!-- 23&#45;&gt;8 -->
<g id="edge30" class="edge"><title>23&#45;&gt;8</title>
<path fill="none" stroke="black" d="M145.13,-410.31C136.909,-401.153 127.2,-388.834 119.509,-377.965"/>
<polygon fill="black" stroke="black" points="122.364,-375.939 113.84,-369.646 116.579,-379.881 122.364,-375.939"/>
</g>
<!-- 24&#45;&gt;9 -->
<g id="edge7" class="edge"><title>24&#45;&gt;9</title>
<path fill="none" stroke="black" d="M240.251,-32.4121C254.176,-45.5012 272,-66.7888 272,-90 272,-353 272,-353 272,-353 272,-368.591 277.081,-385.211 282.467,-398.449"/>
<polygon fill="black" stroke="black" points="279.358,-400.075 286.566,-407.84 285.773,-397.274 279.358,-400.075"/>
</g>
<!-- 24&#45;&gt;21 -->
<g id="edge10" class="edge"><title>24&#45;&gt;21</title>
<path fill="none" stroke="black" d="M226.503,-36.0373C225.732,-44.4764 223.907,-54.8442 221.601,-64.2291"/>
<polygon fill="black" stroke="black" points="218.222,-63.3184 218.938,-73.889 224.97,-65.179 218.222,-63.3184"/>
</g>
</g>
</svg>
