<?xml version="1.0" encoding="UTF-8" standalone="no"?>
<!DOCTYPE svg PUBLIC "-//W3C//DTD SVG 1.1//EN"
 "http://www.w3.org/Graphics/SVG/1.1/DTD/svg11.dtd">
<!-- Generated by graphviz version 2.38.0 (20140413.2041)
 -->
<!-- Title: %3 Pages: 1 -->
<svg width="286pt" height="931pt"
 viewBox="0.00 0.00 285.60 931.00" xmlns="http://www.w3.org/2000/svg" xmlns:xlink="http://www.w3.org/1999/xlink">
<g id="graph0" class="graph" transform="scale(1 1) rotate(0) translate(4 927)">
<title>%3</title>
<polygon fill="white" stroke="none" points="-4,4 -4,-927 281.597,-927 281.597,4 -4,4"/>
<!-- 0 -->
<g id="node1" class="node"><title>0</title>
<ellipse fill="none" stroke="black" cx="145.597" cy="-905" rx="27" ry="18"/>
<text text-anchor="middle" x="145.597" y="-901.3" font-family="Times New Roman,serif" font-size="14.00">e,K</text>
</g>
<!-- 12 -->
<g id="node13" class="node"><title>12</title>
<ellipse fill="none" stroke="black" cx="145.597" cy="-832" rx="27" ry="18"/>
<text text-anchor="middle" x="145.597" y="-828.3" font-family="Times New Roman,serif" font-size="14.00">e,p</text>
</g>
<!-- 0&#45;&gt;12 -->
<g id="edge2" class="edge"><title>0&#45;&gt;12</title>
<path fill="none" stroke="black" d="M139.758,-887.174C138.882,-879.039 138.638,-869.076 139.026,-859.921"/>
<polygon fill="black" stroke="black" points="142.534,-859.933 139.771,-849.705 135.553,-859.424 142.534,-859.933"/>
</g>
<!-- 1 -->
<g id="node2" class="node"><title>1</title>
<ellipse fill="none" stroke="black" cx="28.5975" cy="-571" rx="28.6953" ry="18"/>
<text text-anchor="middle" x="28.5975" y="-567.3" font-family="Times New Roman,serif" font-size="14.00">e,p,k</text>
</g>
<!-- 10 -->
<g id="node11" class="node"><title>10</title>
<ellipse fill="none" stroke="black" cx="145.597" cy="-658" rx="27" ry="18"/>
<text text-anchor="middle" x="145.597" y="-654.3" font-family="Times New Roman,serif" font-size="14.00">e,p,i</text>
</g>
<!-- 1&#45;&gt;10 -->
<g id="edge5" class="edge"><title>1&#45;&gt;10</title>
<path fill="none" stroke="black" d="M49.1991,-583.486C69.9807,-597.005 101.607,-619.717 123.026,-636.325"/>
<polygon fill="black" stroke="black" points="120.946,-639.142 130.967,-642.581 125.278,-633.643 120.946,-639.142"/>
</g>
<!-- 2 -->
<g id="node3" class="node"><title>2</title>
<ellipse fill="none" stroke="black" cx="192.597" cy="-91" rx="27" ry="18"/>
<text text-anchor="middle" x="192.597" y="-87.3" font-family="Times New Roman,serif" font-size="14.00">b</text>
</g>
<!-- 6 -->
<g id="node7" class="node"><title>6</title>
<ellipse fill="none" stroke="black" cx="192.597" cy="-18" rx="27" ry="18"/>
<text text-anchor="middle" x="192.597" y="-14.3" font-family="Times New Roman,serif" font-size="14.00">t</text>
</g>
<!-- 2&#45;&gt;6 -->
<g id="edge26" class="edge"><title>2&#45;&gt;6</title>
<path fill="none" stroke="black" d="M186.758,-73.174C185.882,-65.0392 185.638,-55.0756 186.026,-45.9214"/>
<polygon fill="black" stroke="black" points="189.534,-45.9333 186.771,-35.7052 182.553,-45.4242 189.534,-45.9333"/>
</g>
<!-- 9 -->
<g id="node10" class="node"><title>9</title>
<ellipse fill="none" stroke="black" cx="192.597" cy="-164" rx="27" ry="18"/>
<text text-anchor="middle" x="192.597" y="-160.3" font-family="Times New Roman,serif" font-size="14.00">e,p,i</text>
</g>
<!-- 2&#45;&gt;9 -->
<g id="edge25" class="edge"><title>2&#45;&gt;9</title>
<path fill="none" stroke="black" d="M198.424,-108.705C199.306,-116.822 199.556,-126.78 199.175,-135.942"/>
<polygon fill="black" stroke="black" points="195.665,-135.948 198.437,-146.174 202.647,-136.452 195.665,-135.948"/>
</g>
<!-- 3 -->
<g id="node4" class="node"><title>3</title>
<ellipse fill="none" stroke="black" cx="135.597" cy="-484" rx="27" ry="18"/>
<text text-anchor="middle" x="135.597" y="-480.3" font-family="Times New Roman,serif" font-size="14.00">e,p</text>
</g>
<!-- 4 -->
<g id="node5" class="node"><title>4</title>
<ellipse fill="none" stroke="black" cx="168.597" cy="-397" rx="27" ry="18"/>
</g>
<!-- 3&#45;&gt;4 -->
<g id="edge13" class="edge"><title>3&#45;&gt;4</title>
<path fill="none" stroke="black" d="M133.003,-465.739C132.222,-455.819 132.472,-443.319 136.597,-433 138.572,-428.062 141.587,-423.387 144.992,-419.158"/>
<polygon fill="black" stroke="black" points="147.709,-421.373 151.85,-411.621 142.531,-416.662 147.709,-421.373"/>
<text text-anchor="middle" x="141.597" y="-436.8" font-family="Times New Roman,serif" font-size="14.00">K</text>
</g>
<!-- 5 -->
<g id="node6" class="node"><title>5</title>
<ellipse fill="none" stroke="black" cx="102.597" cy="-571" rx="27" ry="18"/>
<text text-anchor="middle" x="102.597" y="-567.3" font-family="Times New Roman,serif" font-size="14.00">e,p</text>
</g>
<!-- 3&#45;&gt;5 -->
<g id="edge12" class="edge"><title>3&#45;&gt;5</title>
<path fill="none" stroke="black" d="M129.091,-501.758C124.439,-513.741 118.087,-530.104 112.768,-543.803"/>
<polygon fill="black" stroke="black" points="109.474,-542.618 109.117,-553.207 115.999,-545.151 109.474,-542.618"/>
<text text-anchor="middle" x="125.097" y="-523.8" font-family="Times New Roman,serif" font-size="14.00">k</text>
</g>
<!-- 3&#45;&gt;10 -->
<g id="edge15" class="edge"><title>3&#45;&gt;10</title>
<path fill="none" stroke="black" d="M136.589,-502.052C138.323,-531.88 141.921,-593.764 144.007,-629.643"/>
<polygon fill="black" stroke="black" points="140.527,-630.099 144.602,-639.879 147.516,-629.693 140.527,-630.099"/>
</g>
<!-- 4&#45;&gt;3 -->
<g id="edge14" class="edge"><title>4&#45;&gt;3</title>
<path fill="none" stroke="black" d="M162.091,-414.758C157.439,-426.741 151.087,-443.104 145.768,-456.803"/>
<polygon fill="black" stroke="black" points="142.474,-455.618 142.117,-466.207 148.999,-458.151 142.474,-455.618"/>
<text text-anchor="middle" x="159.597" y="-436.8" font-family="Times New Roman,serif" font-size="14.00">K</text>
</g>
<!-- 7 -->
<g id="node8" class="node"><title>7</title>
<ellipse fill="none" stroke="black" cx="192.597" cy="-237" rx="27" ry="18"/>
<text text-anchor="middle" x="192.597" y="-233.3" font-family="Times New Roman,serif" font-size="14.00">e,p,i</text>
</g>
<!-- 4&#45;&gt;7 -->
<g id="edge19" class="edge"><title>4&#45;&gt;7</title>
<path fill="none" stroke="black" d="M162.443,-379.39C160.788,-351.794 168.686,-296.311 178.431,-263.654"/>
<polygon fill="black" stroke="black" points="181.834,-264.511 181.651,-253.918 175.188,-262.313 181.834,-264.511"/>
</g>
<!-- 8 -->
<g id="node9" class="node"><title>8</title>
<ellipse fill="none" stroke="black" cx="245.597" cy="-324" rx="27" ry="18"/>
<text text-anchor="middle" x="245.597" y="-320.3" font-family="Times New Roman,serif" font-size="14.00">I</text>
</g>
<!-- 4&#45;&gt;8 -->
<g id="edge20" class="edge"><title>4&#45;&gt;8</title>
<path fill="none" stroke="black" d="M183.81,-381.973C194.989,-371.665 210.364,-357.488 222.98,-345.855"/>
<polygon fill="black" stroke="black" points="225.437,-348.35 230.416,-338.998 220.692,-343.204 225.437,-348.35"/>
</g>
<!-- 4&#45;&gt;10 -->
<g id="edge16" class="edge"><title>4&#45;&gt;10</title>
<path fill="none" stroke="black" d="M169.558,-415.04C170.282,-428.79 171.215,-448.633 171.597,-466 173.132,-535.595 173.007,-554.115 157.597,-622 156.944,-624.878 156.139,-627.85 155.257,-630.789"/>
<polygon fill="black" stroke="black" points="151.871,-629.883 152.076,-640.476 158.522,-632.067 151.871,-629.883"/>
</g>
<!-- 5&#45;&gt;3 -->
<g id="edge11" class="edge"><title>5&#45;&gt;3</title>
<path fill="none" stroke="black" d="M103.393,-552.807C104.325,-542.91 106.325,-530.41 110.597,-520 112.224,-516.036 114.377,-512.091 116.74,-508.356"/>
<polygon fill="black" stroke="black" points="119.64,-510.316 122.481,-500.109 113.895,-506.316 119.64,-510.316"/>
<text text-anchor="middle" x="112.597" y="-523.8" font-family="Times New Roman,serif" font-size="14.00">l</text>
</g>
<!-- 5&#45;&gt;10 -->
<g id="edge9" class="edge"><title>5&#45;&gt;10</title>
<path fill="none" stroke="black" d="M110.863,-588.339C117.043,-600.555 125.611,-617.491 132.691,-631.486"/>
<polygon fill="black" stroke="black" points="129.669,-633.268 137.307,-640.611 135.916,-630.108 129.669,-633.268"/>
<text text-anchor="middle" x="131.097" y="-610.8" font-family="Times New Roman,serif" font-size="14.00">k</text>
</g>
<!-- 6&#45;&gt;2 -->
<g id="edge27" class="edge"><title>6&#45;&gt;2</title>
<path fill="none" stroke="black" d="M198.424,-35.7052C199.306,-43.8218 199.556,-53.7804 199.175,-62.9424"/>
<polygon fill="black" stroke="black" points="195.665,-62.9482 198.437,-73.174 202.647,-63.4515 195.665,-62.9482"/>
</g>
<!-- 7&#45;&gt;4 -->
<g id="edge17" class="edge"><title>7&#45;&gt;4</title>
<path fill="none" stroke="black" d="M189.987,-255.188C185.841,-282.481 177.716,-335.97 172.76,-368.594"/>
<polygon fill="black" stroke="black" points="169.253,-368.378 171.212,-378.79 176.174,-369.43 169.253,-368.378"/>
</g>
<!-- 7&#45;&gt;4 -->
<g id="edge18" class="edge"><title>7&#45;&gt;4</title>
<path fill="none" stroke="black" d="M198.752,-254.61C200.41,-282.265 192.476,-337.924 182.702,-370.553"/>
<polygon fill="black" stroke="black" points="179.304,-369.679 179.473,-380.273 185.947,-371.886 179.304,-369.679"/>
</g>
<!-- 7&#45;&gt;8 -->
<g id="edge30" class="edge"><title>7&#45;&gt;8</title>
<path fill="none" stroke="black" d="M209.179,-251.711C215.618,-257.71 222.625,-265.164 227.597,-273 232.116,-280.12 235.703,-288.53 238.447,-296.401"/>
<polygon fill="black" stroke="black" points="235.115,-297.475 241.479,-305.945 241.787,-295.355 235.115,-297.475"/>
<text text-anchor="middle" x="239.097" y="-276.8" font-family="Times New Roman,serif" font-size="14.00">s</text>
</g>
<!-- 7&#45;&gt;9 -->
<g id="edge23" class="edge"><title>7&#45;&gt;9</title>
<path fill="none" stroke="black" d="M186.758,-219.174C185.882,-211.039 185.638,-201.076 186.026,-191.921"/>
<polygon fill="black" stroke="black" points="189.534,-191.933 186.771,-181.705 182.553,-191.424 189.534,-191.933"/>
</g>
<!-- 8&#45;&gt;7 -->
<g id="edge31" class="edge"><title>8&#45;&gt;7</title>
<path fill="none" stroke="black" d="M234.925,-307.059C230.995,-301.112 226.543,-294.28 222.597,-288 217.511,-279.903 212.094,-270.975 207.283,-262.931"/>
<polygon fill="black" stroke="black" points="210.279,-261.121 202.158,-254.315 204.263,-264.699 210.279,-261.121"/>
<text text-anchor="middle" x="226.097" y="-276.8" font-family="Times New Roman,serif" font-size="14.00">s</text>
</g>
<!-- 8&#45;&gt;9 -->
<g id="edge21" class="edge"><title>8&#45;&gt;9</title>
<path fill="none" stroke="black" d="M247.465,-305.768C248.135,-296.08 248.35,-283.798 246.597,-273 242.545,-248.028 239.712,-241.726 228.597,-219 223.496,-208.568 216.667,-197.784 210.329,-188.621"/>
<polygon fill="black" stroke="black" points="213.125,-186.515 204.474,-180.398 207.423,-190.575 213.125,-186.515"/>
</g>
<!-- 9&#45;&gt;2 -->
<g id="edge24" class="edge"><title>9&#45;&gt;2</title>
<path fill="none" stroke="black" d="M186.758,-146.174C185.882,-138.039 185.638,-128.076 186.026,-118.921"/>
<polygon fill="black" stroke="black" points="189.534,-118.933 186.771,-108.705 182.553,-118.424 189.534,-118.933"/>
</g>
<!-- 9&#45;&gt;7 -->
<g id="edge22" class="edge"><title>9&#45;&gt;7</title>
<path fill="none" stroke="black" d="M198.424,-181.705C199.306,-189.822 199.556,-199.78 199.175,-208.942"/>
<polygon fill="black" stroke="black" points="195.665,-208.948 198.437,-219.174 202.647,-209.452 195.665,-208.948"/>
</g>
<!-- 10&#45;&gt;1 -->
<g id="edge6" class="edge"><title>10&#45;&gt;1</title>
<path fill="none" stroke="black" d="M125.57,-645.888C104.869,-632.46 72.9959,-609.588 51.3818,-592.84"/>
<polygon fill="black" stroke="black" points="53.3893,-589.966 43.3668,-586.531 49.0595,-595.466 53.3893,-589.966"/>
</g>
<!-- 10&#45;&gt;5 -->
<g id="edge10" class="edge"><title>10&#45;&gt;5</title>
<path fill="none" stroke="black" d="M128.261,-643.72C121.706,-637.787 114.817,-630.266 110.597,-622 107.025,-615.002 104.972,-606.796 103.813,-599.079"/>
<polygon fill="black" stroke="black" points="107.28,-598.584 102.727,-589.017 100.32,-599.335 107.28,-598.584"/>
<text text-anchor="middle" x="114.097" y="-610.8" font-family="Times New Roman,serif" font-size="14.00">k</text>
</g>
<!-- 11 -->
<g id="node12" class="node"><title>11</title>
<ellipse fill="none" stroke="black" cx="250.597" cy="-571" rx="27" ry="18"/>
<text text-anchor="middle" x="250.597" y="-567.3" font-family="Times New Roman,serif" font-size="14.00">s</text>
</g>
<!-- 10&#45;&gt;11 -->
<g id="edge29" class="edge"><title>10&#45;&gt;11</title>
<path fill="none" stroke="black" d="M164.658,-644.988C175.82,-639.023 189.581,-631.133 200.597,-622 210.49,-613.799 219.733,-602.935 227.734,-593.429"/>
<polygon fill="black" stroke="black" points="230.636,-595.418 234.431,-585.527 225.296,-590.893 230.636,-595.418"/>
</g>
<!-- 13 -->
<g id="node14" class="node"><title>13</title>
<ellipse fill="none" stroke="black" cx="145.597" cy="-745" rx="27" ry="18"/>
<text text-anchor="middle" x="145.597" y="-741.3" font-family="Times New Roman,serif" font-size="14.00">p</text>
</g>
<!-- 10&#45;&gt;13 -->
<g id="edge8" class="edge"><title>10&#45;&gt;13</title>
<path fill="none" stroke="black" d="M145.597,-676.175C145.597,-687.806 145.597,-703.419 145.597,-716.734"/>
<polygon fill="black" stroke="black" points="142.098,-716.799 145.597,-726.799 149.098,-716.799 142.098,-716.799"/>
<text text-anchor="middle" x="149.097" y="-697.8" font-family="Times New Roman,serif" font-size="14.00">k</text>
</g>
<!-- 11&#45;&gt;10 -->
<g id="edge28" class="edge"><title>11&#45;&gt;10</title>
<path fill="none" stroke="black" d="M246.854,-589.172C240.549,-599.545 230.005,-612.543 218.597,-622 207.065,-631.561 192.526,-639.759 179.333,-645.812"/>
<polygon fill="black" stroke="black" points="177.82,-642.653 170.026,-649.83 180.595,-649.08 177.82,-642.653"/>
</g>
<!-- 12&#45;&gt;0 -->
<g id="edge1" class="edge"><title>12&#45;&gt;0</title>
<path fill="none" stroke="black" d="M151.424,-849.705C152.306,-857.822 152.556,-867.78 152.175,-876.942"/>
<polygon fill="black" stroke="black" points="148.665,-876.948 151.437,-887.174 155.647,-877.452 148.665,-876.948"/>
</g>
<!-- 12&#45;&gt;13 -->
<g id="edge3" class="edge"><title>12&#45;&gt;13</title>
<path fill="none" stroke="black" d="M143.84,-813.929C143.332,-808.234 142.848,-801.849 142.597,-796 142.283,-788.645 142.504,-780.687 142.942,-773.328"/>
<polygon fill="black" stroke="black" points="146.45,-773.349 143.7,-763.117 139.469,-772.83 146.45,-773.349"/>
<text text-anchor="middle" x="144.597" y="-784.8" font-family="Times New Roman,serif" font-size="14.00">l</text>
</g>
<!-- 13&#45;&gt;10 -->
<g id="edge7" class="edge"><title>13&#45;&gt;10</title>
<path fill="none" stroke="black" d="M138.709,-727.556C136.633,-721.794 134.632,-715.209 133.597,-709 132.306,-701.251 133.32,-692.921 135.208,-685.326"/>
<polygon fill="black" stroke="black" points="138.621,-686.133 138.189,-675.547 131.925,-684.092 138.621,-686.133"/>
<text text-anchor="middle" x="137.097" y="-697.8" font-family="Times New Roman,serif" font-size="14.00">k</text>
</g>
<!-- 13&#45;&gt;12 -->
<g id="edge4" class="edge"><title>13&#45;&gt;12</title>
<path fill="none" stroke="black" d="M145.597,-763.175C145.597,-774.806 145.597,-790.419 145.597,-803.734"/>
<polygon fill="black" stroke="black" points="142.098,-803.799 145.597,-813.799 149.098,-803.799 142.098,-803.799"/>
</g>
</g>
</svg>
