<?xml version="1.0" encoding="UTF-8" standalone="no"?>
<!DOCTYPE svg PUBLIC "-//W3C//DTD SVG 1.1//EN"
 "http://www.w3.org/Graphics/SVG/1.1/DTD/svg11.dtd">
<!-- Generated by graphviz version 2.38.0 (20140413.2041)
 -->
<!-- Title: %3 Pages: 1 -->
<svg width="166pt" height="1032pt"
 viewBox="0.00 0.00 166.00 1032.00" xmlns="http://www.w3.org/2000/svg" xmlns:xlink="http://www.w3.org/1999/xlink">
<g id="graph0" class="graph" transform="scale(1 1) rotate(0) translate(4 1028)">
<title>%3</title>
<polygon fill="white" stroke="none" points="-4,4 -4,-1028 162,-1028 162,4 -4,4"/>
<!-- 0 -->
<g id="node1" class="node"><title>0</title>
<ellipse fill="none" stroke="black" cx="50" cy="-1006" rx="27" ry="18"/>
<text text-anchor="middle" x="50" y="-1002.3" font-family="Times New Roman,serif" font-size="14.00">e</text>
</g>
<!-- 7 -->
<g id="node8" class="node"><title>7</title>
<ellipse fill="none" stroke="black" cx="27" cy="-919" rx="27" ry="18"/>
<text text-anchor="middle" x="27" y="-915.3" font-family="Times New Roman,serif" font-size="14.00">e</text>
</g>
<!-- 0&#45;&gt;7 -->
<g id="edge14" class="edge"><title>0&#45;&gt;7</title>
<path fill="none" stroke="black" d="M40.2624,-989.012C35.6802,-977.209 30.9489,-960.863 27.9809,-947.042"/>
<polygon fill="black" stroke="black" points="31.3936,-946.253 26.0867,-937.083 24.5168,-947.561 31.3936,-946.253"/>
</g>
<!-- 10 -->
<g id="node11" class="node"><title>10</title>
<ellipse fill="none" stroke="black" cx="99" cy="-919" rx="27" ry="18"/>
<text text-anchor="middle" x="99" y="-915.3" font-family="Times New Roman,serif" font-size="14.00">e,p</text>
</g>
<!-- 0&#45;&gt;10 -->
<g id="edge15" class="edge"><title>0&#45;&gt;10</title>
<path fill="none" stroke="black" d="M59.2165,-989.012C66.3573,-976.625 76.3822,-959.235 84.582,-945.011"/>
<polygon fill="black" stroke="black" points="87.6961,-946.617 89.6582,-936.205 81.6316,-943.121 87.6961,-946.617"/>
<text text-anchor="middle" x="80" y="-958.8" font-family="Times New Roman,serif" font-size="14.00">l</text>
</g>
<!-- 1 -->
<g id="node2" class="node"><title>1</title>
<ellipse fill="none" stroke="black" cx="131" cy="-18" rx="27" ry="18"/>
<text text-anchor="middle" x="131" y="-14.3" font-family="Times New Roman,serif" font-size="14.00">t</text>
</g>
<!-- 19 -->
<g id="node20" class="node"><title>19</title>
<ellipse fill="none" stroke="black" cx="131" cy="-91" rx="27" ry="18"/>
<text text-anchor="middle" x="131" y="-87.3" font-family="Times New Roman,serif" font-size="14.00">b</text>
</g>
<!-- 1&#45;&gt;19 -->
<g id="edge38" class="edge"><title>1&#45;&gt;19</title>
<path fill="none" stroke="black" d="M136.827,-35.7052C137.708,-43.8218 137.959,-53.7804 137.577,-62.9424"/>
<polygon fill="black" stroke="black" points="134.068,-62.9482 136.84,-73.174 141.05,-63.4515 134.068,-62.9482"/>
</g>
<!-- 2 -->
<g id="node3" class="node"><title>2</title>
<ellipse fill="none" stroke="black" cx="131" cy="-411" rx="27" ry="18"/>
<text text-anchor="middle" x="131" y="-407.3" font-family="Times New Roman,serif" font-size="14.00">e,p</text>
</g>
<!-- 8 -->
<g id="node9" class="node"><title>8</title>
<ellipse fill="none" stroke="black" cx="131" cy="-484" rx="27" ry="18"/>
<text text-anchor="middle" x="131" y="-480.3" font-family="Times New Roman,serif" font-size="14.00">e</text>
</g>
<!-- 2&#45;&gt;8 -->
<g id="edge28" class="edge"><title>2&#45;&gt;8</title>
<path fill="none" stroke="black" d="M136.827,-428.705C137.708,-436.822 137.959,-446.78 137.577,-455.942"/>
<polygon fill="black" stroke="black" points="134.068,-455.948 136.84,-466.174 141.05,-456.452 134.068,-455.948"/>
</g>
<!-- 12 -->
<g id="node13" class="node"><title>12</title>
<ellipse fill="none" stroke="black" cx="131" cy="-338" rx="27" ry="18"/>
<text text-anchor="middle" x="131" y="-334.3" font-family="Times New Roman,serif" font-size="14.00">e,p</text>
</g>
<!-- 2&#45;&gt;12 -->
<g id="edge29" class="edge"><title>2&#45;&gt;12</title>
<path fill="none" stroke="black" d="M125.16,-393.174C124.285,-385.039 124.041,-375.076 124.428,-365.921"/>
<polygon fill="black" stroke="black" points="127.937,-365.933 125.173,-355.705 120.955,-365.424 127.937,-365.933"/>
</g>
<!-- 3 -->
<g id="node4" class="node"><title>3</title>
<ellipse fill="none" stroke="black" cx="117" cy="-658" rx="27" ry="18"/>
<text text-anchor="middle" x="117" y="-654.3" font-family="Times New Roman,serif" font-size="14.00">e</text>
</g>
<!-- 9 -->
<g id="node10" class="node"><title>9</title>
<ellipse fill="none" stroke="black" cx="124" cy="-571" rx="27" ry="18"/>
<text text-anchor="middle" x="124" y="-567.3" font-family="Times New Roman,serif" font-size="14.00">e,i,k</text>
</g>
<!-- 3&#45;&gt;9 -->
<g id="edge23" class="edge"><title>3&#45;&gt;9</title>
<path fill="none" stroke="black" d="M110.699,-640.273C107.848,-630.531 105.598,-618.031 108,-607 108.675,-603.901 109.649,-600.748 110.789,-597.668"/>
<polygon fill="black" stroke="black" points="114.112,-598.799 114.831,-588.229 107.677,-596.044 114.112,-598.799"/>
<text text-anchor="middle" x="110" y="-610.8" font-family="Times New Roman,serif" font-size="14.00">l</text>
</g>
<!-- 11 -->
<g id="node12" class="node"><title>11</title>
<ellipse fill="none" stroke="black" cx="114" cy="-745" rx="27" ry="18"/>
<text text-anchor="middle" x="114" y="-741.3" font-family="Times New Roman,serif" font-size="14.00">e</text>
</g>
<!-- 3&#45;&gt;11 -->
<g id="edge22" class="edge"><title>3&#45;&gt;11</title>
<path fill="none" stroke="black" d="M116.394,-676.175C115.983,-687.806 115.432,-703.419 114.962,-716.734"/>
<polygon fill="black" stroke="black" points="111.462,-716.682 114.607,-726.799 118.458,-716.929 111.462,-716.682"/>
<text text-anchor="middle" x="117" y="-697.8" font-family="Times New Roman,serif" font-size="14.00">l</text>
</g>
<!-- 4 -->
<g id="node5" class="node"><title>4</title>
<ellipse fill="none" stroke="black" cx="30" cy="-832" rx="28.6953" ry="18"/>
<text text-anchor="middle" x="30" y="-828.3" font-family="Times New Roman,serif" font-size="14.00">e,p,k</text>
</g>
<!-- 5 -->
<g id="node6" class="node"><title>5</title>
<ellipse fill="none" stroke="black" cx="36" cy="-745" rx="27" ry="18"/>
<text text-anchor="middle" x="36" y="-741.3" font-family="Times New Roman,serif" font-size="14.00">e</text>
</g>
<!-- 4&#45;&gt;5 -->
<g id="edge12" class="edge"><title>4&#45;&gt;5</title>
<path fill="none" stroke="black" d="M31.2142,-813.799C32.0356,-802.163 33.1378,-786.548 34.0774,-773.237"/>
<polygon fill="black" stroke="black" points="37.5747,-773.397 34.7876,-763.175 30.5921,-772.904 37.5747,-773.397"/>
</g>
<!-- 4&#45;&gt;7 -->
<g id="edge10" class="edge"><title>4&#45;&gt;7</title>
<path fill="none" stroke="black" d="M31.6237,-850.139C32.3036,-859.798 32.776,-872.081 32,-883 31.8172,-885.572 31.5599,-888.241 31.2573,-890.908"/>
<polygon fill="black" stroke="black" points="27.769,-890.59 29.9285,-900.962 34.7086,-891.507 27.769,-890.59"/>
<text text-anchor="middle" x="36.5" y="-871.8" font-family="Times New Roman,serif" font-size="14.00">k</text>
</g>
<!-- 5&#45;&gt;4 -->
<g id="edge11" class="edge"><title>5&#45;&gt;4</title>
<path fill="none" stroke="black" d="M36.1726,-763.15C36.1406,-772.813 35.8846,-785.096 35,-796 34.7915,-798.57 34.5169,-801.238 34.2034,-803.904"/>
<polygon fill="black" stroke="black" points="30.7155,-803.581 32.8596,-813.957 37.6538,-804.509 30.7155,-803.581"/>
<text text-anchor="middle" x="38" y="-784.8" font-family="Times New Roman,serif" font-size="14.00">l</text>
</g>
<!-- 17 -->
<g id="node18" class="node"><title>17</title>
<ellipse fill="none" stroke="black" cx="42" cy="-658" rx="27" ry="18"/>
<text text-anchor="middle" x="42" y="-654.3" font-family="Times New Roman,serif" font-size="14.00">e,k</text>
</g>
<!-- 5&#45;&gt;17 -->
<g id="edge8" class="edge"><title>5&#45;&gt;17</title>
<path fill="none" stroke="black" d="M34.6543,-726.836C34.1474,-717.169 33.922,-704.886 35,-694 35.2565,-691.41 35.6172,-688.728 36.0411,-686.053"/>
<polygon fill="black" stroke="black" points="39.5255,-686.458 37.9018,-675.988 32.6421,-685.185 39.5255,-686.458"/>
<text text-anchor="middle" x="38.5" y="-697.8" font-family="Times New Roman,serif" font-size="14.00">k</text>
</g>
<!-- 6 -->
<g id="node7" class="node"><title>6</title>
<ellipse fill="none" stroke="black" cx="107" cy="-832" rx="27" ry="18"/>
<text text-anchor="middle" x="107" y="-828.3" font-family="Times New Roman,serif" font-size="14.00">e,k</text>
</g>
<!-- 6&#45;&gt;10 -->
<g id="edge17" class="edge"><title>6&#45;&gt;10</title>
<path fill="none" stroke="black" d="M105.383,-850.175C104.289,-861.806 102.819,-877.419 101.566,-890.734"/>
<polygon fill="black" stroke="black" points="98.0714,-890.515 100.619,-900.799 105.041,-891.171 98.0714,-890.515"/>
</g>
<!-- 6&#45;&gt;11 -->
<g id="edge19" class="edge"><title>6&#45;&gt;11</title>
<path fill="none" stroke="black" d="M97.8907,-814.793C93.531,-805.011 89.8719,-792.294 93,-781 94.0049,-777.372 95.4971,-773.743 97.231,-770.268"/>
<polygon fill="black" stroke="black" points="100.294,-771.962 102.217,-761.543 94.2167,-768.489 100.294,-771.962"/>
<text text-anchor="middle" x="96.5" y="-784.8" font-family="Times New Roman,serif" font-size="14.00">k</text>
</g>
<!-- 7&#45;&gt;0 -->
<g id="edge13" class="edge"><title>7&#45;&gt;0</title>
<path fill="none" stroke="black" d="M36.7521,-936.025C41.3189,-947.798 46.0317,-964.074 48.9978,-977.859"/>
<polygon fill="black" stroke="black" points="45.5822,-978.632 50.8943,-987.799 52.4581,-977.32 45.5822,-978.632"/>
</g>
<!-- 7&#45;&gt;4 -->
<g id="edge9" class="edge"><title>7&#45;&gt;4</title>
<path fill="none" stroke="black" d="M26.6384,-900.868C26.5252,-891.211 26.5325,-878.928 27,-868 27.1095,-865.441 27.2638,-862.779 27.4453,-860.118"/>
<polygon fill="black" stroke="black" points="30.9404,-860.317 28.2425,-850.071 23.9623,-859.763 30.9404,-860.317"/>
<text text-anchor="middle" x="30.5" y="-871.8" font-family="Times New Roman,serif" font-size="14.00">k</text>
</g>
<!-- 8&#45;&gt;2 -->
<g id="edge27" class="edge"><title>8&#45;&gt;2</title>
<path fill="none" stroke="black" d="M125.16,-466.174C124.285,-458.039 124.041,-448.076 124.428,-438.921"/>
<polygon fill="black" stroke="black" points="127.937,-438.933 125.173,-428.705 120.955,-438.424 127.937,-438.933"/>
</g>
<!-- 8&#45;&gt;9 -->
<g id="edge26" class="edge"><title>8&#45;&gt;9</title>
<path fill="none" stroke="black" d="M129.586,-502.175C128.628,-513.806 127.342,-529.419 126.245,-542.734"/>
<polygon fill="black" stroke="black" points="122.749,-542.545 125.417,-552.799 129.726,-543.12 122.749,-542.545"/>
<text text-anchor="middle" x="130.5" y="-523.8" font-family="Times New Roman,serif" font-size="14.00">k</text>
</g>
<!-- 9&#45;&gt;3 -->
<g id="edge24" class="edge"><title>9&#45;&gt;3</title>
<path fill="none" stroke="black" d="M122.586,-589.175C121.628,-600.806 120.342,-616.419 119.245,-629.734"/>
<polygon fill="black" stroke="black" points="115.749,-629.545 118.417,-639.799 122.726,-630.12 115.749,-629.545"/>
<text text-anchor="middle" x="122" y="-610.8" font-family="Times New Roman,serif" font-size="14.00">l</text>
</g>
<!-- 9&#45;&gt;8 -->
<g id="edge25" class="edge"><title>9&#45;&gt;8</title>
<path fill="none" stroke="black" d="M114.891,-553.793C110.531,-544.011 106.872,-531.294 110,-520 111.005,-516.372 112.497,-512.743 114.231,-509.268"/>
<polygon fill="black" stroke="black" points="117.294,-510.962 119.217,-500.543 111.217,-507.489 117.294,-510.962"/>
<text text-anchor="middle" x="113.5" y="-523.8" font-family="Times New Roman,serif" font-size="14.00">k</text>
</g>
<!-- 10&#45;&gt;0 -->
<g id="edge16" class="edge"><title>10&#45;&gt;0</title>
<path fill="none" stroke="black" d="M95.5617,-936.997C93.0508,-947.06 89.0189,-959.794 83,-970 80.1364,-974.856 76.4886,-979.584 72.6693,-983.915"/>
<polygon fill="black" stroke="black" points="70.0818,-981.557 65.7416,-991.222 75.1617,-986.373 70.0818,-981.557"/>
</g>
<!-- 10&#45;&gt;6 -->
<g id="edge18" class="edge"><title>10&#45;&gt;6</title>
<path fill="none" stroke="black" d="M96.802,-900.801C95.9425,-891.122 95.4817,-878.84 97,-868 97.3813,-865.278 97.9217,-862.47 98.5562,-859.684"/>
<polygon fill="black" stroke="black" points="101.975,-860.448 101.15,-849.885 95.2077,-858.656 101.975,-860.448"/>
<text text-anchor="middle" x="99" y="-871.8" font-family="Times New Roman,serif" font-size="14.00">l</text>
</g>
<!-- 11&#45;&gt;3 -->
<g id="edge21" class="edge"><title>11&#45;&gt;3</title>
<path fill="none" stroke="black" d="M107.497,-727.364C104.496,-717.652 101.996,-705.152 104,-694 104.527,-691.069 105.283,-688.063 106.169,-685.104"/>
<polygon fill="black" stroke="black" points="109.567,-685.99 109.541,-675.395 102.954,-683.693 109.567,-685.99"/>
<text text-anchor="middle" x="106" y="-697.8" font-family="Times New Roman,serif" font-size="14.00">l</text>
</g>
<!-- 11&#45;&gt;6 -->
<g id="edge20" class="edge"><title>11&#45;&gt;6</title>
<path fill="none" stroke="black" d="M112.586,-763.175C111.628,-774.806 110.342,-790.419 109.245,-803.734"/>
<polygon fill="black" stroke="black" points="105.749,-803.545 108.417,-813.799 112.726,-804.12 105.749,-803.545"/>
<text text-anchor="middle" x="113.5" y="-784.8" font-family="Times New Roman,serif" font-size="14.00">k</text>
</g>
<!-- 12&#45;&gt;2 -->
<g id="edge30" class="edge"><title>12&#45;&gt;2</title>
<path fill="none" stroke="black" d="M136.827,-355.705C137.708,-363.822 137.959,-373.78 137.577,-382.942"/>
<polygon fill="black" stroke="black" points="134.068,-382.948 136.84,-393.174 141.05,-383.452 134.068,-382.948"/>
</g>
<!-- 18 -->
<g id="node19" class="node"><title>18</title>
<ellipse fill="none" stroke="black" cx="131" cy="-265" rx="27" ry="18"/>
</g>
<!-- 12&#45;&gt;18 -->
<g id="edge31" class="edge"><title>12&#45;&gt;18</title>
<path fill="none" stroke="black" d="M125.16,-320.174C124.285,-312.039 124.041,-302.076 124.428,-292.921"/>
<polygon fill="black" stroke="black" points="127.937,-292.933 125.173,-282.705 120.955,-292.424 127.937,-292.933"/>
</g>
<!-- 13 -->
<g id="node14" class="node"><title>13</title>
<ellipse fill="none" stroke="black" cx="131" cy="-178" rx="27" ry="18"/>
<text text-anchor="middle" x="131" y="-174.3" font-family="Times New Roman,serif" font-size="14.00">p</text>
</g>
<!-- 13&#45;&gt;18 -->
<g id="edge34" class="edge"><title>13&#45;&gt;18</title>
<path fill="none" stroke="black" d="M131,-196.175C131,-207.806 131,-223.419 131,-236.734"/>
<polygon fill="black" stroke="black" points="127.5,-236.799 131,-246.799 134.5,-236.799 127.5,-236.799"/>
</g>
<!-- 13&#45;&gt;19 -->
<g id="edge35" class="edge"><title>13&#45;&gt;19</title>
<path fill="none" stroke="black" d="M129.242,-159.929C128.735,-154.234 128.25,-147.849 128,-142 127.685,-134.645 127.907,-126.687 128.344,-119.328"/>
<polygon fill="black" stroke="black" points="131.852,-119.349 129.103,-109.117 124.872,-118.83 131.852,-119.349"/>
<text text-anchor="middle" x="130" y="-130.8" font-family="Times New Roman,serif" font-size="14.00">l</text>
</g>
<!-- 14 -->
<g id="node15" class="node"><title>14</title>
<ellipse fill="none" stroke="black" cx="53" cy="-411" rx="27" ry="18"/>
<text text-anchor="middle" x="53" y="-407.3" font-family="Times New Roman,serif" font-size="14.00">s</text>
</g>
<!-- 16 -->
<g id="node17" class="node"><title>16</title>
<ellipse fill="none" stroke="black" cx="53" cy="-484" rx="27" ry="18"/>
</g>
<!-- 14&#45;&gt;16 -->
<g id="edge1" class="edge"><title>14&#45;&gt;16</title>
<path fill="none" stroke="black" d="M58.8269,-428.705C59.7084,-436.822 59.9586,-446.78 59.5774,-455.942"/>
<polygon fill="black" stroke="black" points="56.068,-455.948 58.8399,-466.174 63.0499,-456.452 56.068,-455.948"/>
</g>
<!-- 15 -->
<g id="node16" class="node"><title>15</title>
<ellipse fill="none" stroke="black" cx="48" cy="-571" rx="27" ry="18"/>
<text text-anchor="middle" x="48" y="-567.3" font-family="Times New Roman,serif" font-size="14.00">e</text>
</g>
<!-- 15&#45;&gt;16 -->
<g id="edge4" class="edge"><title>15&#45;&gt;16</title>
<path fill="none" stroke="black" d="M49.0118,-552.799C49.6963,-541.163 50.6148,-525.548 51.3978,-512.237"/>
<polygon fill="black" stroke="black" points="54.8963,-512.364 51.9897,-502.175 47.9084,-511.953 54.8963,-512.364"/>
</g>
<!-- 15&#45;&gt;17 -->
<g id="edge6" class="edge"><title>15&#45;&gt;17</title>
<path fill="none" stroke="black" d="M47.0807,-589.132C46.5353,-598.789 45.7961,-611.072 45,-622 44.8139,-624.555 44.6081,-627.213 44.3941,-629.873"/>
<polygon fill="black" stroke="black" points="40.8998,-629.66 43.5523,-639.917 47.8753,-630.244 40.8998,-629.66"/>
</g>
<!-- 16&#45;&gt;14 -->
<g id="edge2" class="edge"><title>16&#45;&gt;14</title>
<path fill="none" stroke="black" d="M47.1601,-466.174C46.2848,-458.039 46.0409,-448.076 46.4283,-438.921"/>
<polygon fill="black" stroke="black" points="49.9366,-438.933 47.1731,-428.705 42.9552,-438.424 49.9366,-438.933"/>
</g>
<!-- 16&#45;&gt;15 -->
<g id="edge3" class="edge"><title>16&#45;&gt;15</title>
<path fill="none" stroke="black" d="M53.054,-502.142C52.9849,-511.802 52.7313,-524.085 52,-535 51.8283,-537.563 51.6053,-540.227 51.3524,-542.89"/>
<polygon fill="black" stroke="black" points="47.861,-542.623 50.2745,-552.939 54.8211,-543.37 47.861,-542.623"/>
<text text-anchor="middle" x="55" y="-523.8" font-family="Times New Roman,serif" font-size="14.00">l</text>
</g>
<!-- 17&#45;&gt;5 -->
<g id="edge7" class="edge"><title>17&#45;&gt;5</title>
<path fill="none" stroke="black" d="M41.627,-676.143C41.3384,-685.803 40.8408,-698.086 40,-709 39.8027,-711.561 39.5625,-714.224 39.2987,-716.886"/>
<polygon fill="black" stroke="black" points="35.8077,-716.614 38.2059,-726.934 42.7667,-717.371 35.8077,-716.614"/>
<text text-anchor="middle" x="44.5" y="-697.8" font-family="Times New Roman,serif" font-size="14.00">k</text>
</g>
<!-- 17&#45;&gt;15 -->
<g id="edge5" class="edge"><title>17&#45;&gt;15</title>
<path fill="none" stroke="black" d="M43.2142,-639.799C44.0356,-628.163 45.1378,-612.548 46.0774,-599.237"/>
<polygon fill="black" stroke="black" points="49.5747,-599.397 46.7876,-589.175 42.5921,-598.904 49.5747,-599.397"/>
<text text-anchor="middle" x="48" y="-610.8" font-family="Times New Roman,serif" font-size="14.00">l</text>
</g>
<!-- 18&#45;&gt;12 -->
<g id="edge32" class="edge"><title>18&#45;&gt;12</title>
<path fill="none" stroke="black" d="M136.827,-282.705C137.708,-290.822 137.959,-300.78 137.577,-309.942"/>
<polygon fill="black" stroke="black" points="134.068,-309.948 136.84,-320.174 141.05,-310.452 134.068,-309.948"/>
</g>
<!-- 18&#45;&gt;13 -->
<g id="edge33" class="edge"><title>18&#45;&gt;13</title>
<path fill="none" stroke="black" d="M129.242,-246.929C128.735,-241.234 128.25,-234.849 128,-229 127.685,-221.645 127.907,-213.687 128.344,-206.328"/>
<polygon fill="black" stroke="black" points="131.852,-206.349 129.103,-196.117 124.872,-205.83 131.852,-206.349"/>
<text text-anchor="middle" x="130" y="-217.8" font-family="Times New Roman,serif" font-size="14.00">l</text>
</g>
<!-- 19&#45;&gt;1 -->
<g id="edge37" class="edge"><title>19&#45;&gt;1</title>
<path fill="none" stroke="black" d="M125.16,-73.174C124.285,-65.0392 124.041,-55.0756 124.428,-45.9214"/>
<polygon fill="black" stroke="black" points="127.937,-45.9333 125.173,-35.7052 120.955,-45.4242 127.937,-45.9333"/>
</g>
<!-- 19&#45;&gt;13 -->
<g id="edge36" class="edge"><title>19&#45;&gt;13</title>
<path fill="none" stroke="black" d="M131,-109.175C131,-120.806 131,-136.419 131,-149.734"/>
<polygon fill="black" stroke="black" points="127.5,-149.799 131,-159.799 134.5,-149.799 127.5,-149.799"/>
</g>
</g>
</svg>
